<?xml version="1.0" encoding="utf-8"?>
<!-- Generator: Adobe Illustrator 20.1.0, SVG Export Plug-In . SVG Version: 6.00 Build 0)  -->
<svg version="1.1" id="Layer_1" xmlns="http://www.w3.org/2000/svg" xmlns:xlink="http://www.w3.org/1999/xlink" x="0px" y="0px"
	 viewBox="0 0 747 100" style="enable-background:new 0 0 747 100;" xml:space="preserve">
<style type="text/css">
	.st0{fill:#DB1932;}
</style>
<title>220</title>
<desc>Created with Sketch.</desc>
<g id="Logos">
	<g id="_x32_20">
		<polygon id="Fill-1" points="246.8,0 246.8,18.4 265.8,18.4 265.8,99.9 287.1,99.9 287.1,18.4 306.1,18.4 306.1,0 		"/>
		<polygon id="Fill-2" points="372,99.9 393.3,99.9 393.3,0 372,0 		"/>
		<polygon id="Fill-3" points="310.1,0 310.1,55.9 331.4,44.6 331.4,18.4 346.6,18.4 346.6,40.2 331.4,48.3 331.4,48.3 310.1,59.5 
			310.1,99.9 331.4,99.9 331.4,69.3 338.9,65.3 346.2,99.9 367.6,99.9 358.1,55.1 366.9,50.4 367.8,50 367.8,48.9 367.9,9.7 
			357.3,0 		"/>
		<polygon id="Fill-4" points="452.9,0 452.9,18.4 471.9,18.4 471.9,99.9 493.2,99.9 493.2,18.4 512.1,18.4 512.1,0 		"/>
		<path d="M670,0h-37.3l-8.9,8.2v83.3l9.1,8.4h37.1l8.7-8V7.8L670,0z M657.3,81.6h-12.2V18.5h12.2V81.6z"/>
		<polygon id="Fill-6" points="579.4,0 579.4,81.7 579.4,99.9 619.7,99.9 619.7,81.7 600.7,81.7 600.7,0 		"/>
		<path id="Fill-7" d="M554,0l0,34.4l-16.6,8.8l0,0l-21.2,11.2l0,45.5l21.3,0l0-35.8l16.5-8.7l0,44.5l21.3,0l0-41.4l0-58.5H554z
			 M516.2,50.8l21.3-11.3l0-39.4l-21.3,0L516.2,50.8z"/>
		<polygon id="Fill-8" points="443.3,0 422.1,0 397,99.9 417.1,99.9 421.2,83.7 441.5,73 448.3,99.9 468.4,99.9 454.6,45 
			427.3,59.5 432.7,38 436,51.3 453.8,41.8 		"/>
		<polygon id="Fill-9" points="682.8,0.1 682.8,100 704.1,100 704.1,46.5 723.7,100 746.2,100 746.2,0.2 725,0.2 725,50.1 
			706.2,0.1 		"/>
		<path id="Fill-10" class="st0" d="M40,0v20.9h0v2.6h3.5v17.3h0V41H11.8L0,52.9v22v24.8v0.2h33V75h-2.4v0h-1.1v-2.7h0V67h31.5
			l11.9-12V14.3L58.4,0H40z M14.2,0L0,14.2V34h29.4V23.5h3.5V0H14.2z M40,100h32.7V75H40V100z"/>
		<path id="Fill-11" class="st0" d="M124.2,0v20.9h0v2.6h3.5v17.3h0V41H96l-11.8,12v22v24.8v0.2h33V75h-2.4v0h-1.1v-2.7h0V67h31.5
			l11.9-12V14.3L142.6,0H124.2z M98.4,0L84.2,14.2V34h29.4V23.5h3.5V0H98.4z M124.2,100h32.7V75h-32.7V100z"/>
		<path id="Fill-12" class="st0" d="M204,0v23.5h3.5v51.6H204v1.1h0V100h18.5l14.4-14.6V14.6L222.5,0H204z M178.2,0L164,14.6v70.7
			l14.2,14.6h18.7V76.2h0v-1.1h-3.6V23.5h3.5V0H178.2z"/>
	</g>
</g>
</svg>
