<?xml version="1.0" encoding="utf-8"?>
<!-- Generator: Adobe Illustrator 20.1.0, SVG Export Plug-In . SVG Version: 6.00 Build 0)  -->
<svg version="1.1" id="Layer_1" xmlns="http://www.w3.org/2000/svg" xmlns:xlink="http://www.w3.org/1999/xlink" x="0px" y="0px"
	 viewBox="0 0 580 268" style="enable-background:new 0 0 580 268;" xml:space="preserve">
<style type="text/css">
	.st0{fill:#D61829;}
	.st1{clip-path:url(#SVGID_2_);}
</style>
<title>History blk@2x</title>
<desc>Created with Sketch.</desc>
<path id="Fill-1_1_" d="M77.1,131.9H28.6V177c0,5.5,1.2,5.8,11.5,6.6v1.5H0v-1.5c10.3-0.7,11.5-1,11.5-6.6V88.4
	c0-5.5-1.2-5.8-11.5-6.6v-1.5h40.1v1.5c-10.3,0.7-11.5,1-11.5,6.6v41H77v-41c0-5.5-1.2-5.8-11.5-6.6v-1.5h40.1v1.5
	c-10.3,0.7-11.5,1-11.5,6.6V177c0,5.5,1.2,5.8,11.5,6.6v1.5h-40v-1.5c10.3-0.7,11.5-1,11.5-6.6V131.9z"/>
<path id="Fill-3_1_" d="M138.1,122.7v54.9c0,5.6,1.2,5.9,11.4,6.6v1.5h-40v-1.5c10.2-0.8,11.4-1.1,11.4-6.6v-54.5"/>
<path id="Fill-5_1_" d="M121,151.6v-34.4c0-5.5-1.2-5.8-11.4-6.6v-1.5h40v1.5c-10.2,0.7-11.4,1-11.4,6.6v34"/>
<path id="Fill-7_1_" d="M219.3,110.8c-4.4-17-14.9-30.3-28.5-30.3c-11.2,0-19.2,5.7-19.2,16.3c0,28,52.6,24.9,52.6,58.9
	c0,19.8-15.4,30.7-35.6,30.7c-10.9,0-22.9-3-31.2-7.5l-1.5-26.5h1.5c4.4,22.4,17.6,32.5,31.7,32.5c11.9,0,20.5-7.3,20.5-20.9
	c0-29.2-52.6-24.6-52.6-57.3c0-16.6,13.4-27.7,34.1-27.7c9.2,0,19.9,2.2,28.2,6.7l1.5,25L219.3,110.8L219.3,110.8z"/>
<path id="Fill-9" d="M227.6,80.3h79.7l0.8,24.8h-1.5c-3-14.1-10.1-23.1-21.8-22.6h-8.6V177c0,5.5,1.2,5.8,11.6,6.6v1.5h-40.5v-1.5
	c10.4-0.7,11.6-1,11.6-6.6V82.4h-8.6c-11.8-0.4-18.8,8.6-21.8,22.7H227L227.6,80.3z"/>
<path id="Fill-11" d="M306.1,132.7c0-31.3,23.5-53.7,52.2-53.7s52.2,22.4,52.2,53.7s-23.6,53.7-52.2,53.7S306.1,164,306.1,132.7
	 M324.2,132.4c0,30.1,13.5,52.1,33.8,52.1s33.8-22,33.8-52.1S378.4,80.3,358,80.3S324.2,102.3,324.2,132.4"/>
<path id="Fill-13" d="M452.8,80.3c22.5,0,35.3,12,35.3,28.4c0,14.5-10.7,28.4-38.6,29.2c18.6,3.7,23.4,10.6,27,16.3l11.4,18.6
	c5,7.6,9.5,10,14.7,10.8v1.5H477c-3.3-4.3-7.5-10.9-10.1-15.9l-8.4-15.6c-3.6-6.1-7.8-12.7-12.8-14.9h-9.6V177
	c0,5.5,1.2,5.8,11.6,6.6v1.5h-40.4v-1.5c10.4-0.7,11.6-1,11.6-6.6V88.4c0-5.5-1.2-5.8-11.6-6.6v-1.5H452.8z M436.3,81.6v54.6h9.1
	c19.3,0,24.4-12.4,24.4-26.8c0-13.2-4.8-27.8-21.1-27.8C448.7,81.6,436.3,81.6,436.3,81.6z"/>
<path id="Fill-15" d="M525.3,146.8L497,91.7c-2.4-4.3-5.1-9.1-13-9.9v-1.5h40.7v1.5c-11.1,1.2-12,4.8-8.7,11.4l25,49.6h0.1L562,96.5
	c4-8.6,0.7-13.2-14.4-14.7v-1.5H580v1.5c-8.2,1.5-11.6,6-14.4,13L542.4,146v31c0,5.5,1.2,5.8,11.5,6.6v1.5h-40.2v-1.5
	c10.3-0.7,11.5-1,11.5-6.6L525.3,146.8L525.3,146.8z"/>
<path id="Fill-17" class="st0" d="M130.2,79c6.5,0,11.6,4,11.6,10.3c0,6.5-5.1,10.3-11.6,10.3s-11.6-3.8-11.6-10.3
	C118.6,83,123.7,79,130.2,79"/>
<path id="Fill-19" d="M158.5,268h4.4v-54.9h0.3l21.3,54.9h3.4l21.4-54.9h0.4V268h4.7v-60.4h-7.1L186.8,261h-0.2l-20.8-53.4h-7.3V268
	z M224.3,268h3.9l6.8-18.9h26.5l6.9,18.9h4.1v-1.9l-21.3-58.5h-5.5l-21.5,58.5v1.9H224.3z M248.4,212.1h0.2l11.8,32.8h-23.8
	L248.4,212.1z M304.6,268c9.9,0,16-2.5,20.2-4.9v-25h-18.2v3.8h13.5V261c-3.3,1.7-7.6,3.4-15.6,3.4c-14.6,0-23.2-9-23.2-27.2
	s10.1-26.5,23.6-26.5c7.6,0,12.5,2,15.6,5h2.3v-4c-4.1-2.7-9.4-4.7-17.9-4.7c-15.9,0-28.6,10-28.6,30.4
	C276.5,257.7,287.4,268,304.6,268z M332.5,268h3.9l6.8-18.9h26.5l6.9,18.9h4.1v-1.9l-21.3-58.5h-5.5l-21.5,58.5v1.9H332.5z
	 M356.7,212.1h0.2l11.8,32.8h-23.8L356.7,212.1z M386.7,268h42.2v-3.6h-37.1v-0.2l38.1-52.6v-4.1H389v3.7h35.8v0.1L386.7,264V268z
	 M440.2,268h4.5v-60.4h-4.5V268z M460.1,268h4.4v-54.3h0.2l35.4,54.3h4.5v-60.4h-4.5v52.1H500l-34.1-52.1h-5.8V268z M519.4,268h37.4
	v-3.8H524v-25.5h23.9v-3.8H524v-23.5h31.6v-3.9h-36.2L519.4,268L519.4,268z"/>
<g>
	<defs>
		<rect id="SVGID_1_" x="1.1" y="1.4" width="210" height="59"/>
	</defs>
	<clipPath id="SVGID_2_">
		<use xlink:href="#SVGID_1_"  style="overflow:visible;"/>
	</clipPath>
	<path class="st1" d="M198.1,49.5l-0.4,0.2c-4.4,2.2-9.2,3.7-16.2,3.7h0c-8.4,0-14.5-3.1-18.5-7.3c-4-4.2-5.9-9.5-5.9-14.1
		c0-6.5,2.6-12.2,7-16.2c4.4-4,10.6-6.4,17.8-6.4c4.6,0,9.3,1.1,15.3,3.5l0.4,0.2v8l-1-0.5c-5.3-2.9-9.9-4.2-14.9-4.2
		c-9.8,0-16.8,6.5-16.9,15.2c0,8.9,6.8,15.1,17.2,15.1c4.8,0,10.1-1.6,15-4.6l1-0.6V49.5z M211.1,1.4h-63v59h63V1.4z"/>
	<path class="st1" d="M112.1,21.5c0-1.4-0.4-2.6-1.5-3.5c-1.1-0.9-3-1.5-6-1.5h-5.5v11h3.8c3.3,0,5.6-0.5,7.1-1.5
		C111.4,24.9,112.1,23.5,112.1,21.5 M113.4,43.6c1.3-1.1,1.7-2.4,1.7-3.7c0-1.6-0.7-2.9-2.1-3.8c-1.5-1-3.7-1.6-7-1.6h-6.9v11h7.3
		C110,45.4,112.1,44.6,113.4,43.6 M123.1,39.9c0,2.7-1.1,5.6-3.7,7.8c-2.6,2.2-6.6,3.7-12.3,3.7h-16v-42h13.6
		c4.9,0,8.5,1.3,10.9,3.4c2.4,2.1,3.5,4.9,3.5,7.6c0,2.2-0.6,4.1-1.8,5.7c-0.9,1.2-2.2,2.1-3.7,2.9
		C119.5,30.6,123.1,34.6,123.1,39.9 M137.1,1.4h-63v59h63V1.4z"/>
	<path class="st1" d="M39.1,21.5c0-1.4-0.4-2.6-1.5-3.5c-1.1-0.9-3-1.5-6-1.5h-5.5v11h3.8c3.3,0,5.6-0.5,7.1-1.5
		C38.4,24.9,39.1,23.5,39.1,21.5 M40.4,43.6c1.3-1.1,1.7-2.4,1.7-3.7c0-1.6-0.6-2.9-2.1-3.8c-1.4-1-3.7-1.6-7-1.6h-6.9v11h7.2
		C37,45.4,39.1,44.6,40.4,43.6 M50.1,39.9c0,2.7-1.1,5.6-3.7,7.8c-2.6,2.2-6.6,3.7-12.3,3.7h-16v-42h13.7c4.9,0,8.5,1.3,10.9,3.4
		c2.4,2.1,3.5,4.9,3.5,7.6c0,2.2-0.6,4.1-1.8,5.7c-0.9,1.2-2.1,2.1-3.7,2.9C46.5,30.6,50.1,34.6,50.1,39.9 M64.1,1.4h-63v59h63V1.4z
		"/>
</g>
</svg>
