<?xml version="1.0" encoding="UTF-8"?>
<svg width="791px" height="175px" viewBox="0 0 791 175" version="1.1" xmlns="http://www.w3.org/2000/svg" xmlns:xlink="http://www.w3.org/1999/xlink">
    <!-- Generator: Sketch 48.2 (47327) - http://www.bohemiancoding.com/sketch -->
    <title>BBC Top Gear blk</title>
    <desc>Created with Sketch.</desc>
    <defs></defs>
    <g id="Logos" stroke="none" stroke-width="1" fill="none" fill-rule="evenodd">
        <g id="BBC-Top-Gear-blk" fill="#000000">
            <path d="M554.484715,104.226803 C549.002256,118.52831 542.781552,130.908351 530.340144,136.519626 C518.643573,141.739034 510.676128,143.66544 485.284121,143.66544 C434.261165,143.66544 435.263069,120.652297 447.699534,88.5587001 C468.105091,35.9760458 474.577919,33.6478934 527.846919,33.6478934 C582.852773,33.6478934 573.642835,62.0763788 560.449999,93.0124852 L559.708459,94.7462507 L493.497098,94.7462507 L488.273355,108.478069 C486.032253,114.092637 483.54562,121.620439 493.497098,121.620439 C502.95092,121.620439 506.689934,114.85826 510.676128,104.226803 L554.484715,104.226803 Z M500.970182,75.0294018 L521.873395,75.0294018 L524.368268,68.8352652 C528.346223,58.5923828 526.60113,55.6896016 518.892401,55.6896016 C511.923565,55.6896016 507.441362,58.5940293 503.458464,68.8352652 L500.970182,75.0294018 Z M312.05523,90.3023446 C295.377151,133.425851 285.916738,143.66544 252.315049,143.66544 C239.369393,143.66544 228.915315,138.253392 228.17707,128.782718 L227.67447,128.782718 L210.004375,175 L161.718529,175 L214.982586,36.3530945 L262.525243,36.3530945 L258.04304,48.3445609 L258.539049,48.3445609 C262.027587,43.3112075 270.983753,35.2021903 291.891909,35.2021903 C330.972761,35.2021903 324.498285,58.3980957 312.05523,90.3023446 Z M263.76444,61.50175 C254.307322,61.50175 250.077244,69.0361383 242.361923,88.7529872 C234.892134,108.285428 233.399165,115.826402 242.856283,115.826402 C252.313401,115.826402 256.795604,108.285428 264.26704,88.7529872 C271.977417,69.0361383 273.224854,61.50175 263.76444,61.50175 Z M390.047203,65.7431364 L380.094076,91.2704872 L394.282225,91.2704872 L390.544859,100.741161 C386.810789,110.997215 381.827634,118.13809 369.890474,118.13809 C357.938483,118.13809 360.927717,108.094434 364.157539,99.58861 L386.062657,42.7365787 C389.305662,34.4233954 393.527501,25.7265773 405.48114,25.7265773 C415.193678,25.7265773 416.187342,31.1303935 411.950672,41.3864479 L409.969934,46.9944301 L456.749628,46.9944301 C467.469013,19.3398002 464.229304,0.202519617 414.949793,0.202519617 C354.209356,0.202519617 347.985357,9.28955836 323.593606,72.1299136 C308.164612,111.575137 297.455114,143.66544 347.987005,143.66544 C370.638606,143.66544 376.856015,141.925089 389.803318,129.744275 L390.294383,129.744275 L387.311741,140.958593 L421.91039,140.958593 L451.029876,65.7431364 L390.047203,65.7431364 Z M783.283031,34.9996707 C770.083604,34.9996707 756.140988,41.7684361 747.445185,51.8219709 L746.93105,51.8219709 L752.912813,36.3530945 L706.119936,36.3530945 L665.798239,140.956946 L714.082437,140.956946 L734.998833,86.8216416 C739.719977,74.4432475 746.435041,67.6843611 763.116415,67.6843611 C768.101218,67.6843611 770.083604,67.6843611 772.084116,67.8704157 C774.312035,68.0696423 776.307604,68.2589899 778.059288,68.4615095 L791,35.572653 C789.754211,35.3882449 788.506775,34.9996707 783.283031,34.9996707 Z M663.212733,125.489716 C661.223756,130.908351 660.475624,136.131052 661.72306,140.958593 L616.429744,140.958593 C616.16938,137.295128 616.932344,133.427498 618.417073,129.950087 L617.917769,129.744275 C608.203584,140.000329 606.71391,143.66544 581.082962,143.66544 C558.423121,143.66544 548.713879,132.651996 556.432496,112.739213 C565.395253,89.5202567 581.824503,83.1565305 601.231452,79.8635286 L625.13049,75.8081968 C635.830101,74.0711382 640.066771,71.7363999 642.807176,64.9676345 C644.802745,59.7449335 641.811864,56.8569708 636.58812,56.8569708 C626.379574,56.8569708 622.638913,62.8518808 620.412642,68.8352652 L578.093729,68.8352652 C590.790556,35.2005438 606.217902,33.6478934 646.041943,33.6478934 C690.104301,33.6478934 693.344011,47.569059 687.111772,63.8150838 L663.212733,125.489716 Z M633.10123,90.3023446 C629.36716,91.858288 625.376022,92.8198446 619.404147,94.3576765 C610.700105,96.6891218 607.463691,101.516663 605.229181,107.70586 C602.735956,113.899996 603.981744,118.13809 610.698457,118.13809 C620.150631,118.13809 624.891549,111.38085 627.126059,105.384293 L633.10123,90.3023446 Z M112.593918,143.66544 C59.3265655,143.66544 64.0526526,116.794545 75.0060352,88.5587001 C92.6777781,43.312854 101.886068,33.6478934 155.16166,33.6478934 C210.167514,33.6478934 199.456368,63.230576 189.506537,88.7513407 C173.321172,130.132849 165.851384,143.66544 112.593918,143.66544 Z M146.195607,57.8185274 C136.240833,57.8185274 132.501819,64.2020116 123.296825,88.5587001 C113.836411,112.925268 112.841098,119.308752 121.805504,119.308752 C131.504858,119.308752 135.243872,112.925268 144.704286,88.5587001 C153.912575,64.2020116 154.907888,57.8185274 146.195607,57.8185274 Z M125.941654,32.4838172 L138.391301,0 L20.906509,0 L8.46510102,32.4838172 L42.3106743,32.4838172 L0,140.956946 L49.7771669,140.956946 L92.0944327,32.4838172 L125.941654,32.4838172 Z" id="Shape" fill-rule="nonzero"></path>
            <g id="BBC_Block_Logo_White-Copy-2" transform="translate(152.000000, 0.000000)">
                <path d="M33.4935897,27 L62.1153846,27 L62.1153846,0 L33.4935897,0 L33.4935897,27 Z M55.3006442,17.6152914 C55.3084451,15.1887921 53.6484102,13.3476845 51.0052198,12.6357724 C51.7147431,12.2828036 52.2789293,11.8463078 52.6986186,11.3142188 C53.255004,10.6035953 53.5137543,9.73036955 53.5137543,8.71129375 C53.5137543,7.45956079 53.0125755,6.1858039 51.9308885,5.23444 C50.8435608,4.27897589 49.2012879,3.66101695 46.9606248,3.66101695 L40.762617,3.66101695 L40.762617,22.8813559 L48.0401516,22.8813559 C50.6359364,22.8813559 52.4561902,22.1977938 53.6250074,21.1835211 C54.7925045,20.1684283 55.3006442,18.8386744 55.3006442,17.6152914 Z" id="Fill-1"></path>
                <path d="M51.1538462,17.154909 C51.1538462,17.7511859 50.9688221,18.3473532 50.4369189,18.8160444 C49.9107806,19.2822146 49.0049134,19.6363636 47.4939383,19.6363636 L44.4551282,19.6363636 L44.4551282,14.7272727 L47.3628661,14.7272727 C48.7119859,14.7272727 49.6685416,15.0037085 50.2762602,15.4374342 C50.8757119,15.8718175 51.1461232,16.4402536 51.1538462,17.154909" id="Fill-2"></path>
                <path d="M49.0291892,10.983391 C49.6375763,10.5487729 49.9358974,9.93797076 49.9358974,9.01771866 C49.9358974,8.38505257 49.7547907,7.84458521 49.290044,7.44143266 C48.8322268,7.03770169 48.0435551,6.75 46.7733415,6.75 L44.4551282,6.75 L44.4551282,11.6590909 L46.0498541,11.6590909 C47.4282385,11.6590909 48.4132854,11.4165053 49.0291892,10.983391" id="Fill-3"></path>
                <path d="M0,27 L28.6217949,27 L28.6217949,0 L0,0 L0,27 Z M21.3527358,17.6152914 C21.3609958,15.1887921 19.7586786,13.3476845 17.1888982,12.6357724 C17.8849459,12.2828036 18.4318487,11.8463078 18.8304212,11.3142188 C19.3683661,10.6035953 19.6184918,9.73036955 19.6184918,8.71129375 C19.6184918,7.45956079 19.1333642,6.1858039 18.0869079,5.23444 C17.0411495,4.27897589 15.4484884,3.66101695 13.2778622,3.66101695 L7.26902727,3.66101695 L7.26902727,22.8813559 L14.3153605,22.8813559 C16.8295315,22.8813559 18.5954193,22.1977938 19.7284308,21.1835211 C20.8677245,20.1684283 21.3527358,18.8386744 21.3527358,17.6152914 Z" id="Fill-4"></path>
                <path d="M15.52867,10.983391 C16.1425772,10.5487729 16.4353782,9.93797076 16.4423077,9.01771866 C16.4423077,8.38505257 16.2542714,7.84458521 15.7964543,7.44143266 C15.3288888,7.03770169 14.5430359,6.75 13.2804564,6.75 L10.9615385,6.75 L10.9615385,11.6590909 L12.5555597,11.6590909 C13.9277193,11.6590909 14.9204003,11.4165053 15.52867,10.983391" id="Fill-5"></path>
                <path d="M16.7816575,15.4374342 C16.1822761,15.0037085 15.2180824,14.7272727 13.8635939,14.7272727 L10.9615385,14.7272727 L10.9615385,19.6363636 L13.9966687,19.6363636 C15.5094967,19.6363636 16.4240324,19.2822146 16.9495801,18.816154 C17.4756722,18.3473532 17.6602564,17.7511859 17.6602564,17.154909 C17.653178,16.4402536 17.3888795,15.8711599 16.7816575,15.4374342" id="Fill-6"></path>
                <path d="M66.3782051,27 L95,27 L95,0 L66.3782051,0 L66.3782051,27 Z M89.5482295,18.2885786 L89.0858979,18.5703793 C86.8797126,19.9387155 84.4647094,20.6756315 82.2760241,20.6756315 C77.5893288,20.6550586 74.4948991,17.8484145 74.478818,13.755965 C74.4948991,9.75190711 77.7185689,6.7926409 82.1483213,6.78139757 C84.4187127,6.78486626 86.4676343,7.37621714 88.8972996,8.72481771 L89.3407124,8.97336688 L89.3407124,5.31904808 L89.1508135,5.24692337 C86.4012998,4.15129754 84.2769389,3.66101695 82.1796558,3.66101695 C78.9413238,3.66101695 76.1150702,4.74468179 74.1128547,6.58428061 C72.1140683,8.42734812 70.9213472,11.0249143 70.9213472,14.0096574 C70.9213472,16.0851267 71.7634766,18.5224158 73.5890365,20.454473 C75.3985152,22.3886831 78.1800728,23.7966102 82.004419,23.7966102 L82.0232197,23.7966102 C85.1959266,23.7966102 87.3888686,23.0817024 89.3728746,22.0877449 L89.5482295,22.0086828 L89.5482295,18.2885786 Z" id="Fill-7"></path>
            </g>
        </g>
    </g>
</svg>