<?xml version="1.0" encoding="utf-8"?>
<!-- Generator: Adobe Illustrator 20.1.0, SVG Export Plug-In . SVG Version: 6.00 Build 0)  -->
<svg version="1.1" id="Layer_1" xmlns="http://www.w3.org/2000/svg" xmlns:xlink="http://www.w3.org/1999/xlink" x="0px" y="0px"
	 viewBox="0 0 762 217" style="enable-background:new 0 0 762 217;" xml:space="preserve">
<style type="text/css">
	.st0{clip-path:url(#SVGID_2_);}
</style>
<title>BBC Good Food blk</title>
<desc>Created with Sketch.</desc>
<path id="Shape" d="M94.4,124.1c0-27.1,16.6-45.8,46.1-45.8s46.1,18.8,46.1,45.8c0,27.1-16.6,45.8-46.1,45.8
	C110.9,169.9,94.4,151.1,94.4,124.1 M162.9,124.1c0-15.9-6.9-28.7-22.4-28.7c-15.6,0-22.4,12.7-22.4,28.7s6.9,28.7,22.4,28.7
	C156,152.8,162.9,140,162.9,124.1"/>
<path id="Shape_1_" d="M193.4,124.1c0-27.1,16.6-45.8,46.1-45.8s46.1,18.8,46.1,45.8c0,27.1-16.6,45.8-46.1,45.8
	C210,169.9,193.4,151.1,193.4,124.1 M261.9,124.1c0-15.9-6.9-28.7-22.4-28.7c-15.6,0-22.4,12.7-22.4,28.7s6.9,28.7,22.4,28.7
	C255,152.8,261.9,140,261.9,124.1"/>
<path id="Shape_2_" d="M292.8,124.1c0-28.1,16.4-45.8,41-45.8c9.5,0,17,2.6,23,6.9V42.9h-16.6v-18h39.4v125h13.3v17.8h-34.2V158
	c-6.3,6.7-14.3,11.9-27.1,11.9C308.4,169.9,292.8,151.3,292.8,124.1 M356.9,145.3v-44.2c-4.5-3.2-9.9-5.5-17-5.5
	c-16,0-23.6,10.9-23.6,28.1c0,15.4,6.3,28.9,22,28.9C346,152.6,352.3,149.3,356.9,145.3"/>
<path id="Shape_3_" d="M702.5,170.5c-24.3,0-42.6-19.7-42.6-45.9c0-19.2,15.7-45.9,41.2-45.9c14,0,24.3,10.3,28.4,20.6V30.7h-16.4
	v-5h16.7c6.4,0,13-0.4,17-5l0.5-0.6v143h14.2v5h-32v-14.7C726.2,160.4,716.5,170.5,702.5,170.5 M701.1,83.8
	c-17.7,0-20.8,13.2-20.8,41c0,29.1,2,41,22.3,41c7.1,0,14.1-3,19.2-8.1c5.1-5.2,7.9-12.1,7.8-19.6v-23.4
	C729.5,100,717.8,83.8,701.1,83.8"/>
<path id="Shape_4_" d="M401.6,168.1v-4l0.3-0.1c8,0,13.4-0.5,16.1-1.4c1.2-0.5,1.6-0.8,1.8-1.1c0.2-0.3,0.4-1.2,0.5-3.5V82.2h-18.7
	v-5.1h18.7v-8c0-12.9,0.5-23.5,6.9-34c7.3-11.9,17.3-13.6,26.2-13.6c13.2,0,19.1,9.7,19.1,19.3c0,5-3.5,10.1-10.3,10.1
	c-6.3,0-9.1-4.3-9.1-8.6c0-10,6.9-11.7,11.2-11.7c-0.3-2.7-4.8-5-10.1-5c-9.4,0-15.7,4.8-15.7,28.4v23.1h19.7v5.1h-19.7v76.2
	c0.1,2.1,0.3,2.9,0.5,3.2c0.1,0.2,0.6,0.6,1.8,1.1c2.7,0.9,8.2,1.4,16.3,1.4h0.3v2.4l0,0v1.7L401.6,168.1L401.6,168.1z"/>
<path id="Shape_5_" d="M506,170.2c-5.9,0-11.7-1.2-17.3-3.7c-5.6-2.4-10.7-5.8-15-10s-7.9-9.1-10.6-14.7c-2.7-5.6-4-11.7-4-18
	c0-6.6,1.5-12.8,4.3-18.5c2.9-5.7,6.6-10.6,11.1-14.7s9.6-7.4,15.1-9.7c5.5-2.3,11.1-3.5,16.4-3.5c5.4,0,10.9,1.2,16.4,3.5
	s10.6,5.5,15.1,9.7c4.5,4.1,8.2,9.1,11.1,14.7c2.9,5.7,4.3,11.9,4.3,18.5c0,6.3-1.4,12.4-4,18c-2.7,5.6-6.2,10.6-10.6,14.7
	c-4.3,4.2-9.4,7.5-15,10S511.9,170.2,506,170.2 M506,82.1c-4.5,0-8.4,0.7-11.7,2.1c-3.3,1.4-6,3.8-8.2,7.1
	c-2.2,3.3-3.8,7.6-4.9,12.9s-1.6,11.9-1.6,19.8c0,9.3,0.7,16.8,2.2,22.2c1.4,5.4,3.4,9.7,5.7,12.6c2.4,2.9,5.1,4.8,8.2,5.7
	s6.6,1.4,10.1,1.4c3.6,0,7-0.5,10.1-1.4s5.9-2.8,8.2-5.7c2.4-2.9,4.3-7.2,5.7-12.6c1.5-5.5,2.2-12.9,2.2-22.2
	c0-7.8-0.5-14.5-1.6-19.8s-2.7-9.6-4.9-12.9s-4.9-5.7-8.2-7.1C514.4,82.8,510.5,82.1,506,82.1"/>
<path id="Shape_6_" d="M606.4,170.2c-5.9,0-11.7-1.2-17.3-3.7c-5.6-2.4-10.7-5.8-15-10s-7.9-9.1-10.6-14.7c-2.7-5.6-4-11.6-4-18
	c0-6.6,1.5-12.9,4.3-18.5c2.9-5.7,6.6-10.6,11.1-14.7s9.6-7.4,15.1-9.7c5.5-2.3,11.1-3.5,16.4-3.5s10.9,1.2,16.4,3.5
	s10.6,5.5,15.1,9.7c4.5,4.1,8.2,9.1,11.1,14.7c2.9,5.7,4.3,11.9,4.3,18.5c0,6.3-1.4,12.4-4,18c-2.7,5.6-6.2,10.6-10.6,14.7
	c-4.3,4.2-9.4,7.5-15,10C618.1,169,612.3,170.2,606.4,170.2 M606.4,82.1c-4.5,0-8.4,0.7-11.7,2.1s-6,3.8-8.2,7.1
	c-2.2,3.3-3.8,7.6-4.9,12.9L580,124c0,9.2,0.7,16.7,2.2,22.2c1.4,5.4,3.4,9.7,5.7,12.6c2.4,2.9,5.1,4.8,8.3,5.7
	c3.1,0.9,6.5,1.4,10.1,1.4s7-0.5,10.1-1.4s5.9-2.8,8.2-5.7c2.4-2.9,4.3-7.1,5.7-12.6c1.5-5.5,2.2-12.9,2.2-22.2
	c0-7.8-0.5-14.5-1.6-19.8s-2.7-9.6-4.9-12.9c-2.1-3.3-4.9-5.7-8.2-7.1C614.8,82.8,610.9,82.1,606.4,82.1"/>
<path id="Shape_7_" d="M92.4,80.6h-35c-4.5-1.4-9.8-2.2-15.5-2.2c-25.2,0-38.1,15.2-38.1,33.8c0,10.6,4.1,20.1,12.4,26.4
	c-5.9,4.3-10.8,9.8-10.8,17.1c0,4.9,2.2,8.3,5.7,10.8C3.5,171.1,0,177.4,0,186.3c0,13.4,9.6,30.5,41.1,30.5
	c37.2,0,46.6-21.5,46.6-35.8c0-36.4-62.3-16-62.3-33.8c0-1.2,0.6-2.4,1.6-3.5c4.3,1.4,9.2,2,14.9,2c25.2,0,38.1-15.3,38.1-33.8
	c0-5.1-1.2-10.2-3-14.7h15.5L92.4,80.6L92.4,80.6z M62.3,176.3v6.1c0,5.5-1.7,9.7-5.1,12.3c-3.4,2.7-7.1,4-13.3,4
	c-6.3,0-11-1.3-14.3-4s-4.9-6.5-4.9-11.5v-6.9C24.8,176.3,42.1,188.8,62.3,176.3z M42,130c-7.8,0-16.7-4.1-16.7-17.9
	S34.2,94.4,42,94.4c7.7,0,16.7,3.9,16.7,17.7C58.7,126.1,49.7,130,42,130z"/>
<g>
	<defs>
		<rect id="SVGID_1_" x="8.2" y="1.3" width="194.7" height="54.7"/>
	</defs>
	<clipPath id="SVGID_2_">
		<use xlink:href="#SVGID_1_"  style="overflow:visible;"/>
	</clipPath>
	<path class="st0" d="M190.9,45.9l-0.4,0.2c-4,2-8.5,3.5-15,3.5h0c-7.8,0-13.5-2.9-17.2-6.8c-3.7-3.9-5.4-8.9-5.4-13.1
		c0-6,2.4-11.3,6.5-15c4.1-3.7,9.9-5.9,16.5-5.9c4.3,0,8.6,1,14.2,3.2l0.4,0.1v7.4l-0.9-0.5c-5-2.7-9.1-3.9-13.8-3.9
		c-9,0-15.6,6-15.7,14.1c0,8.3,6.3,14,15.9,14c4.5,0,9.4-1.5,13.9-4.3l0.9-0.6V45.9z M202.9,1.3h-58.4V56h58.4V1.3z"/>
	<path class="st0" d="M111.1,19.9c0-1.3-0.4-2.4-1.4-3.3c-1-0.8-2.7-1.4-5.5-1.4h-5.1v10.2h3.5c3,0,5.2-0.5,6.6-1.4
		C110.5,23.1,111.1,21.8,111.1,19.9 M112.3,40.4c1.2-1,1.6-2.2,1.6-3.5c0-1.5-0.6-2.7-1.9-3.6c-1.3-0.9-3.5-1.5-6.5-1.5h-6.4v10.2
		h6.7C109.2,42.1,111.2,41.3,112.3,40.4 M121.3,37c0,2.5-1,5.2-3.4,7.2c-2.4,2.1-6.1,3.4-11.4,3.4H91.7V8.7h12.7
		c4.6,0,7.9,1.3,10.1,3.2c2.2,1.9,3.2,4.5,3.2,7c0,2.1-0.5,3.8-1.7,5.3c-0.9,1.1-2,2-3.5,2.7C118,28.3,121.3,32,121.3,37 M134.3,1.3
		H75.9V56h58.4V1.3z"/>
	<path class="st0" d="M43.4,19.9c0-1.3-0.4-2.4-1.4-3.3c-1-0.8-2.8-1.4-5.5-1.4h-5.1v10.2h3.5c3,0,5.2-0.5,6.5-1.4
		C42.8,23.1,43.4,21.8,43.4,19.9 M44.6,40.4c1.2-1,1.6-2.2,1.6-3.5c0-1.5-0.6-2.7-1.9-3.6c-1.3-0.9-3.5-1.5-6.5-1.5h-6.4v10.2h6.7
		C41.5,42.1,43.5,41.3,44.6,40.4 M53.6,37c0,2.5-1,5.2-3.4,7.2c-2.4,2.1-6.1,3.4-11.4,3.4H24V8.7h12.7c4.6,0,7.9,1.3,10.1,3.2
		c2.2,1.9,3.2,4.5,3.2,7c0,2.1-0.5,3.8-1.7,5.3c-0.8,1.1-2,2-3.5,2.7C50.3,28.3,53.7,32,53.6,37 M66.6,1.3H8.2V56h58.4V1.3z"/>
</g>
</svg>
