<?xml version="1.0" encoding="UTF-8"?>
<svg width="876px" height="221px" viewBox="0 0 876 221" version="1.1" xmlns="http://www.w3.org/2000/svg" xmlns:xlink="http://www.w3.org/1999/xlink">
    <!-- Generator: Sketch 48.2 (47327) - http://www.bohemiancoding.com/sketch -->
    <title>Page 1</title>
    <desc>Created with Sketch.</desc>
    <defs>
        <polygon id="path-1" points="0.164405779 0.196696154 82.7777144 0.196696154 82.7777144 136.860654 0.164405779 136.860654"></polygon>
        <polygon id="path-3" points="0.62019198 0.194298994 90.5008064 0.194298994 90.5008064 134.835427 0.62019198 134.835427"></polygon>
        <polygon id="path-5" points="0.384517054 0.646916027 79.2897305 0.646916027 79.2897305 134.773699 0.384517054 134.773699"></polygon>
        <polygon id="path-7" points="0.168940842 0.691991643 35.691057 0.691991643 35.691057 78.9544218 0.168940842 78.9544218"></polygon>
    </defs>
    <g id="CMP-Zeus" stroke="none" stroke-width="1" fill="none" fill-rule="evenodd" transform="translate(0.000000, -8.000000)">
        <g id="Page-1" transform="translate(0.000000, 8.000000)">
            <path d="M0,71.9584603 C0,31.7178556 27.1812579,6.99596142 51.3441329,6.99596142 C66.9209562,6.99596142 75.0291266,17.2813498 78.2073889,17.2813498 C80.2735229,17.2813498 81.0694061,15.1151632 81.2275286,6.99596142 L85.9975574,6.99596142 L86.6318043,57.3424756 L80.9095267,57.3424756 C79.955521,37.3119127 73.1211151,13.8534794 52.1382592,13.8534794 C31.7914072,13.8534794 26.229009,37.4913917 26.229009,71.9584603 C26.229009,106.784487 32.5872905,129.160715 52.1382592,129.160715 C71.0549811,129.160715 79.955521,109.311409 81.2275286,87.4771709 L86.9498062,87.4771709 C85.9975574,107.507734 77.0952606,136.920959 49.4361214,136.920959 C24.9570014,136.920959 0,113.101791 0,71.9584603" id="Fill-1" fill="#E7427B"></path>
            <path d="M174.899036,104.700286 L174.899036,114.749256 C174.899036,121.0292 174.261107,126.233036 171.073226,130.000295 C168.043945,133.408852 162.621551,135.921536 156.085426,135.921536 C149.707901,135.921536 145.083799,133.589087 142.21312,128.924188 C140.140733,125.872566 139.344203,121.56637 139.025239,116.542768 C136.314923,124.079054 129.45807,135.921536 113.196175,135.921536 C100.599727,135.921536 92.9463446,126.591738 92.9463446,112.773742 C92.9463446,104.520052 95.6566605,98.957513 99.9617981,94.8315513 C107.775543,86.9365632 122.125415,83.5262393 138.226947,80.8350874 L138.226947,67.5560285 C138.226947,53.3810969 133.285643,49.0749004 127.227082,49.0749004 C122.60298,49.0749004 119.5737,50.8701797 117.820277,52.8439267 C116.225455,54.637439 115.427163,57.1501232 115.427163,59.8412751 C115.427163,64.1474716 117.182348,67.199093 121.327123,71.14482 C119.732301,77.6049983 113.834104,81.5524923 107.775543,81.5524923 C99.4842327,81.5524923 95.4980594,74.3766762 95.4980594,66.6601558 C95.4980594,51.946287 108.891038,42.9751916 128.183975,42.9751916 C147.156186,42.9751916 160.071599,51.4073499 160.071599,74.3766762 L160.071599,114.388787 C160.071599,117.977578 160.2302,121.0292 160.868129,122.644244 C161.664658,124.617991 163.099117,125.872566 165.173266,125.872566 C167.245653,125.872566 168.840475,124.617991 169.478404,122.46401 C170.116333,120.66873 170.433535,117.618876 170.433535,114.210319 L170.433535,104.700286 L174.899036,104.700286 Z M138.226947,98.5988106 L138.226947,86.5778607 C131.211493,87.8324358 124.994332,89.8061829 120.847795,94.2926141 C117.021985,97.7011709 115.587527,102.905007 115.587527,109.365185 C115.587527,117.079939 117.978878,123.002947 124.037439,123.002947 C133.285643,123.002947 138.068346,110.08259 138.226947,98.5988106 Z" id="Fill-3" fill="#E7427B"></path>
            <path d="M246.857496,62.0978323 C246.857496,73.0758706 240.475336,80.336441 232.816391,80.336441 C227.552299,80.336441 223.882424,76.6172295 222.446923,71.4821719 C225.317925,68.1186656 227.072623,63.691531 227.072623,60.1501721 C226.913906,56.7866657 225.637122,55.0151145 223.083552,55.0151145 C218.136893,55.0151145 211.756496,64.2233451 208.405818,89.542928 L208.405818,112.029075 C208.405818,123.361075 208.405818,126.372363 219.574158,127.080286 L219.574158,132.923267 L176.174057,132.923267 L176.174057,127.080286 C186.226092,126.372363 186.226092,123.361075 186.226092,112.029075 L186.226092,67.5868514 C186.226092,58.734326 186.226092,50.5897235 174.899036,51.6516081 L174.899036,45.6325185 L205.374336,42.9751916 L207.765662,45.6325185 L207.129033,69.0044412 C211.596016,51.119794 220.531746,42.9751916 230.423301,42.9751916 C241.75212,42.9751916 246.857496,52.1816786 246.857496,62.0978323" id="Fill-5" fill="#E7427B"></path>
            <g id="Group-9" transform="translate(250.855188, 0.000000)">
                <mask id="mask-2" fill="white">
                    <use xlink:href="#path-1"></use>
                </mask>
                <g id="Clip-8"></g>
                <path d="M82.7777144,129.139396 L82.7777144,135.065629 L55.7151562,135.065629 L53.3396825,132.372208 L53.3396825,112.618098 C48.9088467,130.036024 39.4121996,136.860654 29.2840752,136.860654 C10.9257566,136.860654 0.164405779,117.824553 0.164405779,92.3245963 C0.164405779,66.2834796 12.5088226,43.8359486 37.5142695,43.8359486 C42.8949449,43.8359486 47.4849619,45.4523547 51.2825712,48.1457755 L50.965958,25.3392396 C50.808526,16.1801942 50.808526,8.45716828 38.6215411,8.99655983 L38.6215411,3.07032675 L71.5405691,0.196519304 L73.9142936,3.07032675 L72.807022,28.7506701 L72.807022,113.873731 C72.807022,125.367192 72.807022,128.421386 82.7777144,129.139396 M50.965958,101.842647 L50.965958,78.4967191 C50.965958,59.1016137 46.5351222,49.9425683 37.6734507,49.9425683 C29.9173016,49.9425683 23.7459678,56.4064245 23.7459678,92.1442096 C23.7459678,113.514726 25.6438979,125.188574 35.297977,125.188574 C41.9451053,125.188574 47.4849619,117.824553 50.965958,101.842647" id="Fill-7" fill="#E7427B" mask="url(#mask-2)"></path>
            </g>
            <path d="M476.6475,129.050614 C476.673852,129.052358 476.700204,129.052358 476.7248,129.054101 L476.7248,127.080286 C466.712736,126.37062 466.712736,123.361075 466.712736,112.029075 L466.712736,69.5345117 C466.712736,52.0055697 458.446941,42.9751916 446.049128,42.9751916 C434.763376,42.9751916 425.067538,51.2976466 418.867753,65.1073771 C417.437709,50.411871 409.489898,42.9751916 398.204146,42.9751916 C386.124316,42.9751916 375.792512,52.7134927 369.752597,68.2947745 L370.546675,45.6307749 L368.16444,42.9751916 L337.804994,45.6307749 L337.804994,51.6516081 C349.088989,50.5879799 349.088989,58.734326 349.088989,67.5868514 L349.088989,112.029075 C349.088989,123.361075 349.088989,126.37062 339.075169,127.080286 L339.075169,132.923267 L379.766418,132.923267 L379.766418,127.080286 C371.184398,126.37062 371.184398,123.361075 371.184398,112.029075 L371.184398,79.2728128 C375.634399,64.9312682 382.15041,56.9627747 388.668178,56.9627747 C394.23024,56.9627747 396.933972,61.2120567 396.933972,71.3043193 L396.933972,112.029075 C396.933972,123.361075 396.933972,126.37062 388.350195,127.080286 L388.350195,132.923267 L394.404164,132.923267 C394.572818,132.710541 394.887287,132.558844 395.143782,132.405402 C395.175404,132.386222 395.2,132.398428 395.229865,132.391453 C395.301895,132.340887 395.375681,132.292065 395.449467,132.241499 C395.467035,132.218831 395.463521,132.190933 395.49163,132.173496 C395.900967,131.90323 396.317331,131.657375 396.774102,131.477779 C396.774102,131.477779 396.775859,131.476035 396.775859,131.476035 C396.819779,131.458599 396.858429,131.434187 396.902349,131.418495 C396.905863,131.416751 396.909376,131.420238 396.91289,131.418495 C397.390743,131.190076 397.868595,130.984325 398.367529,130.802985 C398.371043,130.801242 398.371043,130.797754 398.3728,130.796011 C398.397395,130.785549 398.427261,130.778574 398.451856,130.768112 C398.476452,130.759394 398.497533,130.745445 398.522129,130.73847 C398.525642,130.736726 398.527399,130.73847 398.530913,130.73847 C399.063226,130.511795 399.642974,130.335686 400.213937,130.217118 C400.235019,130.211887 400.24029,130.192707 400.263128,130.189219 C400.885039,130.11773 401.50168,129.915466 402.128861,129.828283 C402.773611,129.737613 403.442955,129.674842 404.094732,129.70274 C404.108787,129.70274 404.1123,129.714946 404.124598,129.716689 C404.669209,129.728895 405.20855,129.737613 405.749648,129.817821 C406.404938,129.915466 407.026849,130.119473 407.671599,130.245016 C407.713762,130.253735 407.729574,130.28512 407.761196,130.302557 C409.35111,130.925041 411.309954,131.606809 412.488774,132.923267 L427.609643,132.923267 L427.609643,127.080286 C419.027623,126.37062 419.027623,123.361075 419.027623,112.029075 L419.027623,79.2728128 C423.477625,64.9312682 429.993635,56.9627747 436.35329,56.9627747 C441.915353,56.9627747 444.777197,61.2120567 444.777197,71.3043193 L444.777197,112.029075 C444.777197,123.361075 444.777197,126.37062 436.19342,127.080286 L436.19342,132.923267 L460.528762,132.923267 C460.767688,132.808186 461.015399,132.712285 461.291218,132.611153 C461.326354,132.598948 461.354463,132.604179 461.386086,132.602435 C461.491494,132.543151 461.610957,132.511765 461.728664,132.478636 C461.733934,132.476892 461.728664,132.471661 461.732177,132.469917 C461.874479,132.41412 462.015024,132.368785 462.159082,132.32345 C462.164353,132.321707 462.164353,132.330425 462.169623,132.330425 C462.317195,132.260679 462.477065,132.217088 462.635178,132.173496 C462.693153,132.142111 462.754641,132.133392 462.812616,132.117699 C462.817886,132.112468 462.810859,132.100263 462.8214,132.096776 C463.03046,132.030517 463.239521,131.962514 463.450338,131.90323 C463.453852,131.901486 463.452095,131.896256 463.455609,131.896256 C463.696292,131.823022 463.921163,131.727121 464.167117,131.673068 C464.298878,131.629477 464.432395,131.585885 464.56767,131.552756 C464.571183,131.551012 464.569427,131.545781 464.57294,131.544038 C464.750378,131.493472 464.920789,131.4307 465.098227,131.381878 C465.103497,131.380134 465.10174,131.387109 465.107011,131.387109 C465.268637,131.334799 465.432021,131.287721 465.595404,131.238898 C465.597161,131.238898 465.595404,131.238898 465.597161,131.238898 C465.602431,131.237155 465.607702,131.237155 465.612972,131.235411 C465.63054,131.23018 465.648108,131.223206 465.665676,131.217975 C465.665676,131.217975 465.665676,131.221462 465.667433,131.219718 C465.825546,131.170896 465.981902,131.132536 466.143529,131.099406 C466.147043,131.095919 466.141772,131.088944 466.148799,131.087201 C466.466782,130.973863 466.805847,130.911092 467.130857,130.816934 C467.132613,130.815191 467.130857,130.811703 467.132613,130.811703 C467.485732,130.743701 467.852906,130.663493 468.195484,130.55713 C468.197241,130.555386 468.197241,130.560617 468.200754,130.558874 C468.490628,130.482153 468.787529,130.391483 469.086187,130.351379 C469.091457,130.349635 469.087944,130.342661 469.093214,130.342661 C469.527146,130.264196 469.950538,130.122961 470.386227,130.056702 C470.391497,130.054958 470.387984,130.04624 470.393254,130.04624 C470.619883,130.018341 470.834214,129.952083 471.057328,129.908491 C471.060842,129.908491 471.060842,129.911979 471.062599,129.913722 C471.285714,129.861413 471.505315,129.821309 471.731944,129.786436 C471.733701,129.786436 471.735457,129.788179 471.735457,129.789923 C471.738971,129.788179 471.735457,129.784692 471.738971,129.782948 C472.004249,129.720177 472.269528,129.681816 472.536563,129.639969 C472.53832,129.638225 472.53832,129.641712 472.540077,129.641712 C472.706974,129.606839 472.872114,129.578941 473.040768,129.55453 C473.046038,129.55453 473.044281,129.545811 473.049552,129.545811 C473.279694,129.545811 473.527404,129.46386 473.76106,129.437705 C473.95958,129.381908 474.166883,129.355753 474.370673,129.324368 C474.37243,129.324368 474.37243,129.327855 474.374187,129.327855 C474.681629,129.258109 475.013666,129.228467 475.324622,129.202312 C475.331649,129.202312 475.329892,129.21103 475.335163,129.21103 C475.393137,129.19185 475.452869,129.184875 475.510844,129.179644 C475.516114,129.177901 475.5126,129.170926 475.517871,129.169182 C475.730445,129.143028 475.941262,129.129078 476.152079,129.095949 C476.15735,129.094205 476.159107,129.099436 476.160864,129.10118 C476.169648,129.10118 476.178432,129.10118 476.185459,129.099436 C476.188973,129.099436 476.187216,129.095949 476.188973,129.095949 C476.203027,129.092462 476.217081,129.092462 476.231136,129.088974 C476.232893,129.088974 476.232893,129.088974 476.232893,129.088974 C476.364654,129.068051 476.496414,129.04887 476.628175,129.036665 C476.638716,129.034921 476.64223,129.045383 476.6475,129.050614" id="Fill-10" fill="#E7427B"></path>
            <path d="M558.211348,104.700286 L558.211348,114.210319 C558.211348,117.618876 557.892377,120.670497 557.254435,122.46401 C556.616492,124.617991 555.023399,125.872566 552.949205,125.872566 C550.876773,125.872566 549.442284,124.617991 548.643974,122.644244 C548.007794,121.0292 547.847427,117.977578 547.847427,114.388787 L547.847427,74.3766762 C547.847427,51.4091169 534.931737,42.9751916 515.959118,42.9751916 C496.665766,42.9751916 483.272499,51.946287 483.272499,66.6601558 C483.272499,74.3766762 487.258758,81.5524923 495.550248,81.5524923 C501.608938,81.5524923 507.507262,77.6049983 509.102118,71.14482 C504.957255,67.199093 503.202032,64.1474716 503.202032,59.8412751 C503.202032,57.1501232 504.000341,54.637439 505.595197,52.8439267 C507.348658,50.8701797 510.378003,49.0749004 515.002204,49.0749004 C521.060895,49.0749004 526.004068,53.3810969 526.004068,67.5560285 L526.004068,80.8350874 C509.898665,83.5262393 495.550248,86.9365632 487.738096,94.8315513 C483.432866,98.95928 480.722492,104.520052 480.722492,112.773742 C480.722492,119.993733 482.828407,125.967985 486.619054,130.048004 C486.7477,130.055072 486.874583,130.067441 487.004991,130.081577 C487.006753,130.081577 487.004991,130.085111 487.008516,130.085111 C487.094867,130.095714 487.182981,130.104549 487.269332,130.116918 L487.271094,130.115151 C487.359208,130.118685 487.445559,130.129287 487.531911,130.14519 C487.546009,130.146957 487.540722,130.16286 487.549533,130.168161 C487.776866,130.150491 488.039445,130.214103 488.256204,130.252977 C488.257967,130.252977 488.257967,130.252977 488.257967,130.252977 C488.529356,130.302453 488.804271,130.337794 489.075661,130.392571 C489.077423,130.392571 489.077423,130.390804 489.077423,130.390804 C489.079185,130.390804 489.077423,130.392571 489.079185,130.392571 C489.080947,130.392571 489.080947,130.392571 489.08271,130.392571 C489.086234,130.394338 489.086234,130.397872 489.087997,130.399639 C489.12148,130.403173 489.154963,130.406707 489.190208,130.410241 C489.195495,130.410241 489.191971,130.417309 489.197257,130.420843 C489.553236,130.468552 489.916264,130.539232 490.263432,130.632884 C490.266956,130.632884 490.265194,130.636418 490.266956,130.636418 C490.295153,130.643486 490.323349,130.650554 490.351546,130.657622 C490.612362,130.694729 490.871416,130.77071 491.128707,130.829022 C491.13047,130.829022 491.128707,130.832556 491.13047,130.834323 C491.34018,130.896168 491.551653,130.950945 491.76665,130.998654 C491.771937,130.998654 491.768412,131.005722 491.773699,131.007489 C491.800133,131.014557 491.828329,131.021625 491.854763,131.03046 C491.858288,131.03046 491.858288,131.025159 491.861812,131.026926 C492.043326,131.079937 492.22484,131.132947 492.408117,131.187724 C492.409879,131.187724 492.409879,131.185957 492.411641,131.185957 C492.545574,131.231899 492.683031,131.270773 492.818726,131.314948 C492.820488,131.316715 492.818726,131.32025 492.820488,131.322017 C493.002002,131.37326 493.179992,131.433338 493.357981,131.493416 C493.359744,131.493416 493.357981,131.495183 493.359744,131.495183 C493.502488,131.544659 493.652281,131.585301 493.7915,131.645379 C493.798549,131.648913 493.793262,131.657748 493.798549,131.661282 C493.934244,131.698389 494.064652,131.746098 494.200347,131.793807 C494.205634,131.795574 494.200347,131.800875 494.205634,131.804409 C494.415344,131.87509 494.62153,131.959906 494.825954,132.044722 C494.829478,132.044722 494.829478,132.048256 494.829478,132.05179 C495.166072,132.182549 495.495617,132.327444 495.819875,132.486474 C495.825162,132.488241 495.819875,132.493542 495.825162,132.497076 C496.135322,132.640204 496.43667,132.792166 496.739781,132.951197 C496.741543,132.951197 496.739781,132.954731 496.741543,132.956498 C496.812034,132.997139 496.884287,133.034246 496.95654,133.071354 C497.168013,133.166772 497.374199,133.27986 497.557475,133.412386 L497.559237,133.412386 C497.798906,133.529008 498.094968,133.665068 498.295867,133.859439 C498.459758,133.942488 498.628936,134.048509 498.762869,134.163364 C498.764631,134.163364 498.768156,134.166898 498.769918,134.166898 C498.77168,134.168665 498.775205,134.170432 498.77873,134.172199 C498.937334,134.26585 499.080078,134.382473 499.233396,134.484959 C499.240445,134.488493 499.233396,134.495561 499.23692,134.500862 C499.349706,134.564475 499.45368,134.638689 499.548842,134.725272 C499.552367,134.728806 499.54708,134.73234 499.548842,134.735874 C499.64753,134.803021 499.742692,134.864866 499.829044,134.947915 C499.830806,134.949682 499.827281,134.951449 499.829044,134.954983 C499.985886,135.061004 500.137441,135.18116 500.280185,135.306618 C500.281947,135.308385 500.281947,135.308385 500.28371,135.310152 C500.301332,135.326055 500.324242,135.338424 500.341865,135.356094 C500.343627,135.356094 500.341865,135.357861 500.341865,135.359628 C500.458175,135.45858 500.578009,135.555766 500.694319,135.654718 C500.704893,135.663553 500.694319,135.674155 500.697844,135.68299 C500.815916,135.762506 500.886407,135.838487 500.933988,135.919769 C500.946324,135.919769 500.95866,135.921536 500.970996,135.921536 C517.233241,135.921536 524.09024,124.079054 526.800615,116.542768 C527.119586,121.56637 527.916133,125.872566 529.988564,128.924188 C532.859305,133.589087 537.483507,135.921536 543.861169,135.921536 C550.397435,135.921536 555.819945,133.410619 558.847528,130.000295 C562.037241,126.233036 562.675183,121.0292 562.675183,114.749256 L562.675183,104.700286 L558.211348,104.700286 Z M526.004068,98.5988106 C525.843701,110.08259 521.060895,123.002947 511.812492,123.002947 C505.753802,123.002947 503.362399,117.081706 503.362399,109.365185 C503.362399,102.905007 504.796888,97.7011709 508.624543,94.2926141 C512.769406,89.8061829 518.988463,87.8324358 526.004068,86.5778607 L526.004068,98.5988106 Z" id="Fill-12" fill="#E7427B"></path>
            <g id="Group-16" transform="translate(562.675183, 0.000000)">
                <mask id="mask-4" fill="white">
                    <use xlink:href="#path-3"></use>
                </mask>
                <g id="Clip-15"></g>
                <path d="M90.5008064,128.919203 L90.5008064,134.835427 L48.4096045,134.835427 L48.4096045,128.919203 C57.5865569,128.202407 55.5297442,125.153371 51.2569608,114.934601 L40.9728975,90.3728292 C38.1237922,93.0617005 35.2746869,95.3921734 32.4273306,97.3660133 L32.4273306,113.679323 C32.4273306,125.153371 32.4273306,128.202407 40.8137393,128.919203 L40.8137393,134.835427 L0.62019198,134.835427 L0.62019198,128.919203 C10.4320279,128.202407 10.4320279,125.153371 10.4320279,113.679323 L10.4320279,25.2943745 C10.4320279,16.1507995 10.4320279,8.44081846 0.62019198,8.97929893 L0.62019198,3.06307578 L31.1610616,0.194122443 L33.3770323,3.06307578 L32.4273306,28.7000428 L30.8444943,90.5529112 C44.6107974,81.2292542 59.9616858,62.4053893 59.9616858,56.3090842 C59.9616858,52.3649354 54.5817914,52.1866189 48.0930372,51.6481385 L48.0930372,45.5535988 L84.3303684,45.5535988 L84.3303684,51.4680565 C79.5818596,52.0065369 75.4682342,52.5450174 72.1451526,54.8754903 C68.3480945,57.3860451 65.0232638,62.0469908 60.278253,68.860093 C59.3285512,70.2936869 58.2196914,71.7272808 57.1125805,73.1626402 L74.6776906,113.501007 C79.4244504,124.258258 83.2232575,128.202407 90.5008064,128.919203" id="Fill-14" fill="#E7427B" mask="url(#mask-4)"></path>
            </g>
            <path d="M657.070731,134.922113 L657.070731,128.966083 C667.218719,128.244463 667.218719,125.356207 667.218719,113.623663 L667.218719,67.4186645 C667.218719,58.213568 667.218719,50.9955922 655.621528,52.2593156 L655.621528,45.9406985 L687.99717,43.2337353 L690.414884,45.9406985 L689.448154,71.3893511 L689.448154,113.623663 C689.448154,125.356207 689.448154,128.244463 699.596142,128.966083 L699.596142,134.922113 L657.070731,134.922113 Z M664.480543,16.3400657 C664.480543,6.77593661 670.279139,0.99942306 678.333437,0.99942306 C686.547966,0.99942306 692.186331,6.59464295 692.186331,16.3400657 C692.186331,25.7264558 686.547966,31.6824856 678.333437,31.6824856 C670.279139,31.6824856 664.480543,25.7264558 664.480543,16.3400657 Z" id="Fill-17" fill="#E7427B"></path>
            <path d="M796.540179,127.080286 L796.540179,132.923267 L755.936997,132.923267 L755.936997,127.080286 C764.784729,126.372363 764.784729,123.361075 764.784729,112.029075 L764.784729,71.3043193 C764.784729,61.2120567 762.099154,56.9627747 756.411949,56.9627747 C749.617687,56.9627747 742.509118,64.7534156 737.770072,79.2728128 L737.770072,112.029075 C737.770072,123.361075 737.770072,126.372363 746.616058,127.080286 L746.616058,132.923267 L705.855723,132.923267 L705.855723,127.080286 C715.810513,126.372363 715.810513,123.361075 715.810513,112.029075 L715.810513,67.5868514 C715.810513,58.734326 715.810513,50.5879799 704.593258,51.6516081 L704.593258,45.6307749 L734.766697,42.9751916 L737.137966,45.6307749 L736.348707,68.4726271 C742.666271,52.5373838 753.567474,42.9751916 765.891787,42.9751916 C778.371508,42.9751916 786.587135,51.6516081 786.587135,69.5345117 L786.587135,112.029075 C786.587135,123.361075 786.587135,126.372363 796.540179,127.080286" id="Fill-19" fill="#E7427B"></path>
            <g id="Group-23" transform="translate(796.540179, 42.975192)">
                <mask id="mask-6" fill="white">
                    <use xlink:href="#path-5"></use>
                </mask>
                <g id="Clip-22"></g>
                <path d="M68.2431088,12.0052276 C68.2431088,9.12037979 66.6663405,6.23553198 63.1936132,6.23553198 C60.3540351,6.23553198 57.8284152,8.03922759 55.9342003,10.5619161 C60.3540351,15.9712276 62.7191874,23.3635392 62.7191874,32.0163073 C62.7191874,50.5840755 51.8318123,63.2028437 33.2105984,63.2028437 L27.3709746,63.2028437 C20.8999458,63.2028437 17.1132602,65.7273074 17.1132602,70.9555393 C17.1132602,75.4630031 20.2685408,77.4460031 24.8470989,77.4460031 L49.6218949,77.4460031 C67.6117038,77.4460031 75.9752033,86.8195393 75.9752033,103.043923 C75.9752033,123.956851 61.4581217,134.773699 32.8948959,134.773699 C8.74976074,134.773699 0.384517054,125.939851 0.384517054,115.483387 C0.384517054,106.649539 5.59273592,98.1760756 22.1627557,97.2760031 L22.1627557,97.0949234 C12.6951697,95.4723075 7.17124833,88.2610756 7.17124833,78.8875393 C7.17124833,70.5951552 11.9050414,60.3197711 24.6883756,60.1386915 L24.6883756,59.7783074 C12.0637647,56.8934596 3.70026523,47.5199233 3.70026523,32.0163073 C3.70026523,13.4467639 14.7463637,0.646916027 33.2105984,0.646916027 C41.5740979,0.646916027 48.2021058,3.17137978 53.2516013,7.67884353 C56.5656053,3.53176384 60.9836959,0.646916027 66.5076172,0.646916027 C75.02984,0.646916027 79.2909514,7.49776385 79.2909514,14.5296914 C79.2909514,20.2976117 76.1339266,25.7069233 71.4001336,25.7069233 C68.5588112,25.7069233 65.7192331,23.9032276 64.7721257,19.5768436 C67.1390222,17.4127639 68.2431088,14.5296914 68.2431088,12.0052276 Z M24.8470989,100.159076 C18.0603677,100.159076 10.0125707,103.764692 10.0125707,114.402235 C10.0125707,126.479539 20.8999458,128.824699 32.8948959,128.824699 C52.1475148,128.824699 66.1919147,123.415387 66.1919147,110.615539 C66.1919147,101.602387 59.5639068,100.159076 51.3573864,100.159076 L24.8470989,100.159076 Z M42.2037587,32.0163073 C42.2037587,14.167532 39.5229039,6.59769133 33.2105984,6.59769133 C26.8965488,6.59769133 24.215694,14.167532 24.215694,32.0163073 C24.215694,49.8633074 26.8965488,57.2538437 33.2105984,57.2538437 C39.5229039,57.2538437 42.2037587,49.8633074 42.2037587,32.0163073 Z" id="Fill-21" fill="#E7427B" mask="url(#mask-6)"></path>
            </g>
            <path d="M414.954669,193.209364 C414.954669,195.359405 412.068134,199.771176 408.338441,199.771176 C404.849146,199.771176 401.35985,197.621136 398.232918,194.34023 C392.217684,197.621136 385.481258,199.884612 379.946818,199.884612 C372.008405,199.884612 364.789417,193.436235 364.789417,186.647551 C364.789417,180.197429 373.811385,173.181875 383.916908,166.168065 C383.075518,162.887159 382.594723,159.944814 382.594723,157.456212 C382.594723,145.461707 393.782034,133.92269 403.526961,133.92269 C410.744182,133.92269 416.759416,140.823064 416.759416,146.142321 C416.759416,154.06187 403.887557,163.000594 391.857088,171.372141 C393.541637,176.124219 396.307973,180.762862 399.314706,184.497511 C403.645392,180.762862 406.293297,176.689652 406.413496,174.087614 C406.173099,173.635617 405.932701,173.070184 405.932701,172.616442 C405.932701,172.051009 406.293297,171.599012 407.254886,171.599012 C409.782593,171.599012 414.113279,173.974179 414.113279,177.481956 C414.113279,181.33004 410.383586,185.855248 405.089543,189.928458 C407.495283,191.624756 409.902791,192.643931 412.068134,192.643931 C412.909525,192.190189 413.510518,191.965063 413.991312,191.965063 C414.594073,191.965063 414.954669,192.41706 414.954669,193.209364 M393.661835,188.684157 C390.893731,184.610946 388.487991,179.745432 386.685012,174.993354 C378.504434,180.762862 371.768008,186.193809 371.768008,190.493891 C371.768008,192.643931 373.33059,193.774797 376.940084,193.774797 C383.075518,193.774797 388.850355,191.624756 393.661835,188.684157 M389.811944,162.20829 C400.398261,154.965864 410.383586,148.063745 410.383586,142.521108 C410.383586,140.823064 409.300031,139.805634 407.495283,139.805634 C398.232918,139.805634 389.691745,149.196356 389.691745,160.171685 C389.691745,160.850554 389.691745,161.529422 389.811944,162.20829" id="Fill-24" fill="#E7427B"></path>
            <path d="M504.708645,150.870717 C504.708645,170.188161 476.293024,183.449067 469.965381,183.449067 C466.742792,183.449067 464.116654,179.677617 463.87632,177.619981 C460.41515,186.87846 457.789012,195.452824 457.789012,199.338881 C457.789012,200.710639 458.624043,200.596032 458.624043,201.396517 C458.624043,202.31161 458.146883,202.882881 456.594356,202.882881 C453.131432,202.882881 449.549219,198.538396 449.549219,194.308518 C449.549219,184.820824 461.488762,158.073323 468.77248,143.897324 C458.025838,147.670538 448.594897,153.614231 448.356317,158.644595 C448.594897,158.986653 448.714187,159.443317 448.714187,159.787138 C448.714187,160.587624 448.117736,161.044288 447.280951,161.044288 C444.895147,161.044288 442.744416,155.786474 442.744416,152.01326 C442.744416,142.41096 465.548136,132.923267 481.785635,132.923267 C496.351316,132.923267 504.708645,140.809989 504.708645,150.870717 M498.261713,147.441324 C498.261713,142.525567 494.91808,140.125874 487.755406,140.125874 C484.173192,140.125874 480.113818,140.697145 476.054443,141.725081 C478.322711,142.41096 480.113818,143.782717 480.113818,144.927024 C480.113818,145.383688 479.755947,145.840353 479.159496,146.069567 C477.010519,146.982896 470.084672,161.500953 464.713105,175.562345 C479.517367,172.247559 498.261713,159.557924 498.261713,147.441324" id="Fill-26" fill="#E7427B"></path>
            <path d="M540.663373,181.210146 C534.695726,193.432485 528.966573,200.884035 523.954661,200.884035 C520.969961,200.884035 516.435039,198.206864 515.481057,195.179559 C515.242562,194.132751 515.004066,192.268965 515.004066,190.523687 L515.004066,189.358372 C511.661623,195.761319 507.72294,200.884035 503.784257,200.884035 C500.920558,200.884035 496.266389,198.206864 495.191406,195.412981 C494.95291,194.481088 494.714415,192.967436 494.714415,191.453784 C494.714415,180.745098 503.903505,159.90769 513.332844,159.90769 C516.196544,159.90769 520.135226,162.003102 522.762184,164.213429 C522.879678,163.74838 523.119927,163.400043 523.358423,163.04991 C523.716166,162.003102 524.670148,161.652968 525.745131,161.652968 C529.205069,161.652968 534.45723,165.145322 532.428265,166.542263 C529.445318,169.452856 523.475917,185.167548 523.475917,192.268965 C523.475917,194.132751 523.835413,195.529692 524.908643,195.529692 C526.818361,195.529692 531.114786,191.105446 537.082434,179.114734 C537.440177,178.649686 537.680426,178.532975 538.155664,178.532975 C539.349895,178.532975 540.901869,180.161543 540.663373,181.210146 M518.7025,173.293547 C519.537234,171.08322 520.373722,168.986012 521.329457,167.124023 C520.49297,166.542263 519.537234,165.960503 518.225509,165.960503 C511.303879,165.960503 503.188019,185.050837 503.188019,192.502387 C503.188019,194.132751 503.66501,195.29627 504.618992,195.29627 C507.72294,195.29627 514.64457,182.025328 518.7025,173.293547" id="Fill-28" fill="#E7427B"></path>
            <path d="M571.669991,167.999148 C571.669991,177.831606 560.240279,199.781826 548.687284,199.781826 C545.040568,199.781826 540.782791,197.494757 538.838828,195.207688 C535.676316,205.154763 533.123079,212.356297 533.123079,215.558546 C533.123079,216.471963 533.366075,216.815817 533.366075,217.387144 C533.366075,218.30056 532.637089,218.87365 531.54361,218.87365 C528.867089,218.87365 524.246605,216.586581 524.732596,212.814769 C526.070856,201.954277 543.216317,167.999148 543.216317,159.311107 L543.216317,158.738018 C543.094819,158.510545 542.973321,158.281309 542.973321,158.053837 C542.973321,157.253274 543.945303,156.90942 545.160279,156.90942 C547.958298,156.90942 552.335786,158.738018 552.335786,161.596413 C552.335786,163.197538 550.26854,168.455857 547.472307,175.202446 C552.092791,166.96935 557.80854,159.653198 561.943033,159.653198 C565.225256,159.653198 570.574725,162.511593 571.305498,165.255371 C571.548493,165.941315 571.669991,166.96935 571.669991,167.999148 M562.427237,167.083968 C562.427237,165.826697 562.064531,164.911517 561.335545,164.911517 C556.834772,164.911517 544.676075,185.719084 541.635061,192.007202 C542.365833,192.920619 543.58081,194.065035 545.040568,194.065035 C552.214289,194.065035 562.427237,173.715939 562.427237,167.083968" id="Fill-30" fill="#E7427B"></path>
            <path d="M608.64206,181.086495 C601.725837,194.208513 592.142946,200.884035 583.650964,200.884035 C577.827433,200.884035 572.611745,197.315471 571.276628,193.287077 C570.912992,192.367418 570.670567,190.75535 570.670567,189.143282 C570.670567,178.554767 579.889822,159.90769 590.080556,159.90769 C593.720486,159.90769 601.483412,162.67022 601.483412,168.424307 C601.483412,173.72034 593.962911,183.849025 579.889822,186.380752 C579.76861,187.186786 579.76861,187.99282 579.76861,188.683453 C579.76861,192.481044 581.34615,195.245349 585.107293,195.245349 C591.658097,195.245349 599.544018,189.143282 605.123342,178.783795 C605.365767,178.554767 605.609974,178.323965 605.97361,178.323965 C607.185732,178.323965 608.763272,180.049658 608.64206,181.086495 M580.861302,182.583161 C588.624228,180.16506 595.538669,170.727007 595.538669,167.044817 C595.538669,165.89258 595.176815,165.317348 594.084123,165.317348 C589.959344,165.317348 583.40854,174.410972 580.861302,182.583161" id="Fill-32" fill="#E7427B"></path>
            <path d="M640.605107,181.318557 C634.498105,193.705681 627.902973,200.884035 622.528165,200.884035 C619.109465,200.884035 613.36856,197.98948 612.270268,193.705681 C612.148236,193.011059 612.148236,192.086088 612.148236,191.275398 C612.148236,184.675598 617.521249,174.372339 621.673939,167.310053 C619.231497,167.888607 617.399217,168.23681 615.322872,168.23681 L614.346613,168.23681 C612.392301,172.867027 610.315956,177.49903 608.361643,181.318557 C608.117579,181.550693 607.873514,181.664975 607.385385,181.664975 C606.163266,181.664975 604.330986,180.045381 604.698878,179.234691 C606.407331,175.87765 608.117579,171.942055 610.193924,167.426121 C608.971805,166.847567 608.483676,165.458323 608.483676,163.720876 C608.483676,160.479903 610.560021,156.42824 613.002463,153.185481 C613.492387,152.260509 614.590678,151.912305 615.812796,151.912305 C618.621335,151.912305 622.285895,153.996171 622.285895,155.501482 C622.285895,155.849686 622.04183,156.196104 621.673939,156.42824 C620.819712,157.238929 618.743367,160.363835 617.521249,163.142322 C619.965486,163.026254 622.162068,162.333418 624.36224,161.40666 C624.972402,161.174524 625.704596,161.058457 626.314758,161.058457 C629.735253,161.058457 632.787857,164.415498 632.787857,166.499363 C632.787857,167.079703 632.665825,167.426121 632.301522,167.774324 C629.369156,170.08854 621.185809,185.948774 621.185809,192.664641 C621.185809,194.516371 621.673939,195.559197 622.896057,195.559197 C625.582564,195.559197 630.711512,191.505748 636.940547,179.234691 C637.308438,178.886488 637.552503,178.656137 638.040632,178.656137 C639.260956,178.656137 640.849171,180.391799 640.605107,181.318557" id="Fill-34" fill="#E7427B"></path>
            <path d="M634.35858,193.236291 C633.873898,192.095467 633.63422,190.268037 633.63422,188.556801 C633.63422,177.942563 641.969684,159.90769 652.2421,159.90769 C656.227854,159.90769 664.68582,162.761509 664.68582,167.782542 C664.68582,171.664512 659.127068,176.572871 655.744947,176.572871 C655.141314,176.572871 654.656632,176.229567 654.656632,175.77359 C654.656632,175.315852 655.141314,174.631006 655.624221,174.175028 C656.953989,171.435643 658.040529,169.0378 658.040529,167.21213 C658.040529,166.071307 657.557622,165.38646 656.469307,165.38646 C651.033058,165.38646 642.573317,179.539364 642.573317,188.327932 C642.573317,192.095467 644.146314,195.063722 648.132068,195.063722 C653.811546,195.063722 661.303699,189.012779 667.102128,178.625649 C667.345356,178.284106 667.707536,178.169672 667.948989,178.169672 C669.035529,178.169672 670.727477,179.882668 670.606751,180.909057 C663.840733,194.035572 654.537681,200.884035 646.683349,200.884035 C641.245324,200.884035 636.050528,197.459803 634.35858,193.236291" id="Fill-36" fill="#E7427B"></path>
            <path d="M703.568759,181.318557 C697.461757,193.705681 690.866626,200.884035 685.493613,200.884035 C682.073117,200.884035 676.332212,197.98948 675.233921,193.705681 C675.111889,193.011059 675.111889,192.086088 675.111889,191.275398 C675.111889,184.675598 680.484902,174.372339 684.637592,167.310053 C682.19515,167.888607 680.36287,168.23681 678.286525,168.23681 L677.310266,168.23681 C675.355953,172.867027 673.279609,177.49903 671.325296,181.318557 C671.081232,181.550693 670.837167,181.664975 670.349037,181.664975 C669.126919,181.664975 667.294639,180.045381 667.662531,179.234691 C669.370984,175.87765 671.081232,171.942055 673.157576,167.426121 C671.935458,166.847567 671.447329,165.458323 671.447329,163.720876 C671.447329,160.479903 673.523673,156.42824 675.966115,153.185481 C676.456039,152.260509 677.554331,151.912305 678.776449,151.912305 C681.584988,151.912305 685.249548,153.996171 685.249548,155.501482 C685.249548,155.849686 685.005483,156.196104 684.637592,156.42824 C683.783365,157.238929 681.70702,160.363835 680.484902,163.142322 C682.929138,163.026254 685.125721,162.333418 687.325893,161.40666 C687.936055,161.174524 688.668249,161.058457 689.278411,161.058457 C692.698906,161.058457 695.75151,164.415498 695.75151,166.499363 C695.75151,167.079703 695.629477,167.426121 695.265175,167.774324 C692.332809,170.08854 684.149462,185.948774 684.149462,192.664641 C684.149462,194.516371 684.637592,195.559197 685.85971,195.559197 C688.546216,195.559197 693.675165,191.505748 699.905994,179.234691 C700.272091,178.886488 700.516156,178.656137 701.004285,178.656137 C702.224609,178.656137 703.812824,180.391799 703.568759,181.318557" id="Fill-38" fill="#E7427B"></path>
            <path d="M741.547409,181.210146 C735.579761,193.432485 729.850609,200.884035 724.838696,200.884035 C721.853996,200.884035 717.319074,198.206864 716.365093,195.179559 C716.126597,194.132751 715.888102,192.268965 715.888102,190.523687 L715.888102,189.358372 C712.545658,195.761319 708.606975,200.884035 704.668293,200.884035 C701.804593,200.884035 697.148671,198.206864 696.075441,195.412981 C695.836945,194.481088 695.59845,192.967436 695.59845,191.453784 C695.59845,180.745098 704.78754,159.90769 714.21688,159.90769 C717.080579,159.90769 721.019261,162.003102 723.646219,164.213429 C723.763713,163.74838 724.003962,163.400043 724.242458,163.04991 C724.600201,162.003102 725.554183,161.652968 726.629166,161.652968 C730.089104,161.652968 735.341265,165.145322 733.3123,166.542263 C730.329353,169.452856 724.359952,185.167548 724.359952,192.268965 C724.359952,194.132751 724.719449,195.529692 725.792678,195.529692 C727.702396,195.529692 731.998821,191.105446 737.966469,179.114734 C738.324212,178.649686 738.564461,178.532975 739.039699,178.532975 C740.23393,178.532975 741.785904,180.161543 741.547409,181.210146 M719.586535,173.293547 C720.421269,171.08322 721.257757,168.986012 722.213493,167.124023 C721.377005,166.542263 720.421269,165.960503 719.109544,165.960503 C712.187914,165.960503 704.072054,185.050837 704.072054,192.502387 C704.072054,194.132751 704.549045,195.29627 705.503027,195.29627 C708.606975,195.29627 715.528605,182.025328 719.586535,173.293547" id="Fill-40" fill="#E7427B"></path>
            <g id="Group-44" transform="translate(728.579411, 141.918075)">
                <mask id="mask-8" fill="white">
                    <use xlink:href="#path-7"></use>
                </mask>
                <g id="Clip-43"></g>
                <path d="M35.6676647,39.1410405 C31.46999,46.6487287 24.8738957,49.1507066 20.0770566,49.6068877 C20.4365552,52.4492469 20.6762209,55.1793154 20.6762209,57.6830478 C20.6762209,69.1717935 16.3587133,78.9551236 8.9220267,78.9551236 C5.56494424,78.9551236 1.84660095,76.4513911 0.646510053,71.9018619 C0.287011459,70.877209 0.168940842,69.1717935 0.168940842,67.5786687 C0.168940842,53.1335186 14.3197923,16.9601116 22.7151419,2.05878041 C23.0746405,1.03412747 24.1548985,0.691991643 25.47306,0.691991643 C28.4724061,0.691991643 33.1494123,2.96763353 33.1494123,4.56075831 C33.1494123,4.90113959 33.1494123,5.12923015 32.550248,5.35556616 C29.9121627,6.94869093 22.595309,21.7377314 16.598379,37.2075344 C17.5588042,39.3691311 18.3976342,41.9851542 19.1166314,44.7152227 L19.3562972,44.7152227 C23.9134705,44.7152227 28.5904767,42.7817166 32.0691543,37.0934892 C32.30882,36.7513533 32.6700809,36.5250173 33.0295795,36.5250173 C34.2296703,36.5250173 35.9090927,38.1163876 35.6676647,39.1410405 M15.9992147,49.6068877 C14.6792909,49.3787972 13.4809623,49.0366614 12.4007043,48.6962801 C9.40312041,57.4549573 7.36419946,65.5311173 7.36419946,70.0824011 C7.36419946,72.4703337 7.84353092,73.9494132 9.04362181,73.9494132 C12.1610385,73.9494132 15.0387895,65.9872984 15.759549,55.9758778 C15.9992147,53.9283264 15.9992147,51.7684844 15.9992147,49.6068877" id="Fill-42" fill="#E7427B" mask="url(#mask-8)"></path>
            </g>
            <path d="M788.518232,181.541429 C782.719756,193.330233 776.560984,200.884035 769.191754,200.884035 C764.964032,200.884035 760.012165,198.251944 758.924175,195.046123 C758.682793,194.131688 758.562103,192.643523 758.562103,191.270105 C758.562103,185.204467 761.462228,175.590536 764.964032,166.319078 C762.789825,165.517623 761.581144,163.801732 761.581144,162.657805 C761.581144,161.971096 761.8243,161.626859 762.427753,161.512113 C763.151897,162.198822 764.360579,162.313568 765.688176,162.313568 L766.53301,162.313568 C769.071064,156.133184 771.848724,150.297038 774.02293,146.289762 C774.385002,145.260581 775.593683,144.916344 776.923055,144.916344 C780.062787,144.916344 784.531891,146.978237 784.531891,148.694128 C784.531891,149.038365 784.4112,149.266091 783.928438,149.610328 C782.599066,150.63951 779.942097,155.102238 777.164437,160.825404 C779.097262,160.482932 780.909397,160.25344 781.995613,160.25344 C784.4112,160.25344 785.25781,162.54306 785.25781,164.373696 C785.25781,165.86186 784.654357,167.350025 783.445675,166.778061 C782.357684,166.433824 780.062787,166.433824 777.405818,166.433824 L774.626383,166.433824 C770.883198,175.131553 767.50031,184.974975 767.50031,190.925867 C767.50031,193.78745 768.224454,195.732833 770.159054,195.732833 C773.902239,195.732833 779.700715,190.011432 784.893963,179.481301 C785.25781,179.137063 785.499191,178.909337 785.981954,178.909337 C787.311326,178.909337 788.759614,180.510482 788.518232,181.541429" id="Fill-45" fill="#E7427B"></path>
        </g>
    </g>
</svg>