<?xml version="1.0" encoding="UTF-8"?>
<svg width="616px" height="239px" viewBox="0 0 616 239" version="1.1" xmlns="http://www.w3.org/2000/svg" xmlns:xlink="http://www.w3.org/1999/xlink">
    <!-- Generator: Sketch 48.2 (47327) - http://www.bohemiancoding.com/sketch -->
    <title>Group</title>
    <desc>Created with Sketch.</desc>
    <defs>
        <polygon id="path-1" points="0.251603261 0.112508851 286.632859 0.112508851 286.632859 85.6567383 0.251603261 85.6567383"></polygon>
    </defs>
    <g id="HA-Zeus-Copy" stroke="none" stroke-width="1" fill="none" fill-rule="evenodd" transform="translate(-132.000000, 0.000000)">
        <g id="Group" transform="translate(132.000000, 0.000000)">
            <g id="Home&amp;Antiques">
                <polyline id="Fill-1" fill="#000000" points="29.9108098 142.977319 29.9108098 83.9208874 83.8127935 83.9208874 83.8127935 142.977319 111.993429 142.977319 111.993429 2.90915742 83.8127935 2.90915742 83.8127935 59.1250083 29.9108098 59.1250083 29.9108098 2.90915742 1.73017391 2.90915742 1.73017391 142.977319 29.9108098 142.977319"></polyline>
                <path d="M267.551696,72.9432381 C267.551696,33.194397 236.345397,0.259306113 193.97969,0.259306113 C155.019728,0.259306113 120.598261,29.2190843 120.598261,74.0790418 L120.598261,74.2686996 C120.598261,111.745933 150.858103,145.62717 193.791255,145.62717 C236.534902,145.62717 267.551696,112.692079 267.551696,72.9432381 M239.37106,73.1328959 C239.37106,96.2250696 222.727772,120.831291 194.358701,120.831291 C167.123451,120.831291 148.777826,98.4966769 148.777826,72.9432381 L148.777826,72.7535804 C148.777826,48.147359 166.178065,25.0551853 194.169196,25.0551853 C222.727772,25.0551853 239.37106,49.6614067 239.37106,73.1328959" id="Fill-2" fill="#000000"></path>
                <polyline id="Fill-3" fill="#000000" points="302.105924 142.977319 301.348973 30.7331319 340.687946 142.977319 359.223076 142.977319 398.372543 30.7331319 397.616663 142.977319 423.715951 142.977319 423.715951 2.90915742 385.51187 2.90915742 350.145016 103.417064 314.210717 2.90915742 276.195071 2.90915742 276.195071 142.977319 302.105924 142.977319"></polyline>
                <polyline id="Fill-4" fill="#000000" points="436.132304 142.977319 514.620745 142.977319 514.620745 118.18144 464.31294 118.18144 464.31294 84.300203 513.675359 84.300203 513.675359 59.5043238 464.31294 59.5043238 464.31294 27.7050366 514.620745 27.7050366 514.620745 2.90915742 436.132304 2.90915742 436.132304 142.977319"></polyline>
                <path d="M521.251293,99.4428228 C521.061788,126.510309 537.516641,145.62717 569.290386,145.62717 C602.199022,145.62717 616.005082,124.616946 616.005082,102.092674 C616.005082,82.2182535 604.089793,71.9970923 582.718505,62.7220769 C559.077435,52.8791598 551.512207,50.2293085 551.700641,39.819561 C551.700641,30.3548879 559.64488,23.9193816 568.912446,23.9193816 C582.718505,23.9193816 585.176723,34.7084447 586.311614,41.1439509 L614.11431,41.1439509 C612.979418,10.1022233 588.391891,0.259306113 569.857832,0.259306113 C547.162147,0.259306113 523.521076,14.8340241 523.521076,41.7118527 C523.521076,68.2114373 547.919098,76.9185509 558.509989,80.7042058 C577.990505,88.464102 588.013951,91.4932688 588.013951,103.418135 C588.013951,113.259981 579.692842,121.967095 568.912446,121.967095 C562.860049,121.967095 550.18781,118.371097 549.242424,99.4428228 L521.251293,99.4428228" id="Fill-5" fill="#000000"></path>
                <path d="M185.6725,237.387246 L153.037951,154.900042 L138.447103,154.900042 L105.03312,237.387246 L123.076821,237.387246 L128.980397,221.224546 L161.502527,221.224546 L167.517451,237.387246 L185.6725,237.387246 Z M157.047543,207.959216 L133.324033,207.959216 L145.018766,174.518371 L157.047543,207.959216 Z" id="Fill-6" fill="#000000"></path>
                <polyline id="Fill-7" fill="#000000" points="203.729049 154.900042 188.915505 154.900042 188.915505 237.387246 204.842527 237.387246 204.508484 180.315256 242.488799 237.387246 257.190995 237.387246 257.190995 154.900042 241.263973 154.900042 241.598016 212.083469 203.729049 154.900042"></polyline>
                <polyline id="Fill-8" fill="#000000" points="280.738918 237.387246 297.334027 237.387246 297.334027 169.50262 315.043685 169.50262 315.043685 154.900042 262.917913 154.900042 262.917913 169.50262 280.738918 169.50262 280.738918 237.387246"></polyline>
                <g id="Group-15" transform="translate(322.266304, 153.226339)">
                    <mask id="mask-2" fill="white">
                        <use xlink:href="#path-1"></use>
                    </mask>
                    <g id="Clip-10"></g>
                    <polygon id="Fill-9" fill="#000000" mask="url(#mask-2)" points="0.251603261 84.1609063 16.846712 84.1609063 16.846712 1.67370309 0.251603261 1.67370309"></polygon>
                    <path d="M113.364935,72.2338966 C107.127315,71.8995846 103.451766,71.1195232 99.8875652,68.4428841 C102.672332,64.8768893 108.575908,57.1844985 108.575908,42.4715553 C108.575908,20.4005334 90.7549022,0.113580363 64.914712,0.113580363 C39.0745217,0.113580363 21.6989076,20.8462827 21.6989076,43.2505452 C21.6989076,64.6529431 38.6291304,85.721029 65.1374076,85.721029 C72.3771576,85.721029 80.7303859,84.049469 88.8609185,78.8108426 C91.8683804,81.3739013 97.1038696,85.0513335 107.573777,85.4992259 C109.578038,85.6095917 111.472022,85.6095917 113.364935,85.6095917 L113.364935,72.2338966 Z M41.3025489,55.9586878 C43.7522011,55.067189 46.759663,54.1756903 51.4373424,54.1756903 C57.1182228,54.1756903 63.0217989,55.8483219 68.3675652,59.9725749 C70.0377826,61.309823 74.6051848,65.2112013 77.054837,68.1096436 C74.7165326,69.6686948 70.1491304,71.1195232 65.1374076,71.1195232 L65.0260598,71.1195232 C57.8976576,71.1195232 46.4256196,67.4410196 41.3025489,55.9586878 Z M91.9797283,42.4715553 C91.9797283,48.4902431 90.198163,53.9517442 86.9680054,57.854194 C80.1736467,51.6104886 77.3888804,49.0485013 72.3771576,45.7032381 C65.9168424,41.4675478 59.9029891,40.0177909 53.1086304,40.0177909 C46.8710109,40.0177909 42.1933315,41.691494 39.2972174,42.5829927 C39.0745217,41.0217984 39.0745217,39.238801 39.2972174,36.6757423 C41.859288,23.2989757 52.2178478,14.7161577 64.914712,14.7161577 L65.0260598,14.7161577 C79.6169076,14.7161577 91.9797283,25.7505971 91.9797283,42.4715553 Z" id="Fill-11" fill="#000000" mask="url(#mask-2)"></path>
                    <path d="M113.845658,1.67370309 L113.845658,52.3926929 C113.845658,63.4282039 114.959136,70.561265 122.532929,77.806835 C128.659201,84.1609063 138.126978,85.721029 144.029484,85.721029 C153.163217,85.721029 160.179201,82.6007836 165.191995,77.806835 C171.539891,72.0110219 173.879266,64.6540146 173.879266,52.3926929 L173.879266,1.67370309 L157.284158,1.67370309 L157.284158,52.3926929 C157.284158,56.851258 157.284158,61.1983857 154.944783,65.2112013 C153.163217,68.555393 149.487668,71.1195232 143.918136,71.1195232 C138.461022,71.1195232 134.785473,68.4439556 132.780141,64.8768893 C130.552114,60.7526363 130.440766,56.516946 130.440766,52.3926929 L130.440766,1.67370309 L113.845658,1.67370309" id="Fill-12" fill="#000000" mask="url(#mask-2)"></path>
                    <polyline id="Fill-13" fill="#000000" mask="url(#mask-2)" points="180.349217 84.1609063 226.571413 84.1609063 226.571413 69.558329 196.944326 69.558329 196.944326 49.605688 226.014674 49.605688 226.014674 35.0031107 196.944326 35.0031107 196.944326 16.2762804 226.571413 16.2762804 226.571413 1.67370309 180.349217 1.67370309 180.349217 84.1609063"></polyline>
                    <path d="M230.831538,58.522818 C230.72019,74.4626434 240.410663,85.721029 259.122451,85.721029 C278.502326,85.721029 286.632859,73.34827 286.632859,60.0829408 C286.632859,48.3788058 279.615804,42.360118 267.030288,36.8975454 C253.107527,31.1017324 248.652543,29.5405381 248.763891,23.410413 C248.763891,17.8364031 253.441571,14.0464621 258.898685,14.0464621 C267.030288,14.0464621 268.47781,20.4005334 269.145897,24.1904744 L285.51938,24.1904744 C284.850223,5.90939344 270.371793,0.112508851 259.456495,0.112508851 C246.090473,0.112508851 232.167712,8.6963984 232.167712,24.5247864 C232.167712,40.1302997 246.535864,45.2574888 252.773484,47.4873071 C264.245522,52.0573094 270.148027,53.8413783 270.148027,60.8640736 C270.148027,66.6598867 265.247652,71.7881473 258.898685,71.7881473 C255.335554,71.7881473 247.873109,69.6697663 247.315299,58.522818 L230.831538,58.522818" id="Fill-14" fill="#000000" mask="url(#mask-2)"></path>
                </g>
                <path d="M75.0495054,189.144522 C75.0495054,180.749219 65.1631033,187.345452 65.1631033,177.001067 C65.1631033,171.603857 70.406087,167.406741 75.6490707,167.406741 C79.6929239,167.406741 87.7827717,170.554845 88.6810489,173.70295 C88.0825543,185.996417 85.8352554,199.188884 77.2968043,208.784281 C70.2561957,216.879561 56.7745435,225.874911 40.2961359,225.874911 C32.655962,225.874911 23.2192337,222.726807 18.1261413,216.879561 C15.5790598,214.03148 12.583375,210.133316 12.583375,206.08514 C12.583375,200.987954 14.9805652,197.839849 18.1261413,193.941685 L25.3166413,185.39637 L31.1581196,179.550196 L62.1663478,150.015015 C66.361163,145.967911 75.9477826,136.372514 75.9477826,130.226316 C75.9477826,125.878117 73.8514457,123.480071 70.7058696,123.480071 C67.5592228,123.480071 64.7134293,125.429153 64.7134293,128.877281 C64.7134293,130.226316 66.0613804,133.674444 66.0613804,135.773538 C66.0613804,142.369771 52.8795109,152.714156 48.9844783,157.511319 C46.4373967,154.963262 42.8432174,154.063191 39.3978587,154.063191 C19.3242011,154.063191 0,179.550196 0,198.589908 C0,221.826736 16.3285163,236.968284 37.6002337,236.968284 C64.8633207,236.968284 78.1950815,220.927737 85.2356902,208.484258 C91.0782391,197.989861 92.2762989,186.895417 92.5760815,176.701043 C95.8715489,180.299183 100.514967,185.096346 105.757951,185.096346 C114.895967,185.096346 125.9815,176.100996 125.9815,166.50667 C125.9815,162.758518 123.884092,158.711414 119.689277,158.711414 C117.143266,158.711414 114.746076,160.659424 114.746076,163.208553 C114.746076,167.555681 118.940891,169.654775 118.940891,172.353916 C118.940891,175.201997 116.993375,178.050078 113.847799,178.050078 C104.260109,178.050078 100.514967,159.310389 84.4873043,159.310389 C73.1019891,159.310389 58.1224946,171.303833 58.1224946,183.297276 C58.1224946,191.992603 64.563538,194.691744 67.5592228,194.691744 C70.8546902,194.691744 75.0495054,193.192698 75.0495054,189.144522 M30.7095163,162.159542 C33.7052011,162.159542 37.1505598,164.407576 37.1505598,166.806693 C37.1505598,167.406741 37.0006685,167.855705 36.4011033,168.455752 L22.3198859,183.297276 C17.8263587,187.945499 13.6315435,192.892674 9.43779891,198.589908 C8.8382337,196.640826 8.8382337,194.541732 8.8382337,192.59265 C8.8382337,178.950149 18.1261413,162.159542 30.7095163,162.159542" id="Fill-16" fill="#000000"></path>
            </g>
        </g>
    </g>
</svg>