<?xml version="1.0" encoding="UTF-8"?>
<svg width="575px" height="265px" viewBox="0 0 575 265" version="1.1" xmlns="http://www.w3.org/2000/svg" xmlns:xlink="http://www.w3.org/1999/xlink">
    <!-- Generator: Sketch 48.2 (47327) - http://www.bohemiancoding.com/sketch -->
    <title>Page 1</title>
    <desc>Created with Sketch.</desc>
    <defs>
        <polygon id="path-1" points="0.240593035 0.185690877 74.151 0.185690877 74.151 79.2464706 0.240593035 79.2464706"></polygon>
        <polygon id="path-3" points="0.833721739 0.046 30.0373438 0.046 30.0373438 20.4878816 0.833721739 20.4878816"></polygon>
        <polygon id="path-5" points="0 0.260269668 145.772806 0.260269668 145.772806 142.31543 0 142.31543"></polygon>
    </defs>
    <g id="Logos" stroke="none" stroke-width="1" fill="none" fill-rule="evenodd">
        <g id="Page-1" transform="translate(0.000000, -1.000000)">
            <path d="M136.763741,127.900961 C134.314783,146.757713 146.100154,148.264574 168.945063,144.653001 C191.793434,141.04088 204.473455,135.666261 206.920105,116.809874 L210.533267,89.0093546 C212.981071,70.1527851 201.196914,68.6469016 178.350852,72.2586573 C155.502481,75.870778 142.824707,81.2438713 140.375749,100.100623 L136.763741,127.900961 Z M168.310056,93.9315826 C168.864991,89.6640888 171.130421,88.4973734 176.347366,87.6726217 C181.566619,86.847505 183.61671,87.3319756 183.062929,91.5992869 L178.987012,122.979893 C178.430863,127.246409 176.165493,128.414285 170.948548,129.239037 C165.731604,130.063788 163.681453,129.578157 164.235293,125.312006 L168.310056,93.9315826 Z" id="Fill-1" fill="#000000"></path>
            <path d="M209.403715,122.484097 C207.832064,134.595507 216.487514,137.137789 228.180626,135.289213 C236.816286,133.923994 243.450839,130.31251 248.033346,123.522017 L248.393454,123.465087 L247.391771,131.17323 L274.01781,126.963894 L283.13573,56.7716405 L256.511999,60.9806114 L249.984695,111.216014 C249.592101,114.244401 247.560094,116.317352 242.883311,117.056709 C237.84642,117.852996 236.280812,116.348795 236.673406,113.320408 L243.199556,63.0851881 L216.575826,67.294159 L209.403715,122.484097 Z" id="Fill-3" fill="#000000"></path>
            <g id="Group-7" transform="translate(500.000000, 11.954000)">
                <mask id="mask-2" fill="white">
                    <use xlink:href="#path-1"></use>
                </mask>
                <g id="Clip-6"></g>
                <path d="M0.240593035,79.2464706 L26.8620154,75.0378646 L33.388105,24.8014844 C33.7806989,21.7730972 35.8137989,19.6988029 40.4905821,18.9594458 C45.5263187,18.1633414 47.0931413,19.6685205 46.698239,22.6972726 L40.1721494,72.9336529 L66.7970343,68.7244995 L73.966776,13.5337657 C75.5395204,1.42101269 66.8829767,-1.11992588 55.192173,0.728284387 C46.5565137,2.09350398 39.920685,5.70284921 35.3371452,12.4958456 L34.9781917,12.5525929 L35.9810886,4.8454283 L9.35735792,9.0543992 L0.240593035,79.2464706 Z" id="Fill-5" fill="#000000" mask="url(#mask-2)"></path>
            </g>
            <g id="Group-10" transform="translate(478.000000, 0.954000)">
                <mask id="mask-4" fill="white">
                    <use xlink:href="#path-3"></use>
                </mask>
                <g id="Clip-9"></g>
                <polygon id="Fill-8" fill="#000000" mask="url(#mask-4)" points="0.833721739 20.4878816 27.4597608 16.2785458 30.0373438 0.0459906123 2.60914176 4.38214115"></polygon>
            </g>
            <polygon id="Fill-11" fill="#000000" points="469.533564 96.0549739 496.158449 91.8458206 505.120417 21.7425793 478.496686 25.9515502"></polygon>
            <g id="Group-15" transform="translate(0.000000, 32.954000)">
                <mask id="mask-6" fill="white">
                    <use xlink:href="#path-5"></use>
                </mask>
                <g id="Clip-14"></g>
                <path d="M100.430757,114.787048 L110.028947,46.4191853 L84.017608,103.081456 L54.8165681,107.697876 L53.8751665,107.877127 L41.922425,57.7443701 L41.5161496,57.8085985 L30.9087584,137.402083 L-0.00024759383,142.31543 L2.77124041,120.269356 L16.0497832,20.7683057 L60.4561393,13.7480626 L71.5593393,71.4268333 L72.8717048,65.2141678 L94.7067661,8.33334846 L145.772806,0.260269668 L131.611961,109.871623 C115.365564,112.440031 100.430757,114.787048 100.430757,114.787048" id="Fill-13" fill="#000000" mask="url(#mask-6)"></path>
            </g>
            <path d="M354.409302,61.4092683 L361.97618,60.2130133 L356.777872,100.446527 C355.457255,110.743138 362.085716,114.092649 378.300949,111.529168 C383.884927,110.646391 390.240658,109.254289 395.302118,108.326572 L397.183279,93.6691384 C395.006263,94.1431912 392.628208,94.7789128 390.287508,95.1489563 C384.521168,96.0605625 383.660877,94.5138958 384.102277,91.0822833 L388.639154,55.9978385 L404.130709,53.5487638 L406.029636,38.7633159 L390.539234,41.2122082 L393.50609,18.5607061 L366.845425,22.775516 L363.876261,45.427383 L356.309383,46.623638 L354.409302,61.4092683 Z" id="Fill-16" fill="#000000"></path>
            <path d="M408.372624,58.6549352 L431.788857,54.9530406 L432.262996,51.2564798 C432.584951,48.7482738 435.226244,47.4250158 439.190891,46.7982409 C443.694546,46.0862539 445.89943,46.7720912 445.610275,49.0165094 L443.69504,63.935592 C439.04224,61.6966449 433.08787,61.3449649 426.601315,62.3704306 C412.010029,64.6771809 403.017265,70.108948 400.89952,86.6128299 C399.119007,100.477375 401.887413,107.800127 420.259831,104.895614 C430.348617,103.300668 433.907824,101.70475 440.399981,95.1155221 L440.761243,95.0584099 L440.033117,100.736397 L465.611151,96.6927413 L471.95008,47.3085625 C474.070193,30.8054762 464.122153,29.9208634 440.343504,33.6800527 C419.988186,36.8980442 410.72683,40.3022838 409.455503,50.2049545 L408.372624,58.6549352 Z M428.964771,79.7186598 C429.540772,75.2301884 431.854636,73.6977512 436.177083,73.0144115 C441.402107,72.1883825 442.47762,73.4435922 442.03628,76.8763653 L441.33974,82.2895865 C441.00257,84.9300841 439.813207,87.3179873 434.228075,88.2009461 C429.366621,88.9694979 428.092376,87.8755922 428.471893,83.5468992 L428.964771,79.7186598 Z" id="Fill-18" fill="#000000"></path>
            <path d="M277.974287,126.338879 L304.596864,122.130091 L311.124107,71.8935281 C311.515547,68.8653234 313.548647,66.791029 318.223122,66.0520369 C323.260013,65.25575 324.829144,66.7605642 324.434241,69.7893163 L317.909306,120.025514 L344.531883,115.816726 L351.702778,60.6258095 C353.274369,48.5132389 344.616671,45.9724828 332.925867,47.820693 C324.291362,49.1857302 317.656687,52.7948929 313.074302,59.5877069 L312.714194,59.6446367 L313.714783,51.937837 L287.092206,56.1466254 L277.974287,126.338879 Z" id="Fill-20" fill="#000000"></path>
            <path d="M250.734364,227.508011 L277.358095,223.29904 L283.883151,173.065163 C284.278114,170.037572 286.308906,167.963642 290.986843,167.224103 C296.023734,166.427816 297.590557,167.932995 297.195594,170.960587 L290.669383,221.194646 L317.295422,216.98531 L324.46407,161.795919 C326.034688,149.687013 317.381546,147.144366 305.688434,148.992941 C297.053929,150.357979 290.416946,153.967506 285.83444,160.757999 L285.47664,160.814564 L286.477289,153.108925 L259.854713,157.317713 L250.734364,227.508011 Z" id="Fill-22" fill="#000000"></path>
            <polygon id="Fill-24" fill="#000000" points="121.243449 247.979353 147.86718 243.770382 156.830483 173.67044 130.205598 177.879593"></polygon>
            <polygon id="Fill-26" fill="#000000" points="151.994107 243.117952 163.759907 152.21441 190.383638 148.005439 184.395793 194.457894 184.754746 194.401147 200.150661 166.762234 226.414284 162.610193 208.738165 195.59792 220.447534 228.803197 228.946505 162.2754 255.570236 158.066429 246.607784 228.160386 221.613772 232.111713 219.984053 232.369357 193.192965 236.604785 183.485939 204.173533 183.124677 204.230645 178.620146 238.908616"></polygon>
            <path d="M322.208546,199.895225 C320.992497,209.250889 324.650316,216.356974 341.381473,213.711929 C349.295762,212.460752 355.696108,209.289994 360.389,204.371837 L360.750262,204.314725 L359.123243,216.837419 C358.639623,220.553031 356.53587,221.829923 351.680188,222.597563 C346.822196,223.365567 344.968227,222.714355 345.253788,220.51263 L346.181707,215.095594 L322.794328,218.792927 L321.582003,226.411505 C320.383295,235.631031 326.216363,240.911823 347.266504,237.583986 C371.550689,233.744877 383.727421,228.180689 385.801127,212.216186 L395.724248,135.837618 L371.078801,139.73384 L370.238124,146.199577 L369.880324,146.256142 C364.891306,141.250295 359.167238,140.539246 348.734503,142.188567 C336.323484,144.150636 328.482666,151.589636 326.911015,163.701046 L322.208546,199.895225 Z M353.330585,158.656102 C353.724393,155.628693 355.666588,154.243944 360.522271,153.476305 C365.379108,152.708483 367.036836,153.524116 366.643027,156.551525 L362.280153,190.129396 C361.885311,193.159309 359.943055,194.542897 355.087373,195.310537 C350.23169,196.078176 348.574023,195.263703 348.96771,192.233973 L353.330585,158.656102 Z" id="Fill-28" fill="#000000"></path>
            <path d="M92.8646226,155.172077 L42.4694049,163.166018 L27.0161413,265.953791 L82.907855,257.117817 C109.829367,252.861769 118.178435,244.055259 121.431163,222.467862 C123.317861,209.970814 121.385488,200.156877 100.393302,202.363912 L100.435582,202.081074 C121.553126,196.384736 124.276484,187.637966 126.311376,174.143927 C129.416943,153.551017 122.455779,150.493983 92.8646226,155.172077 Z M67.5143403,216.368302 L77.5811968,214.776823 C85.5970554,213.509588 87.8066612,214.821878 86.650574,222.492413 L85.4919969,230.159831 C84.9009932,234.092515 83.9979657,236.548655 82.1953034,238.199201 C80.4179025,239.887878 77.7433567,240.774077 73.4820824,241.447746 L63.4129175,243.03959 L67.4178525,216.481848 L67.4998001,216.468893 L67.5143403,216.368302 Z M91.5736099,181.331196 L90.6308079,187.579049 C90.6212573,187.641406 90.586934,187.652683 90.5773833,187.715041 L90.5756798,187.727012 C89.5484387,194.542863 87.973268,197.00814 78.1095492,198.567505 L69.8893987,199.867037 L73.5508666,175.583362 L73.1399745,175.64832 L73.5702149,175.441056 L73.1951027,175.500357 L73.6276515,175.292728 L73.6059948,175.435399 L81.8272995,174.135685 C91.6898641,172.576503 92.5801671,174.654352 91.5736099,181.331196 Z M73.5843382,175.57807 L73.6059948,175.435399 L73.5725233,175.440691 L73.5508666,175.583362 L73.5843382,175.57807 Z" id="Fill-30" fill="#000000"></path>
            <path d="M500.919868,105.57686 C503.01444,105.245727 503.837332,104.492371 503.711632,102.080608 C503.585881,99.6678461 502.698553,99.1848609 500.603981,99.515994 C498.501464,99.8483831 497.678572,100.601739 497.804323,103.0145 C497.930022,105.426264 498.817351,105.909249 500.919868,105.57686 Z M500.890616,105.015613 C499.179404,105.28614 498.492934,105.102667 498.378946,102.915603 C498.265374,100.736527 498.922072,100.348767 500.633285,100.078239 C502.336552,99.8089681 503.01466,99.9857078 503.128232,102.164783 C503.24222,104.351848 502.593884,104.746342 500.890616,105.015613 Z M499.575934,104.517624 L500.222481,104.415411 L500.160022,103.217019 L500.855233,103.107112 L501.773795,104.170162 L502.500787,104.055231 L501.512942,102.873246 C501.952785,102.666774 502.078367,102.290482 502.047762,101.70327 C502.002063,100.826447 501.572297,100.611453 500.900921,100.717592 L499.390327,100.956403 L499.575934,104.517624 Z M500.132383,102.686731 L500.065292,101.399458 L500.87273,101.27181 C501.144856,101.228789 501.374775,101.298164 501.401632,101.813472 C501.428438,102.327782 501.235783,102.512293 500.89215,102.566618 L500.132383,102.686731 Z" id="Fill-32" fill="#000000"></path>
            <polygon id="Fill-34" fill="#000000" points="463.376809 106.775271 451.20817 108.699023 445.929615 151.970051 458.099408 150.046117 460.167625 133.083177 463.820641 132.505668 474.468149 147.458367 489.558046 145.072791 474.844327 125.783949 493.495431 102.01379 478.771413 104.341524 465.0465 122.467427 461.39233 123.045119"></polygon>
            <path d="M433.097293,111.562189 L429.678631,139.65609 C429.063381,144.731159 427.254494,145.413808 422.094104,146.229619 C416.992579,147.036124 414.08579,147.440664 414.683204,142.536916 L418.160903,113.923497 L406.018811,115.843052 L402.511235,144.687032 C401.249886,155.071396 402.659844,159.148783 420.872983,156.269451 C434.229285,154.15794 440.329157,150.022508 441.732964,138.486432 L445.238231,109.642816 L433.097293,111.562189 Z" id="Fill-36" fill="#000000"></path>
            <polygon id="Fill-38" fill="#000000" points="229.496558 157.749023 231.607202 141.488483 258.230933 137.279513 256.121443 153.539869"></polygon>
            <polygon id="Fill-40" fill="#000000" points="130.418353 173.41239 157.042084 169.203419 159.150419 152.943245 132.525534 157.152398"></polygon>
        </g>
    </g>
</svg>