<?xml version="1.0" encoding="UTF-8"?>
<svg width="917px" height="349px" viewBox="0 0 917 349" version="1.1" xmlns="http://www.w3.org/2000/svg" xmlns:xlink="http://www.w3.org/1999/xlink">
    <!-- Generator: Sketch 48.2 (47327) - http://www.bohemiancoding.com/sketch -->
    <title>mollie</title>
    <desc>Created with Sketch.</desc>
    <defs></defs>
    <g id="Logos" stroke="none" stroke-width="1" fill="none" fill-rule="evenodd">
        <path d="M762.780709,108.735926 C762.780709,113.725374 764.878545,121.228445 772.854101,121.228445 C784.533945,121.228445 793.643467,110.417975 793.643467,101.573045 C793.643467,96.6591948 790.978648,90.7814742 783.097589,90.7814742 C770.189283,90.7625748 762.780709,103.727579 762.780709,108.735926 Z M815.585697,200.64382 C839.455668,193.499838 871.225598,166.90835 871.225598,153.206268 C870.81737,149.405594 867.600688,146.532882 863.779225,146.553671 C850.889819,146.553671 826.963149,173.693243 815.566797,200.64382 L815.585697,200.64382 Z M648.930585,177.189636 C708.841756,125.102826 771.153153,55.779743 771.153153,27.6007034 C771.153153,24.6712929 770.472774,22.4033621 767.089777,22.4033621 C744.882955,22.4033621 675.805565,105.428527 648.930585,177.189636 Z M554.77366,161.144026 C611.849918,127.692047 671.099608,60.5234982 671.099608,28.5267752 C671.099608,25.8619565 670.570425,23.3483333 668.075701,23.3483333 C647.777721,23.3294339 585.409625,94.3156663 554.77366,161.144026 Z M481.74629,178.3614 C482.530616,175.059671 482.955853,171.682344 483.012552,168.288008 C483.012552,163.090666 480.536727,160.161256 478.495589,160.161256 C476.454452,160.161256 473.298248,162.97727 473.298248,167.607628 C473.298248,172.237987 476.51115,176.131268 481.74629,178.3614 Z M917,181.838894 C917,205.236379 859.205565,264.788461 817.192148,264.788461 C777.900247,264.788461 781.07535,223.209731 781.07535,223.209731 C781.07535,223.209731 741.934646,264.788461 717.743384,264.788461 C693.552123,264.788461 694.100206,242.430444 694.100206,239.387637 C694.100206,236.34483 695.763355,226.83842 695.763355,226.83842 C695.763355,226.83842 663.634336,262.993016 638.517003,262.993016 C622.074505,262.993016 609.676484,250.292604 609.676484,231.865666 C609.676484,229.913356 609.776651,227.872218 609.978875,225.742253 C606.917168,227.991285 603.893261,230.164718 600.944951,232.262554 C574.372362,251.048581 559.082729,262.993016 542.810326,262.993016 C516.445631,262.993016 509.868631,241.164182 509.868631,226.460431 C510.222051,215.307882 512.308547,204.278179 516.048743,193.76443 C508.184693,196.499176 499.952104,198.02247 491.630688,198.281392 L489.306059,198.281392 C474.848001,232.942933 440.923537,263.049714 415.314819,263.049714 C391.860635,263.049714 380.256389,246.569417 380.256389,224.060205 C380.256389,184.976198 428.35542,130.54586 464.264324,130.54586 C468.554493,130.54586 477.49392,130.319067 477.49392,134.836029 C477.49392,141.602022 406.356492,172.993964 406.356492,229.44654 C406.356492,237.346499 409.285903,245.700044 418.319827,245.700044 C443.210367,245.700044 465.114798,219.410947 475.86857,195.276384 C464.290783,190.126291 456.823621,178.652451 456.799052,165.982278 C456.799052,151.562018 473.468343,143.491965 480.423331,143.491965 C487.378318,143.491965 496.204349,148.594809 496.204349,165.982278 C496.187339,170.981175 495.661935,175.964953 494.635697,180.856124 L496.525639,180.856124 C505.483965,180.65768 514.353465,179.02477 522.795837,176.017872 C555.302844,100.42018 640.25575,2.27547672 676.089056,2.27547672 C686.578236,2.27547672 689.753339,11.5172945 689.753339,16.9225295 C689.753339,72.7703242 610.621455,147.026157 546.722506,180.534834 C540.882585,196.618243 537.405091,212.002373 537.405091,225.553259 C537.405091,236.892913 541.69526,241.126384 549.141632,241.126384 C561.747547,241.126384 585.976608,226.932917 613.947754,205.652167 C635.02061,131.037245 728.383759,2.2565773 774.951937,2.2565773 C783.532275,2.2565773 790.317168,7.92640418 790.317168,23.6885229 C790.317168,63.377311 711.223083,144.64483 641.408615,201.343098 C639.28999,209.936666 638.159804,218.743797 638.044518,227.594397 C638.044518,238.934051 642.674876,242.052455 647.286336,242.052455 C677.903401,242.052455 737.360985,156.09788 740.536088,152.129001 C743.711191,148.160122 749.267622,143.888853 752.442725,143.718758 C755.617828,143.548663 763.215396,142.773787 765.445528,142.773787 C767.67566,142.773787 768.941921,146.100085 767.826855,148.160122 C766.711789,150.220159 720.729493,216.708329 720.729493,234.246994 C720.763512,239.194863 724.802319,243.176971 729.750188,243.142952 C729.893823,243.142952 730.035569,243.137282 730.179204,243.129722 C746.886294,243.129722 765.388829,221.338688 785.460016,196.863935 C803.433368,165.58539 839.436768,129.90328 869.883739,129.90328 C880.826505,129.90328 888.424073,138.313523 888.424073,149.086194 C888.424073,182.821664 833.010965,210.377022 810.463953,216.746128 C809.717426,220.200943 809.326208,223.720015 809.292189,227.254207 C809.292189,239.61443 820.631843,245.83234 830.478442,245.83234 C855.74697,245.83234 893.961603,202.042377 904.507481,184.069026 C906.397424,180.780526 908.703153,176.641553 911.575866,176.641553 C914.461808,176.694471 916.822345,178.956732 917,181.838894 Z M279.106678,141.866614 C279.106678,138.08673 279.106678,134.439141 279.012181,130.942748 C249.037696,164.130135 226.263891,199.131866 226.263891,225.439863 C226.263891,232.527146 230.327267,240.427105 239.153298,240.427105 C253.913747,240.389306 279.106678,202.836153 279.106678,141.866614 Z M481.651793,262.066944 C481.651793,272.915213 457.951917,319.653486 396.982378,319.653486 C345.50035,319.653486 314.108409,280.134792 314.108409,232.035761 C314.108409,131.320736 408.945713,29.7174388 408.945713,29.7174388 C388.156348,35.6140588 344.574279,66.4390175 305.263479,104.048869 C305.811562,110.644768 306.113953,117.032773 306.113953,123.042789 C306.113953,223.209731 266.425165,264.542769 235.449011,264.542769 C220.688561,264.542769 206.854184,251.899055 206.854184,227.216408 C206.854184,190.381433 238.302824,146.27018 278.029411,106.864883 C275.364592,66.5146152 268.711995,51.2438815 268.711995,51.2438815 C268.711995,51.2438815 175.235449,264.618366 62.9161789,264.618366 C30.1067807,264.618366 0,246.267027 0,213.287534 C0,148.103424 67.2819456,117.070572 98.8250824,117.070572 C136.623928,117.070572 146.39493,134.987224 147.963582,141.488626 C149.532234,147.990027 142.539448,147.404145 140.762902,145.268511 C138.986356,143.132876 131.899073,132.83269 112.300371,132.83269 C71.9501031,132.83269 19.5609027,186.129063 19.5609027,219.240852 C19.5609027,237.006309 32.2046167,252.655032 58.7016076,252.655032 C168.318261,252.655032 262.531884,11.4983951 265.59359,4.69460286 C267.313438,0.914718273 268.428504,0.385534431 269.373475,0.385534431 L273.682543,0.385534431 C283.377947,0.385534431 296.796538,42.0965608 302.863252,83.5429953 C344.687675,46.8025171 390.084089,17.1115237 416.25979,6.20655669 C423.834678,3.08248208 431.825354,1.07725331 439.978566,0.253238471 C446.810707,-0.355322947 453.695767,0.134172106 460.371043,1.70849404 C468.025309,3.33384441 466.399959,7.13262841 462.487778,10.4400274 C458.575598,13.7474264 342.665437,128.618119 342.665437,227.783391 C342.665437,268.643943 362.22634,304.401651 406.035202,304.401651 C449.844064,304.401651 473.165952,262.822921 474.659007,261.121973 C477.720713,257.795675 481.651793,258.28706 481.651793,262.066944 Z M530.676896,335.302208 L504.860284,275.863523 L494.956987,275.863523 L494.956987,346.736359 L501.552885,346.736359 L501.552885,284.368263 L501.760779,284.368263 L529.164942,346.736359 L532.075453,346.736359 L559.082729,284.368263 L559.290622,284.368263 L559.290622,346.736359 L565.886521,346.736359 L565.886521,275.901322 L556.43681,275.901322 L530.676896,335.302208 Z M626.912758,321.883618 L610.904946,283.064203 L594.40575,321.883618 L626.912758,321.883618 Z M614.609233,275.863523 L644.470322,346.736359 L637.061748,346.736359 L629.350783,327.836936 L591.79763,327.836936 L583.803174,346.736359 L576.904885,346.736359 L607.82434,275.901322 L614.628133,275.901322 L614.609233,275.863523 Z M786.688479,293.477785 C786.688479,284.48166 794.097053,280.078094 802.601793,280.078094 C808.105305,279.864531 813.327216,282.51801 816.398372,287.08978 L822.068199,282.988605 C817.466189,277.048517 810.257949,273.727888 802.752988,274.086977 C790.846352,274.086977 780.073681,280.890769 780.073681,293.496684 C780.073681,320.409463 816.587366,308.805217 816.587366,328.611812 C816.587366,337.116553 809.59458,342.521788 800.674052,342.521788 C794.034685,342.793939 787.792205,339.367474 784.458347,333.620159 L778.164839,337.815831 C783.664571,345.526796 791.866921,348.512905 801.184336,348.512905 C812.694085,348.512905 823.202164,341.406722 823.202164,328.592913 C823.221063,302.020324 786.688479,314.815234 786.688479,293.515584 L786.688479,293.477785 Z M727.36319,313.095386 L761.77904,313.095386 L761.77904,307.08537 L727.36319,307.08537 L727.36319,281.892439 L764.084769,281.892439 L764.084769,275.882422 L720.767292,275.882422 L720.767292,346.736359 L765.69122,346.736359 L765.69122,340.726342 L727.36319,340.726342 L727.36319,313.095386 Z M670.929514,308.313832 L708.728359,346.736359 L699.278648,346.736359 L663.369744,310.109277 L662.764963,310.109277 L662.764963,346.736359 L656.169064,346.736359 L656.169064,275.901322 L662.764963,275.901322 L662.764963,307.123168 L663.369744,307.123168 L697.691096,275.901322 L706.838417,275.901322 L670.929514,308.313832 Z" id="mollie" fill="#000000"></path>
    </g>
</svg>