<?xml version="1.0" encoding="utf-8"?>
<!-- Generator: Adobe Illustrator 20.1.0, SVG Export Plug-In . SVG Version: 6.00 Build 0)  -->
<svg version="1.1" id="Layer_1" xmlns="http://www.w3.org/2000/svg" xmlns:xlink="http://www.w3.org/1999/xlink" x="0px" y="0px"
	 viewBox="0 0 677.8 134.2" style="enable-background:new 0 0 677.8 134.2;" xml:space="preserve">
<path d="M81.8,132.3H51l-15.9-47h-5.2v47.1H0V3.4h28.7c14.6,0,47.2-0.5,47.2,39.7c0,26.1-13.9,32.3-15.1,32.6L81.8,132.3z
	 M42.1,30.5c-2.6-2.6-5.7-2.6-9.5-2.6h-2.8v34.8H33c3,0,6.6,0.2,9.3-2.6c2.3-2.3,3.9-7.4,3.9-14.9C46.2,36.4,44,32.3,42.1,30.5z
	 M144.6,132.3h-22l-1.5-6.4c-1,2.1-5.6,8-15.6,8c-11.8,0-24.9-7.9-24.9-32c0-33,23.3-33.8,27.7-33.8c6.1,0,9.2,1.5,10.5,2.1v-4.3
	c0-4.6-0.3-10.2-9-10.2c-7.4,0-15.6,3.3-16.9,3.8L86,41.3c1.6-1.1,12.8-7.7,28.2-7.7c10.7,0,19.2,3.8,24.8,11.3
	c6.1,8.2,5.6,19.4,5.6,31.3V132.3L144.6,132.3z M118.9,87.7c-1-0.5-2.1-1-3.8-1c-4.6,0-8.4,2.1-8.4,13.8c0,10.8,3.8,12,6.6,12
	c2.8,0,4.6-1.3,5.6-2.5L118.9,87.7L118.9,87.7z M224.8,132.3h-25.4l-1.5-7.5c-1.6,2.8-6.6,8.7-16.4,8.7c-17.9,0-30-15.3-30-47.7
	c0-37.2,15.3-51.5,30.3-51.5c9,0,12.3,3.6,13.1,4.6V8.5l29.8-7.9L224.8,132.3L224.8,132.3z M195,60.7c0,0-1.5-2-4.3-2
	c-7.2,0-9.3,8.7-9.3,26.4c0,15.1,1.8,24.6,8.9,24.6c2,0,4.1-1,4.8-2.5L195,60.7L195,60.7z M232.4,16.2c0,9.3,7.1,16.1,15.6,16.1
	c8.2,0,15.6-6.1,15.6-16.1c0-9-6.9-16.2-15.6-16.2C239.4,0,232.4,7.2,232.4,16.2z M232.9,36.6v95.8h29.8V36.6H232.9z M343.1,83.3
	c0,35.4-15.6,50.5-36.7,50.5c-22.5,0-36.7-13.3-36.7-48.4c0-35.4,15.7-50.5,36.7-50.5C329,34.9,343.1,48.2,343.1,83.3z M306.4,58.7
	c-6.1,0-7.5,7.2-7.5,25.6c0,20.5,2.6,25.7,7.7,25.7c5.6,0,7.4-3.3,7.4-25.6C313.9,66.7,312.8,58.7,306.4,58.7z M313.9,3.9v25.3h36.2
	v103.2h30.2V29.2h37.9V3.9H313.9z M388.4,36.6v95.8h29.8V36.6H388.4z M510.2,33.6c-11.3,0-17.2,5.6-19.7,11c-0.5-1.1-3.8-11-18.9-11
	c-12.1,0-16.6,8.9-17.7,11.3l-0.7-8.4h-27.1v95.8H456v-60c0-7.9,0-13.1,5.2-13.1c3.9,0,4.9,3.1,4.9,12.3v60.8h29.8v-60
	c0-7.9,0-13.1,5.2-13.1c4.1,0,4.9,3.3,4.9,12.3v60.8h29.8v-62C536.1,57.2,536.4,33.6,510.2,33.6z M613.2,85.6c0,4.1-0.3,6.4-0.3,8.7
	h-41c0.2,11.8,4.1,17.5,13,17.5c7.4,0,12.3-3.8,16.2-6.1l11,14.8c-1.5,2.5-10.8,13.6-31,13.6c-26.7,0-38-19-38-48.9
	c0-41.7,18.7-51.3,36.2-51.3C601.9,33.9,613.2,48.4,613.2,85.6z M579.4,55.4c-2.1,0-3.1,0.5-4.3,1.8c-3.4,3.4-3.1,11.6-3.1,17.1
	h14.1C586.1,58.1,583.8,55.4,579.4,55.4z M618.4,64.1c0,29.7,31.3,27.1,31.3,39.5c0,6.4-3.9,8-9,8c-7.4,0-15.6-4.9-17.4-5.7
	l-8.9,19.4c3.4,3,14.4,8.9,29.7,8.9c15.4,0,33.6-7.2,33.6-33.6c0-27.9-31.5-27.1-31.5-37.9c0-4.1,1.6-7.7,8.4-7.7
	c5.2,0,12.5,3,15.9,4.3l6.6-18.2c-1.6-1.5-12-7.1-26.7-7.1C632.7,33.9,618.4,44.6,618.4,64.1z"/>
</svg>
