<?xml version="1.0" encoding="UTF-8"?>
<svg width="344px" height="111px" viewBox="0 0 344 111" version="1.1" xmlns="http://www.w3.org/2000/svg" xmlns:xlink="http://www.w3.org/1999/xlink">
    <!-- Generator: Sketch 48.2 (47327) - http://www.bohemiancoding.com/sketch -->
    <title>Focus</title>
    <desc>Created with Sketch.</desc>
    <defs>
        <polygon id="path-1" points="0 0.6824 343.9998 0.6824 343.9998 39.5814 0 39.5814"></polygon>
        <polygon id="path-3" points="0.1369 0.124 25.8609 0.124 25.8609 25.2079 0.1369 25.2079"></polygon>
        <polygon id="path-5" points="0.5112 0.124 26.2242 0.124 26.2242 25.2079 0.5112 25.2079"></polygon>
        <polygon id="path-7" points="0.7683 0.124 26.4903 0.124 26.4903 25.207 0.7683 25.207"></polygon>
    </defs>
    <g id="Logos" stroke="none" stroke-width="1" fill="none" fill-rule="evenodd">
        <g id="Focus" transform="translate(0.000000, -1.000000)">
            <g id="Group-3" transform="translate(0.000000, 39.876000)">
                <mask id="mask-2" fill="white">
                    <use xlink:href="#path-1"></use>
                </mask>
                <g id="Clip-2"></g>
                <path d="M16.9238,13.9174 C12.0428,11.6574 9.5518,10.2054 9.5518,6.8694 C9.5518,3.9604 11.6298,1.7584 14.8278,1.7584 C20.9298,1.7584 24.9888,12.4724 24.9888,12.4724 L25.3318,12.4724 L25.3318,1.8654 C21.5958,0.9504 17.3378,0.6824 14.7968,0.6824 C5.6068,0.6824 -0.0002,5.0934 -0.0002,12.4644 C-0.0002,19.9974 5.9178,23.0094 11.0578,25.5384 C16.0918,28.0134 18.5318,29.4124 18.5318,32.9094 C18.5318,35.8734 16.1058,38.5054 12.6138,38.5054 C7.6718,38.5054 3.3058,33.0984 1.6708,26.6604 L1.2978,26.6604 L1.2978,38.0744 C4.6718,38.9894 9.3958,39.5814 12.5108,39.5814 C21.9068,39.5814 28.2928,34.5774 28.2928,26.6684 C28.2928,19.5124 22.9978,16.7684 16.9238,13.9174 Z M228.7388,1.2204 L200.2398,1.2204 L200.2398,1.3274 C200.2398,1.3274 203.5108,4.8254 203.5108,7.3994 L203.5108,33.4214 C203.5108,35.6324 200.2398,38.9354 200.2398,38.9354 L200.2398,39.0434 L219.7058,39.0434 L219.7058,38.9354 C219.7058,38.9354 215.1388,35.3904 215.1388,33.1534 L215.1388,20.8584 L216.8528,20.8584 C220.9568,20.8584 223.7188,26.0554 223.7188,26.0554 L223.9118,26.0274 L223.9118,14.5584 L223.6998,14.5514 C223.6998,14.5514 221.0688,19.7284 216.8528,19.7284 L215.1388,19.7284 L215.1388,3.3184 C215.1388,2.4044 215.2428,2.3494 216.0218,2.3494 L217.9238,2.3494 C225.5668,2.3494 228.3758,12.6124 228.3758,12.6124 L228.7388,12.6344 L228.7388,1.2204 Z M65.4028,9.8824 C68.0498,9.8824 70.2308,8.2684 70.2308,5.4164 C70.2308,2.4584 68.0498,0.7364 65.4028,0.7364 C62.8598,0.7364 60.5748,2.4584 60.5748,5.4164 C60.5748,8.2684 62.8598,9.8824 65.4028,9.8824 Z M70.6468,35.0084 L70.6468,12.2494 L57.7718,12.2494 L57.7718,12.3574 L59.4188,14.6034 C59.7828,15.0874 60.1598,15.6934 60.1598,16.3924 L60.1598,35.0084 C60.1598,35.7074 59.7438,36.3554 59.3808,36.8394 L57.7718,38.9894 L57.7718,39.0974 L73.0868,39.0974 L73.0868,38.9894 L71.3478,36.7254 C70.9838,36.2414 70.6468,35.7074 70.6468,35.0084 Z M133.0128,34.7664 C133.0668,30.5164 133.1698,27.2064 133.1698,23.4944 C133.1698,16.0694 130.1578,11.8194 124.5528,11.8194 C120.4748,11.8194 117.4288,13.8134 115.9868,16.7184 L115.9868,12.2494 L103.1118,12.2494 L103.1118,12.3574 L104.7638,14.6094 C105.1278,15.0934 105.5008,15.9344 105.5008,16.6334 L105.5008,34.7664 C105.5008,35.4664 105.1668,36.2454 104.8028,36.7294 L103.1118,38.9894 L103.1118,39.0974 L118.4278,39.0974 L118.4278,38.9894 L116.7588,36.8184 C116.3958,36.3344 115.9868,35.4664 115.9868,34.7664 L115.9868,18.4904 C116.7658,17.5764 117.5958,16.9844 118.9458,16.9844 C122.2158,16.9844 122.6318,20.4814 122.6318,24.4094 C122.6318,26.9654 122.4768,33.4494 122.4768,34.7664 C122.4768,35.4664 121.9188,36.5444 121.5548,37.0294 L120.0878,38.9894 L120.0878,39.0974 L135.4538,39.0974 L135.4538,38.9894 L133.7368,36.7534 C133.3738,36.2694 133.0128,35.4664 133.0128,34.7664 Z M243.6118,11.8194 C234.7348,11.8194 228.7128,16.3924 228.7128,25.5934 C228.7128,35.0624 234.7348,39.5274 243.6118,39.5274 C252.4878,39.5274 258.5088,34.9544 258.5088,25.7544 C258.5088,16.2854 252.4878,11.8194 243.6118,11.8194 Z M243.6118,38.4514 C241.5358,38.4514 240.3408,36.6224 240.3408,25.5934 C240.3408,14.5634 241.5358,12.8954 243.6118,12.8954 C245.6878,12.8954 246.8818,14.7244 246.8818,25.7544 C246.8818,36.7834 245.6878,38.4514 243.6118,38.4514 Z M316.5658,34.7664 L316.5658,12.2494 L303.6408,12.2494 L303.6408,12.3574 L305.2868,14.6034 C305.6518,15.0874 306.0278,15.9344 306.0278,16.6334 L306.0278,32.8564 C305.2488,33.7164 304.4188,34.3624 303.0688,34.3624 C300.2658,34.3624 299.9538,31.0274 299.9538,27.2064 L299.9538,12.2494 L287.1318,12.2494 L287.1318,12.3574 L288.8268,14.5644 C289.1908,15.0484 289.5718,15.8804 289.5718,16.5804 C289.4688,20.9384 289.4168,24.3014 289.4168,28.1214 C289.4168,35.3844 292.2718,39.5274 297.8778,39.5274 C301.6678,39.5274 304.7308,36.9994 306.0278,33.7164 L306.0278,39.0974 L319.0058,39.0974 L319.0058,38.9894 L317.5078,37.0394 C317.1448,36.5554 316.5658,35.4664 316.5658,34.7664 Z M338.2898,22.5794 L335.0708,21.1274 C331.5418,19.5134 329.8808,18.2764 329.8808,16.0694 C329.8808,14.0354 331.5508,12.8414 333.3788,12.8414 C337.7988,12.8414 340.3968,20.2174 340.3968,20.2174 L340.5558,20.2174 L343.4288,13.2724 C339.5878,12.1964 336.0058,11.8194 333.5138,11.8194 C325.6748,11.8194 321.7298,15.5324 321.7298,20.8044 C321.7298,24.8394 324.0148,27.3684 326.9218,28.8214 L330.5558,30.6504 C334.4478,32.5334 335.6428,33.3944 335.6428,35.1154 C335.6428,37.1204 333.6858,38.5054 331.4728,38.5054 C326.8808,38.5054 323.9208,30.4844 323.9208,30.4844 L323.6648,30.4844 L320.9518,37.8064 C324.2218,38.9894 328.1158,39.5274 331.3338,39.5274 C339.2768,39.5274 343.9998,36.1374 343.9998,30.1664 C343.9998,25.9154 341.6118,24.0864 338.2898,22.5794 Z M89.2538,11.8194 C81.2588,11.8194 75.0808,16.0154 75.0808,25.8074 C75.0808,35.2944 82.0898,39.4424 89.0258,39.5204 C89.0248,39.5154 89.2418,39.5204 89.3568,39.5204 C96.6248,39.5204 99.7398,35.2154 100.5178,34.3004 L100.3108,33.8164 C98.9618,35.0544 96.7308,36.2914 94.2368,36.2914 C90.4838,36.2914 86.1998,33.7534 86.0048,25.0544 L101.4008,25.0544 C101.4518,24.5704 101.4518,24.3014 101.4518,23.9244 C101.4518,14.2944 95.0148,11.8194 89.2538,11.8194 Z M91.8478,24.0324 L85.9828,24.0324 C85.9828,14.8324 87.0728,12.8954 89.0448,12.8954 C90.4988,12.8954 91.9008,13.9174 91.9008,21.5574 C91.9008,22.3104 91.9008,23.1714 91.8478,24.0324 Z M176.3608,11.8194 C168.3668,11.8194 162.1878,16.0154 162.1878,25.8074 C162.1878,35.2944 169.1958,39.4424 176.1328,39.5204 C176.1318,39.5154 176.3488,39.5204 176.4648,39.5204 C183.7318,39.5204 186.8468,35.2154 187.6248,34.3004 L187.4178,33.8164 C186.0678,35.0544 183.8378,36.2914 181.3438,36.2914 C177.5908,36.2914 173.3058,33.7534 173.1108,25.0544 L188.5068,25.0544 C188.5588,24.5704 188.5588,24.3014 188.5588,23.9244 C188.5588,14.2944 182.1218,11.8194 176.3608,11.8194 Z M178.9558,24.0324 L173.0898,24.0324 C173.0898,14.8324 174.1798,12.8954 176.1528,12.8954 C177.6058,12.8954 179.0078,13.9174 179.0078,21.5574 C179.0078,22.3104 179.0078,23.1714 178.9558,24.0324 Z M49.3398,36.2994 C45.7068,36.2994 41.2418,34.1474 41.2418,25.0004 C41.2418,17.5554 43.7128,12.8674 46.1818,12.8674 C49.9878,12.8674 51.6508,22.2384 51.6508,22.2384 L51.8028,22.2384 L55.1028,13.4334 C51.6748,12.3034 48.7688,11.8194 45.6018,11.8194 C39.0488,11.8194 32.0678,14.8504 31.0108,23.6634 C30.9988,23.7474 30.9848,23.8304 30.9738,23.9164 C30.9608,24.0464 30.9478,24.1784 30.9378,24.3114 C30.8898,24.7984 30.8588,25.2944 30.8588,25.8074 C30.8588,25.8464 30.8628,25.8844 30.8628,25.9234 C30.8628,25.9584 30.8588,25.9884 30.8588,26.0234 C30.8588,26.2924 30.8818,26.5444 30.8938,26.8054 L30.8968,26.8044 C31.2948,33.6494 35.7888,39.5274 44.3558,39.5274 C51.6228,39.5274 54.7388,35.2234 55.5178,34.3084 L55.3098,33.8244 C54.2188,34.8464 51.8318,36.2994 49.3398,36.2994 Z M155.2828,36.2994 C151.6498,36.2994 147.1848,34.1474 147.1848,25.0004 C147.1848,17.5554 149.6558,12.8674 152.1258,12.8674 C155.9308,12.8674 157.5938,22.2384 157.5938,22.2384 L157.7468,22.2384 L161.0458,13.4334 C157.6178,12.3034 154.7128,11.8194 151.5448,11.8194 C144.9908,11.8194 138.0098,14.8504 136.9538,23.6634 C136.9428,23.7474 136.9278,23.8304 136.9178,23.9164 C136.9038,24.0464 136.8908,24.1784 136.8808,24.3114 C136.8338,24.7984 136.8028,25.2944 136.8028,25.8074 C136.8028,25.8464 136.8068,25.8844 136.8068,25.9234 C136.8068,25.9584 136.8028,25.9884 136.8028,26.0234 C136.8028,26.2924 136.8258,26.5444 136.8368,26.8054 L136.8398,26.8044 C137.2378,33.6494 141.7328,39.5274 150.2988,39.5274 C157.5668,39.5274 160.6818,35.2234 161.4608,34.3084 L161.2538,33.8244 C160.1618,34.8464 157.7748,36.2994 155.2828,36.2994 Z M279.3538,36.2994 C275.7188,36.2994 271.2558,34.1474 271.2558,25.0004 C271.2558,17.5554 273.7258,12.8674 276.1948,12.8674 C280.0018,12.8674 281.6648,22.2384 281.6648,22.2384 L281.8158,22.2384 L285.1158,13.4334 C281.6888,12.3034 278.7818,11.8194 275.6148,11.8194 C269.0618,11.8194 262.0808,14.8504 261.0248,23.6634 C261.0128,23.7474 260.9978,23.8304 260.9878,23.9164 C260.9738,24.0464 260.9618,24.1784 260.9508,24.3114 C260.9038,24.7984 260.8728,25.2944 260.8728,25.8074 C260.8728,25.8464 260.8768,25.8844 260.8768,25.9234 C260.8768,25.9584 260.8728,25.9884 260.8728,26.0234 C260.8728,26.2924 260.8958,26.5444 260.9068,26.8054 L260.9098,26.8044 C261.3078,33.6494 265.8018,39.5274 274.3698,39.5274 C281.6368,39.5274 284.7518,35.2234 285.5298,34.3084 L285.3228,33.8244 C284.2328,34.8464 281.8448,36.2994 279.3538,36.2994 Z" id="Fill-1" fill="#231F20" mask="url(#mask-2)"></path>
            </g>
            <g id="Group-6" transform="translate(159.000000, 0.876000)">
                <mask id="mask-4" fill="white">
                    <use xlink:href="#path-3"></use>
                </mask>
                <g id="Clip-5"></g>
                <path d="M19.7529,16.7569 C19.7599,14.4769 18.2899,12.7459 15.9499,12.0769 C16.5789,11.7459 17.0779,11.3349 17.4489,10.8349 C17.9409,10.1679 18.1709,9.3469 18.1709,8.3889 C18.1709,7.2129 17.7279,6.0159 16.7699,5.1219 C15.8079,4.2239 14.3539,3.6429 12.3709,3.6429 L6.8849,3.6429 L6.8849,21.7059 L13.3189,21.7059 L13.3259,21.7059 C15.6239,21.7059 17.2349,21.0639 18.2699,20.1099 C19.3029,19.1559 19.7529,17.9069 19.7529,16.7569 Z M0.1369,25.2079 L25.8609,25.2079 L25.8609,0.1239 L0.1369,0.1239 L0.1369,25.2079 Z" id="Fill-4" fill="#231F20" mask="url(#mask-4)"></path>
            </g>
            <path d="M175.5513,17.2696 C175.5513,17.8686 175.3703,18.4676 174.8503,18.9386 C174.3373,19.4066 173.4523,19.7616 171.9773,19.7616 L169.0093,19.7616 L169.0093,14.8316 L171.8493,14.8316 C173.1663,14.8316 174.1003,15.1086 174.6943,15.5446 C175.2793,15.9806 175.5433,16.5516 175.5513,17.2696" id="Fill-7" fill="#231F20"></path>
            <path d="M173.147,11.3687 C173.697,10.9547 173.966,10.3737 173.966,9.4977 C173.966,8.8957 173.802,8.3817 173.382,7.9977 C172.968,7.6137 172.255,7.3397 171.106,7.3397 L169.009,7.3397 L169.009,12.0117 L170.452,12.0117 C171.698,12.0117 172.589,11.7807 173.147,11.3687" id="Fill-9" fill="#231F20"></path>
            <g id="Group-13" transform="translate(129.000000, 0.876000)">
                <mask id="mask-6" fill="white">
                    <use xlink:href="#path-5"></use>
                </mask>
                <g id="Clip-12"></g>
                <path d="M20.1172,16.7569 C20.1242,14.4769 18.6612,12.7459 16.3152,12.0769 C16.9502,11.7459 17.4502,11.3349 17.8132,10.8349 C18.3052,10.1679 18.5342,9.3469 18.5342,8.3889 C18.5342,7.2129 18.0902,6.0159 17.1352,5.1219 C16.1802,4.2239 14.7262,3.6429 12.7432,3.6429 L7.2582,3.6429 L7.2582,21.7059 L13.6832,21.7059 L13.6912,21.7059 C15.9872,21.7059 17.5992,21.0639 18.6332,20.1099 C19.6742,19.1559 20.1172,17.9069 20.1172,16.7569 Z M0.5112,25.2079 L26.2242,25.2079 L26.2242,0.1239 L0.5112,0.1239 L0.5112,25.2079 Z" id="Fill-11" fill="#231F20" mask="url(#mask-6)"></path>
            </g>
            <path d="M143.5122,11.3687 C144.0672,10.9547 144.3322,10.3737 144.3382,9.4977 C144.3382,8.8957 144.1682,8.3817 143.7532,7.9977 C143.3312,7.6137 142.6202,7.3397 141.4782,7.3397 L139.3812,7.3397 L139.3812,12.0117 L140.8232,12.0117 C142.0642,12.0117 142.9612,11.7807 143.5122,11.3687" id="Fill-14" fill="#231F20"></path>
            <path d="M145.0591,15.5446 C144.4741,15.1086 143.5341,14.8316 142.2121,14.8316 L139.3811,14.8316 L139.3811,19.7616 L142.3421,19.7616 C143.8181,19.7616 144.7101,19.4066 145.2221,18.9386 C145.7361,18.4676 145.9151,17.8686 145.9151,17.2696 C145.9091,16.5516 145.6511,15.9806 145.0591,15.5446" id="Fill-16" fill="#231F20"></path>
            <g id="Group-20" transform="translate(188.000000, 0.876000)">
                <mask id="mask-8" fill="white">
                    <use xlink:href="#path-7"></use>
                </mask>
                <g id="Clip-19"></g>
                <path d="M21.3823,16.874 L20.9673,17.133 C18.9863,18.393 16.8163,19.071 14.8503,19.071 C10.6393,19.052 7.8603,16.469 7.8453,12.702 C7.8603,9.017 10.7553,6.293 14.7353,6.282 C16.7753,6.286 18.6153,6.83 20.7983,8.071 L21.1963,8.3 L21.1963,4.936 L21.0263,4.87 C18.5563,3.862 16.6483,3.41 14.7633,3.41 C11.8543,3.41 9.3153,4.408 7.5163,6.101 C5.7203,7.797 4.6493,10.188 4.6493,12.936 C4.6493,14.846 5.4063,17.089 7.0463,18.867 C8.6723,20.648 11.1703,21.944 14.6063,21.944 L14.6233,21.944 C17.4723,21.944 19.4433,21.286 21.2253,20.371 L21.3823,20.298 L21.3823,16.874 Z M0.7683,25.207 L26.4903,25.207 L26.4903,0.123 L0.7683,0.123 L0.7683,25.207 Z" id="Fill-18" fill="#231F20" mask="url(#mask-8)"></path>
            </g>
            <path d="M78.9907,92.911 L72.4597,111.723 L71.1067,111.723 L64.4887,93.034 L64.4887,109.406 C64.4887,110.656 64.7537,110.686 67.4287,110.839 L67.4287,111.571 L60.5747,111.571 L60.5747,110.839 C63.0177,110.686 63.2827,110.656 63.2827,109.406 L63.2827,92.393 C63.2827,91.143 63.0177,91.112 60.5747,90.96 L60.5747,90.228 L66.1347,90.228 L72.4897,108.034 L78.6087,90.228 L83.9617,90.228 L83.9617,90.96 C81.6977,91.112 81.4327,91.143 81.4327,92.393 L81.4327,109.406 C81.4327,110.656 81.6977,110.686 83.9617,110.839 L83.9617,111.571 L76.4027,111.571 L76.4027,110.839 C78.6667,110.686 78.9317,110.656 78.9317,109.406 L78.9907,92.911 Z" id="Fill-21" fill="#231F20"></path>
            <path d="M113.0825,109.1618 C113.4365,110.1988 113.8185,110.6568 115.5825,110.8388 L115.5825,111.5708 L108.0525,111.5708 L108.0525,110.8388 C110.4055,110.5648 110.7585,110.3208 110.2885,108.9798 L108.7585,104.4978 L101.3445,104.4978 L100.1095,108.3388 C99.5205,110.1678 99.9035,110.5338 102.3155,110.8388 L102.3155,111.5708 L96.1965,111.5708 L96.1965,110.8388 C97.8145,110.5338 98.2275,110.3518 98.6085,109.1008 L104.8745,90.0758 L106.2865,90.0758 L113.0825,109.1618 Z M101.6975,103.3998 L108.3755,103.3998 L104.9635,93.3988 L104.9045,93.3988 L101.6975,103.3998 Z" id="Fill-23" fill="#231F20"></path>
            <path d="M141.0264,108.8267 L141.0264,104.1627 C141.0264,102.9117 140.7614,102.8807 138.4954,102.7287 L138.4954,101.9967 L145.5864,101.9967 L145.5864,102.7287 C143.7904,102.8807 143.5264,102.9117 143.5264,104.1627 L143.5264,111.7237 L143.0554,111.7237 L142.0554,109.8937 C140.7614,110.8997 138.8484,111.8757 136.4654,111.8757 C130.9064,111.8757 126.6704,107.3017 126.6704,100.8997 C126.6704,94.4967 131.0234,89.9237 136.5844,89.9237 C139.5264,89.9237 141.7024,90.9907 142.8794,91.7527 L143.1734,95.9917 L142.4674,95.9917 C141.8794,93.3077 140.1134,91.0207 136.5844,91.0207 C132.5244,91.0207 129.3474,94.8017 129.3474,100.8997 C129.3474,106.9967 132.4654,110.7787 136.5264,110.7787 C138.4954,110.7787 139.9964,109.9547 141.0264,108.8267" id="Fill-25" fill="#231F20"></path>
            <path d="M173.4424,109.1618 C173.7944,110.1988 174.1774,110.6568 175.9424,110.8388 L175.9424,111.5708 L168.4114,111.5708 L168.4114,110.8388 C170.7644,110.5648 171.1184,110.3208 170.6474,108.9798 L169.1174,104.4978 L161.7034,104.4978 L160.4684,108.3388 C159.8794,110.1678 160.2624,110.5338 162.6744,110.8388 L162.6744,111.5708 L156.5564,111.5708 L156.5564,110.8388 C158.1744,110.5338 158.5864,110.3518 158.9674,109.1008 L165.2334,90.0758 L166.6464,90.0758 L173.4424,109.1618 Z M162.0564,103.3998 L168.7344,103.3998 L165.3214,93.3988 L165.2634,93.3988 L162.0564,103.3998 Z" id="Fill-27" fill="#231F20"></path>
            <path d="M190.8833,110.5338 L198.2963,110.5338 C200.4733,110.5338 201.8853,109.2228 202.3563,106.6018 L203.0613,106.6018 L202.7673,111.5708 L187.8233,111.5708 L187.8233,110.8998 L199.7673,91.2648 L192.9133,91.2648 C190.7363,91.2648 189.7353,92.3318 189.1173,95.1988 L188.4123,95.1988 L188.5593,90.2278 L202.7673,90.2278 L202.7673,90.8988 L190.8833,110.5338 Z" id="Fill-29" fill="#231F20"></path>
            <path d="M218.1523,92.3926 C218.1523,91.1436 217.8873,91.1126 215.6213,90.9596 L215.6213,90.2276 L223.1833,90.2276 L223.1833,90.9596 C220.9173,91.1126 220.6523,91.1436 220.6523,92.3926 L220.6523,109.4066 C220.6523,110.6566 220.9173,110.6866 223.1833,110.8386 L223.1833,111.5706 L215.6213,111.5706 L215.6213,110.8386 C217.8873,110.6866 218.1523,110.6566 218.1523,109.4066 L218.1523,92.3926 Z" id="Fill-31" fill="#231F20"></path>
            <path d="M251.5396,111.7234 L240.0076,92.4544 L240.0076,109.4064 C240.0076,110.6564 240.2726,110.6864 242.9496,110.8394 L242.9496,111.5714 L236.0956,111.5714 L236.0956,110.8394 C238.5366,110.6864 238.8016,110.6564 238.8016,109.4064 L238.8016,92.3924 C238.8016,91.1434 238.5366,91.1124 236.0956,90.9594 L236.0956,90.2274 L241.6556,90.2274 L251.6866,107.0284 L251.6866,92.3924 C251.6866,91.1434 251.4216,91.1124 248.7446,90.9594 L248.7446,90.2274 L255.5996,90.2274 L255.5996,90.9594 C253.1576,91.1124 252.8936,91.1434 252.8936,92.3924 L252.8936,111.7234 L251.5396,111.7234 Z" id="Fill-33" fill="#231F20"></path>
            <path d="M283.1016,95.1985 L282.3946,95.1985 C281.8066,92.5455 280.9546,91.2645 278.6296,91.2645 L273.1876,91.2645 L273.1876,100.1685 L276.1296,100.1685 C278.0126,100.1685 279.0716,99.5575 279.3356,97.1185 L280.0426,97.1185 L280.0426,104.3135 L279.3356,104.3135 C279.0716,101.8745 278.0126,101.2655 276.1296,101.2655 L273.1876,101.2655 L273.1876,110.5335 L278.3946,110.5335 C280.7186,110.5335 282.0416,109.6195 282.7186,106.6015 L283.4246,106.6015 L283.1306,111.5705 L268.1566,111.5705 L268.1566,110.8385 C270.4226,110.6865 270.6876,110.6565 270.6876,109.4065 L270.6876,92.3925 C270.6876,91.1435 270.4226,91.1125 268.1566,90.9595 L268.1566,90.2275 L282.9546,90.2275 L283.1016,95.1985 Z" id="Fill-35" fill="#231F20"></path>
        </g>
    </g>
</svg>