<?xml version="1.0" encoding="UTF-8"?>
<svg width="265px" height="99px" viewBox="0 0 265 99" version="1.1" xmlns="http://www.w3.org/2000/svg" xmlns:xlink="http://www.w3.org/1999/xlink">
    <!-- Generator: Sketch 48.2 (47327) - http://www.bohemiancoding.com/sketch -->
    <title>SK</title>
    <desc>Created with Sketch.</desc>
    <defs>
        <polygon id="path-1" points="0.472219895 0.9528 90.7219412 0.9528 90.7219412 35.33892 0.472219895 35.33892"></polygon>
    </defs>
    <g id="Logos" stroke="none" stroke-width="1" fill="none" fill-rule="evenodd">
        <g id="SK">
            <polygon id="Fill-1" fill="#DC003D" points="85 29 97 29 97 75 85 75"></polygon>
            <path d="M131,74.7980777 L131,65.2755306 C129.343456,65.7372447 127.225949,66.0145174 125.292098,66.0145174 C121.241957,66.0145174 119.861503,64.3508811 119.861503,58.4341009 L119.861503,38.2786944 L129.117232,38.2786944 L129.117232,29.1262515 L119.861503,29.1262515 L119.861503,15 L108.077174,18.1440529 L108.077174,29.1262515 L100,29.1262515 L100,38.2786944 L108.169609,38.2786944 L108.169609,61.5769323 C108.169609,72.3014017 111.299043,76 121.425612,76 C124.647481,76 128.054222,75.5382859 131,74.7980777" id="Fill-3" fill="#DC003D"></path>
            <path d="M161,75.7795959 L161,66.1106221 C159.324794,66.5794359 157.183434,66.8609722 155.227797,66.8609722 C151.13203,66.8609722 149.736025,65.1717544 149.736025,59.1639928 L149.736025,38.6986597 L161,38.6986597 L161,29.4054811 L149.736025,29.4054811 L149.736025,15 L137.818941,18.1911582 L137.818941,29.4054811 L132,29.4054811 L132,38.6986597 L137.912418,38.6986597 L137.912418,62.355151 C137.912418,73.2445289 141.077106,77 151.317754,77 C154.575918,77 158.021037,76.5311862 161,75.7795959" id="Fill-5" fill="#DC003D"></path>
            <path d="M218,75 L218,42.7108008 C218,34.6617253 214.666463,28 204.29641,28 C197.747997,28 192.862071,30.8883774 189.851489,35.3657902 L189.851489,29.018205 L178,29.018205 L178,75 L189.851489,75 L189.851489,52.7950638 C189.851489,44.7459884 194.573491,37.8996905 200.592207,37.8996905 C204.944767,37.8996905 206.240259,40.7685106 206.240259,45.5796208 L206.240259,75 L218,75 Z" id="Fill-7" fill="#DC003D"></path>
            <polygon id="Fill-9" fill="#DC003D" points="163 29 175 29 175 75 163 75"></polygon>
            <path d="M265,38.3566319 L258.006096,29.0267882 L248.771133,29.0267882 C246.198649,28.4671701 243.80948,28 240.776886,28 C227.362091,28 220.10232,36.2106076 220.10232,46.0076215 C220.10232,51.6987153 222.399224,56.6428299 226.901982,58.9749826 C223.686073,60.1878993 221.48022,63.6405208 221.48022,66.9994618 C221.48022,70.2647222 223.225964,72.6905556 225.982977,74.0896007 C222.215909,76.0494965 219,80.4339931 219,85.2856597 C219,94.3356944 226.443087,99 238.572247,99 C253.825051,99 263.657306,90.6969444 263.657306,80.6213542 C263.657306,71.6637674 257.959964,66.9994618 248.036658,66.9994618 L240.961416,66.9994618 C235.631918,66.9994618 233.886173,66.2524826 233.886173,64.1064583 C233.886173,62.9872222 234.620649,61.7743056 236.090813,61.1210069 C237.285398,61.400816 239.031142,61.4944965 240.593571,61.4944965 C253.273891,61.4944965 260.349133,54.7766146 260.349133,44.5148958 C260.349133,41.9017014 259.430129,39.6632292 258.052229,38.3566319 L265,38.3566319 Z M230.578,83.0459549 C230.578,80.4339931 232.048164,77.9157118 234.712913,76.4217535 L236.826502,76.4217535 L244.820749,76.4217535 C249.874667,76.4217535 252.079306,78.8475868 252.079306,82.2065278 C252.079306,86.5922569 248.036658,89.8575174 240.317991,89.8575174 C234.437333,89.8575174 230.578,87.3380035 230.578,83.0459549 Z M249.138978,45.1669618 C249.138978,50.2984375 245.647489,53.3775694 240.317991,53.3775694 C234.620649,53.3775694 231.312475,50.2059896 231.312475,45.0745139 C231.312475,40.1291667 234.712913,36.6777778 240.317991,36.6777778 C245.830804,36.6777778 249.138978,39.8493576 249.138978,45.1669618 Z" id="Fill-11" fill="#DC003D"></path>
            <path d="M82,76 L82,43.4265918 C82,35.3066685 78.6698957,28.5875399 68.3105216,28.5875399 C61.7260805,28.5875399 56.6802086,31.5691609 53.6959463,36.021863 L53.6959463,29.6430683 L42.0411923,29.6430683 L42.0411923,68.1698538 L23.9132042,43.4265918 L34.2224739,29.6430683 L20.3411326,29.6430683 L11.8881669,41.5596876 L11.8881669,13 L0,13 L0,76 L11.8881669,76 L11.8881669,48.7510912 L31.9604471,76 L42.0411923,76 L47.7775261,76 L53.8804769,76 L53.8804769,53.5996164 C53.8804769,45.4796931 58.5976155,38.5731342 64.6101341,38.5731342 C68.9582116,38.5731342 70.2523696,41.4672056 70.2523696,46.3206631 L70.2523696,76 L82,76 Z" id="Fill-13" fill="#DC003D"></path>
            <path d="M178.057446,18.7815759 C177.450942,18.0252596 176.30953,17.5277211 175.51462,17.1022815 C174.464565,16.5662905 172.835608,15.6663454 172.110206,14.7622947 L171.694129,14.2427542 C173.647214,13.7902323 175.615606,14.2725994 177.478649,14.6802953 C178.168835,14.8367739 179.012122,14.9605018 179.721167,14.8178946 C181.014859,14.55586 182.194677,13.3299438 181.973037,11.8715591 C181.752879,10.4137108 180.258902,9.56257634 178.749437,9.86794929 C177.794025,10.0594569 176.77273,10.8572388 175.993406,11.3751013 C174.988323,12.0690189 173.369431,13.1178723 172.22884,13.3471563 L171.580984,13.4786394 C172.248137,11.5153773 173.695367,9.97219097 175.023222,8.48891367 C175.520381,7.9388427 176.074956,7.23663092 176.333105,6.53196693 C176.804764,5.24448708 176.411087,3.60917727 175.076116,3.12643475 C173.742629,2.64422861 172.237682,3.59297128 171.687503,5.09478642 C171.33954,6.04461477 171.458712,7.3379307 171.47578,8.2817691 C171.518732,9.51260953 171.529334,11.45994 171.113607,12.5947426 L170.87966,13.2333444 C169.596418,11.715264 169.079298,9.68784719 168.549635,7.79554699 C168.357554,7.0910019 168.067358,6.26452586 167.616462,5.70246905 C166.794967,4.67555576 165.221471,4.26616208 164.109087,5.24380869 C162.995758,6.21945087 162.985326,8.01785997 163.944073,9.2157702 C164.550039,9.97355458 165.691989,10.469625 166.486899,10.8950645 C167.536954,11.4310556 169.165911,12.3310007 169.889829,13.234515 L170.29673,13.7424242 C168.346741,14.1910784 166.381316,13.709784 164.521239,13.3031608 C163.831053,13.1466823 162.987766,13.0229544 162.278721,13.1655616 C160.98503,13.4275962 159.805749,14.6520443 160.026852,16.111897 C160.247009,17.5697454 161.741525,18.4194118 163.250451,18.1155069 C164.204918,17.9219949 165.227158,17.1262174 166.006483,16.6083549 C167.011565,15.9144372 168.630458,14.8655838 169.771048,14.6362999 L170.4154,14.5052121 C169.752029,16.4764919 168.299681,18.0244776 166.968192,19.5130908 C166.470087,20.0611573 165.916995,20.7639055 165.658846,21.4685695 C165.187187,22.7560493 165.580865,24.3913591 166.914352,24.8735652 C168.247839,25.3557714 169.752786,24.4070287 170.302965,22.9052136 C170.650928,21.9553852 170.531756,20.6620693 170.51415,19.7196989 C170.471199,18.4888585 170.460596,16.541528 170.876323,15.4067254 L171.114573,14.7563793 C172.402803,16.2746008 172.92033,18.30549 173.451884,20.2017991 C173.643966,20.9063442 173.934161,21.7328202 174.385057,22.294877 C175.206552,23.3217903 176.780048,23.731184 177.892432,22.7535374 C179.005761,21.7778952 179.016193,19.9794861 178.057446,18.7815759" id="Fill-15" fill="#DC003D"></path>
            <path d="M178.057446,18.7815759 C177.450942,18.0252596 176.30953,17.5277211 175.51462,17.1022815 C174.464565,16.5662905 172.835608,15.6663454 172.110206,14.7622947 L171.694129,14.2427542 C173.647214,13.7902323 175.615606,14.2725994 177.478649,14.6802953 C178.168835,14.8367739 179.012122,14.9605018 179.721167,14.8178946 C181.014859,14.55586 182.194677,13.3299438 181.973037,11.8715591 C181.752879,10.4137108 180.258902,9.56257634 178.749437,9.86794929 C177.794025,10.0594569 176.77273,10.8572388 175.993406,11.3751013 C174.988323,12.0690189 173.369431,13.1178723 172.22884,13.3471563 L171.580984,13.4786394 C172.248137,11.5153773 173.695367,9.97219097 175.023222,8.48891367 C175.520381,7.9388427 176.074956,7.23663092 176.333105,6.53196693 C176.804764,5.24448708 176.411087,3.60917727 175.076116,3.12643475 C173.742629,2.64422861 172.237682,3.59297128 171.687503,5.09478642 C171.33954,6.04461477 171.458712,7.3379307 171.47578,8.2817691 C171.518732,9.51260953 171.529334,11.45994 171.113607,12.5947426 L170.87966,13.2333444 C169.596418,11.715264 169.079298,9.68784719 168.549635,7.79554699 C168.357554,7.0910019 168.067358,6.26452586 167.616462,5.70246905 C166.794967,4.67555576 165.221471,4.26616208 164.109087,5.24380869 C162.995758,6.21945087 162.985326,8.01785997 163.944073,9.2157702 C164.550039,9.97355458 165.691989,10.469625 166.486899,10.8950645 C167.536954,11.4310556 169.165911,12.3310007 169.889829,13.234515 L170.29673,13.7424242 C168.346741,14.1910784 166.381316,13.709784 164.521239,13.3031608 C163.831053,13.1466823 162.987766,13.0229544 162.278721,13.1655616 C160.98503,13.4275962 159.805749,14.6520443 160.026852,16.111897 C160.247009,17.5697454 161.741525,18.4194118 163.250451,18.1155069 C164.204918,17.9219949 165.227158,17.1262174 166.006483,16.6083549 C167.011565,15.9144372 168.630458,14.8655838 169.771048,14.6362999 L170.4154,14.5052121 C169.752029,16.4764919 168.299681,18.0244776 166.968192,19.5130908 C166.470087,20.0611573 165.916995,20.7639055 165.658846,21.4685695 C165.187187,22.7560493 165.580865,24.3913591 166.914352,24.8735652 C168.247839,25.3557714 169.752786,24.4070287 170.302965,22.9052136 C170.650928,21.9553852 170.531756,20.6620693 170.51415,19.7196989 C170.471199,18.4888585 170.460596,16.541528 170.876323,15.4067254 L171.114573,14.7563793 C172.402803,16.2746008 172.92033,18.30549 173.451884,20.2017991 C173.643966,20.9063442 173.934161,21.7328202 174.385057,22.294877 C175.206552,23.3217903 176.780048,23.731184 177.892432,22.7535374 C179.005761,21.7778952 179.016193,19.9794861 178.057446,18.7815759 Z" id="Stroke-17" stroke="#DC003D" stroke-width="1.265"></path>
            <g id="Group-21" transform="translate(14.000000, 0.000000)">
                <mask id="mask-2" fill="white">
                    <use xlink:href="#path-1"></use>
                </mask>
                <g id="Clip-20"></g>
                <path d="M8.09492895,14.89452 C8.13324474,14.73612 8.17156053,14.57892 8.17036316,14.53932 C8.16557368,13.98732 6.73950789,13.36932 5.43677105,13.38012 C2.59421842,13.40532 0.444942105,15.86772 0.472481579,19.10052 C0.515586842,23.94972 5.28350789,27.49572 11.6391395,27.44052 C17.7181789,27.38772 22.6992316,23.59812 22.6597184,19.14372 C22.6417579,17.13372 21.6000474,15.36852 19.4136526,13.57332 L16.1137053,10.96092 C13.7680605,9.04932 12.8077711,7.59972 12.7934026,5.98332 C12.7706526,3.34212 15.5174158,1.46412 19.5046526,1.43052 C22.9387053,1.40052 26.3512053,3.38052 26.3691658,5.39172 C26.3751526,6.10092 25.8267579,6.61812 25.0772053,6.62532 C24.6030474,6.62892 24.01035,6.47652 23.5733105,6.16452 L23.4535737,6.08652 C23.4152579,6.12732 23.3757447,6.16692 23.3757447,6.20652 C23.2584026,6.32532 23.1793763,6.36492 23.1805737,6.44412 C23.1817711,6.52332 23.2607974,6.60132 23.4200474,6.71772 C23.8163763,6.91212 24.4102711,7.06452 24.8832316,7.05972 C26.1859684,7.04892 27.1259026,6.21252 27.1163237,5.07012 C27.0959684,2.74332 23.8822316,0.91812 19.9345079,0.95292 C15.0396658,0.99612 11.7445079,3.39012 11.7744421,6.78012 C11.7924026,8.86932 12.9921658,10.59372 16.2909158,13.08852 L17.7217711,14.17932 C20.6229947,16.40172 21.7413368,17.96892 21.7581,19.86132 C21.7688763,21.08292 21.2659816,22.31052 20.3284421,23.42172 C19.9381,23.89812 19.3501921,24.45612 19.0759947,24.65532 C18.7227711,24.89532 18.4868895,25.05492 18.4485737,25.09452 C18.3695474,25.17372 18.3695474,25.17372 18.2522053,25.25412 C18.2126921,25.25412 18.0163237,25.37412 17.7026132,25.53492 C16.36635,26.33412 14.3583632,26.86452 12.5024421,26.88132 C10.3711263,26.89932 7.79917895,26.17212 5.65588947,24.96972 C2.76065263,23.33892 1.16096842,21.02652 1.13821842,18.38532 C1.11546842,15.82212 2.91391579,13.79652 5.24279737,13.77612 C6.22942895,13.76772 7.10111316,14.11452 8.09492895,14.89452 Z M31.5022842,12.32532 C31.3047184,12.24732 31.1059553,12.17052 30.9083895,12.17292 C30.4354289,12.17652 29.8858368,12.53652 29.2991263,13.17252 C28.7902447,13.68852 28.4394158,14.20452 28.4406132,14.40132 C28.4418105,14.52012 28.5615474,14.63772 28.7986263,14.67492 L28.8776526,14.59572 C29.42485,14.03892 30.2091263,13.36092 30.7180079,12.92292 L31.3454289,12.48372 L31.5022842,12.32532 Z M28.3053105,16.92612 C27.83235,16.96932 27.5952711,17.01132 27.0049684,17.21292 C26.6924553,17.61012 26.3416263,18.16572 25.9141658,18.91812 C24.8652711,20.82012 24.3647711,22.28292 24.37435,23.42652 C24.3827316,24.37212 24.9011921,24.95892 25.7692842,24.95172 C27.3486132,24.93732 30.1732053,22.90212 33.3809553,19.48452 C34.3580079,18.41052 34.3580079,18.41052 34.3580079,18.33252 C34.3568105,18.21372 34.2765868,18.13572 34.1975605,18.13692 C34.0407053,18.13812 34.0407053,18.17772 33.5713368,18.69372 C30.7168105,21.87252 27.8934158,24.02652 26.5116526,24.03852 C25.9596658,24.04332 25.6794816,23.69052 25.6734947,23.02092 C25.6627184,21.72012 26.3583895,20.05812 28.1496526,17.20332 L28.3053105,16.92612 Z M36.0319289,16.58292 C35.4811395,16.74492 35.0872053,16.90692 34.6944684,17.10732 C34.2262974,17.82132 33.7222053,18.77172 33.1402842,19.95972 C32.2865605,21.70092 31.6316,23.55972 31.6375868,24.15132 C31.6387842,24.34812 31.7585211,24.46572 31.9165737,24.46452 C32.0351132,24.46332 32.1524553,24.38292 32.3093105,24.22452 C33.6767053,22.63572 35.4021132,21.24012 37.7956526,19.68252 C39.2875737,18.68292 40.1125605,18.28212 40.5076921,18.27852 C40.7447711,18.27612 40.9040211,18.43332 40.9064158,18.70932 C40.9076132,18.90612 40.8704947,19.14252 40.7555474,19.49892 L40.4083105,20.48772 C40.0251526,21.75252 39.7210211,23.09532 39.7258105,23.64732 C39.7294026,24.08052 39.9293632,24.35532 40.2454684,24.35292 C40.4430342,24.35052 40.5208632,24.27132 40.8333763,23.87412 C41.0680605,23.59572 41.4979158,23.15892 42.3588237,22.32372 C43.2592447,21.40812 44.1991789,20.61252 45.3378763,19.85292 C46.5939158,18.97452 47.6152711,18.45372 48.0499158,18.44892 C48.3648237,18.44652 48.6042974,18.64212 48.6066921,18.99612 C48.6090868,19.19412 48.5312579,19.35252 48.3025605,20.34012 C48.0738632,21.24852 47.9625079,22.03812 47.9672974,22.59012 C47.9756789,23.61492 48.5743632,24.27972 49.4424553,24.27252 C50.2722316,24.26532 51.2935868,23.78292 52.7052842,22.66692 C53.5278763,21.98892 55.0952316,20.51652 55.9549421,19.60212 L56.7763368,18.68892 C57.2061921,18.17292 57.2457053,18.13212 57.2445079,18.01452 C57.2433105,17.93532 57.1642842,17.85732 57.0852579,17.85852 C56.9667184,17.85972 56.9667184,17.85972 56.5763763,18.33612 C55.8328105,19.17012 55.0892447,19.92612 54.0714816,20.88012 C52.0742711,22.75092 50.9367711,23.51052 50.1069947,23.51772 C49.5154947,23.52252 49.1562842,23.09172 49.1502974,22.38252 C49.1455079,21.90972 49.2592579,21.39612 49.7154553,19.38132 C49.7920868,19.02612 49.8675211,18.66972 49.8651263,18.43332 C49.8615342,17.96052 49.5430342,17.68692 49.0293632,17.69172 C47.6883105,17.70372 44.9391526,19.34412 42.3540342,21.69252 L41.3350737,22.60812 L41.0608763,22.88652 C41.1722316,22.09692 41.2871789,21.62292 41.6320211,20.39772 C42.0151789,19.13292 42.0906132,18.69852 42.0882184,18.38292 C42.0834289,17.91012 41.7649289,17.59692 41.3697974,17.60052 C40.5807316,17.60772 39.2839816,18.21012 37.0856132,19.64892 C35.7110342,20.56812 34.5340211,21.40572 33.3594026,22.40172 L33.2025474,22.52172 C33.7796789,20.86092 34.8644947,18.56412 35.8379553,16.89972 L36.0319289,16.58292 Z M61.0724947,13.88052 L60.5995342,13.88532 L60.5600211,13.88532 C59.9673237,13.89012 60.0068368,13.85052 58.9926658,15.23892 C54.8581526,21.07092 52.0754684,27.79812 50.8745079,34.94412 L50.7990737,35.33892 L51.9006526,35.01372 C52.0419421,33.12012 52.5747711,30.78972 53.4596263,28.10052 C54.5360605,24.85812 55.8567579,22.36332 57.3810079,20.65452 C59.3746263,18.39012 60.9838895,17.31132 62.3656526,17.29932 C63.1954289,17.29212 63.7522053,17.83932 63.7593895,18.70692 C63.7689684,19.77132 63.1104158,21.15732 62.0543368,22.34892 C61.5035474,22.51092 60.9120474,22.59492 60.0044421,22.60332 C59.3327184,22.60932 58.7795342,22.57452 58.3448895,22.45932 L57.9090474,22.34532 C57.8695342,22.34532 57.7905079,22.30692 57.7509947,22.30692 C57.3570605,22.31052 57.0457447,22.86492 57.0517316,23.57532 C57.0577184,24.32412 57.6947184,24.87012 58.5232974,24.86292 C59.6679816,24.85332 60.8078763,24.17292 62.3333237,22.66212 C63.6719816,22.17732 64.2610868,21.89532 65.1255868,21.37572 C66.3037974,20.69532 67.7933237,19.49892 68.5368895,18.66492 L68.9272316,18.22812 C69.0840868,18.06852 69.1619158,17.94972 69.1607184,17.87172 C69.1595211,17.75292 69.0804947,17.71452 68.9619553,17.71572 C68.8829289,17.71572 68.8829289,17.71572 68.7272711,17.91492 C68.2591,18.54972 67.55385,19.18572 66.5348895,19.98372 C65.1627053,21.06012 64.2982053,21.57972 62.8422053,22.06572 C63.8946921,20.59812 64.5137316,19.13412 64.5029553,17.95092 C64.4957711,17.04492 63.8180605,16.34052 62.9894816,16.34772 C62.0818763,16.35612 60.9024684,16.91772 59.7649684,17.83452 C58.9806921,18.47292 57.7677579,19.62612 57.2205605,20.26212 L56.3213368,21.29532 C56.2830211,21.37452 56.2039947,21.45372 56.0866526,21.57252 C56.7464026,20.18772 58.0694947,18.00732 59.3554684,16.14252 C59.9397842,15.30972 60.0966395,15.07212 60.8390079,14.19852 L61.0724947,13.88052 Z M58.0718895,22.81692 C58.7436132,22.96932 59.1782579,23.00412 59.8104684,22.99932 C60.2439158,22.99572 60.6390474,22.99212 61.4676263,22.90572 C60.6462316,23.74092 59.7805342,24.14292 58.9914684,24.15012 C58.3592579,24.15492 57.9617316,23.84292 57.9581395,23.37012 C57.9569421,23.21292 57.9952579,23.09412 58.0718895,22.81692 Z M69.6576263,17.31492 C69.8132842,17.07732 69.9306263,16.91772 69.9689421,16.87812 L70.7496263,15.88572 C70.8286526,15.76692 71.2573105,15.17172 71.6859684,14.57652 C72.4666526,13.50612 72.7779684,13.06932 73.4784289,11.91972 C75.7366658,8.23332 76.7819684,5.85852 76.7687974,4.36092 C76.7628105,3.69012 76.4036,3.26052 75.9294421,3.26412 C75.3774553,3.26892 74.8278632,3.62892 74.1633237,4.46292 C72.7959289,6.09132 71.2441395,9.10092 69.9701395,12.50172 C68.8506,15.39012 68.3596789,17.83932 68.3800342,20.24292 C68.4063763,23.23932 69.4073763,24.88692 71.2237842,24.87132 C73.1970474,24.85332 75.4720474,23.09892 79.3024289,18.72852 C79.9669684,17.97372 79.9669684,17.93412 79.9657711,17.85612 C79.9645737,17.73732 79.9250605,17.65932 79.8065211,17.66052 C79.6879816,17.66172 79.6089553,17.74092 79.4149816,18.01812 C79.0629553,18.41532 78.0068763,19.56852 77.3028237,20.28372 C74.9164684,22.78812 73.2676921,23.90652 71.8859289,23.91852 C70.3856263,23.93172 69.5426789,22.20492 69.5151395,19.05132 C69.5079553,18.30132 69.5438763,17.86812 69.6576263,17.31492 Z M69.7689816,16.52532 C70.0683237,14.63052 70.7580079,12.21972 71.6847711,9.92412 C73.0761132,6.44292 74.7524289,3.98412 75.6600342,3.97572 C75.9761395,3.97332 76.2144158,4.24692 76.2192053,4.68132 C76.2239947,5.31132 75.9174684,6.33972 75.2206,7.92252 C74.4075868,9.74292 73.1623237,11.80452 71.3698632,14.46132 C70.7065211,15.41292 70.3161789,15.88932 69.7689816,16.52532 Z M81.4732579,16.42332 C80.8410474,16.42932 80.5261395,16.47132 80.0543763,16.67292 C78.5696395,18.45972 77.5997711,20.43852 77.6117447,21.81852 C77.6225211,23.00172 78.4582842,23.86212 79.5239421,23.85252 C81.0242447,23.83932 82.4754553,22.72212 84.0727447,20.30412 C83.8811658,21.01572 83.7674158,21.45012 83.4968105,22.08252 L83.0717447,23.15172 C82.6466789,24.25932 82.5700474,24.45612 82.3365605,24.85332 C81.7869684,25.21212 81.5115737,25.37292 81.0398105,25.65252 C80.4507053,25.97292 78.8402447,26.93292 77.9769421,27.45372 C76.6406789,28.21452 75.7378632,28.73412 75.3056132,29.01492 C74.4027974,29.57412 73.6185211,30.17292 72.9911,30.69012 C71.7769684,31.80492 71.1160211,32.87532 71.1244026,33.82092 C71.1303895,34.60932 71.6883632,35.15652 72.4774289,35.15052 C73.4245474,35.14212 74.6051526,34.61892 75.8599947,33.62172 C77.5063763,32.30652 79.2665079,30.47772 80.5548763,28.77132 C81.1008763,28.05732 82.0755342,26.58972 82.38685,26.07492 L82.9304553,25.12332 C82.9304553,25.08372 83.0082842,24.96492 83.1244289,24.76692 C84.3014421,23.92932 84.9683763,23.45052 85.8304816,22.69332 C87.0458105,21.69732 88.4946263,20.30532 89.3160211,19.43052 L90.2535605,18.35772 L90.6055868,17.96052 C90.7229289,17.88012 90.7229289,17.80212 90.7217316,17.72292 C90.7205342,17.60412 90.6810211,17.52612 90.5624816,17.52732 C90.4834553,17.52732 90.4056263,17.60772 90.2882842,17.72652 C88.3736921,20.02932 85.3970342,22.77612 83.5518895,23.97492 C83.6297184,23.77692 83.7075474,23.61852 83.70635,23.57892 L84.0942974,22.74852 C84.4822447,21.91692 85.0976921,20.13732 85.48085,18.79332 C85.8640079,17.44932 86.0507974,16.30452 86.0436132,15.35892 C86.0400211,15.04332 85.9993105,14.84652 85.9562053,14.45292 L85.0917053,14.97252 C85.0929026,15.09132 85.1336132,15.16932 85.1336132,15.20892 C85.1647447,18.75732 82.2826789,23.19732 79.9142842,23.21772 C79.2030474,23.22492 78.6845868,22.67652 78.6786,21.88812 C78.6678237,20.70612 79.6388895,18.80532 81.4732579,16.42332 Z M82.0252447,25.44732 C80.1262184,29.48532 75.5091658,34.17732 73.4173632,34.19532 C72.8246658,34.20132 72.3876263,33.81012 72.3816395,33.21852 C72.3684684,31.72092 74.0531658,30.20772 78.6486658,27.48732 L80.3369553,26.48652 L81.6720211,25.64772 L82.0252447,25.44732 Z" id="Fill-19" fill="#0A0A0B" mask="url(#mask-2)"></path>
            </g>
        </g>
    </g>
</svg>