<?xml version="1.0" encoding="UTF-8"?>
<svg width="309px" height="95px" viewBox="0 0 309 95" version="1.1" xmlns="http://www.w3.org/2000/svg" xmlns:xlink="http://www.w3.org/1999/xlink">
    <!-- Generator: Sketch 48.2 (47327) - http://www.bohemiancoding.com/sketch -->
    <title>Sky</title>
    <desc>Created with Sketch.</desc>
    <defs>
        <polygon id="path-1" points="0.2133 0.677 20.3683 0.677 20.3683 19.6398 0.2133 19.6398"></polygon>
        <polygon id="path-3" points="0.0001 0.677 20.1471 0.677 20.1471 19.6398 0.0001 19.6398"></polygon>
    </defs>
    <g id="Logos" stroke="none" stroke-width="1" fill="none" fill-rule="evenodd">
        <g id="Sky" transform="translate(0.000000, -1.000000)">
            <g id="Group-29" transform="translate(0.000000, 23.322600)" fill="#231F20">
                <path d="M8.1599,46.9601 L0.1229,46.9601 L0.1229,32.8951 L8.3219,32.8951 L9.3999,38.4321 C10.2089,38.7501 11.1799,38.8781 12.6369,38.8781 C15.4949,38.8781 17.2209,37.7321 17.2209,34.9321 C17.2209,31.8771 14.7399,31.3041 10.7489,30.0311 C5.2469,28.3131 0.2849,25.6401 0.2849,16.0301 C0.2849,5.9111 6.2179,1.7111 14.3089,1.7111 C17.7069,1.7111 19.6489,2.0291 21.2129,2.4111 L28.1169,2.4111 L28.1169,15.3301 L20.0259,15.3301 L18.9469,10.5571 C18.2459,10.3031 17.3289,10.1111 16.1429,10.1111 C13.1759,10.1111 11.5579,11.2571 11.5579,13.9941 C11.5579,16.9851 13.9849,17.4941 16.7359,18.3851 C25.7979,21.2491 29.2499,24.1761 29.2499,32.7041 C29.2499,42.3781 24.6649,47.6601 14.5249,47.6601 C11.9359,47.6601 10.0479,47.4061 8.1599,46.9601" id="Fill-1"></path>
                <path d="M50.1106,39.3232 L47.4136,34.3592 L45.2566,36.2042 L45.2566,39.1322 L47.6296,39.1322 L47.6296,46.9602 L30.8006,46.9602 L30.8006,39.1322 L32.1496,39.1322 C32.6886,39.1322 33.4976,38.1772 33.4976,37.5412 L33.4976,12.1482 C33.4976,11.5122 32.6886,10.5572 32.1496,10.5572 L30.6936,10.5572 L30.6936,2.4112 L43.5846,2.4112 C44.6096,2.4112 45.2566,3.4932 45.2566,5.2112 L45.2566,27.6132 L49.0856,23.8582 C50.4346,22.5222 50.1106,21.3762 48.8166,21.3762 L47.7916,21.3762 L47.7916,13.3572 L64.1886,13.3572 L64.1886,21.6942 L63.1636,21.6942 C62.6246,21.6942 61.9226,22.0762 61.4376,22.5852 L56.7986,27.2952 L62.0306,37.4772 C62.4626,38.3052 63.0556,39.1322 63.6486,39.1322 L64.2966,39.1322 L64.2966,46.9602 L50.1106,46.9602 L50.1106,39.3232 Z" id="Fill-3"></path>
                <path d="M70.1785,50.3331 C72.8215,49.5691 75.4105,48.2961 77.5675,46.2601 L68.8835,23.1581 C68.6145,22.4581 67.9135,21.6941 67.3195,21.6941 L66.5645,21.6941 L66.5645,13.3571 L83.0155,13.3571 L83.0155,21.6941 L80.1565,21.6941 L83.9325,32.8321 L84.1485,32.8321 L86.9525,24.5581 C87.4925,23.0951 87.1145,21.6941 85.7125,21.6941 L85.2265,21.6941 L85.2265,13.3571 L98.8195,13.3571 L98.8195,21.6941 L98.0105,21.6941 C97.4165,21.6941 96.4995,22.7131 96.1225,23.6671 L88.7865,41.8681 C85.3345,50.2691 82.4225,54.2151 79.0785,57.2701 L70.1785,57.2701 L70.1785,50.3331 Z" id="Fill-5"></path>
                <path d="M107.2308,37.7955 C107.2308,30.4765 111.5998,27.2945 118.2878,27.2945 C120.3918,27.2945 121.9018,27.4225 123.4658,27.7405 L123.4658,25.7035 C123.4658,23.3495 122.3868,22.2665 119.6358,22.2665 C116.7238,22.2665 115.2138,23.4765 114.0808,24.5585 L109.1728,24.5585 L109.1728,15.0755 C112.1928,13.8025 116.6698,12.7205 122.4948,12.7205 C131.4488,12.7205 135.2778,16.2205 135.2778,24.1125 L135.2778,37.5415 C135.2778,38.1775 136.0338,39.1315 136.5728,39.1315 L137.4898,39.1315 L137.4898,45.7505 C135.8178,46.8325 133.5518,47.5325 130.7478,47.5325 C127.0798,47.5325 125.1918,46.0695 124.2748,43.5235 C122.2258,46.2605 119.5288,47.4055 116.0768,47.4055 C111.3298,47.4055 107.2308,44.2875 107.2308,37.7955 M123.4658,38.4955 L123.4658,33.4685 C122.7648,33.3405 121.9018,33.2135 121.2008,33.2135 C119.3128,33.2135 118.2878,34.0405 118.2878,36.5225 C118.2878,38.9415 119.4208,39.5775 120.8768,39.5775 C121.9018,39.5775 122.6568,39.1955 123.4658,38.4955" id="Fill-7"></path>
                <path d="M137.2993,13.3572 L140.1043,13.3572 L140.1043,4.6382 L151.9163,4.6382 L151.9163,13.3572 L156.6633,13.3572 L156.6633,21.6942 L151.9163,21.6942 L151.9163,35.3772 C151.9163,38.2412 152.7253,39.1322 155.3143,39.1322 L156.7713,39.1322 L156.7713,46.7052 C155.3683,47.1512 153.2113,47.6602 150.5143,47.6602 C144.2573,47.6602 140.1043,45.5602 140.1043,37.7322 L140.1043,21.6942 L137.2993,21.6942 L137.2993,13.3572 Z" id="Fill-9"></path>
                <path d="M165.0209,39.132 L166.5849,39.132 C167.2329,39.132 168.0949,37.987 168.0949,37.287 L168.0949,12.339 C168.0949,11.639 167.2329,10.557 166.5849,10.557 L165.0209,10.557 L165.0209,2.411 L180.1779,2.411 L191.4499,25.386 L191.6119,25.386 L191.6119,10.557 L188.3219,10.557 L188.3219,2.411 L203.5329,2.411 L203.5329,10.557 L202.1299,10.557 C201.5369,10.557 200.6739,11.639 200.6739,12.339 L200.6739,46.96 L189.7249,46.96 L177.2649,21.695 L177.1029,21.695 L177.1029,39.132 L180.5549,39.132 L180.5549,46.96 L165.0209,46.96 L165.0209,39.132 Z" id="Fill-11"></path>
                <path d="M203.8915,39.132 L205.2945,39.132 C205.8335,39.132 206.5885,38.178 206.5885,37.541 L206.5885,23.285 C206.5885,22.713 205.8335,21.695 205.2945,21.695 L203.7295,21.695 L203.7295,13.357 L216.7285,13.357 C217.8075,13.357 218.4005,14.503 218.4005,16.603 L218.4005,37.541 C218.4005,38.178 219.2095,39.132 219.7485,39.132 L221.1515,39.132 L221.1515,46.96 L203.8915,46.96 L203.8915,39.132 Z M207.0195,6.102 C207.0195,2.475 209.2855,0.056 212.4675,0.056 C215.7035,0.056 217.9695,2.475 217.9695,6.102 C217.9695,9.666 215.7035,12.021 212.4675,12.021 C209.2855,12.021 207.0195,9.666 207.0195,6.102 Z" id="Fill-13"></path>
                <path d="M221.9646,50.7787 C221.9646,46.9597 224.7696,44.7967 227.1426,43.7777 C225.7406,42.8867 224.6616,41.2957 224.6616,39.0047 C224.6616,36.0137 226.1176,34.0407 228.1676,32.5767 C225.4166,30.7947 223.9606,27.8677 223.9606,23.9217 C223.9606,16.8577 228.8146,12.7207 237.0676,12.7207 C238.9546,12.7207 240.6806,12.9757 242.2456,13.3577 L252.2776,13.3577 L252.2776,21.6947 L251.1986,21.6947 C250.8216,21.6947 250.3356,22.1397 250.1206,22.5857 C250.1206,23.0307 250.1746,23.4767 250.1746,23.9217 C250.1746,30.9857 245.3736,34.8047 237.0676,34.8047 C235.1796,34.8047 233.4536,34.6137 231.9426,34.2317 L231.9426,34.6777 C231.9426,36.0137 232.2126,36.8407 233.6696,36.8407 L243.4856,36.8407 C249.6886,36.8407 252.3856,39.5137 252.3856,45.6867 C252.3856,53.3237 247.6926,58.4787 236.0966,58.4787 C225.4706,58.4787 221.9646,55.6157 221.9646,50.7787 Z M231.5656,46.8967 C231.5116,47.2777 231.5116,47.5967 231.5116,47.7877 C231.5116,50.4607 232.3206,51.1607 236.1506,51.1607 C239.3326,51.1607 242.1376,50.5877 242.1376,48.6147 C242.1376,47.4057 241.5436,46.8967 239.8186,46.8967 L231.5656,46.8967 Z M239.8186,23.9857 C239.8186,20.6757 238.7936,19.5937 237.1756,19.5937 C235.5566,19.5937 234.4786,20.6757 234.4786,23.9857 C234.4786,27.2317 235.5566,28.5037 237.1756,28.5037 C238.7936,28.5037 239.8186,27.2317 239.8186,23.9857 Z" id="Fill-15"></path>
                <path d="M274.4654,26.0856 C274.4654,23.6036 273.4944,23.0946 271.0134,23.0946 C270.5284,23.0946 269.6654,23.1586 268.8564,23.2856 L268.8564,39.1316 L271.9844,39.1316 L271.9844,46.9596 L254.4004,46.9596 L254.4004,39.1316 L255.7494,39.1316 C256.2884,39.1316 257.0434,38.1136 257.0434,37.5416 L257.0434,12.0846 C257.0434,11.4476 256.2884,10.5566 255.7494,10.5566 L254.2394,10.5566 L254.2394,2.4106 L267.1304,2.4106 C268.2084,2.4106 268.8564,3.4926 268.8564,5.2116 L268.8564,17.8126 C271.2834,14.8846 274.5734,12.7206 278.9424,12.7206 C282.7184,12.7206 286.2774,14.5666 286.2774,20.7396 L286.2774,37.5416 C286.2774,38.1776 287.0334,39.1316 287.5724,39.1316 L288.4354,39.1316 L288.4354,46.9596 L274.4654,46.9596 L274.4654,26.0856 Z" id="Fill-17"></path>
                <path d="M289.5289,13.3572 L292.3339,13.3572 L292.3339,4.6382 L304.1459,4.6382 L304.1459,13.3572 L308.8919,13.3572 L308.8919,21.6942 L304.1459,21.6942 L304.1459,35.3772 C304.1459,38.2412 304.9549,39.1322 307.5439,39.1322 L308.9999,39.1322 L308.9999,46.7052 C307.5979,47.1512 305.4399,47.6602 302.7439,47.6602 C296.4869,47.6602 292.3339,45.5602 292.3339,37.7322 L292.3339,21.6942 L289.5289,21.6942 L289.5289,13.3572 Z" id="Fill-19"></path>
                <path d="M88.6237,68.3738 L89.2887,68.3738 C89.5637,68.3738 89.9307,67.8868 89.9307,67.5888 L89.9307,56.9808 C89.9307,56.6838 89.5637,56.2238 89.2887,56.2238 L88.6237,56.2238 L88.6237,52.7598 L97.2927,52.7598 L99.1267,61.5008 L99.1957,61.5008 L101.0537,52.7598 L109.7687,52.7598 L109.7687,56.2238 L109.0807,56.2238 C108.8277,56.2238 108.4607,56.6838 108.4607,56.9808 L108.4607,67.5888 C108.4607,67.8868 108.8277,68.3738 109.0807,68.3738 L109.7687,68.3738 L109.7687,71.7018 L101.9477,71.7018 L101.9477,68.3738 L103.2327,68.3738 L103.2327,57.9828 L103.1637,57.9828 L100.0217,71.7018 L96.9487,71.7018 L93.8297,57.9828 L93.7607,57.9828 L93.7607,68.3738 L95.1367,68.3738 L95.1367,71.7018 L88.6237,71.7018 L88.6237,68.3738 Z" id="Fill-21"></path>
                <path d="M110.4717,68.3738 L110.7697,68.3738 C111.1367,68.3738 111.4807,68.0218 111.6417,67.5348 L114.8057,56.9548 C114.8977,56.6568 114.6917,56.2238 114.3937,56.2238 L113.6367,56.2238 L113.6367,52.7598 L122.2827,52.7598 L126.2957,67.7518 C126.3877,68.0488 126.7547,68.3738 126.9837,68.3738 L127.3507,68.3738 L127.3507,71.7018 L119.1867,71.7018 L119.1867,68.3738 L120.9747,68.3738 L120.3787,65.9108 L115.8607,65.9108 C115.4257,67.5618 115.5627,68.3738 116.6867,68.3738 L117.2827,68.3738 L117.2827,71.7018 L110.4717,71.7018 L110.4717,68.3738 Z M116.6637,63.0428 L119.6677,63.0428 L118.3147,57.4688 L118.2687,57.4688 L116.6637,63.0428 Z" id="Fill-23"></path>
                <path d="M127.5482,62.4206 C127.5482,55.9796 130.4612,52.4616 135.5292,52.4616 C136.5382,52.4616 137.5702,52.5976 138.2122,52.7596 L141.8592,52.7596 L141.8592,59.3356 L138.4182,59.3356 L137.8912,56.7916 C137.5932,56.7106 137.0652,56.6026 136.5612,56.6026 C134.5662,56.6026 133.3042,57.9826 133.3042,62.1226 C133.3042,65.9656 133.9922,68.0486 136.0332,68.0486 C136.5152,68.0486 136.8132,68.0226 137.1342,67.9406 L137.1342,65.3156 L136.0112,65.3156 L136.0112,62.0146 L143.2122,62.0146 L143.2122,65.3966 L142.8682,65.3966 C142.5922,65.3966 142.2252,65.8576 142.2252,66.1546 L142.2252,71.7026 L139.5652,71.7026 C139.5652,71.7026 139.3592,71.1606 138.9232,71.1606 C138.1892,71.6476 136.8592,71.9996 135.5752,71.9996 C130.0712,71.9996 127.5482,68.6446 127.5482,62.4206" id="Fill-25"></path>
                <path d="M143.3171,68.3738 L143.6151,68.3738 C143.9821,68.3738 144.3261,68.0218 144.4871,67.5348 L147.6511,56.9548 C147.7431,56.6568 147.5371,56.2238 147.2391,56.2238 L146.4821,56.2238 L146.4821,52.7598 L155.1281,52.7598 L159.1411,67.7518 C159.2331,68.0488 159.6001,68.3738 159.8291,68.3738 L160.1961,68.3738 L160.1961,71.7018 L152.0321,71.7018 L152.0321,68.3738 L153.8211,68.3738 L153.2241,65.9108 L148.7061,65.9108 C148.2711,67.5618 148.4081,68.3738 149.5321,68.3738 L150.1281,68.3738 L150.1281,71.7018 L143.3171,71.7018 L143.3171,68.3738 Z M149.5091,63.0428 L152.5131,63.0428 L151.1601,57.4688 L151.1141,57.4688 L149.5091,63.0428 Z" id="Fill-27"></path>
            </g>
            <polygon id="Fill-30" fill="#231F20" points="161.334 76.0824 161.334 82.0904 164.43 82.0904 164.866 79.8164 168.259 79.8164 168.259 79.9244 160.898 90.8844 160.898 95.0244 174.062 95.0244 174.062 88.7464 170.806 88.7464 170.37 91.3984 166.701 91.3984 166.701 91.2904 174.062 80.3304 174.062 76.0824"></polygon>
            <g id="Group-53" transform="translate(0.000000, 0.322600)">
                <path d="M175.3279,91.3738 L176.1079,91.3738 C176.3829,91.3738 176.7499,90.8868 176.7499,90.5888 L176.7499,79.9808 C176.7499,79.6838 176.3829,79.2238 176.1079,79.2238 L175.3279,79.2238 L175.3279,75.7598 L183.5389,75.7598 L183.5389,79.2238 L182.7359,79.2238 C182.4839,79.2238 182.1169,79.6838 182.1169,79.9808 L182.1169,90.5888 C182.1169,90.8868 182.4839,91.3738 182.7359,91.3738 L183.5389,91.3738 L183.5389,94.7018 L175.3279,94.7018 L175.3279,91.3738 Z" id="Fill-31" fill="#231F20"></path>
                <path d="M184.7226,91.3738 L185.3876,91.3738 C185.6626,91.3738 186.0296,90.8868 186.0296,90.5888 L186.0296,79.9808 C186.0296,79.6838 185.6626,79.2238 185.3876,79.2238 L184.7226,79.2238 L184.7226,75.7598 L191.1676,75.7598 L195.9606,85.5288 L196.0286,85.5288 L196.0286,79.2238 L194.6306,79.2238 L194.6306,75.7598 L201.0976,75.7598 L201.0976,79.2238 L200.5016,79.2238 C200.2486,79.2238 199.8816,79.6838 199.8816,79.9808 L199.8816,94.7018 L195.2266,94.7018 L189.9286,83.9598 L189.8596,83.9598 L189.8596,91.3738 L191.3276,91.3738 L191.3276,94.7018 L184.7226,94.7018 L184.7226,91.3738 Z" id="Fill-33" fill="#231F20"></path>
                <path d="M202.0648,91.3738 L202.7298,91.3738 C203.0048,91.3738 203.3718,90.8868 203.3718,90.5888 L203.3718,79.9808 C203.3718,79.6838 203.0048,79.2238 202.7298,79.2238 L202.0648,79.2238 L202.0648,75.7598 L215.7338,75.7598 L215.7338,81.9028 L212.6368,81.9028 L212.1788,79.4938 L208.7388,79.4938 L208.7388,83.1208 L212.4308,83.1208 L212.4308,86.9628 L208.7388,86.9628 L208.7388,91.0758 L212.2708,91.0758 L212.7058,88.2078 L215.9398,88.2078 L215.9398,94.7018 L202.0648,94.7018 L202.0648,91.3738 Z" id="Fill-35" fill="#231F20"></path>
                <g id="Group-39" transform="translate(23.000000, 0.000000)">
                    <mask id="mask-2" fill="white">
                        <use xlink:href="#path-1"></use>
                    </mask>
                    <g id="Clip-38"></g>
                    <path d="M15.5823,13.2518 C15.5873,11.5278 14.4363,10.2198 12.6033,9.7138 C13.0953,9.4628 13.4863,9.1528 13.7773,8.7748 C14.1633,8.2698 14.3433,7.6498 14.3433,6.9258 C14.3433,6.0368 13.9953,5.1318 13.2453,4.4558 C12.4913,3.7768 11.3523,3.3378 9.7983,3.3378 L5.5003,3.3378 L5.5003,16.9928 L10.5413,16.9928 L10.5473,16.9928 C12.3473,16.9928 13.6093,16.5078 14.4203,15.7868 C15.2303,15.0658 15.5823,14.1208 15.5823,13.2518 Z M0.2133,19.6398 L20.3683,19.6398 L20.3683,0.6768 L0.2133,0.6768 L0.2133,19.6398 Z" id="Fill-37" fill="#231F20" mask="url(#mask-2)"></path>
                </g>
                <path d="M36.074,12.9771 C36.074,13.4301 35.932,13.8831 35.525,14.2381 C35.123,14.5921 34.43,14.8611 33.274,14.8611 L30.948,14.8611 L30.948,11.1341 L33.173,11.1341 C34.206,11.1341 34.937,11.3441 35.403,11.6731 C35.861,12.0031 36.068,12.4341 36.074,12.9771" id="Fill-40" fill="#231F20"></path>
                <path d="M34.1898,8.516 C34.6208,8.203 34.8328,7.764 34.8328,7.102 C34.8328,6.647 34.7038,6.258 34.3748,5.968 C34.0498,5.677 33.4908,5.47 32.5908,5.47 L30.9488,5.47 L30.9488,9.002 L32.0788,9.002 C33.0548,9.002 33.7538,8.828 34.1898,8.516" id="Fill-42" fill="#231F20"></path>
                <g id="Group-46">
                    <mask id="mask-4" fill="white">
                        <use xlink:href="#path-3"></use>
                    </mask>
                    <g id="Clip-45"></g>
                    <path d="M15.3621,13.2518 C15.3681,11.5278 14.2221,10.2198 12.3831,9.7138 C12.8811,9.4628 13.2721,9.1528 13.5571,8.7748 C13.9421,8.2698 14.1211,7.6498 14.1211,6.9258 C14.1211,6.0368 13.7741,5.1318 13.0261,4.4558 C12.2771,3.7768 11.1381,3.3378 9.5851,3.3378 L5.2861,3.3378 L5.2861,16.9928 L10.3211,16.9928 L10.3271,16.9928 C12.1261,16.9928 13.3891,16.5078 14.2001,15.7868 C15.0151,15.0658 15.3621,14.1208 15.3621,13.2518 Z M0.0001,19.6398 L20.1471,19.6398 L20.1471,0.6768 L0.0001,0.6768 L0.0001,19.6398 Z" id="Fill-44" fill="#231F20" mask="url(#mask-4)"></path>
                </g>
                <path d="M10.9703,8.516 C11.4053,8.203 11.6123,7.764 11.6173,7.102 C11.6173,6.647 11.4843,6.258 11.1603,5.968 C10.8283,5.677 10.2713,5.47 9.3773,5.47 L7.7343,5.47 L7.7343,9.002 L8.8633,9.002 C9.8353,9.002 10.5393,8.828 10.9703,8.516" id="Fill-47" fill="#231F20"></path>
                <path d="M12.1823,11.673 C11.7243,11.344 10.9873,11.134 9.9523,11.134 L7.7343,11.134 L7.7343,14.861 L10.0533,14.861 C11.2103,14.861 11.9093,14.592 12.3103,14.239 C12.7123,13.883 12.8543,13.43 12.8543,12.977 C12.8483,12.434 12.6463,12.002 12.1823,11.673" id="Fill-49" fill="#231F20"></path>
                <path d="M62.5822,13.3403 L62.2572,13.5363 C60.7042,14.4883 59.0042,15.0013 57.4632,15.0013 C54.1642,14.9873 51.9862,13.0343 51.9752,10.1863 C51.9862,7.4003 54.2552,5.3413 57.3732,5.3333 C58.9712,5.3353 60.4142,5.7473 62.1242,6.6853 L62.4362,6.8583 L62.4362,4.3153 L62.3022,4.2653 C60.3672,3.5033 58.8722,3.1623 57.3952,3.1623 C55.1162,3.1623 53.1272,3.9163 51.7172,5.1963 C50.3112,6.4783 49.4712,8.2863 49.4712,10.3633 C49.4712,11.8073 50.0642,13.5033 51.3492,14.8473 C52.6222,16.1933 54.5802,17.1733 57.2722,17.1733 L57.2852,17.1733 C59.5192,17.1733 61.0622,16.6753 62.4592,15.9843 L62.5822,15.9293 L62.5822,13.3403 Z M46.4302,19.6403 L66.5832,19.6403 L66.5832,0.6773 L46.4302,0.6773 L46.4302,19.6403 Z" id="Fill-51" fill="#231F20"></path>
            </g>
        </g>
    </g>
</svg>