<?xml version="1.0" encoding="UTF-8"?>
<svg width="880px" height="75px" viewBox="0 0 880 75" version="1.1" xmlns="http://www.w3.org/2000/svg" xmlns:xlink="http://www.w3.org/1999/xlink">
    <!-- Generator: Sketch 48.2 (47327) - http://www.bohemiancoding.com/sketch -->
    <title>Group</title>
    <desc>Created with Sketch.</desc>
    <defs></defs>
    <g id="World-Histories-Zeus" stroke="none" stroke-width="1" fill="none" fill-rule="evenodd" transform="translate(0.000000, -83.000000)">
        <g id="Group" transform="translate(0.000000, 83.000000)" fill="#000000">
            <g id="BBC_Block_Logo_White-Copy-3" transform="translate(0.000000, 4.000000)">
                <path d="M82,67 L153,67 L153,0 L82,0 L82,67 Z M136.999932,43.84877 C137.019249,37.7889412 132.908572,33.1910427 126.363345,31.4131458 C128.12031,30.5316576 129.517381,29.441573 130.556641,28.1127581 C131.934396,26.3380793 132.575129,24.157325 132.575129,21.6123315 C132.575129,18.4863106 131.33408,15.3052881 128.655542,12.9293951 C125.963036,10.5432625 121.896342,9 116.347878,9 L101,9 L101,57 L119.021066,57 C125.448904,57 129.956325,55.2929029 132.85062,52.7599044 C135.741646,50.224858 136.999932,46.903991 136.999932,43.84877 Z" id="Fill-1"></path>
                <path d="M128,43.4287405 C128,45.0077701 127.502825,46.5865095 126.073558,47.8276732 C124.659782,49.0621609 122.225643,50 118.16553,50 L110,50 L110,37 L117.813328,37 C121.438523,37 124.008866,37.7320428 125.641855,38.8806127 C127.252631,40.0309242 127.979248,41.536227 128,43.4287405" id="Fill-2"></path>
                <path d="M121.683917,27.3482892 C123.237973,26.2858893 124,24.7928174 124,22.5433123 C124,20.9967952 123.537383,19.6756527 122.350241,18.6901687 C121.180799,17.7032708 119.166227,17 115.921611,17 L110,17 L110,29 L114.073545,29 C117.594471,29 120.110661,28.4070129 121.683917,27.3482892" id="Fill-3"></path>
                <path d="M0,67 L71,67 L71,0 L0,0 L0,67 Z M54.9999188,43.84877 C55.0210324,37.7889412 50.9252867,33.1910427 44.3565705,31.4131458 C46.1357651,30.5316576 47.5337249,29.441573 48.5525316,28.1127581 C49.9275936,26.3380793 50.5669498,24.157325 50.5669498,21.6123315 C50.5669498,18.4863106 49.3268961,15.3052881 46.6520081,12.9293951 C43.9789043,10.5432625 39.9078407,9 34.3594182,9 L19,9 L19,57 L37.0114083,57 C43.4379792,57 47.9518342,55.2929029 50.8479692,52.7599044 C53.7601624,50.224858 54.9999188,46.903991 54.9999188,43.84877 Z" id="Fill-4"></path>
                <path d="M39.6662167,27.3482892 C41.2343727,26.2858893 41.9822994,24.7928174 42,22.5433123 C42,20.9967952 41.5196828,19.6756527 40.3502411,18.6901687 C39.1558984,17.7032708 37.1485267,17 33.9234116,17 L28,17 L28,29 L32.0717454,29 C35.5767706,29 38.1124612,28.4070129 39.6662167,27.3482892" id="Fill-5"></path>
                <path d="M43.6391332,38.8806127 C42.0285468,37.7320428 39.4376798,37 35.7980589,37 L28,37 L28,50 L36.1556419,50 C40.2207338,50 42.6781656,49.0621609 44.0903549,47.8279635 C45.5040073,46.5865095 46,45.0077701 46,43.4287405 C45.9809796,41.536227 45.2707883,40.0291826 43.6391332,38.8806127" id="Fill-6"></path>
                <path d="M164,67 L235,67 L235,0 L164,0 L164,67 Z M221,44.5961959 L219.858249,45.2819584 C214.409966,48.6118068 208.445998,50.4050931 203.040932,50.4050931 C191.466908,50.355029 183.825062,43.5250558 183.785349,33.566073 C183.825062,23.8221915 191.786072,16.6208121 202.725563,16.5934515 C208.332407,16.6018926 213.392319,18.0409459 219.392497,21.3227677 L220.487526,21.9276125 L220.487526,13.0348216 L220.018562,12.8593059 C213.228503,10.1930987 207.982289,9 202.802945,9 C194.805726,9 187.826154,11.6371002 182.881584,16.113767 C177.945483,20.5988749 175,26.9200566 175,34.1834339 C175,39.2340921 177.07968,45.165239 181.58799,49.8669035 C186.056586,54.5738072 192.925779,58 202.37019,58 L202.416619,58 C210.251774,58 215.667352,56.2602706 220.566952,53.8414734 L221,53.6490757 L221,44.5961959 Z" id="Fill-7"></path>
            </g>
            <path d="M320,73 L326,73 L345,15 L352,9 L333,9 L344,15 L334,46 L330,55 L327,46 L315,9 L310,9 L299,45 L297,54 L293,45 L283,13 L290,10 L290,9 L260,9 L260,10 L265,13 L286,73 L292,73 L302,41 L305,32 L309,41 L320,73 Z M374,50 C374,66.2905138 371.295741,74 367,74 C361.703076,74 359,66.2905138 359,50 C359,34.7094862 361.703076,27 367,27 C371.295741,27 374,34.7094862 374,50 Z M389,50 C389,34.5932836 377.588418,26 367,26 C354.412773,26 343,34.5932836 343,50 C343,66.4067164 354.412773,75 367,75 C377.588418,75 389,66.4067164 389,50 Z M409,37 L409,26 L389,30 L389,31 L395,32 L395,70 L389,73 L389,74 L418,74 L418,73 L409,70 L409,38 C416.469378,34.7022901 422.700135,35.2519084 426,40 L427,40 L427,27 C420.593058,24.6259542 412.870681,28.1984733 410,37 L409,37 Z M446,0 L426,4 L426,5 L432,6 L432,70 L426,73 L426,74 L452,74 L452,73 L446,70 L446,0 Z M483,67 C480.600186,68.1613636 478.714286,69 476,69 C471.514844,69 468,65.1795455 468,50 C468,34.6159091 472.114797,28 477,28 C479.229362,28 481.029223,28.3727273 483,29 L483,67 Z M484,29 C480.762587,27.032767 477.368411,26.2135922 474,26 C463.879071,26.2135922 453,33.9502427 453,51 C453,67.5364078 461.703257,75 470,75 C474.931688,75 479.805134,72.1783981 484,68 L484,75 L504,71 L504,70 L498,69 L498,0 L497,0 L478,4 L478,5 L484,6 L484,29 Z M560,69 L554,72 L554,73 L584,73 L584,72 L577,69 L577,13 L584,10 L584,9 L554,9 L554,10 L560,13 L560,40 L539,40 L539,13 L545,10 L545,9 L515,9 L515,10 L522,13 L522,69 L515,72 L515,73 L545,73 L545,72 L539,69 L539,41 L560,41 L560,69 Z M607,26 L587,30 L587,31 L593,32 L593,70 L587,73 L587,74 L613,74 L613,73 L607,70 L607,26 Z M593,12 C593,16.6222222 596.166164,20 601,20 C604.832705,20 608,16.6222222 608,12 C608,7.37777778 604.832705,4 601,4 C596.166164,4 593,7.37777778 593,12 Z M617,71 C622.172235,73.8115672 627.689442,75 632,75 C643.120782,75 652,69.1492537 652,59 C652,41.1753731 628.034414,46.2947761 628,36 C628.034414,29.9309701 632.603241,26.6399254 640,28 L647,42 L649,42 L649,30 C644.84564,27.4626866 639.068827,26 635,26 C625.362345,26 617,30.3880597 617,42 C617,59.8246269 640.965586,54.7052239 642,64 C640.965586,71.3432836 634.414634,74.3600746 626,73 L618,59 L617,59 L617,71 Z M687,69 C681.377427,70.9028832 673.645496,71.6312595 674,64 L674,29 L686,29 L686,28 L674,28 L674,15 L673,15 L659,28 L653,28 L653,29 L659,29 L659,61 C659.06232,70.1745068 665.299825,75 673,75 C677.159902,75 683.134034,73.1790592 687,70 L687,69 Z M716,50 C716,66.2905138 713.296924,74 709,74 C703.704259,74 701,66.2905138 701,50 C701,34.7094862 703.704259,27 709,27 C713.296924,27 716,34.7094862 716,50 Z M732,50 C732,34.5932836 720.587227,26 708,26 C697.411582,26 686,34.5932836 686,50 C686,66.4067164 697.411582,75 708,75 C720.587227,75 732,66.4067164 732,50 Z M753,37 L753,26 L733,30 L733,31 L739,32 L739,70 L733,73 L733,74 L762,74 L762,73 L753,70 L753,38 C760.468187,34.7022901 766.698944,35.2519084 770,40 L771,40 L771,27 C764.593058,24.6259542 756.870681,28.1984733 754,37 L753,37 Z M793,26 L773,30 L773,31 L779,32 L779,70 L773,73 L773,74 L799,74 L799,73 L793,70 L793,26 Z M778,12 C778,16.6222222 781.166164,20 786,20 C789.832705,20 793,16.6222222 793,12 C793,7.37777778 789.832705,4 786,4 C781.166164,4 778,7.37777778 778,12 Z M840,67 C835.525891,68.4179104 831.23857,69.0578358 828,69 C821.000989,69.0578358 815.487532,66.2238806 815,50 L841,50 C843.051255,34.3190299 835.439243,26 822,26 C811.812685,26 800,35.0503731 800,51 C800,67.5951493 810.237581,75 822,75 C828.613001,75 835.001252,72.5317164 840,68 L840,67 Z M822,27 C825.777696,27 827.602865,33.8497854 827,47 L815,48 C815.086071,33.0386266 818.823659,27 822,27 Z M845,71 C850.173232,73.8115672 855.690254,75 860,75 C871.121078,75 880,69.1492537 880,59 C880,41.1753731 856.035214,46.2947761 856,36 C856.035214,29.9309701 860.603889,26.6399254 868,28 L875,42 L877,42 L877,30 C872.844709,27.4626866 867.069259,26 863,26 C853.362066,26 845,30.3880597 845,42 C845,59.8246269 868.965955,54.7052239 870,64 C868.965955,71.3432836 862.414052,74.3600746 854,73 L846,59 L845,59 L845,71 Z" id="Page-1"></path>
        </g>
    </g>
</svg>