<?xml version="1.0" encoding="UTF-8"?>
<svg width="557px" height="257px" viewBox="0 0 557 257" version="1.1" xmlns="http://www.w3.org/2000/svg" xmlns:xlink="http://www.w3.org/1999/xlink">
    <!-- Generator: Sketch 48.2 (47327) - http://www.bohemiancoding.com/sketch -->
    <title>Music blk@2x</title>
    <desc>Created with Sketch.</desc>
    <defs>
        <polygon id="path-1" points="0 0.0991064672 556.393611 0.0991064672 556.393611 107.713825 0 107.713825"></polygon>
        <polygon id="path-3" points="0 0 371.765116 0 371.765116 50.4872727 0 50.4872727"></polygon>
    </defs>
    <g id="Logos" stroke="none" stroke-width="1" fill="none" fill-rule="evenodd">
        <g id="Music-blk">
            <g id="Page-1" transform="translate(0.000000, 79.000000)">
                <g id="Group-3">
                    <mask id="mask-2" fill="white">
                        <use xlink:href="#path-1"></use>
                    </mask>
                    <g id="Clip-2"></g>
                    <path d="M471.838816,57.6918016 C471.838816,81.23647 483.085826,102.834797 510.429587,103.028881 C510.429587,103.028881 539.909429,103.222964 553.483217,77.7347081 C554.646606,78.1228751 555.811367,78.7065021 556.394434,79.0974221 C548.829661,92.1340519 532.151215,107.30973 510.429587,107.30973 C469.317225,107.30973 455.742065,83.5723544 455.742065,54.5795833 C455.742065,2.04352029 508.10418,0.0985558757 521.291087,0.0985558757 C527.304217,0.0985558757 550.187863,3.01669074 550.187863,10.4097579 C550.187863,10.4097579 550.187863,17.6087416 541.654513,29.6735775 C539.327734,28.31224 539.134294,28.11678 539.134294,28.11678 C539.910801,26.9495261 543.400968,23.6404713 543.400968,16.4428641 C543.400968,7.68708301 526.914592,3.40485774 520.515951,3.40485774 C480.177353,3.40485774 471.838816,37.4575646 471.838816,57.6918016 M439.064991,27.7272366 C439.451872,11.5770118 441.002143,10.2170509 441.002143,10.2170509 C441.972092,5.74074211 442.553786,1.6553533 442.360345,1.07034985 C442.166904,0.680806371 433.440114,1.6553533 431.305404,1.6553533 L430.72371,1.6553533 C419.670141,1.6553533 409.391707,0.876266348 400.664917,0.876266348 L400.664917,4.76894814 C418.506752,2.82260725 421.028343,9.04842046 421.028343,9.04842046 C421.996919,11.5770118 423.16168,21.6955069 423.16168,27.5331531 C423.16168,27.5331531 423.743375,33.1753393 423.743375,46.7969726 C423.743375,74.6211133 423.16168,80.264676 423.16168,80.264676 C423.16168,86.1023222 421.998291,96.2194408 420.83353,98.9448686 C420.83353,98.9448686 418.506752,104.976598 400.664917,103.224341 L400.664917,106.921563 C409.391707,106.921563 419.670141,106.337936 430.72371,106.337936 L431.305404,106.337936 C442.360345,106.337936 452.638779,106.921563 461.365569,106.921563 L461.365569,103.224341 C443.523734,104.975222 441.196956,98.9448686 441.196956,98.9448686 C440.033567,96.2208172 438.870178,86.1023222 438.870178,80.264676 C438.870178,80.264676 438.287111,74.6211133 438.675365,46.7969726 C438.870178,33.5648828 439.064991,27.7272366 439.064991,27.7272366 M366.53289,0.488099351 C377.200949,0.488099351 395.236225,3.79577769 395.236225,11.5783883 C395.236225,11.5783883 395.236225,18.9714555 386.509434,31.0362914 C384.569537,29.6735775 384.376097,29.479494 384.376097,29.479494 C385.539486,27.9226965 389.031025,24.0313912 389.031025,17.4160345 C389.031025,8.66025346 377.393018,3.79577769 368.084533,3.79577769 C361.685892,3.79577769 338.802247,5.15849162 338.802247,21.5027998 C338.802247,48.74469 396.979936,42.1279568 396.979936,74.8165733 C396.979936,101.66892 367.892464,107.506566 352.959101,107.506566 C333.759065,107.506566 318.244008,102.058463 318.244008,95.4431068 C318.244008,95.4431068 318.244008,87.8545796 328.329,75.7897437 L330.657151,77.5420011 C324.838833,83.3782709 324.838833,90.190464 324.838833,90.190464 C324.838833,96.0267337 333.760436,104.394348 352.570848,104.394348 C366.534262,104.394348 384.569537,97.5821547 384.569537,82.9901039 C384.569537,55.7495902 323.674072,54.9705032 323.674072,30.2599574 C323.674072,30.2572044 323.674072,-0.2909876 366.53289,0.488099351 M190.054436,16.8310311 C216.041367,0.682182849 229.6179,0.682182849 229.6179,0.682182849 C235.241404,0.682182849 242.02967,1.45989332 242.02967,9.43796393 C242.02967,25.9763556 217.59301,84.5455248 217.59301,94.2730999 C217.59301,98.7494086 219.921161,99.5271191 221.471432,99.5271191 C242.223111,99.5271191 279.264983,52.4391589 283.335473,43.6833778 C292.257077,25.0045617 297.4937,2.82260725 297.687141,2.23898027 C298.268835,0.488099351 304.474035,0.488099351 305.832237,0.488099351 C306.995626,0.488099351 313.395638,0.488099351 313.395638,2.04489677 C313.395638,5.93620209 285.857065,80.264676 285.857065,95.4417303 C285.857065,97.9703217 287.020454,98.7494086 288.185215,98.7494086 C295.748616,98.7494086 311.843996,80.6542195 314.947281,75.0092803 C314.947281,75.0092803 316.692365,76.1779107 317.4675,76.7615377 C295.942057,107.697897 275.38519,107.697897 275.38519,107.697897 C273.640106,107.697897 267.821789,108.476984 267.821789,99.1375756 C267.821789,99.1375756 267.821789,87.8532031 280.620441,54.9691267 C243.773382,107.50519 210.028237,107.50519 210.028237,107.50519 C207.506646,107.50519 201.108005,106.726103 201.108005,98.7494086 C201.108005,82.0155569 225.156412,25.0045617 225.156412,12.1620153 C225.156412,9.04842046 224.573345,6.51982906 221.471432,6.51982906 C212.938082,6.51982906 192.769468,19.5564589 191.606079,20.1400859 C191.606079,20.1400859 191.024385,18.9714555 190.054436,16.8310311 M174.152498,27.3390696 C174.345939,0.0985558757 146.03223,0.292639374 146.03223,0.292639374 C123.342025,0.292639374 107.632156,18.1923685 105.111936,21.1132564 C103.753734,17.610118 101.038702,0.488099351 78.1550571,0.488099351 C78.1550571,0.488099351 55.2714118,0.488099351 39.1746606,18.972832 C39.5629143,15.2756101 40.1446089,11.7738483 40.3380498,10.2170509 C41.307998,5.74074211 41.8896926,1.65672978 41.6962517,1.07172632 C41.6962517,0.682182849 32.7746483,1.65672978 30.6426828,1.65672978 L30.0596163,1.65672978 C19.0060473,1.65672978 8.72624187,0.877642826 -0.000548768473,0.877642826 L-0.000548768473,4.57486464 C17.8426581,2.82398372 20.3642493,8.85433696 20.3642493,8.85433696 C21.3328256,11.5783883 22.4975867,21.6968833 22.6910276,27.5345295 C22.6910276,27.5345295 23.0792813,33.1767158 23.0792813,46.7969726 C23.0792813,74.6211133 22.4975867,80.2660525 22.4975867,80.2660525 C22.4975867,86.1023222 21.3328256,96.2208172 20.1694365,98.9462451 C20.1694365,98.9462451 17.8426581,104.977975 -0.000548768473,103.225717 L-0.000548768473,106.922939 C8.72624187,106.922939 19.0060473,106.143852 30.0596163,106.143852 L30.6426828,106.143852 C41.6962517,106.143852 51.9746852,106.922939 60.7014759,106.922939 L60.7014759,103.225717 C42.8596409,104.976598 40.5328626,98.9462451 40.5328626,98.9462451 C39.3694734,96.2221937 38.2047123,86.1036987 38.2047123,80.2660525 C38.2047123,80.2660525 38.2047123,74.6224898 38.0112714,46.7969726 C37.8178305,33.3721758 38.3995251,27.728613 38.3995251,27.728613 C38.592966,26.3672756 51.1981778,6.90937254 73.3066877,6.90937254 C84.1668158,6.90937254 89.9851335,17.221951 90.3733872,28.31224 C90.3733872,28.31224 90.9550818,33.9544263 90.9550818,46.9924326 C90.9550818,74.6211133 90.760269,80.264676 90.760269,80.264676 C90.5668281,86.1023222 89.4034389,96.2194408 88.4334906,98.9448686 C88.4334906,98.9448686 85.9118995,104.976598 68.0700645,103.224341 L68.0700645,106.921563 C76.7982271,106.921563 87.0752887,106.142476 98.3236704,106.142476 L98.7119241,106.142476 C109.765493,106.142476 120.238739,106.921563 128.772089,106.921563 C128.772089,106.921563 128.96553,105.558849 128.772089,103.224341 C110.928882,104.975222 108.602104,98.9448686 108.602104,98.9448686 C107.632156,96.2208172 106.275326,86.1023222 106.275326,80.264676 C106.275326,80.264676 105.887072,74.6211133 106.081885,46.7969726 C106.275326,29.479494 106.663579,27.5331531 106.663579,27.5331531 C107.050461,25.5881886 119.268791,6.90799606 141.18386,6.90799606 C152.237429,6.90799606 157.862306,17.2205746 158.249188,28.31224 C158.249188,28.31224 158.830882,33.9530498 158.830882,46.9910561 C159.025695,74.6211133 158.637441,80.2632995 158.637441,80.2632995 C158.637441,86.1009457 157.474052,96.2180643 156.310663,98.9434921 C156.310663,98.9434921 153.982513,104.975222 136.14205,103.222964 L136.14205,106.920186 C144.674028,106.920186 155.147274,106.142476 166.200843,106.142476 L166.782537,106.142476 C177.836106,106.142476 188.11454,106.920186 196.841331,106.920186 L196.841331,103.222964 C179.000867,104.973845 176.479276,98.9434921 176.479276,98.9434921 C175.509328,96.2194408 174.345939,86.1023222 174.345939,80.2632995 C174.345939,80.2632995 173.570803,74.6211133 174.152498,46.7955962 C174.345939,32.9812558 174.152498,27.3390696 174.152498,27.3390696" id="Fill-1" fill="#000000" mask="url(#mask-2)"></path>
                </g>
                <g id="Group-6" transform="translate(185.234884, 127.512727)">
                    <mask id="mask-4" fill="white">
                        <use xlink:href="#path-3"></use>
                    </mask>
                    <g id="Clip-5"></g>
                    <path d="M17.8556135,13.5821338 C15.6454239,8.98533813 13.8637586,4.5336479 14.148256,1.74081689 C11.7958177,1.95578785 9.87012553,1.95578785 8.23782136,1.95578785 C6.45793415,1.95578785 4.74739318,1.88413086 2.61010603,1.74081689 C2.03933301,2.02744483 1.96820865,3.09871677 2.32560858,3.52865868 L3.46537652,3.67018123 C7.81107518,4.24522854 8.37829198,5.32366617 8.23782136,9.84701338 C8.09557264,13.7971047 7.81107518,19.9022799 7.45545336,25.8623496 C7.02870717,32.972514 6.67308535,36.9226054 6.24456105,41.662715 C5.81781487,46.6912439 4.81851755,47.1211858 1.82595992,47.5529192 L0.257667683,47.7678901 C-0.169078503,48.1243836 -0.0268297744,49.197447 0.399916412,49.5539405 C2.82347913,49.4106265 5.38929057,49.3389695 7.66882645,49.3389695 C10.3697742,49.3389695 13.1507368,49.4106265 15.5742995,49.5539405 C16.0739482,49.3389695 16.1450726,48.1960406 15.6454239,47.7678901 L12.9355856,47.5529192 C10.1564011,47.3379482 9.7278768,46.1878536 9.7278768,40.8726967 C9.7278768,34.769313 10.0123743,28.3775098 10.2275255,23.9956852 C10.4408986,19.8306229 10.6542716,15.6655606 10.9405472,11.212079 L11.0827959,11.212079 C12.6510882,14.515466 14.148256,18.2505864 15.6454239,21.5539734 L22.0626197,35.4160172 C23.7020363,38.9343752 27.1248963,45.9728826 28.3357886,49.7689114 C28.4780374,49.9856738 28.8354373,50.0573308 28.977686,50.0573308 C29.2621835,50.0573308 29.548459,49.9856738 29.6907078,49.7689114 C30.9745025,46.4744815 34.1822114,39.7243935 37.3899202,33.4042474 L43.7359916,20.8356121 C45.1620351,18.0356154 47.8718734,12.2887252 48.369744,11.4987069 L48.5137708,11.4987069 L48.7271439,41.447744 C48.7271439,46.0445396 48.7271439,47.1928428 45.2331595,47.5529192 L43.1652186,47.7678901 C42.7384724,48.1960406 42.8095968,49.197447 43.3092454,49.5539405 C46.2306787,49.4106265 49.4366094,49.3389695 51.922406,49.3389695 C54.4775487,49.3389695 57.398982,49.4106265 60.3221934,49.5539405 C60.8200639,49.269104 60.8911883,48.1960406 60.4644421,47.7678901 L58.1831281,47.5529192 C54.8331706,47.2644998 54.9042949,45.3261783 54.6909218,41.7361634 C54.123705,31.3924775 54.0525807,18.1072724 53.9103319,10.4937177 C53.8392076,5.46698014 54.4064244,4.10191457 58.8961499,3.67018123 L60.3933178,3.52865868 C60.7489396,3.24203074 60.7489396,2.02744483 60.3221934,1.74081689 C58.1120038,1.88413086 55.7595654,1.95578785 53.9814563,1.95578785 C52.5607471,1.95578785 51.0706917,1.95578785 48.6560195,1.74081689 C48.5137708,5.0352468 46.4458299,8.98533813 43.236343,15.5204552 L36.5346497,29.2391851 C34.7529844,32.9008571 32.9713191,36.6359774 31.0456269,40.0110214 L30.9033782,40.0110214 C29.1910591,36.8509484 27.6227669,33.5475613 25.9833503,30.1725173 L17.8556135,13.5821338 Z M95.3936175,42.4509418 C95.9643905,44.1760837 96.3200123,45.4694923 96.3200123,46.2595106 C96.3200123,46.9778719 95.3224931,47.4096052 93.8253252,47.5529192 L91.7591624,47.7678901 C91.2612919,48.1243836 91.3324162,49.269104 91.9031893,49.5539405 C93.9693521,49.4822835 96.6756341,49.3389695 100.096716,49.3389695 C103.302647,49.3389695 105.797334,49.4106265 108.718767,49.5539405 C109.074389,49.269104 109.216638,48.1243836 108.718767,47.7678901 L106.794853,47.5529192 C103.731171,47.1928428 102.804776,46.1161966 100.738613,39.937573 L90.9767944,11.0759307 C89.9063727,7.91585762 88.7666048,4.61426201 87.84021,1.45418895 C87.6979612,0.952590051 87.2000907,0.807484656 86.7715664,0.807484656 C85.9874203,1.74081689 84.776528,3.03422548 83.065987,3.53582438 C83.2811382,4.685919 82.8526139,6.04919315 81.8550947,8.6342189 L74.5879628,28.0210163 C71.5954051,36.0573473 69.6003667,40.7275913 68.3165719,44.0327698 C67.3190527,46.6177955 65.7525386,47.4096052 64.0419976,47.5529192 L61.6895593,47.7678901 C61.2628131,48.1243836 61.4050618,49.269104 61.831808,49.5539405 C63.7557221,49.4822835 66.3215335,49.3389695 68.6739719,49.3389695 C72.0221513,49.4106265 74.2305628,49.4106265 76.0833525,49.5539405 C76.7252499,49.269104 76.7252499,48.1243836 76.2256013,47.7678901 L73.874941,47.5529192 C72.1644001,47.4096052 71.8087782,46.9778719 71.8087782,46.1161966 C71.8087782,45.3261783 72.3066488,43.3860655 73.3752924,40.152544 L75.8699794,32.6088548 C76.36785,31.1004753 76.7963743,30.8837129 78.5780396,30.8837129 L89.3373778,30.8837129 C91.474665,30.8837129 91.7591624,31.1004753 92.2588111,32.6805118 L95.3936175,42.4509418 Z M82.6392408,13.8042704 C83.4233869,11.650978 84.1346306,9.92762749 84.3497818,9.56755114 L84.4920305,9.56755114 C84.9187767,10.4292264 85.5606741,12.3675478 86.1314471,14.0908983 L89.9792752,25.7960669 C90.6193945,27.7343884 90.4771458,28.0210163 88.410983,28.0210163 L79.6466832,28.0210163 C77.6516448,28.0210163 77.5805204,27.9493594 78.1495153,26.2976658 L82.6392408,13.8042704 Z M153.829395,37.9956687 C153.829395,34.3322053 153.90052,32.3204355 156.894855,31.9603591 L158.034623,31.8170451 C158.534272,31.3888947 158.463148,30.3176227 157.963499,30.0309948 C155.611061,30.1743088 153.189276,30.2459657 150.413648,30.2459657 C146.211976,30.2459657 142.291245,30.1743088 140.225082,30.0309948 C139.725434,30.2459657 139.654309,31.5322086 140.225082,31.8170451 L143.361667,32.1771215 C147.782046,32.6787204 147.995419,33.1104537 147.995419,39.1457633 L147.995419,42.0192085 C147.995419,44.3176063 147.638019,45.6110149 147.282397,46.1144052 C146.498251,47.3343654 143.859537,48.269489 139.440936,48.269489 C125.111155,48.269489 118.05384,37.4206214 118.05384,23.6391917 C118.05384,12.8655639 124.113636,2.95361137 137.943768,2.95361137 C145.214457,2.95361137 150.555896,5.39532315 152.549157,13.1521918 C152.975903,13.5839252 154.25792,13.5122682 154.471293,12.9372209 C153.829395,8.6270532 153.402649,4.89193283 153.402649,2.52366946 C152.549157,2.66698343 150.342523,2.16717596 148.99116,1.88054801 C147.782046,1.59392007 144.003564,0.807484656 139.938807,0.807484656 C129.174134,0.807484656 122.116819,4.17357155 117.340818,9.20210051 C112.927551,13.9422101 110.936069,20.1190423 110.936069,26.2242174 C110.936069,32.5354064 113.213827,38.2106397 117.483067,42.5225988 C122.97209,48.1261751 130.742427,50.4854813 139.225785,50.4854813 C143.075391,50.4854813 148.208792,49.6273889 151.980162,48.6259825 C153.331525,48.269489 154.613541,47.9810697 155.468812,47.9810697 C155.753309,47.7660987 155.753309,47.3343654 155.539936,47.1193944 C154.25792,46.6160041 153.829395,44.8926536 153.829395,42.0192085 L153.829395,37.9956687 Z M193.029589,42.4509418 C193.600362,44.1760837 193.955983,45.4694923 193.955983,46.2595106 C193.955983,46.9778719 192.958464,47.4096052 191.461296,47.5529192 L189.395134,47.7678901 C188.897263,48.1243836 188.968387,49.269104 189.537382,49.5539405 C191.605323,49.4822835 194.311605,49.3389695 197.732687,49.3389695 C200.938618,49.3389695 203.433305,49.4106265 206.354738,49.5539405 C206.71036,49.269104 206.852609,48.1243836 206.354738,47.7678901 L204.430824,47.5529192 C201.367142,47.1928428 200.440747,46.1161966 198.372807,39.937573 L188.610987,11.0759307 C187.542344,7.91585762 186.402576,4.61426201 185.476181,1.45418895 C185.333932,0.952590051 184.836062,0.807484656 184.407538,0.807484656 C183.623391,1.74081689 182.412499,3.03422548 180.701958,3.53582438 C180.915331,4.685919 180.488585,6.04919315 179.491066,8.6342189 L172.223934,28.0210163 C169.229598,36.0573473 167.23456,40.7275913 165.952543,44.0327698 C164.955024,46.6177955 163.386732,47.4096052 161.677969,47.5529192 L159.32553,47.7678901 C158.898784,48.1243836 159.041033,49.269104 159.467779,49.5539405 C161.391693,49.4822835 163.957505,49.3389695 166.308165,49.3389695 C169.658123,49.4106265 171.866534,49.4106265 173.719324,49.5539405 C174.361221,49.269104 174.361221,48.1243836 173.861572,47.7678901 L171.510912,47.5529192 C169.800371,47.4096052 169.444749,46.9778719 169.444749,46.1161966 C169.444749,45.3261783 169.94262,43.3860655 171.011264,40.152544 L173.505951,32.6088548 C174.003821,31.1004753 174.432345,30.8837129 176.214011,30.8837129 L186.973349,30.8837129 C189.110636,30.8837129 189.395134,31.1004753 189.894782,32.6805118 L193.029589,42.4509418 Z M180.275212,13.8042704 C181.059358,11.650978 181.770602,9.92762749 181.985753,9.56755114 L182.128002,9.56755114 C182.554748,10.4292264 183.196645,12.3675478 183.76564,14.0908983 L187.613468,25.7960669 C188.255366,27.7343884 188.113117,28.0210163 186.046954,28.0210163 L177.282654,28.0210163 C175.287616,28.0210163 175.216492,27.9493594 175.785486,26.2976658 L180.275212,13.8042704 Z M214.983902,38.9325838 C212.77549,42.1643139 208.714289,47.2627084 207.217121,48.6940567 C207.217121,49.0505502 207.288246,49.4088351 207.572743,49.5521491 C209.21216,49.4804921 211.777971,49.3371781 215.552897,49.3371781 L233.865642,49.3371781 C238.853238,49.3371781 242.91444,49.4088351 246.833392,49.5521491 C247.97316,47.7643073 249.399204,42.6677042 250.041101,39.3643171 C249.82595,38.7176129 248.899555,38.6459559 248.259436,38.8609268 C247.046765,41.662715 245.338002,44.3193977 243.27184,45.4677009 C240.563779,46.9760804 234.649789,47.1211858 230.088939,47.1211858 C225.101343,47.1211858 221.395763,47.1211858 219.542974,46.9760804 C218.260957,46.8327665 217.547935,46.6894525 217.547935,45.9710912 C217.547935,44.894445 223.819326,35.9892731 224.603472,34.8391785 L236.36033,17.747196 C240.064131,12.3603821 246.12037,4.03025758 248.044284,2.38572976 C248.044284,2.10089324 247.902036,1.8142653 247.617538,1.74081689 C246.833392,1.88592229 244.553856,1.95757927 239.424012,1.95757927 L220.613395,1.95757927 C214.841653,1.95757927 213.77301,1.88592229 213.557858,0.162571786 C213.202236,-0.0541905953 212.631463,-0.0541905953 212.346966,0.162571786 C211.491696,4.10191457 210.280803,8.41029082 209.425533,10.9236596 C209.711808,11.4987069 210.565301,11.7136779 211.207198,11.4270499 C211.777971,10.2070897 212.846615,8.19531986 214.342004,6.54362635 C216.052545,4.67696187 219.258476,4.17357155 224.959094,4.17357155 L235.576183,4.17357155 C237.428973,4.17357155 238.140217,4.38854251 238.140217,4.74861886 C238.140217,5.25021776 237.784595,5.82526507 237.284946,6.68694032 C236.145178,8.84202416 234.079016,11.5703639 230.373436,16.8855208 L214.983902,38.9325838 Z M260.098086,38.4309849 C260.098086,46.0445396 259.954059,47.0495288 255.750609,47.5529192 L253.968944,47.7678901 C253.54042,48.1960406 253.682668,49.3389695 254.111193,49.5539405 C257.674523,49.4106265 260.098086,49.3389695 263.085309,49.3389695 C265.932062,49.3389695 268.355625,49.4106265 271.918955,49.5539405 C272.345702,49.3389695 272.489729,48.0527266 272.061204,47.7678901 L270.279539,47.5529192 C266.074311,47.0495288 265.932062,46.0445396 265.932062,38.4309849 L265.932062,12.8637725 C265.932062,5.25200918 266.074311,4.03025758 270.279539,3.67018123 L272.061204,3.52865868 C272.489729,3.24203074 272.345702,1.95578785 271.918955,1.74081689 C268.355625,1.88413086 265.932062,1.95578785 263.085309,1.95578785 C260.098086,1.95578785 257.674523,1.88413086 254.111193,1.74081689 C253.682668,1.95578785 253.54042,3.24203074 253.968944,3.52865868 L255.750609,3.67018123 C259.954059,4.03025758 260.098086,5.25200918 260.098086,12.8637725 L260.098086,38.4309849 Z M322.518606,19.9739369 C322.518606,16.6705498 322.376358,7.76537795 323.58725,5.17856077 C323.873526,4.60530489 325.297791,4.03025758 327.579105,3.67018123 L328.576624,3.52865868 C329.005148,3.09871677 329.005148,2.09910182 328.434375,1.74081689 C326.010813,1.88413086 324.158023,1.95578785 321.097897,1.95578785 C318.393393,1.95578785 315.969831,1.88413086 312.690997,1.74081689 C312.120224,1.95578785 312.0491,3.09871677 312.548749,3.52865868 L313.759641,3.67018123 C316.611728,4.03025758 317.753274,4.46019949 318.18002,5.10690379 C319.534939,7.26198763 319.606064,16.5988928 319.606064,19.9739369 L319.606064,35.3425688 C319.606064,36.8509484 319.606064,38.001043 319.321566,38.3593279 L319.177539,38.3593279 C315.827582,34.9126269 312.335376,30.8908786 307.415348,25.3607507 L300.500281,17.5322251 C298.147843,14.8755423 289.735609,5.39532315 288.311343,1.74081689 C287.38317,1.88413086 286.174056,1.95578785 285.037844,1.95578785 C283.757606,1.95578785 279.980902,1.95578785 276.988345,1.74081689 C276.417572,2.02744483 276.417572,3.09871677 276.844318,3.52865868 L278.056988,3.67018123 C279.767529,3.88694361 281.47807,4.38854251 282.475589,5.39532315 C283.972757,7.04701667 284.043881,8.55539622 284.043881,10.5653747 L284.043881,31.3208205 C284.043881,34.769313 284.115006,43.5311709 283.117487,46.1161966 C282.760087,46.9062149 281.620319,47.3379482 279.980902,47.5529192 L278.056988,47.7678901 C277.628464,48.1960406 277.699588,49.197447 278.199237,49.5539405 C280.693924,49.4106265 282.617838,49.3389695 285.606839,49.3389695 C288.240219,49.3389695 290.734906,49.4106265 293.942615,49.5539405 C294.442264,49.197447 294.513388,48.3393546 294.084864,47.7678901 L291.874674,47.5529192 C290.093009,47.4096052 288.666965,46.9778719 288.240219,46.1878536 C287.027549,44.0327698 286.956424,34.697656 286.956424,31.3208205 L286.956424,15.6655606 C286.956424,13.5104768 287.027549,11.8587832 287.312046,10.997108 L287.456073,10.997108 C288.953241,12.5771445 293.800366,18.4655573 295.72428,20.6922981 L312.264251,39.6527365 C318.466296,46.7629009 320.528902,49.269104 321.382395,50.4872727 C322.162985,50.4872727 322.589731,50.1289878 322.733758,49.6972545 C322.518606,47.8395471 322.518606,39.2926602 322.518606,37.1393677 L322.518606,19.9739369 Z M339.988528,38.570716 C339.988528,46.1144052 339.631128,47.1910514 335.569927,47.5493363 L333.217489,47.7643073 C332.788965,48.1924578 332.932991,49.3371781 333.359738,49.5521491 C337.564966,49.4088351 339.988528,49.3371781 343.046876,49.3371781 L349.460516,49.3371781 C355.806587,49.3371781 362.143768,49.4088351 368.557407,49.5521491 C369.483802,47.6209933 371.265468,42.0908654 371.765116,39.5774967 C371.478841,38.9307924 370.481322,38.71403 369.983451,39.0741064 C368.130661,42.8092267 366.204969,45.3243869 364.922952,46.0427482 C363.35466,46.8327665 361.292054,47.1211858 355.806587,47.1211858 C349.53164,47.1211858 348.034472,46.3293761 347.177424,45.4677009 C346.037656,44.2459493 345.822504,41.8042375 345.822504,37.9956687 L345.822504,27.8687452 C345.822504,26.0020808 346.037656,25.9304238 348.176721,25.9304238 L352.312603,25.9304238 C355.093565,25.9304238 356.805884,26.0020808 357.803404,26.2887087 C359.229447,26.6469936 359.729096,27.7254313 360.013593,29.0170484 L360.653712,31.8170451 C361.009334,32.2487785 362.214892,32.2487785 362.49939,31.7453882 C362.49939,30.1653516 362.214892,27.4370119 362.214892,24.8573604 C362.214892,22.1326036 362.49939,19.3308154 362.49939,17.6074649 C362.214892,17.1040746 361.009334,17.1040746 360.653712,17.5358079 L360.084718,20.48091 C359.729096,22.2759175 359.229447,22.7076509 358.374177,22.9942788 C357.518906,23.2826982 355.306938,23.4260121 352.312603,23.4260121 L348.176721,23.4260121 C346.037656,23.4260121 345.822504,23.4260121 345.822504,21.4142423 L345.822504,7.04701667 C345.822504,4.31688552 345.822504,4.17357155 347.96157,4.17357155 L353.096749,4.17357155 C356.235111,4.17357155 358.516425,4.24522854 360.013593,4.60530489 C363.71206,5.53863713 364.352179,8.05200589 365.420823,11.4288413 C365.778223,11.8605747 366.917991,11.7172607 367.204266,11.2855274 C366.917991,8.1254543 366.491245,2.95898565 366.06272,1.74081689 C365.20745,1.95757927 361.009334,1.95757927 356.448484,1.95757927 L343.046876,1.95757927 C340.130777,1.95757927 337.707214,1.88592229 334.643532,1.74081689 C334.215008,1.95757927 334.072759,3.24382216 334.499506,3.53045011 L335.641052,3.67376408 C339.844502,4.17357155 339.988528,5.25200918 339.988528,12.7222499 L339.988528,38.570716 Z" id="Fill-4" fill="#000000" mask="url(#mask-4)"></path>
                </g>
            </g>
            <g id="BBC_Block_Logo_White-Copy-2" fill="#000000">
                <path d="M73,59 L136,59 L136,0 L73,0 L73,59 Z M120.99994,38.4926738 C121.01711,33.1903235 117.363175,29.1671624 111.545196,27.6115025 C113.106942,26.8402004 114.348783,25.8863764 115.27257,24.7236634 C116.497241,23.1708194 117.066781,21.2626594 117.066781,19.03579 C117.066781,16.3005217 115.963626,13.517127 113.582704,11.4382207 C111.189365,9.35035473 107.574526,8 102.642558,8 L89,8 L89,50 L105.018726,50 C110.732359,50 114.738956,48.5062901 117.311662,46.2899164 C119.881463,44.0717507 120.99994,41.1659921 120.99994,38.4926738 Z" id="Fill-1"></path>
                <path d="M113,38.4397035 C113,39.7758055 112.558067,41.1116619 111.287607,42.1618773 C110.030917,43.2064438 107.867238,44 104.258249,44 L97,44 L97,33 L103.945181,33 C107.167576,33 109.452325,33.6194208 110.903871,34.5912877 C112.335672,35.5646281 112.981554,36.8383459 113,38.4397035" id="Fill-2"></path>
                <path d="M107.849352,24.4859318 C109.292403,23.5120652 110,22.143416 110,20.0813696 C110,18.6637289 109.570428,17.4526817 108.468081,16.5493213 C107.382171,15.6446649 105.511497,15 102.498639,15 L97,15 L97,26 L100.782578,26 C104.052009,26 106.388471,25.4564285 107.849352,24.4859318" id="Fill-3"></path>
                <path d="M0,59 L63,59 L63,0 L0,0 L0,59 Z M46.99993,38.4926738 C47.0181112,33.1903235 43.4912191,29.1671624 37.8348246,27.6115025 C39.3669088,26.8402004 40.5707076,25.8863764 41.4480133,24.7236634 C42.6320945,23.1708194 43.1826512,21.2626594 43.1826512,19.03579 C43.1826512,16.3005217 42.1148272,13.517127 39.8114514,11.4382207 C37.509612,9.35035473 34.0039739,8 29.2261656,8 L16,8 L16,50 L31.5098238,50 C37.0438154,50 40.9307461,48.5062901 43.4246401,46.2899164 C45.9323621,44.0717507 46.99993,41.1659921 46.99993,38.4926738 Z" id="Fill-4"></path>
                <path d="M34.8329155,24.4859318 C36.2890603,23.5120652 36.9835637,22.143416 37,20.0813696 C37,18.6637289 36.5539912,17.4526817 35.468081,16.5493213 C34.3590485,15.6446649 32.4950605,15 29.5003107,15 L24,15 L24,26 L27.7809065,26 C31.0355727,26 33.3901425,25.4564285 34.8329155,24.4859318" id="Fill-5"></path>
                <path d="M37.9014517,34.5912877 C36.4698194,33.6194208 34.1668265,33 30.931608,33 L24,33 L24,44 L31.2494595,44 C34.8628745,44 37.0472583,43.2064438 38.3025377,42.1621229 C39.5591176,41.1116619 40,39.7758055 40,38.4397035 C39.983093,36.8383459 39.3518118,35.5631545 37.9014517,34.5912877" id="Fill-6"></path>
                <path d="M147,59 L210,59 L210,0 L147,0 L147,59 Z M198,39.963931 L196.982353,40.5797177 C192.126274,43.5697857 186.810563,45.1800836 181.993005,45.1800836 C171.677027,45.1351281 164.865816,39.002091 164.83042,30.0593309 C164.865816,21.3097229 171.961499,14.8431783 181.711915,14.8186095 C186.709319,14.8261892 191.219241,16.1184004 196.567225,19.0653424 L197.54323,19.6084684 L197.54323,11.6231051 L197.12524,11.4654992 C191.07323,9.07135389 186.397258,8 181.780886,8 C174.65293,8 168.432007,10.3680084 164.02489,14.3878725 C159.625322,18.4153163 157,24.0914794 157,30.6136958 C157,35.1489807 158.853628,40.4749085 162.871904,44.6968113 C166.854783,48.9234187 172.977325,52 181.395169,52 L181.436552,52 C188.42006,52 193.246988,50.437794 197.614023,48.2658129 L198,48.0930476 L198,39.963931 Z" id="Fill-7"></path>
            </g>
        </g>
    </g>
</svg>