<?xml version="1.0" encoding="UTF-8"?>
<svg width="628px" height="236px" viewBox="0 0 628 236" version="1.1" xmlns="http://www.w3.org/2000/svg" xmlns:xlink="http://www.w3.org/1999/xlink">
    <!-- Generator: Sketch 48.2 (47327) - http://www.bohemiancoding.com/sketch -->
    <title>Countryfile blk@2x</title>
    <desc>Created with Sketch.</desc>
    <defs>
        <polygon id="path-1" points="0 0.610381896 60.2869212 0.610381896 60.2869212 86.4403284 0 86.4403284"></polygon>
    </defs>
    <g id="Logos" stroke="none" stroke-width="1" fill="none" fill-rule="evenodd">
        <g id="Countryfile-blk">
            <g id="BBC_Block_Logo_White-Copy" fill="#000000">
                <path d="M66,53 L123,53 L123,0 L66,0 L66,53 Z M109.788025,35.0805948 C109.803419,30.2877072 106.527581,26.651101 101.311628,25.2449127 C102.71177,24.5477191 103.82511,23.6855408 104.653305,22.6345441 C105.751251,21.2309011 106.261858,19.5060817 106.261858,17.4931753 C106.261858,15.0207181 105.272854,12.5047587 103.138301,10.6255987 C100.992618,8.7383399 97.7518307,7.5177305 93.3302071,7.5177305 L81.0993377,7.5177305 L81.0993377,45.4822695 L95.4604966,45.4822695 C100.582901,45.4822695 104.174908,44.1320788 106.481399,42.1286596 C108.785286,40.1236207 109.788025,37.4970544 109.788025,35.0805948 Z" id="Fill-1"></path>
                <path d="M103,34.945185 C103,36.1598232 102.585688,37.3742381 101.394632,38.3289794 C100.216485,39.2785853 98.1880359,40 94.8046083,40 L88,40 L88,30 L94.5111068,30 C97.5321025,30 99.6740549,30.5631098 101.034879,31.4466251 C102.377192,32.3314801 102.982707,33.4894054 103,34.945185" id="Fill-2"></path>
                <path d="M97.1802207,22.6235743 C98.4012643,21.7382411 99,20.4940145 99,18.6194269 C99,17.3306626 98.6365156,16.2297106 97.7037608,15.4084739 C96.7849137,14.586059 95.2020358,14 92.6526947,14 L88,14 L88,24 L91.2006429,24 C93.9670845,24 95.9440909,23.5058441 97.1802207,22.6235743" id="Fill-3"></path>
                <path d="M0,53 L57,53 L57,0 L0,0 L0,53 Z M43.7880147,35.0805948 C43.8048404,30.2877072 40.5409017,26.651101 35.3062295,25.2449127 C36.7240865,24.5477191 37.838134,23.6855408 38.6500307,22.6345441 C39.7458306,21.2309011 40.2553397,19.5060817 40.2553397,17.4931753 C40.2553397,15.0207181 39.2671291,12.5047587 37.1354855,10.6255987 C35.0052637,8.7383399 31.7609945,7.5177305 27.3394039,7.5177305 L15.0993377,7.5177305 L15.0993377,45.4822695 L29.4528,45.4822695 C34.5741953,45.4822695 38.1713292,44.1320788 40.4792867,42.1286596 C42.8000411,40.1236207 43.7880147,37.4970544 43.7880147,35.0805948 Z" id="Fill-4"></path>
                <path d="M31.1663131,22.6235743 C32.3984357,21.7382411 32.9860924,20.4940145 33,18.6194269 C33,17.3306626 32.622608,16.2297106 31.7037608,15.4084739 C30.7653488,14.586059 29.1881281,14 26.6541091,14 L22,14 L22,24 L25.1992285,24 C27.9531769,24 29.9455052,23.5058441 31.1663131,22.6235743" id="Fill-5"></path>
                <path d="M35.032611,31.4466251 C33.6904557,30.5631098 31.5313999,30 28.4983825,30 L22,30 L22,40 L28.7963682,40 C32.1839449,40 34.2318047,39.2785853 35.4086291,38.3292027 C36.5866727,37.3742381 37,36.1598232 37,34.945185 C36.9841497,33.4894054 36.3923236,32.3301404 35.032611,31.4466251" id="Fill-6"></path>
                <path d="M133,53 L190,53 L190,0 L133,0 L133,53 Z M178.675497,35.540488 L177.747927,36.0875893 C173.321687,38.7441423 168.476499,40.1748261 164.08537,40.1748261 C154.682517,40.1348849 148.474204,34.6859325 148.441941,26.7406563 C148.474204,18.9669879 154.941809,13.2217277 163.829161,13.1998994 C168.384217,13.2066336 172.49494,14.3547104 177.369545,16.9729477 L178.259158,17.4554929 L178.259158,10.3608245 L177.878166,10.2207981 C172.361854,8.09369804 168.099778,7.14184397 163.892027,7.14184397 C157.395006,7.14184397 151.724732,9.24572245 147.707714,12.8172071 C143.697576,16.395426 141.304636,21.4384646 141.304636,27.2331868 C141.304636,31.2626018 142.994189,35.9944706 146.656785,39.7454584 C150.287117,43.500626 155.867718,46.2340426 163.540452,46.2340426 L163.578172,46.2340426 C169.94353,46.2340426 174.3432,44.8460865 178.323684,42.9163702 L178.675497,42.7628753 L178.675497,35.540488 Z" id="Fill-7"></path>
            </g>
            <g id="Group-2" transform="translate(314.500000, 155.000000) rotate(-360.000000) translate(-314.500000, -155.000000) translate(0.000000, 73.000000)">
                <g id="Page-1">
                    <g id="Group-17">
                        <g id="Group-12">
                            <mask id="mask-2" fill="white">
                                <use xlink:href="#path-1"></use>
                            </mask>
                            <g id="Clip-11"></g>
                            <path d="M0,40.7610507 C0,16.1438914 10.1997988,0.609908732 30.9926604,0.609908732 C51.3938248,0.609908732 60.2869212,14.9594035 60.2869212,35.6272184 L60.2869212,37.7343766 L43.6789539,37.7343766 L43.6789539,35.7581272 C43.6789539,22.3313027 39.8857569,15.3537071 31.2543143,15.3537071 C22.3612178,15.3537071 18.0462799,22.4622115 18.0462799,37.2060099 L18.0462799,49.8442273 C18.0462799,64.5864484 22.3612178,71.69653 31.2543143,71.69653 C39.8857569,71.69653 43.6789539,64.7189344 43.6789539,51.2921099 L43.6789539,49.3158605 L60.2869212,49.3158605 L60.2869212,51.4230187 C60.2869212,72.0908336 51.3938248,86.4403284 30.9926604,86.4403284 C10.1997988,86.4403284 0,70.9063457 0,46.2891865 L0,40.7610507 Z" id="Fill-10" fill="#000000" mask="url(#mask-2)"></path>
                        </g>
                        <path d="M125.541661,46.1590663 C125.541661,70.7762255 115.210252,86.441117 94.1557369,86.441117 C73.1012214,86.441117 62.7713791,70.7762255 62.7713791,46.1590663 L62.7713791,40.8927481 C62.7713791,16.2755888 73.1012214,0.610697339 94.1557369,0.610697339 C115.210252,0.610697339 125.541661,16.2755888 125.541661,40.8927481 L125.541661,46.1590663 Z M107.495382,37.3392845 C107.495382,22.5954861 103.048833,15.3544957 94.1557369,15.3544957 C85.2626405,15.3544957 80.8160923,22.5954861 80.8160923,37.3392845 L80.8160923,49.7125299 C80.8160923,64.4579055 85.2626405,71.6988959 94.1557369,71.6988959 C103.048833,71.6988959 107.495382,64.4579055 107.495382,49.7125299 L107.495382,37.3392845 Z" id="Fill-13" fill="#000000"></path>
                        <path d="M128.288557,55.1099146 L128.288557,2.0587377 L145.681485,2.0587377 L145.681485,53.9270039 C145.681485,65.3791563 148.558111,71.5665676 158.104558,71.5665676 C167.519396,71.5665676 170.397588,65.3791563 170.397588,53.9270039 L170.397588,2.0587377 L187.918993,2.0587377 L187.918993,55.1114918 C187.918993,76.1736103 176.019228,86.4428519 158.102991,86.4428519 C140.058278,86.4412747 128.288557,76.1736103 128.288557,55.1099146" id="Fill-15" fill="#000000"></path>
                    </g>
                    <polygon id="Fill-18" fill="#000000" points="233.09478 51.3902322 233.616706 51.3902322 233.616706 2.32357449 249.658896 2.32357449 249.658896 85.1977315 235.96381 85.1977315 207.790749 32.9742782 207.270385 32.9742782 207.270385 85.1977315 191.096933 85.1977315 191.096933 2.32357449 207.661048 2.32357449"></polygon>
                    <polygon id="Fill-19" fill="#000000" points="274.554978 85.1977315 274.554978 16.9242285 253.511656 16.9242285 253.511656 2.32357449 313.614724 2.32357449 313.614724 16.9242285 292.17748 16.9242285 292.17748 85.1977315"></polygon>
                    <path d="M358.172658,85.1961554 C356.465794,81.7761623 355.547076,77.0401809 355.021645,66.7802014 C354.497787,58.3610293 352.263919,54.5470277 344.3856,54.5470277 L334.800416,54.5470277 L334.800416,85.1961554 L317.467485,85.1961554 L317.467485,2.32357449 L345.697604,2.32357449 C365.788262,2.32357449 375.241301,12.1879695 375.241301,27.7103256 C375.241301,39.2862933 368.544415,46.3910532 360.79824,48.2318606 C368.544415,50.6006393 371.434286,55.8614399 372.220859,65.9921846 C373.009006,77.041757 373.534437,81.3837299 376.029448,85.1977315 L358.172658,85.1977315 L358.172658,85.1961554 Z M345.041602,40.7330922 C353.970783,40.7330922 357.911516,36.9190906 357.911516,28.7615401 C357.911516,21.1335369 353.972356,16.5283664 345.041602,16.5283664 L334.801989,16.5283664 L334.801989,40.7330922 L345.041602,40.7330922 Z" id="Fill-20" fill="#000000"></path>
                    <polygon id="Fill-22" fill="#000000" points="419.289238 2.32357449 436.903067 2.32357449 412.634813 55.4700182 412.634813 85.1977315 395.67439 85.1977315 395.67439 55.4700182 371.406135 2.32357449 389.671807 2.32357449 404.808007 36.3949193"></polygon>
                    <polygon id="Fill-23" fill="#000000" points="439.214724 85.1977315 439.214724 2.32357449 490.071166 2.32357449 490.071166 19.4238655 459.925407 19.4238655 459.925407 37.0505618 483.517808 37.0505618 483.517808 53.8892263 459.925407 53.8892263 459.925407 85.1977315"></polygon>
                    <polygon id="Fill-24" fill="#000000" points="493.923926 85.1977315 514.728834 85.1977315 514.728834 2.32357449 493.923926 2.32357449"></polygon>
                    <polygon id="Fill-25" fill="#000000" points="539.285141 2.32357449 539.285141 68.0974404 570.208589 68.0974404 570.208589 85.1977315 518.581595 85.1977315 518.581595 2.32357449"></polygon>
                    <polygon id="Fill-26" fill="#000000" points="575.602454 2.32357449 575.602454 85.1977315 628 85.1977315 628 68.0974404 596.009421 68.0974404 596.009421 51.654368 619.705036 51.654368 619.705036 34.8157035 596.009421 34.8157035 596.009421 19.4254416 627.736593 19.4254416 627.736593 2.32357449"></polygon>
                </g>
                <g id="Group" transform="translate(275.622222, 99.339056)" fill="#000000">
                    <polygon id="Fill-1" points="37.2460947 1.55270596 28.0589799 39.5084004 27.6644051 39.5084004 18.3801188 1.55270596 0 1.55270596 0 63.6609442 11.6340675 63.6609442 11.6340675 19.6886441 12.0256977 19.6886441 22.9736762 63.6609442 30.9917896 63.6609442 42.0369395 19.6886441 42.4256251 19.6886441 42.4256251 63.6609442 54.7457817 63.6609442 54.7457817 1.55270596"></polygon>
                    <path d="M72.3245747,1.55270596 L54.7457817,63.6609442 L66.8862362,63.6609442 L70.7711816,49.364824 L88.6366649,49.364824 L92.4279972,63.6609442 L105.636227,63.6609442 L88.0574336,1.55270596 L72.3245747,1.55270596 Z M79.6088474,16.7337958 L79.997927,16.7337958 L85.8224198,38.914461 L73.5854267,38.914461 L79.6088474,16.7337958 Z" id="Fill-2"></path>
                    <path d="M107.178361,34.1744512 L107.178361,29.7805932 C107.178361,11.5228485 115.104394,0 130.857982,0 C146.31315,0 153.245445,10.0582292 153.245445,25.189688 L153.245445,25.8749417 L140.562598,25.8749417 L140.562598,25.189688 C140.562598,15.9167066 137.590336,10.934648 130.956461,10.934648 C124.316618,10.934648 120.848978,16.2078658 120.848978,27.1454548 L120.848978,36.5184304 C120.848978,47.4530784 124.615037,52.8233493 131.744289,52.8233493 C137.491857,52.8233493 140.759555,48.9176977 140.759555,41.8857603 L140.759555,41.1063946 L132.735044,41.1063946 L132.735044,31.5393128 L153.442402,31.5393128 L153.442402,62.5874782 L143.636323,62.5874782 L142.547091,56.3378475 C140.76254,61.0258058 136.00871,63.6609442 129.267404,63.6609442 C115.002932,63.6609442 107.178361,52.3322018 107.178361,34.1744512" id="Fill-3"></path>
                    <path d="M171.021195,1.55270596 L153.442402,63.6609442 L165.582857,63.6609442 L169.464877,49.364824 L187.333285,49.364824 L191.121692,63.6609442 L204.332847,63.6609442 L186.754054,1.55270596 L171.021195,1.55270596 Z M178.302542,16.7337958 L178.691622,16.7337958 L184.516115,38.914461 L172.279122,38.914461 L178.302542,16.7337958 Z" id="Fill-5"></path>
                    <polygon id="Fill-6" points="203.850735 1.55270596 203.850735 12.4960386 228.12013 12.4960386 203.56178 53.8015509 203.56178 63.6609442 243.657282 63.6609442 243.657282 52.7205813 218.431443 52.7205813 243.085149 11.7060992 243.085149 1.55270596"></polygon>
                    <polygon id="Fill-7" points="246.741551 63.6609442 259.849696 63.6609442 259.849696 1.55270596 246.741551 1.55270596"></polygon>
                    <polygon id="Fill-8" points="297.370353 1.55270596 297.370353 38.3234914 296.985078 38.3234914 278.23406 1.55270596 266.018235 1.55270596 266.018235 63.6609442 277.94438 63.6609442 277.94438 24.5233105 278.326758 24.5233105 299.102642 63.6609442 309.198006 63.6609442 309.198006 1.55270596"></polygon>
                    <polygon id="Fill-9" points="314.595478 1.55270596 314.595478 63.6609442 352.377778 63.6609442 352.377778 52.7205813 327.790683 52.7205813 327.790683 37.435552 346.377768 37.435552 346.377768 26.6882194 327.790683 26.6882194 327.790683 12.4960386 352.176071 12.4960386 352.176071 1.55270596"></polygon>
                </g>
            </g>
        </g>
    </g>
</svg>