<?xml version="1.0" encoding="UTF-8"?>
<svg width="487px" height="217px" viewBox="0 0 487 217" version="1.1" xmlns="http://www.w3.org/2000/svg" xmlns:xlink="http://www.w3.org/1999/xlink">
    <!-- Generator: Sketch 48.2 (47327) - http://www.bohemiancoding.com/sketch -->
    <title>Crazy</title>
    <desc>Created with Sketch.</desc>
    <defs></defs>
    <g id="Logos" stroke="none" stroke-width="1" fill="none" fill-rule="evenodd">
        <g id="Crazy" transform="translate(5.000000, 0.000000)">
            <path d="M433.6065,76.1369 L433.6065,92.1469 L437.7355,92.1469 C442.1385,92.1469 443.7395,93.5479 443.7395,95.3499 C443.7395,96.7499 443.3395,98.7519 442.5385,100.7529 L428.3295,137.1769 L427.9295,137.1769 L411.5185,100.1529 C410.7175,98.3519 410.3175,97.1509 410.3175,95.9499 C410.3175,92.7479 412.5185,92.1469 416.9215,92.1469 L420.9585,92.1469 L420.9585,76.1369 L364.5145,76.1369 L364.5145,92.1469 L369.2905,92.1469 C374.4945,92.1469 376.4955,97.1509 379.4975,104.5559 L411.1185,175.8019 C406.7155,187.0089 401.7115,199.8179 389.5035,199.8179 C385.7015,199.8179 378.6965,199.4179 378.0965,194.6139 C379.6975,195.2149 381.8985,195.4149 383.7005,195.4149 C390.7045,195.4149 394.3075,191.0119 394.3075,182.6069 C394.3075,174.2009 387.1025,169.3979 379.2975,169.3979 C368.8905,169.3979 362.0855,175.8019 362.0855,186.4089 C362.0855,204.8209 375.2945,212.2259 392.1055,212.2259 C413.5195,212.2259 423.9265,192.2129 434.3335,166.9959 L460.9505,102.1539 C463.1515,96.7499 464.9535,92.1469 472.7585,92.1469 L476.5605,92.1469 L476.5605,76.1369 L433.6065,76.1369 Z" id="Fill-1" fill="#FEFEFE"></path>
            <path d="M433.6065,76.1369 L433.6065,92.1469 L437.7355,92.1469 C442.1385,92.1469 443.7395,93.5479 443.7395,95.3499 C443.7395,96.7499 443.3395,98.7519 442.5385,100.7529 L428.3295,137.1769 L427.9295,137.1769 L411.5185,100.1529 C410.7175,98.3519 410.3175,97.1509 410.3175,95.9499 C410.3175,92.7479 412.5185,92.1469 416.9215,92.1469 L420.9585,92.1469 L420.9585,76.1369 L364.5145,76.1369 L364.5145,92.1469 L369.2905,92.1469 C374.4945,92.1469 376.4955,97.1509 379.4975,104.5559 L411.1185,175.8019 C406.7155,187.0089 401.7115,199.8179 389.5035,199.8179 C385.7015,199.8179 378.6965,199.4179 378.0965,194.6139 C379.6975,195.2149 381.8985,195.4149 383.7005,195.4149 C390.7045,195.4149 394.3075,191.0119 394.3075,182.6069 C394.3075,174.2009 387.1025,169.3979 379.2975,169.3979 C368.8905,169.3979 362.0855,175.8019 362.0855,186.4089 C362.0855,204.8209 375.2945,212.2259 392.1055,212.2259 C413.5195,212.2259 423.9265,192.2129 434.3335,166.9959 L460.9505,102.1539 C463.1515,96.7499 464.9535,92.1469 472.7585,92.1469 L476.5605,92.1469 L476.5605,76.1369 L433.6065,76.1369 Z" id="Stroke-3" stroke="#131413" stroke-width="9.251"></path>
            <path d="M433.6065,76.1369 L433.6065,92.1469 L437.7355,92.1469 C442.1385,92.1469 443.7395,93.5479 443.7395,95.3499 C443.7395,96.7499 443.3395,98.7519 442.5385,100.7529 L428.3295,137.1769 L427.9295,137.1769 L411.5185,100.1529 C410.7175,98.3519 410.3175,97.1509 410.3175,95.9499 C410.3175,92.7479 412.5185,92.1469 416.9215,92.1469 L420.9585,92.1469 L420.9585,76.1369 L364.5145,76.1369 L364.5145,92.1469 L369.2905,92.1469 C374.4945,92.1469 376.4955,97.1509 379.4975,104.5559 L411.1185,175.8019 C406.7155,187.0089 401.7115,199.8179 389.5035,199.8179 C385.7015,199.8179 378.6965,199.4179 378.0965,194.6139 C379.6975,195.2149 381.8985,195.4149 383.7005,195.4149 C390.7045,195.4149 394.3075,191.0119 394.3075,182.6069 C394.3075,174.2009 387.1025,169.3979 379.2975,169.3979 C368.8905,169.3979 362.0855,175.8019 362.0855,186.4089 C362.0855,204.8209 375.2945,212.2259 392.1055,212.2259 C413.5195,212.2259 423.9265,192.2129 434.3335,166.9959 L460.9505,102.1539 C463.1515,96.7499 464.9535,92.1469 472.7585,92.1469 L476.5605,92.1469 L476.5605,76.1369 L433.6065,76.1369 Z" id="Fill-5" fill="#FEFEFE"></path>
            <path d="M369.9192,92.7525 L369.6822,76.1365 L283.3032,76.1365 L283.3032,115.3625 L299.3132,115.3625 L299.3132,106.3565 C299.3132,96.5505 302.3152,92.1475 312.9222,92.1475 L331.5342,92.1475 L281.1012,150.3855 L281.1012,169.7985 L369.5592,169.7985 L369.5592,126.3695 L353.5492,126.3695 L353.5492,136.9765 C353.5492,148.5845 347.5452,153.7875 336.3382,153.7875 L318.3262,153.7875 L369.9192,92.7525 Z" id="Fill-7" fill="#FEFEFE"></path>
            <path d="M369.9192,92.7525 L369.6822,76.1365 L283.3032,76.1365 L283.3032,115.3625 L299.3132,115.3625 L299.3132,106.3565 C299.3132,96.5505 302.3152,92.1475 312.9222,92.1475 L331.5342,92.1475 L281.1012,150.3855 L281.1012,169.7985 L369.5592,169.7985 L369.5592,126.3695 L353.5492,126.3695 L353.5492,136.9765 C353.5492,148.5845 347.5452,153.7875 336.3382,153.7875 L318.3262,153.7875 L369.9192,92.7525 Z" id="Stroke-9" stroke="#131413" stroke-width="9.251"></path>
            <path d="M370.6291,91.7384 L370.6291,76.1364 L283.3031,76.1364 L283.3031,115.3624 L299.3141,115.3624 L299.3141,106.3564 C299.3141,96.5504 302.3151,92.1474 312.9221,92.1474 L331.5351,92.1474 L281.1021,150.3854 L281.1021,169.7984 L369.5591,169.7984 L369.5591,126.3694 L353.5491,126.3694 L353.5491,136.9764 C353.5491,148.5844 347.5451,153.7874 336.3381,153.7874 L318.3261,153.7874 L370.6291,91.7384 Z" id="Fill-11" fill="#FEFEFE"></path>
            <path d="M285.7971,146.5829 L285.7971,135.5759 L274.7901,135.5759 L274.7901,140.1789 C274.7901,151.3859 272.5881,153.9879 268.1851,153.9879 C264.9831,153.9879 264.3831,151.7859 264.3831,145.9829 L264.3831,108.7579 C264.3831,79.5389 249.5731,73.1349 222.1551,73.1349 C205.9451,73.1349 185.0071,76.3369 185.0071,98.5519 C185.0071,107.9579 193.0121,113.3609 202.4181,113.3609 C210.4241,113.3609 218.2291,109.5589 218.2291,100.7529 C218.2291,93.7489 211.6241,90.5459 205.6201,89.7459 L205.6201,89.3459 C210.4241,86.3439 216.0271,85.5429 221.4311,85.5429 C232.4381,85.5429 231.5621,89.9459 231.5621,103.1549 C231.5621,129.3719 172.1231,107.1569 172.1231,144.9819 C172.1231,165.3949 183.9301,172.7999 202.9431,172.7999 C215.9511,172.7999 225.5581,168.3969 233.7631,158.5909 C236.9651,168.1969 246.3711,172.7999 255.9771,172.7999 C278.1921,172.7999 285.7971,166.5959 285.7971,146.5829 Z M231.1611,137.1769 C231.1611,145.5819 228.1591,153.9879 216.7521,153.9879 C210.5481,153.9879 205.3441,150.9859 205.3441,142.7809 C205.3441,130.3719 221.5551,129.1719 231.1611,123.5679 L231.1611,137.1769 Z" id="Fill-13" fill="#FEFEFE"></path>
            <path d="M285.7971,146.5829 L285.7971,135.5759 L274.7901,135.5759 L274.7901,140.1789 C274.7901,151.3859 272.5881,153.9879 268.1851,153.9879 C264.9831,153.9879 264.3831,151.7859 264.3831,145.9829 L264.3831,108.7579 C264.3831,79.5389 249.5731,73.1349 222.1551,73.1349 C205.9451,73.1349 185.0071,76.3369 185.0071,98.5519 C185.0071,107.9579 193.0121,113.3609 202.4181,113.3609 C210.4241,113.3609 218.2291,109.5589 218.2291,100.7529 C218.2291,93.7489 211.6241,90.5459 205.6201,89.7459 L205.6201,89.3459 C210.4241,86.3439 216.0271,85.5429 221.4311,85.5429 C232.4381,85.5429 231.5621,89.9459 231.5621,103.1549 C231.5621,129.3719 172.1231,107.1569 172.1231,144.9819 C172.1231,165.3949 183.9301,172.7999 202.9431,172.7999 C215.9511,172.7999 225.5581,168.3969 233.7631,158.5909 C236.9651,168.1969 246.3711,172.7999 255.9771,172.7999 C278.1921,172.7999 285.7971,166.5959 285.7971,146.5829 Z M231.1611,137.1769 C231.1611,145.5819 228.1591,153.9879 216.7521,153.9879 C210.5481,153.9879 205.3441,150.9859 205.3441,142.7809 C205.3441,130.3719 221.5551,129.1719 231.1611,123.5679 L231.1611,137.1769 Z" id="Stroke-15" stroke="#131413" stroke-width="9.25"></path>
            <path d="M285.7971,146.5829 L285.7971,135.5759 L274.7901,135.5759 L274.7901,140.1789 C274.7901,151.3859 272.5881,153.9879 268.1851,153.9879 C264.9831,153.9879 264.3831,151.7859 264.3831,145.9829 L264.3831,108.7579 C264.3831,79.5389 249.5731,73.1349 222.1551,73.1349 C205.9451,73.1349 185.0071,76.3369 185.0071,98.5519 C185.0071,107.9579 193.0121,113.3609 202.4181,113.3609 C210.4241,113.3609 218.2291,109.5589 218.2291,100.7529 C218.2291,93.7489 211.6241,90.5459 205.6201,89.7459 L205.6201,89.3459 C210.4241,86.3439 216.0271,85.5429 221.4311,85.5429 C232.4381,85.5429 231.5621,89.9459 231.5621,103.1549 C231.5621,129.3719 172.1231,107.1569 172.1231,144.9819 C172.1231,165.3949 183.9301,172.7999 202.9431,172.7999 C215.9511,172.7999 225.5581,168.3969 233.7631,158.5909 C236.9651,168.1969 246.3711,172.7999 255.9771,172.7999 C278.1921,172.7999 285.7971,166.5959 285.7971,146.5829 Z M231.1611,137.1769 C231.1611,145.5819 228.1591,153.9879 216.7521,153.9879 C210.5481,153.9879 205.3441,150.9859 205.3441,142.7809 C205.3441,130.3719 221.5551,129.1719 231.1611,123.5679 L231.1611,137.1769 Z" id="Fill-17" fill="#FEFEFE"></path>
            <path d="M46.1285,58.5701 L40.6805,51.0781 C37.1895,53.8881 34.0395,54.9091 30.5495,54.9091 C25.4415,54.9091 21.5255,52.6111 19.1415,48.2691 C17.3545,45.0341 16.6725,40.5221 16.6725,32.4351 C16.6725,25.5391 17.6945,20.6011 19.9935,17.1961 C22.1215,14.0461 26.0375,12.0881 30.0385,12.0881 C33.3585,12.0881 36.5085,13.1951 39.4885,15.4081 L44.8515,7.3211 C41.6165,4.5111 35.7425,2.6391 29.8685,2.6391 C20.3335,2.6391 11.8205,7.7461 7.2235,16.3451 C4.4995,21.4531 3.2225,27.3271 3.2225,34.7331 C3.2225,43.4171 5.6055,50.5681 10.3735,55.9311 C15.2255,61.4641 21.5255,64.1041 29.6985,64.1041 C36.4235,64.1041 41.4465,62.4011 46.1285,58.5701 Z M72.2515,19.4101 C70.4645,18.6431 69.6975,18.4731 67.9955,18.4731 C63.7385,18.4731 60.2485,21.3681 57.7795,24.6881 C57.6095,22.2191 57.0135,20.2611 55.9915,18.4731 L45.7755,21.1971 C46.7125,23.6661 47.3935,28.0931 47.3935,33.9671 L47.3935,63.0821 L58.8015,63.0821 L58.8015,32.2641 C60.9295,29.7961 63.2275,28.6041 65.7815,28.6041 C67.0585,28.6041 67.9955,28.8591 69.1015,29.4551 L72.2515,19.4101 Z M107.4085,41.1181 C107.4085,34.0521 105.8755,29.2851 102.3855,25.1981 C98.6395,20.7721 93.7875,18.6431 87.5725,18.6431 C75.8245,18.6431 67.9925,27.7521 67.9925,41.4591 C67.9925,55.1651 75.7395,64.0181 87.5725,64.0181 C94.2975,64.0181 98.6395,61.7201 101.9595,57.9741 C105.7055,53.7181 107.4085,48.6101 107.4085,41.1181 Z M94.9785,41.0331 C94.9785,51.3341 92.8505,55.7611 87.9135,55.7611 C85.6995,55.7611 83.1455,54.5691 82.1245,52.1851 C81.1875,49.9721 80.6765,46.2261 80.6765,41.2031 C80.6765,36.8611 81.1025,33.7971 81.8685,31.4981 C82.8055,28.7741 85.0185,27.0711 87.7425,27.0711 C89.7855,27.0711 91.5735,27.9231 92.6805,29.3701 C94.2125,31.3281 94.9785,35.1591 94.9785,41.0331 Z M142.3855,49.2911 C142.3855,46.3961 141.6195,43.9271 140.0015,41.8841 C138.4695,39.9261 136.6815,38.3091 131.3185,36.9471 L126.0405,35.5841 C122.0395,34.5631 120.5915,33.3711 120.5915,31.1581 C120.5915,28.6041 122.8055,26.9011 126.1255,26.9011 C129.3605,26.9011 132.5105,27.8381 136.8515,30.0511 L140.5975,22.3891 C136.5965,20.4311 131.9995,18.3031 125.0185,18.3031 C114.8885,18.3031 108.1625,24.0071 108.1625,32.5201 C108.1625,35.3291 109.0995,38.4791 110.6315,40.3521 C112.1635,42.2251 115.7395,44.2681 118.6335,44.7791 L123.7415,45.7151 C128.3385,46.5661 130.4675,48.0991 130.4675,51.0781 C130.4675,53.8881 127.9135,56.0161 124.6785,56.0161 C119.7405,56.0161 113.6965,53.2071 110.2055,51.0781 L106.1195,59.4211 C112.5045,62.7411 118.3785,64.4441 123.7415,64.4441 C134.8935,64.4441 142.3855,58.3151 142.3855,49.2911 Z M178.2235,49.2911 C178.2235,46.3961 177.4575,43.9271 175.8405,41.8841 C174.3075,39.9261 172.5205,38.3091 167.1565,36.9471 L161.8785,35.5841 C157.8775,34.5631 156.4305,33.3711 156.4305,31.1581 C156.4305,28.6041 158.6435,26.9011 161.9635,26.9011 C165.1985,26.9011 168.3485,27.8381 172.6905,30.0511 L176.4365,22.3891 C172.4355,20.4311 167.8375,18.3031 160.8575,18.3031 C150.7265,18.3031 144.0015,24.0071 144.0015,32.5201 C144.0015,35.3291 144.9375,38.4791 146.4695,40.3521 C148.0025,42.2251 151.5775,44.2681 154.4725,44.7791 L159.5805,45.7151 C164.1775,46.5661 166.3055,48.0991 166.3055,51.0781 C166.3055,53.8881 163.7515,56.0161 160.5165,56.0161 C155.5795,56.0161 149.5345,53.2071 146.0445,51.0781 L141.9575,59.4211 C148.3425,62.7411 154.2165,64.4441 159.5805,64.4441 C170.7325,64.4441 178.2235,58.3151 178.2235,49.2911 Z M227.5105,44.4381 C227.5105,35.6701 222.2325,29.4551 212.5275,26.8161 L205.3765,24.8581 C200.4385,23.4961 198.8215,21.9631 198.8215,18.8991 C198.8215,14.8981 202.2265,12.0881 207.0795,12.0881 C211.5065,12.0881 215.5075,13.3651 220.8705,16.6001 L226.4895,8.0871 C221.2965,4.3411 213.9745,2.1281 206.7385,2.1281 C194.2245,2.1281 185.5405,9.6191 185.5405,20.4311 C185.5405,23.7511 186.3925,26.8161 188.0095,29.4551 C190.1385,33.0311 193.7985,35.3291 199.6725,36.9471 L206.2275,38.7341 C211.5065,40.1821 213.9745,42.5651 213.9745,46.3961 C213.9745,51.6741 210.3995,54.4841 203.5885,54.4841 C197.6295,54.4841 192.8625,52.6111 187.3285,49.7161 L182.9015,58.9961 C188.8615,62.4011 196.3525,64.3591 203.0785,64.3591 C217.8055,64.3591 227.5105,56.4421 227.5105,44.4381 Z M251.8585,62.1461 L250.4115,55.3351 C248.3675,55.9311 247.3465,56.1861 246.3245,56.1861 C242.4085,56.1861 241.3875,54.7391 241.3875,49.2061 L241.3875,27.3271 L248.7085,27.3271 L251.6025,19.4951 L241.3875,19.4951 C241.3875,15.0681 241.6425,10.3001 242.0685,6.2991 L230.4905,9.1941 C230.0645,12.4291 230.0645,15.2381 230.0645,19.4951 L225.7225,19.4951 L225.7225,27.3271 L230.0645,27.3271 L230.0645,50.9931 C230.0645,54.9941 230.1495,55.8461 230.8305,57.7191 C232.1925,61.5501 236.7905,64.1041 242.5795,64.1041 C245.5585,64.1041 248.5385,63.5081 251.8585,62.1461 Z M265.3935,63.0821 L265.3935,18.4731 L253.9855,20.2611 L253.9855,63.0821 L265.3935,63.0821 Z M266.7555,7.4911 C266.7555,3.5751 263.6905,0.4251 259.8595,0.4251 C255.9435,0.4251 252.7085,3.5751 252.7085,7.4911 C252.7085,11.4071 255.8585,14.5571 259.6895,14.5571 C263.6055,14.5571 266.7555,11.4071 266.7555,7.4911 Z M293.9965,62.1461 L292.5495,55.3351 C290.5055,55.9311 289.4845,56.1861 288.4625,56.1861 C284.5465,56.1861 283.5255,54.7391 283.5255,49.2061 L283.5255,27.3271 L290.8465,27.3271 L293.7405,19.4951 L283.5255,19.4951 C283.5255,15.0681 283.7805,10.3001 284.2065,6.2991 L272.6285,9.1941 C272.2025,12.4291 272.2025,15.2381 272.2025,19.4951 L267.8605,19.4951 L267.8605,27.3271 L272.2025,27.3271 L272.2025,50.9931 C272.2025,54.9941 272.2875,55.8461 272.9685,57.7191 C274.3305,61.5501 278.9275,64.1041 284.7165,64.1041 C287.6965,64.1041 290.6765,63.5081 293.9965,62.1461 Z M324.6415,58.1441 L319.4485,51.2491 L318.7675,51.8451 C315.9585,54.3131 313.5745,55.4201 310.9355,55.4201 C308.9775,55.4201 307.0195,54.4841 305.8275,52.9511 C304.3805,51.0781 303.6145,47.6731 303.6145,41.9691 C303.6145,31.7541 305.9125,27.3271 311.0205,27.3271 C313.1495,27.3271 315.6175,28.6041 317.9165,30.7321 L323.4495,23.2401 C321.5775,21.6231 320.8105,21.0271 319.1935,20.1761 C316.8095,18.8991 313.6595,18.2181 310.7655,18.2181 C307.1045,18.2181 302.8485,19.4951 299.9535,21.4531 C294.8455,24.9431 291.0145,31.5831 291.0145,41.6291 C291.0145,55.7611 297.9955,64.1041 309.9995,64.1041 C314.1705,64.1041 317.5755,63.1671 320.6405,61.3791 C322.1725,60.4431 322.9395,59.8471 324.6415,58.1441 Z M362.0865,63.0821 L362.0865,32.6051 C362.0865,28.4331 361.8305,26.9861 360.9795,24.5171 C359.6175,20.6861 355.1905,18.3031 349.6565,18.3031 C345.2305,18.3031 340.2925,20.1761 337.3125,22.9851 C337.3125,22.4741 337.4835,20.6861 337.4835,19.3241 L337.4835,10.6411 C337.4835,6.4701 337.2275,2.3831 336.7165,0.0001 L325.0535,2.7241 C325.5645,4.5111 325.9055,8.5981 325.9055,12.6841 L325.9055,63.0821 L337.4835,63.0821 L337.4835,31.8391 C340.0365,29.5401 343.6975,27.8381 346.5065,27.8381 C349.7415,27.8381 350.9335,29.4551 350.9335,33.7971 L350.9335,63.0821 L362.0865,63.0821 Z" id="Fill-19" fill="#131413"></path>
            <path d="M97.3795,92.1473 L105.5845,92.1473 C111.3885,92.1473 112.7895,95.1493 112.7895,100.7533 L112.7895,145.1823 C112.7895,150.7853 111.3885,153.7873 105.5845,153.7873 L97.3795,153.7873 L97.3795,169.7983 L161.4215,169.7983 L161.4215,153.7873 L153.2155,153.7873 C147.4125,153.7873 146.0115,150.7853 146.0115,145.1823 L146.0115,109.3583 C146.0115,99.5523 148.7725,86.1433 159.1795,86.1433 C161.7805,86.1433 163.5825,86.3433 165.5835,88.3453 C158.9795,89.5453 155.1765,93.7483 155.1765,100.5523 C155.1765,109.7583 162.7815,113.7613 171.1875,113.7613 C180.5935,113.7613 187.1975,104.5553 187.1975,95.9493 C187.1975,82.7413 176.7905,73.1443 164.3825,73.1353 C155.3335,73.1283 147.1305,80.1473 145.0105,89.8913 L144.6105,89.8913 L144.6105,76.1373 L97.3795,76.1373 L97.3795,92.1473 Z" id="Fill-21" fill="#FEFEFE"></path>
            <path d="M97.3795,92.1473 L105.5845,92.1473 C111.3885,92.1473 112.7895,95.1493 112.7895,100.7533 L112.7895,145.1823 C112.7895,150.7853 111.3885,153.7873 105.5845,153.7873 L97.3795,153.7873 L97.3795,169.7983 L161.4215,169.7983 L161.4215,153.7873 L153.2155,153.7873 C147.4125,153.7873 146.0115,150.7853 146.0115,145.1823 L146.0115,109.3583 C146.0115,99.5523 148.7725,86.1433 159.1795,86.1433 C161.7805,86.1433 163.5825,86.3433 165.5835,88.3453 C158.9795,89.5453 155.1765,93.7483 155.1765,100.5523 C155.1765,109.7583 162.7815,113.7613 171.1875,113.7613 C180.5935,113.7613 187.1975,104.5553 187.1975,95.9493 C187.1975,82.7413 176.7905,73.1443 164.3825,73.1353 C155.3335,73.1283 147.1305,80.1473 145.0105,89.8913 L144.6105,89.8913 L144.6105,76.1373 L97.3795,76.1373 L97.3795,92.1473 Z" id="Stroke-23" stroke="#131413" stroke-width="9.25"></path>
            <path d="M97.3795,92.1473 L105.5845,92.1473 C111.3885,92.1473 112.7895,95.1493 112.7895,100.7533 L112.7895,145.1823 C112.7895,150.7853 111.3885,153.7873 105.5845,153.7873 L97.3795,153.7873 L97.3795,169.7983 L161.4215,169.7983 L161.4215,153.7873 L153.2155,153.7873 C147.4125,153.7873 146.0115,150.7853 146.0115,145.1823 L146.0115,109.3583 C146.0115,99.5523 148.7725,86.1433 159.1795,86.1433 C161.7805,86.1433 163.5825,86.3433 165.5835,88.3453 C158.9795,89.5453 155.1765,93.7483 155.1765,100.5523 C155.1765,109.7583 162.7815,113.7613 171.1875,113.7613 C180.5935,113.7613 187.1975,104.5553 187.1975,95.9493 C187.1975,82.7413 176.7905,73.1443 164.3825,73.1353 C155.3335,73.1283 147.1305,80.1473 145.0105,89.8913 L144.6105,89.8913 L144.6105,76.1373 L97.3795,76.1373 L97.3795,92.1473 Z" id="Fill-25" fill="#FEFEFE"></path>
            <path d="M72.5302,136.7386 C71.5112,146.1106 66.6222,155.2786 56.0272,155.2786 C41.9702,155.2786 36.0612,144.8876 36.0612,121.4586 C36.0612,98.0286 45.6372,87.6386 56.0272,87.6386 C62.3432,87.6386 68.6592,90.0826 72.3262,94.5656 C63.1582,94.5656 56.6392,100.0656 56.6392,109.4376 C56.6392,120.2356 64.7882,124.3106 74.5672,124.3106 C85.9772,124.3106 92.7002,115.1426 92.7002,104.3446 C92.7002,81.9336 72.3262,71.3396 50.5262,71.3396 C24.4482,71.3396 0.0002,88.0456 0.0002,122.0696 C0.0002,156.0936 20.1702,172.7996 50.5262,172.7996 C73.3452,172.7996 91.8852,162.8166 92.7002,136.7386 L72.5302,136.7386 Z" id="Fill-27" fill="#FEFEFE"></path>
            <path d="M72.5302,136.7386 C71.5112,146.1106 66.6222,155.2786 56.0272,155.2786 C41.9702,155.2786 36.0612,144.8876 36.0612,121.4586 C36.0612,98.0286 45.6372,87.6386 56.0272,87.6386 C62.3432,87.6386 68.6592,90.0826 72.3262,94.5656 C63.1582,94.5656 56.6392,100.0656 56.6392,109.4376 C56.6392,120.2356 64.7882,124.3106 74.5672,124.3106 C85.9772,124.3106 92.7002,115.1426 92.7002,104.3446 C92.7002,81.9336 72.3262,71.3396 50.5262,71.3396 C24.4482,71.3396 0.0002,88.0456 0.0002,122.0696 C0.0002,156.0936 20.1702,172.7996 50.5262,172.7996 C73.3452,172.7996 91.8852,162.8166 92.7002,136.7386 L72.5302,136.7386 Z" id="Stroke-29" stroke="#131413" stroke-width="9.25"></path>
            <path d="M72.5302,136.7386 C71.5112,146.1106 66.6222,155.2786 56.0272,155.2786 C41.9702,155.2786 36.0612,144.8876 36.0612,121.4586 C36.0612,98.0286 45.6372,87.6386 56.0272,87.6386 C62.3432,87.6386 68.6592,90.0826 72.3262,94.5656 C63.1582,94.5656 56.6392,100.0656 56.6392,109.4376 C56.6392,120.2356 64.7882,124.3106 74.5672,124.3106 C85.9772,124.3106 92.7002,115.1426 92.7002,104.3446 C92.7002,81.9336 72.3262,71.3396 50.5262,71.3396 C24.4482,71.3396 0.0002,88.0456 0.0002,122.0696 C0.0002,156.0936 20.1702,172.7996 50.5262,172.7996 C73.3452,172.7996 91.8852,162.8166 92.7002,136.7386 L72.5302,136.7386 Z" id="Fill-31" fill="#FEFEFE"></path>
        </g>
    </g>
</svg>