<?xml version="1.0" encoding="UTF-8"?>
<svg width="335px" height="85px" viewBox="0 0 335 85" version="1.1" xmlns="http://www.w3.org/2000/svg" xmlns:xlink="http://www.w3.org/1999/xlink">
    <!-- Generator: Sketch 48.2 (47327) - http://www.bohemiancoding.com/sketch -->
    <title>CP</title>
    <desc>Created with Sketch.</desc>
    <defs>
        <polygon id="path-1" points="0 0.6824205 334.649958 0.6824205 334.649958 85 0 85"></polygon>
    </defs>
    <g id="Logos" stroke="none" stroke-width="1" fill="none" fill-rule="evenodd">
        <g id="CP" transform="translate(0.000000, -1.000000)">
            <g id="Group-3" transform="translate(0.000000, 0.317800)">
                <mask id="mask-2" fill="white">
                    <use xlink:href="#path-1"></use>
                </mask>
                <g id="Clip-2"></g>
                <path d="M325.724072,10.4974205 L295.832072,10.4974205 C295.832072,10.4974205 285.892072,10.4974205 284.847441,20.4364205 L279.10623,75.0604205 C279.10623,75.0604205 278.061599,84.9994205 288.000599,84.9994205 L317.893599,84.9994205 C317.893599,84.9994205 327.832599,84.9994205 328.87723,75.0604205 L330.983938,55.0164205 L331.018833,54.6844205 L332.511628,40.4814205 L307.457173,42.2554205 L306.098938,55.0164205 L312.669938,55.0164205 L311.046183,70.4654205 L297.903183,70.4654205 L302.678383,25.0324205 L315.821383,25.0324205 L314.766241,35.0714205 L333.282567,33.1464205 L334.618441,20.4364205 C334.618441,20.4364205 335.663072,10.4974205 325.724072,10.4974205 Z M274.553599,84.9994205 L282.384072,10.4974205 L264.070072,10.4974205 L260.284114,46.5184205 L249.419072,10.4974205 L231.105072,10.4974205 L223.274599,84.9994205 L241.588599,84.9994205 L245.407035,48.6694205 L255.930526,83.8774205 L256.239494,85.0004205 L256.239599,84.9994205 L274.553599,84.9994205 Z M219.659494,85.0004205 L227.490072,10.4974205 L209.176072,10.4974205 L201.345494,85.0004205 L219.659494,85.0004205 Z M199.385183,70.4654205 L181.068183,70.4654205 L187.371072,10.4974205 L169.057072,10.4974205 L162.754183,70.4654205 L161.226494,85.0004205 L179.540494,85.0004205 L197.857494,85.0004205 L199.385183,70.4654205 Z M164.681441,20.4364205 C164.681441,20.4364205 165.726072,10.4974205 155.787072,10.4974205 L125.894072,10.4974205 C125.894072,10.4974205 115.955072,10.4974205 114.910441,20.4364205 L109.16923,75.0604205 C109.16923,75.0604205 108.124494,85.0004205 118.063494,85.0004205 L147.956494,85.0004205 C147.956494,85.0004205 157.895494,85.0004205 158.94023,75.0604205 L160.779238,57.5634205 L142.330599,58.8444205 L141.109183,70.4654205 L127.966183,70.4654205 L132.741383,25.0324205 L145.884383,25.0324205 L144.829241,35.0714205 L163.345567,33.1464205 L164.681441,20.4364205 Z M92.0735202,60.9954205 L115.958072,10.4974205 L96.7350721,10.4974205 L85.3610336,37.7374205 L79.7130721,10.4974205 L64.2870721,10.4974205 L63.2022916,20.8184205 L73.7595202,60.9954205 L71.2365989,84.9994205 L89.5505989,84.9994205 L92.0735202,60.9954205 Z M61.1380391,10.6214205 C61.1380391,10.6214205 62.1826698,0.6824205 52.2436698,0.6824205 L17.7886698,0.6824205 C17.7886698,0.6824205 7.84866978,0.6824205 6.80403914,10.6214205 L0.0312295916,75.0604205 C0.0312295916,75.0604205 -1.01350616,85.0004205 8.92549384,85.0004205 L43.3814938,85.0004205 C43.3814938,85.0004205 53.3204938,85.0004205 54.3652296,75.0604205 L56.6349548,53.4654205 L36.4435987,54.8674205 L34.9462843,69.1134205 L20.7002843,69.1134205 L26.2213028,16.5844205 L40.4673028,16.5844205 L38.9698833,30.8314205 L59.2353378,28.7244205 L61.1380391,10.6214205 Z" id="Fill-1" fill="#000000" mask="url(#mask-2)"></path>
            </g>
            <path d="M236.407185,29.5335205 L233.774232,54.6165205 L292.052232,54.6165205 C292.052232,54.6165205 295.405232,54.6165205 295.756393,51.2635205 L298.027185,29.5335205 L236.407185,29.5335205 Z" id="Fill-4" fill="#EA1D24"></path>
            <path d="M292.397786,32.5524205 L284.345786,32.5524205 C282.623786,32.5524205 281.729518,33.2944205 281.570097,34.8284205 L281.068021,39.6364205 C280.977405,40.5064205 281.109418,40.9154205 281.737431,41.3244205 L288.575163,45.6974205 L288.316503,48.2844205 L285.136503,48.2844205 L285.412887,45.5234205 L280.417318,45.8704205 L280.005715,49.8154205 C279.845293,51.3494205 280.585025,52.0914205 282.306025,52.0914205 L290.329025,52.0914205 C292.050025,52.0914205 292.974293,51.3494205 293.133715,49.8154205 L293.638611,44.9814205 C293.729349,44.1124205 293.541157,43.6774205 292.913144,43.2684205 L286.102468,38.9204205 L286.365186,36.3584205 L289.555186,36.3584205 L289.280582,38.9704205 L289.316582,38.9704205 L294.323997,38.4504205 L294.70104,34.8034205 C294.861339,33.2684205 294.118786,32.5524205 292.397786,32.5524205 Z M277.751204,49.8194205 L279.558275,32.5564205 L274.755275,32.5564205 L273.107503,48.2844205 L269.234503,48.2844205 L270.881275,32.5564205 L266.079275,32.5564205 L264.272204,49.8194205 C264.111904,51.3544205 264.822514,52.0954205 266.572514,52.0954205 L274.945514,52.0954205 C276.696514,52.0954205 277.590904,51.3544205 277.751204,49.8194205 Z M262.199503,48.2844205 L257.412503,48.2844205 L259.051275,32.5564205 L254.231275,32.5564205 L252.185514,52.0954205 L261.792514,52.0954205 L262.199503,48.2844205 Z M251.757586,34.8324205 C251.918008,33.2984205 251.179275,32.5564205 249.458275,32.5564205 L238.869275,32.5564205 L236.825025,52.0914205 L241.626025,52.0914205 L242.311455,45.5444205 L248.068132,45.1574205 C249.818132,45.1574205 250.709579,44.4414205 250.872944,42.8824205 L251.757586,34.8324205 Z M246.795064,36.3574205 L246.219773,41.4744205 L242.704789,41.7444205 L243.273064,36.3574205 L246.795064,36.3574205 Z" id="Fill-6" fill="#FEFEFE"></path>
        </g>
    </g>
</svg>