<?xml version="1.0" encoding="UTF-8"?>
<svg width="882px" height="189px" viewBox="0 0 882 189" version="1.1" xmlns="http://www.w3.org/2000/svg" xmlns:xlink="http://www.w3.org/1999/xlink">
    <!-- Generator: Sketch 48.2 (47327) - http://www.bohemiancoding.com/sketch -->
    <title>GI</title>
    <desc>Created with Sketch.</desc>
    <defs>
        <polygon id="path-1" points="0.0313636364 0.465839286 48.9707576 0.465839286 48.9707576 42 0.0313636364 42"></polygon>
        <polygon id="path-3" points="0.9813 0.491582143 26.4783 0.491582143 26.4783 43 0.9813 43"></polygon>
    </defs>
    <g id="Logos" stroke="none" stroke-width="1" fill="none" fill-rule="evenodd">
        <g id="GI">
            <path d="M98.3156297,75.2817764 C98.3156297,68.1041348 101.654021,65.2664625 110,64.7656968 L110,61.7611026 L64.9317147,61.7611026 L64.9317147,64.7656968 L71.107739,64.7656968 C81.1229135,64.7656968 84.461305,67.9372129 84.461305,77.4517611 L84.461305,98.4854378 C75.1138088,103.159251 66.6009105,104.826953 58.92261,104.826953 C39.7268589,104.826953 15.6889226,89.6370597 15.6889226,55.4180704 C15.6889226,28.5436447 30.7132018,4.17304747 60.091047,4.17304747 C75.6145675,4.17304747 89.8027314,10.6830015 94.3095599,31.5482389 L97.6479514,31.5482389 L97.6479514,4.50689127 L95.3110774,4.50689127 C94.3095599,5.34150077 92.9742033,5.67534456 91.4719272,5.67534456 C87.9666161,5.67534456 76.1153263,0 58.2549317,0 C17.5250379,0 0,31.381317 0,56.4196018 C0,80.7901991 17.0257967,109 53.5811836,109 C60.5918058,109 81.7905918,106.996937 98.3156297,98.4854378 L98.3156297,75.2817764 Z" id="Fill-1" fill="#000000"></path>
            <path d="M197.401198,53.2480377 L168.39521,53.2480377 L182.646707,14.1098901 L197.401198,53.2480377 Z M200.251497,60.6389325 L211.48503,91.2103611 C212.155689,92.8901099 213.329341,95.4097331 213.329341,98.0973312 C213.329341,102.800628 209.808383,103.808477 200.251497,103.808477 L195.892216,103.808477 L195.892216,107 L242,107 L242,103.808477 C233.616766,103.808477 230.095808,102.130255 226.744039,93.2275867 L191.700599,0 L177.113772,0 L178.622754,3.69544741 L148.107784,87.1789639 C142.742515,101.792779 140.898204,103.638975 130,103.808477 L130,107 L168.730539,107 L168.730539,103.808477 L166.047904,103.808477 C156.826347,103.808477 152.467066,102.130255 152.467066,97.5934066 C152.467066,95.2402312 154.646707,90.2025118 155.820359,87.010989 L165.54491,60.6389325 L200.251497,60.6389325 Z" id="Fill-3" fill="#000000"></path>
            <path d="M295.11583,4.52698376 C298.127413,4.19108055 300.302445,4.19108055 303.481338,4.19108055 C329.247104,4.19108055 336.274131,16.2835963 336.274131,31.9030958 C336.274131,52.0572887 324.060489,59.9510143 305.48906,59.9510143 C301.640927,59.9510143 299.131274,60.1189659 295.11583,59.6151111 L295.11583,4.52698376 Z M295.11583,62.8061916 C297.792793,62.9741432 299.967825,63.1420948 303.648649,63.1420948 C308.166023,63.1420948 310.842986,62.9741432 315.02574,62.8061916 C319.041184,65.4934174 324.89704,70.364014 332.258687,77.7538847 L343.301158,88.8386908 C358.191763,103.787911 365.720721,110.170072 395,108.824932 L395,105.80333 C382.117117,104.962045 371.911197,98.7478357 362.039897,88.8386908 L348.822394,75.5705138 C340.958816,67.6767883 335.939511,62.9741432 329.749035,58.1035466 C343.468468,54.072708 352.001287,43.4917567 352.001287,30.8953862 C352.001287,13.7643222 338.114543,1 307.162162,1 C296.287001,1 292.940798,1.16795161 286.081081,1.50385482 C279.221364,1.83975804 269.013923,2.51156447 265,2.51156447 L265,5.70264502 L268.680824,5.70264502 C278.384813,5.70264502 281.229086,8.72577395 281.229086,19.1387736 L281.229086,89.8464005 C281.229086,101.100685 277.715573,103.787911 267.842752,103.787911 L265,103.787911 L265,106.978991 L312.348777,106.978991 L312.348777,103.787911 L308.500644,103.787911 C299.131274,103.787911 295.11583,101.26711 295.11583,91.1900133 L295.11583,62.8061916 Z" id="Fill-5" fill="#000000"></path>
            <path d="M432.092754,4.8637084 C434.110145,4.69572108 438.649275,4.19175911 445.542029,4.19175911 C469.078261,4.19175911 481.014493,10.0713154 488.747826,17.7987322 C498.668195,27.7099842 502.197101,41.4849445 502.197101,53.9160063 C502.197101,71.2187005 494.465296,84.1537242 488.243478,90.2012678 C477.82029,100.618009 468.405797,103.809768 445.879789,103.809768 C432.597101,103.809768 432.092754,101.456418 432.092754,94.5689382 L432.092754,4.8637084 Z M418.13913,91.5451664 C418.13913,101.288431 413.936232,103.809768 404.857971,103.809768 L402,103.809768 L402,107 L455.797101,107 C498.331963,107 518,76.5942948 518,51.2282092 C518,23.5103011 498.331963,1 453.947826,1 C445.205797,1 434.950725,1.16798732 425.704348,1.50396197 C416.457971,1.83993661 408.22029,2.17591125 402,2.5118859 L402,5.70364501 L405.362319,5.70364501 C415.281159,5.70364501 418.13913,8.39144216 418.13913,19.3106181 L418.13913,91.5451664 Z" id="Fill-7" fill="#000000"></path>
            <path d="M614.535889,37.6109325 L611.338801,37.6109325 C610.497864,47.3086817 607.63868,50.1511254 601.583936,50.1511254 L571.479932,50.1511254 L571.479932,9.0192926 L606.967459,9.0192926 C613.022203,9.0192926 617.226887,12.0289389 619.411793,26.2411576 L622.440694,26.2411576 L621.093666,3 L540.363747,3 L540.363747,6.17684887 L544.063868,6.17684887 C555.332419,6.17684887 557.518855,10.1897106 557.518855,19.5530547 L557.518855,90.1125402 C557.518855,100.146215 555.164232,103.824671 541.709245,103.824671 L537,103.824671 L537,107 L626.307474,107 L629,82.0868167 L625.971099,82.0868167 C621.766416,96.467758 618.236011,100.980707 606.462897,100.980707 L580.560519,100.980707 C574.337588,100.980707 571.479932,99.4743642 571.479932,91.7860859 L571.479932,56.170418 L599.903591,56.170418 C606.797743,56.170418 609.993302,57.5080386 611.338801,69.3794212 L614.535889,69.3794212 L614.535889,37.6109325 Z" id="Fill-9" fill="#000000"></path>
            <path d="M771.793734,108 L771.793734,14.8521463 C771.793734,8.3418124 774.467363,6.17170111 787,6.17170111 L787,3 L747.898172,3 L747.898172,6.17170111 C761.266319,6.50556439 764.274151,8.3418124 764.274151,18.5246423 L764.274151,84.963434 L685.569191,3 L659.334204,3 L659.334204,6.17170111 C665.181249,6.33863275 669.527415,7.67408585 673.370757,10.3449921 L673.370757,92.4753577 C673.370757,100.154213 670.028721,103.661295 659.666888,103.661295 L659,103.661295 L659,106.831479 L697.767624,106.831479 L697.767624,103.661295 C683.563969,103.661295 680.890339,101.155803 680.890339,89.136725 L680.890339,17.5230525 L767.450605,108 L771.793734,108 Z" id="Fill-11" fill="#000000"></path>
            <path d="M815,80.957121 L818.508728,106.32925 L821.349127,106.32925 C822.017456,105.327718 823.187032,104.491591 824.690773,104.491591 C827.029925,104.491591 838.725686,109 847.915212,109 C867.46384,109 882,96.8162189 882,80.4563553 C882,49.7427259 828.366584,43.3981762 828.366584,19.6952666 C828.366584,10.3491577 836.05085,4.00612557 847.0798,4.00612557 C858.608479,4.00612557 869.301746,11.6845329 873.98005,23.7029096 L876.820449,23.7029096 L873.98005,2.50231101 L871.306733,2.50231101 C870.304239,3.8376862 869.63591,4.17153 868.299252,4.17153 C862.451372,4.17153 859.610973,0 845.57606,0 C828.533666,0 815.835411,10.3491577 815.835411,24.2036753 C815.835411,53.4150077 869.468828,60.7580537 869.468828,84.7963247 C869.468828,97.9831547 857.605985,104.491591 846.411471,104.491591 C833.379052,104.491591 821.681773,95.81317 818.174564,80.957121 L815,80.957121 Z" id="Fill-13" fill="#000000"></path>
            <path d="M111,185.777259 C106.456752,185.777259 105.402097,184.49232 105.402097,180.698183 L105.402097,153.430766 C105.402097,149.12235 106.851277,148.222741 111,148.222741 L111,147 L95,147 L95,148.222741 C98.687409,148.415406 99.937773,149.381765 99.937773,152.852771 L99.937773,180.246103 C99.937773,184.554519 99.0819338,185.584594 95,185.777259 L95,187 L111,187 L111,185.777259 Z" id="Fill-15" fill="#000000"></path>
            <path d="M175,177.613669 L173.833551,177.613669 C169.744856,183.207237 168.576876,184.684897 164.748413,184.684897 L155.210166,184.684897 C153.328846,184.684897 152.613975,184.040127 152.613975,182.307593 L152.613975,152.66032 C152.613975,148.674884 153.717662,148.22127 157.934942,148.22127 L160.335194,148.22127 L160.335194,147 L141.194408,147 L141.194408,148.22127 L142.102157,148.22127 C146.190851,148.22127 147.228716,149.636729 147.228716,153.045665 L147.228716,181.532352 C147.228716,184.815368 146.125028,185.77873 143.140021,185.77873 L141,185.77873 L141,187 L170.005088,187 L175,177.613669 Z" id="Fill-17" fill="#000000"></path>
            <path d="M236,177.613669 L234.832073,177.613669 C230.743562,183.207237 229.575635,184.684897 225.748874,184.684897 L216.209526,184.684897 C214.329822,184.684897 213.614983,184.040127 213.614983,182.307593 L213.614983,152.66032 C213.614983,148.674884 214.71709,148.22127 218.93571,148.22127 L221.335854,148.22127 L221.335854,147 L202.19593,147 L202.19593,148.22127 L203.103638,148.22127 C207.190618,148.22127 208.228435,149.636729 208.228435,153.045665 L208.228435,181.532352 C208.228435,184.815368 207.126328,185.77873 204.141455,185.77873 L202,185.77873 L202,187 L231.003782,187 L236,177.613669 Z" id="Fill-19" fill="#000000"></path>
            <g id="Group-23" transform="translate(264.000000, 147.000000)">
                <mask id="mask-2" fill="white">
                    <use xlink:href="#path-1"></use>
                </mask>
                <g id="Clip-22"></g>
                <path d="M33.8768182,0.465839286 L33.8768182,1.703625 C39.2086364,1.96623214 40.1707576,3.07194643 40.1707576,9.31923214 L40.1707576,24.4874821 C40.1707576,35.5538393 32.7859091,38.6145179 25.5283333,38.6145179 C15.9586364,38.6145179 10.8843939,33.340875 10.8843939,24.5519821 L10.8843939,6.45819643 C10.8843939,2.681875 12.4268182,1.703625 15.9586364,1.703625 L16.5374242,1.703625 L16.5374242,0.465839286 L0.0313636364,0.465839286 L0.0313636364,1.703625 C4.3980303,1.77119643 5.55560606,2.41926786 5.55560606,6.58566071 L5.55560606,25.5947321 C5.55560606,34.9057679 11.8480303,42.0007679 24.114697,42.0007679 C38.0525758,42.0007679 43.125303,33.340875 43.125303,25.267625 L43.125303,7.691375 C43.125303,3.52651786 44.6662121,1.77119643 48.9707576,1.703625 L48.9707576,0.465839286 L33.8768182,0.465839286 Z" id="Fill-21" fill="#000000" mask="url(#mask-2)"></path>
            </g>
            <g id="Group-26" transform="translate(341.000000, 146.000000)">
                <mask id="mask-4" fill="white">
                    <use xlink:href="#path-3"></use>
                </mask>
                <g id="Clip-25"></g>
                <path d="M0.9813,32.0612607 L2.3178,41.9574036 L3.3978,41.9574036 C3.6528,41.5673321 4.0968,41.2417607 4.6698,41.2417607 C5.5593,41.2417607 10.0113,43.0001536 13.5078,43.0001536 C20.9463,43.0001536 26.4783,38.2486536 26.4783,31.866225 C26.4783,19.8891893 6.0678,17.418225 6.0678,8.17476071 C6.0678,4.52590357 8.9943,2.05493929 13.1898,2.05493929 C17.5773,2.05493929 21.6468,5.04651071 23.4258,9.73504643 L24.5073,9.73504643 L23.4258,1.465225 L22.4088,1.465225 C22.0278,1.98736786 21.7743,2.11790357 21.2643,2.11790357 C19.0398,2.11790357 17.9583,0.491582143 12.6183,0.491582143 C6.1323,0.491582143 1.2993,4.52590357 1.2993,9.93008214 C1.2993,21.3220107 21.7098,24.1861179 21.7098,33.5616536 C21.7098,38.703225 17.1948,41.2417607 12.9348,41.2417607 C7.9758,41.2417607 3.5253,37.8555107 2.1903,32.0612607 L0.9813,32.0612607 Z" id="Fill-24" fill="#000000" mask="url(#mask-4)"></path>
            </g>
            <path d="M421.70782,150.281275 L433.0625,150.281275 C435.671798,150.281275 436.846367,151.764758 437.825431,157.425376 L439,157.425376 L437.956281,147 L436.717057,147 C436.586207,147.77135 435.607143,147.964188 434.692734,147.964188 L403.307266,147.964188 C402.850062,147.964188 402.392857,147.900415 402.001847,147.77135 C401.609298,147.645323 401.349138,147.385675 401.284483,147 L400.043719,147 L399,157.425376 L400.174569,157.425376 C401.153633,151.764758 402.328202,150.281275 404.939039,150.281275 L416.29218,150.281275 L416.29218,182.078216 C416.29218,185.552329 415.117611,186.776165 411.1367,186.776165 L408.722906,186.776165 L408.722906,188 L429.277094,188 L429.277094,186.776165 L426.8633,186.776165 C422.882389,186.776165 421.70782,185.552329 421.70782,182.078216 L421.70782,150.281275 Z" id="Fill-27" fill="#000000"></path>
            <path d="M479.581904,148.340192 C480.740246,148.212339 481.576742,148.212339 482.800364,148.212339 C492.710794,148.212339 495.413086,152.802985 495.413086,158.730813 C495.413086,166.380886 490.714438,169.378644 483.573099,169.378644 C482.091392,169.378644 481.125854,169.444826 479.581904,169.2538 L479.581904,148.340192 Z M479.581904,170.461627 C480.612722,170.527809 481.4477,170.589479 482.864126,170.589479 C484.600881,170.589479 485.631699,170.527809 487.240929,170.461627 C488.784879,171.48294 491.036284,173.33454 493.869136,176.135255 L498.115379,180.345352 C503.84181,186.018981 506.736906,188.44366 518,187.933755 L518,186.783085 C513.044785,186.467215 509.118871,184.10571 505.323516,180.345352 L500.239259,175.309481 C497.215121,172.313227 495.285562,170.527809 492.903598,168.676209 C498.180659,167.149503 501.462881,163.130432 501.462881,158.348761 C501.462881,151.847854 496.12054,147 484.215273,147 C480.032792,147 478.745408,147.066182 476.106877,147.191026 C473.469865,147.318878 469.54395,147.573079 468,147.573079 L468,148.783914 L469.416426,148.783914 C473.146501,148.783914 474.242599,149.934584 474.242599,153.885968 L474.242599,180.727405 C474.242599,184.997667 472.888417,186.018981 469.093062,186.018981 L468,186.018981 L468,187.23132 L486.210111,187.23132 L486.210111,186.018981 L484.731441,186.018981 C481.125854,186.018981 479.581904,185.065354 479.581904,181.237309 L479.581904,170.461627 Z" id="Fill-29" fill="#000000"></path>
            <path d="M563.87745,167.403578 L552.741339,167.403578 L558.212961,152.405726 L563.87745,167.403578 Z M564.970863,170.237028 L569.283772,181.948928 C569.541939,182.594274 569.991453,183.558498 569.991453,184.589534 C569.991453,186.39043 568.639873,186.776119 564.970863,186.776119 L563.297334,186.776119 L563.297334,188 L581,188 L581,186.776119 C577.780505,186.776119 576.428925,186.135328 575.142645,182.724862 L561.687586,147 L556.088398,147 L556.666996,148.416725 L544.952287,180.40617 C542.893025,186.006259 542.183825,186.713862 538,186.776119 L538,188 L552.868903,188 L552.868903,186.776119 L551.840791,186.776119 C548.299347,186.776119 546.624298,186.135328 546.624298,184.396689 C546.624298,183.494722 547.462582,181.563238 547.913615,180.339358 L551.646406,170.237028 L564.970863,170.237028 Z" id="Fill-31" fill="#000000"></path>
            <path d="M626.706946,150.281275 L638.05965,150.281275 C640.670387,150.281275 641.844911,151.764758 642.823937,157.425376 L644,157.425376 L642.954782,147 L641.715605,147 C641.58476,147.77135 640.607273,147.964188 639.69136,147.964188 L608.3071,147.964188 C607.851453,147.964188 607.394266,147.900415 607.001732,147.77135 C606.610737,147.645323 606.349048,147.385675 606.285934,147 L605.045218,147 L604,157.425376 L605.174524,157.425376 C606.15355,151.764758 607.328074,150.281275 609.938811,150.281275 L621.293054,150.281275 L621.293054,182.078216 C621.293054,185.552329 620.11853,186.776165 616.137772,186.776165 L613.722532,186.776165 L613.722532,188 L634.277468,188 L634.277468,186.776165 L631.862228,186.776165 C627.88147,186.776165 626.706946,185.552329 626.706946,182.078216 L626.706946,150.281275 Z" id="Fill-33" fill="#000000"></path>
            <path d="M701.496248,160.313612 L700.279565,160.313612 C699.961054,164.044032 698.874191,165.136307 696.570646,165.136307 L685.11632,165.136307 L685.11632,149.315015 L698.617571,149.315015 C700.921116,149.315015 702.51971,150.475557 703.351462,155.938446 L704.503235,155.938446 L703.991503,147 L673.278573,147 L673.278573,148.222741 L674.686966,148.222741 C678.972527,148.222741 679.804278,149.767095 679.804278,153.36705 L679.804278,180.505518 C679.804278,184.361854 678.909126,185.777259 673.790304,185.777259 L672,185.777259 L672,187 L705.975028,187 L707,177.416809 L705.848227,177.416809 C704.248124,182.946448 702.904641,184.683468 698.424351,184.683468 L688.571638,184.683468 C686.203183,184.683468 685.11632,184.10699 685.11632,181.145712 L685.11632,167.451322 L695.930605,167.451322 C698.552661,167.451322 699.769344,167.967118 700.279565,172.530398 L701.496248,172.530398 L701.496248,160.313612 Z" id="Fill-35" fill="#000000"></path>
            <path d="M748.674644,148.49757 C749.456236,148.430126 751.217895,148.235457 753.890386,148.235457 C763.021779,148.235457 767.652865,150.511702 770.65307,153.497645 C774.499487,157.329707 775.87035,162.660872 775.87035,167.466278 C775.87035,174.158591 772.868606,179.161732 770.456134,181.502355 C766.41278,185.529086 762.760223,186.764543 754.022702,186.764543 C748.870042,186.764543 748.674644,185.854045 748.674644,183.189996 L748.674644,148.49757 Z M743.260428,182.021983 C743.260428,185.791199 741.631086,186.764543 738.107768,186.764543 L737,186.764543 L737,188 L757.869119,188 C774.370248,188 782,176.238635 782,166.430088 C782,155.706445 774.370248,147 757.152147,147 C753.761146,147 749.782412,147.067444 746.194475,147.194669 C742.609614,147.326492 739.414011,147.456782 737,147.584006 L737,148.819463 L738.306243,148.819463 C742.15266,148.819463 743.260428,149.860251 743.260428,154.081651 L743.260428,182.021983 Z" id="Fill-37" fill="#000000"></path>
        </g>
    </g>
</svg>