<?xml version="1.0" encoding="utf-8"?>
<!-- Generator: Adobe Illustrator 20.1.0, SVG Export Plug-In . SVG Version: 6.00 Build 0)  -->
<svg version="1.1" id="Layer_1" xmlns="http://www.w3.org/2000/svg" xmlns:xlink="http://www.w3.org/1999/xlink" x="0px" y="0px"
	 viewBox="0 0 560 137" style="enable-background:new 0 0 560 137;" xml:space="preserve">
<style type="text/css">
	.st0{fill:#E75DA2;}
	.st1{filter:url(#Adobe_OpacityMaskFilter);}
	.st2{fill:#FFFFFF;}
	.st3{mask:url(#mask-2);fill:#E75DA2;}
</style>
<title>Page 1</title>
<desc>Created with Sketch.</desc>
<path id="Fill-1" class="st0" d="M19.7,14.6c-0.4,0.4-0.5,0.8-0.5,1.2c0,0.5,0.3,1,0.7,1.4c0.4,0.4,0.9,0.6,1.5,0.6
	c0.5,0,1-0.2,1.4-0.5c0.4-0.3,0.5-0.8,0.5-1.3c0-0.5-0.2-1-0.6-1.4C22.1,14.2,21.6,14,21,14C20.5,14,20,14.2,19.7,14.6"/>
<path id="Fill-3" class="st0" d="M14.4,34.4c0-0.1,0-0.2,0-0.3c0-0.1,0-0.2,0-0.4c0-0.1,0-0.3,0.1-0.3c0-0.1,0.1-0.2,0.2-0.3
	c0.1-0.1,0.1-0.2,0.2-0.3c0,0,0.1-0.2,0.3-0.5c0.3-0.5,0.8-1.1,1.5-2c0.7-0.9,1.1-1.5,1.4-2c0.8-1.2,0.8-2.2,0-3
	c-0.4-0.4-0.9-0.6-1.5-0.6c-0.6,0-1.2,0.3-1.7,0.7c-0.6,0.5-1,1-1.3,1.5c-1.1,1.5-2.2,3.2-3.5,5.2c-0.2,0.4-0.4,0.9-0.6,1.5
	c-0.5,1.8-0.4,3.2,0.5,4.4c0.9,1.2,2.2,1.7,3.8,1.6c1.5-0.1,2.7-0.2,3.5-0.4c2-0.5,3.6-1.1,4.7-1.6c1.6-0.8,5.9-3,12.9-6.6
	c0.4-0.2,0.8-0.4,1.1-0.7c1-0.8,1.3-1.7,0.8-2.6c-0.2-0.4-0.5-0.7-1-0.9c-0.5-0.2-0.9-0.3-1.5-0.1c-0.7,0.2-1.5,0.5-2.5,0.9
	c-0.5,0.3-1.8,1-4,2.1c-2.2,1.2-3.9,2-5.1,2.6c-1.1,0.5-3.3,1.4-6.4,2.5c0,0-0.6,0-1.8,0.1C14.4,34.7,14.4,34.5,14.4,34.4"/>
<path id="Fill-5" class="st0" d="M35.9,26.4c-0.6-0.8-1.3-1.1-2-1.1s-1.3,0.4-1.8,1.2c-0.8,1.2-2.4,3.8-4.7,7.9
	c-0.5,0.9-0.4,1.8,0.4,2.7c0.8,0.8,1.7,1,2.7,0.5c0.6-0.3,1.5-0.9,2.5-1.6c3-2.3,6.6-4.1,10.8-5.4c0,0,0.6-0.1,1.7-0.1
	c-0.6,1.6-1,2.4-1,2.4c-0.6,1.2-0.6,2.3,0.2,3.4c0.8,1.1,1.8,1.7,3.1,1.6c2.3,0,4-0.2,5.2-0.4c3.7-0.8,7.8-2.5,12.1-5
	c1.9-1.1,4-2.5,6.3-4.1c1.1-0.8,1.4-1.6,0.9-2.6c-0.3-0.5-0.8-0.9-1.3-1.1c-0.5-0.2-1.1-0.2-1.8,0.1c-0.5,0.2-1.1,0.5-2,1.1
	c-0.3,0.2-0.9,0.6-1.8,1.2c-0.9,0.6-1.6,1-2.1,1.3c-4,2.4-7.8,4-11.4,4.9c0,0-0.6,0-1.7,0c0.4-1.1,0.6-1.7,0.6-1.8
	c0.1-0.2,0.2-0.4,0.3-0.6c0.1-0.2,0.2-0.5,0.3-0.7c0.1-0.2,0.1-0.4,0.2-0.6c0.3-1.3,0.2-2.4-0.4-3.2c-0.6-0.8-1.6-1.2-2.9-1.3
	c-1,0-1.8,0-2.6,0.3c-1.1,0.3-2.9,0.8-5.4,1.6c-0.1,0-1.2,0.4-3.3,1.1C36.3,27,35.9,26.5,35.9,26.4"/>
<path id="Fill-7" class="st0" d="M85.6,25.5c-2.2,3.5-3.4,5.5-3.6,5.9c-0.7,1.3-1.2,2.5-1.4,3.7c-0.3,1.6,0,3,0.9,4.2
	c0.9,1.1,2.3,1.7,3.9,1.6c1.1,0,2.2-0.1,3.2-0.4c2.4-0.7,4.1-1.3,5.2-1.8c0.8-0.4,1.7-0.8,2.6-1.3c0.9-0.4,1.8-0.9,2.8-1.4
	c1-0.5,1.8-0.9,2.5-1.3c0.6-0.3,1.6-0.8,2.8-1.4c1.2-0.6,2.1-1.1,2.5-1.3c0.6-0.3,1.4-0.8,2.3-1.4c0.4-0.3,0.8-0.7,1.1-1.1
	c0.7-0.8,0.7-1.6,0.2-2.5c-0.6-0.8-1.4-1.1-2.3-0.8c-0.3,0.1-0.8,0.4-1.8,0.8c-7.1,3.8-10.8,5.8-11.3,6c-1.3,0.7-4,1.7-7.9,3.2
	c-0.2,0.1-0.4,0.1-0.6,0.1c-0.2,0-0.4,0-0.7,0c-0.3,0-0.4,0-0.5,0c-0.4-0.8-0.3-1.6,0.3-2.7c0.2-0.2,0.6-0.9,1.3-2.1
	c0.7-1.2,1.3-2.1,1.7-2.8c0.4-0.7,0.9-1.3,1.4-2c0.5-0.6,0.8-1,1-1.3c0.2-0.3,0.5-0.6,0.8-0.9c0.3-0.4,0.5-0.6,0.7-0.8
	c0.2-0.1,0.3-0.3,0.5-0.5c0.2-0.2,0.4-0.3,0.6-0.3c0.2,0,0.4-0.1,0.6-0.2c0.2-0.1,0.4-0.1,0.8-0.1s0.6,0,0.8,0c0.2,0,0.6,0,1.1,0
	h1.3c1.9,0,3.6-0.1,5.3-0.2c2,0,3.2-0.1,3.6-0.1c0.8-0.1,1.4-0.4,1.9-0.9c0.5-0.5,0.7-1,0.5-1.6c-0.2-1.2-1.1-1.8-2.7-1.8
	c-0.7,0-1.8,0-3.2,0.1c-1.4,0.1-2.4,0.1-3.1,0.1c-0.1,0-0.9-0.1-2.5-0.3c-0.1-0.2-0.1-0.4-0.1-0.6c0-0.2,0.1-0.4,0.1-0.5
	c0-0.1,0.1-0.2,0.2-0.4c0.1-0.2,0.2-0.3,0.2-0.4c0-0.1,0.1-0.2,0.3-0.4c0.1-0.2,0.2-0.3,0.3-0.3c0.2-0.3,0.5-0.7,0.9-1.3
	c0.4-0.6,0.8-1.1,1-1.4c0.5-0.9,0.5-1.7-0.1-2.5c-0.3-0.4-0.7-0.6-1.2-0.7c-0.5-0.1-1,0-1.5,0.2c-0.8,0.5-1.4,1-2,1.7
	c-1.3,1.7-2.3,3.1-3,4.3c-1.1,1.9-2.8,2.8-4.9,2.5c-1.4-0.2-3.8-0.3-7.2-0.3c-1,0-2,0.1-3.2,0.3c-0.7,0.1-1.1,0.6-1.2,1.4
	c-0.1,0.9,0.3,1.6,1.1,1.9c0.5,0.2,1.1,0.4,1.9,0.4c0.5,0.1,1.4,0.2,2.5,0.3c1.1,0.1,1.9,0.1,2.4,0.2c0.1,0,0.9,0.2,2.3,0.5
	C86.3,24.5,85.8,25.4,85.6,25.5"/>
<path id="Fill-9" class="st0" d="M147.6,26c-0.2-0.4-0.5-0.7-0.9-0.9c-0.4-0.2-0.8-0.3-1.3-0.1c-0.5,0.2-1.3,0.5-2.4,1.1
	c-0.8,0.4-2.7,1.5-5.6,3.1c-2.9,1.6-5.2,2.9-6.8,3.8c-1,0.5-2.5,1.2-4.4,2c0,0-0.6,0.1-1.8,0.2c0.4-1.3,0.6-2.1,0.6-2.1
	c0.4-1.7,0.6-2.8,0.6-3.2c0-2.1-1.1-3.3-3.2-3.6c-0.1,0-1.1-0.1-3-0.3c0.1-0.3,0.2-0.6,0.3-0.8c0.1-0.2,0.3-0.4,0.5-0.6
	c0.2-0.2,0.4-0.3,0.5-0.4c0.1-0.1,0.3-0.3,0.5-0.5c0.3-0.2,0.4-0.3,0.5-0.4c3.5-2.8,6.5-6,8.9-9.7c1.2-1.8,2.1-3.4,2.7-4.9
	c0.5-1.4,0.7-2.9,0.7-4.5c-0.1-1.3-0.5-2.3-1.4-3.1c-0.8-0.8-1.9-1.2-3.2-1.3c-1.6-0.1-3.1,0.3-4.4,1.2c-2.1,1.4-3.6,2.7-4.5,3.7
	c-1.9,2.1-3.4,4.1-4.5,6.1c-0.9,1.7-2,3.6-3.1,5.7c-1.1,2.1-2.1,3.9-2.9,5.4c-0.8,1.5-1.8,3.5-3.2,6c-1.3,2.5-2.3,4.4-2.9,5.6
	c-0.3,0.6-0.6,1.2-0.8,1.8c-0.3,1.1-0.1,1.9,0.6,2.5c0.8,0.7,1.7,0.7,2.8,0.2c0,0,0.7-0.5,1.9-1.3c3.9-2.6,7.2-4.4,9.8-5.4
	c0.3-0.2,0.6-0.3,0.9-0.3c0.4,0,0.6,0.2,0.9,0.6c-0.4,0.8-0.7,1.2-0.7,1.3c-0.1,0.2-0.3,0.4-0.5,0.7c-0.2,0.3-0.4,0.6-0.5,0.8
	c-0.1,0.3-0.3,0.5-0.3,0.8c-0.6,1.3-0.6,2.5,0,3.5c0.6,1,1.6,1.5,3.1,1.6c0.9,0.1,1.5,0.1,2-0.1c2.7-0.7,4.5-1.3,5.4-1.6
	c4.2-1.8,9.8-4.8,16.8-9c0.6-0.4,1.3-0.9,2-1.7C148,27.6,148.1,26.9,147.6,26 M117.8,20.8l-1.3,0.3c0.8-2.4,2-5.1,3.7-7.9
	c1.7-2.8,3.3-4.9,4.9-6.3c0.7-0.6,1.8-1.3,3.3-2.1c0.3-0.2,0.6-0.1,0.9,0.1c0.3,0.3,0.4,0.5,0.3,0.9c-0.4,1.5-0.8,2.5-1.1,3.1
	C125.8,13.6,122.2,17.6,117.8,20.8"/>
<path id="Fill-11" class="st0" d="M174.6,26.9c-0.3-0.5-0.8-0.7-1.3-0.9c-0.5-0.1-1.1,0-1.6,0.3c-0.3,0.2-0.6,0.4-1.1,0.8
	c-0.5,0.4-0.8,0.6-1,0.7c-6.9,4.6-11.2,7.3-12.7,8.3c-2.5,1.5-4.8,2.1-6.9,1.8c0.8-0.8,1.3-1.3,1.3-1.4c2.3-2.8,3.8-4.5,4.4-5.3
	c1-1.3,1.5-2.7,1.5-4.3c0-1.3-0.4-2.4-1.1-3.2c-0.7-0.8-1.7-1.3-3-1.4c-1.8-0.2-3.6,0.3-5.4,1.3c-3.8,2.1-6.7,5.2-8.8,9.4
	c-0.5,0.9-0.8,2-0.9,3.1c-0.4,3.2,0.9,5.3,3.9,6.4c1.1,0.4,2.3,0.7,3.9,0.8c4.1,0.3,8.3-0.6,12.6-2.8c4.5-2.3,9.2-5.3,14.1-9
	c0.8-0.6,1.5-1.3,2.1-2C175.2,28.7,175.3,27.8,174.6,26.9 M144.1,36h-1.3c0.2-0.8,0.5-1.7,0.9-2.5c0.5-0.8,0.9-1.4,1.2-1.8
	c0.3-0.4,0.9-1,1.6-1.8c0.8-0.8,1.5-1.4,2.2-1.8c0.7-0.4,1.7-0.7,3-1c0,0.1,0,0.2,0,0.3c0,0.1,0,0.2,0.1,0.3c0,0.1,0,0.2,0.1,0.3
	c0,0.1,0,0.2,0,0.2C150,31.9,147.4,34.5,144.1,36"/>
<defs>
	<filter id="Adobe_OpacityMaskFilter" filterUnits="userSpaceOnUse" x="130.9" y="45.1" width="87.4" height="90.9">
		<feColorMatrix  type="matrix" values="1 0 0 0 0  0 1 0 0 0  0 0 1 0 0  0 0 0 1 0"/>
	</filter>
</defs>
<mask maskUnits="userSpaceOnUse" x="130.9" y="45.1" width="87.4" height="90.9" id="mask-2">
	<g class="st1">
		<polygon id="path-1" class="st2" points="0,14.6 559.8,14.6 559.8,136.2 0,136.2 		"/>
	</g>
</mask>
<path id="Fill-13" class="st3" d="M218.3,83.1c0-22.3-15.3-37.9-37.2-37.9c-27.6,0-50.1,23.9-50.1,52.8c0,22.3,15.2,38.1,37.1,38.1
	C195.3,136,218.3,111,218.3,83.1z M190.1,64c0,19.9-4.9,68.3-21.9,70.6c-7.1,0-9.2-7.4-9.2-17.4c0-17.5,5.1-70.8,21.9-70.8
	C188.1,46.5,190.1,54.1,190.1,64z"/>
<path class="st0" d="M130.8,74.1c1.8-11.6,3.1-29-16.1-29c-13.8,0-27.6,10.1-37.9,53.3l-0.6-0.2l5.4-24.1c2.5-11.1,4-29-15.2-29
	c-13.8,0-27.6,10.1-37.9,53.3L28,98.2l8.4-38.1c2.1-11.5-1.4-15-10.1-15c-7.4,0-18.1,3.7-23.5,6.6l0.5,0.5c4.3-1.5,6.7,1,6.3,4.4
	L1,109.7c-3.4,20.7,2.1,26.5,14.3,26.5c3.7,0,8-0.5,12.9-1.3l0.5-0.5c-5.2-2.9,0-23.9,2.6-35.6c5.7-25.1,14.7-44.5,23.3-44.5
	c3.7,0,2.8,4.9,1.7,12.8L50,108.9c-4,21.4,1.4,27.3,13.5,27.3c3.7,0,8.9-0.5,13.8-1.3l0.5-0.5c-5.2-2.9-0.9-23.9,1.7-35.6
	c5.7-25.1,14.7-44.5,23.3-44.5c3.7,0,2.8,4.9,1.7,12.8l-6.1,41.8c-3.1,21.2,7.5,27.3,20.2,27.3c3.7,0,7.5-0.5,11.2-1.3l0.5-0.5
	c-6.7-2.9-5.4-21.8-3.1-36.3L130.8,74.1z"/>
<path class="st0" d="M347.7,74.1c1.8-11.6,3.1-29-16.1-29c-13.8,0-27.6,10.1-37.9,53.3l-0.6-0.2l5.4-24.1c2.5-11.1,4-29-15.2-29
	c-13.8,0-27.6,10.1-37.9,53.3l-0.6-0.2l8.4-38.1c2.1-11.5-1.4-15-10.1-15c-7.4,0-18.1,3.7-23.5,6.6l0.5,0.5c4.3-1.5,6.7,1,6.3,4.4
	l-8.6,53.1c-3.4,20.7,2.1,26.5,14.3,26.5c3.7,0,8-0.5,12.9-1.3l0.5-0.5c-5.2-2.9,0-23.9,2.6-35.6c5.7-25.1,14.7-44.5,23.3-44.5
	c3.7,0,2.8,4.9,1.7,12.8l-6.1,41.8c-4,21.4,1.4,27.3,13.5,27.3c3.7,0,8.9-0.5,13.8-1.3l0.5-0.5c-5.2-2.9-0.9-23.9,1.7-35.6
	c5.7-25.1,14.7-44.5,23.3-44.5c3.7,0,2.8,4.9,1.7,12.8l-6.1,41.8c-3.1,21.2,7.5,27.3,20.2,27.3c3.7,0,7.5-0.5,11.2-1.3l0.5-0.5
	c-6.7-2.9-5.4-21.8-3.1-36.3L347.7,74.1z"/>
<path class="st0" d="M510.6,74.1c1.8-11.6,3.1-29-16.1-29c-13.8,0-29.1,10.1-39.4,53.3l-0.6-0.2l8.4-38.1c2.1-11.5-1.4-15-10.1-15
	c-7.4,0-18.1,3.7-23.5,6.6l0.5,0.5c4.3-1.5,6.7,1,6.3,4.4l-8.6,53.1c-3.4,20.7,2.1,26.5,14.3,26.5c3.7,0,8.9-0.5,13.8-1.3l0.5-0.5
	c-5.2-2.9-0.9-23.9,1.7-35.6c5.7-25.1,16.2-44.5,24.8-44.5c3.7,0,2.8,4.9,1.7,12.8l-6.1,41.8c-3.1,21.2,7.5,27.3,20.2,27.3
	c3.7,0,7.5-0.5,11.2-1.3l0.5-0.5c-6.7-2.9-5.4-21.8-3.1-36.3L510.6,74.1z"/>
<path class="st0" d="M549.2,46.3l4.8-31.7h-1.7c-5.9,9.9-16.1,16.7-26.8,16.7c-0.3,0-0.6,0-0.9-0.1l-0.5,0.6L522,46
	c-4.8,0.4-6.9,0.3-6.9,0.3l-0.5,2.7h7l-8.7,59.8c-3,21,7.4,27.4,20,27.4c3.6,0,7.4-0.5,11.1-1.3l0.5-0.5c-6.7-2.8-5.3-21.8-3-36.2
	l7.4-49.2h10.6l0.5-2.7L549.2,46.3z"/>
<path class="st0" d="M429,64c0-15.7-17.5-18.9-29.4-18.9c-29.1,0-51.5,26-51.5,54.8c0,22.6,13.2,36.2,31.7,36.2
	c17.8,0,34-12.6,43.7-30.2l-0.9-0.5c-7.2,9.3-16.6,12-23.6,12c-17,0-22.8-15.7-21.9-33.6c0.9-17,9.4-37.4,21.2-37.4
	c5.2,0,8.9,4.4,8.9,11c0,12-8.1,25-28.8,23.8l-0.2,0.7C415.8,92.8,429,76.5,429,64z"/>
</svg>
