<?xml version="1.0" encoding="UTF-8"?>
<svg width="701px" height="347px" viewBox="0 0 701 347" version="1.1" xmlns="http://www.w3.org/2000/svg" xmlns:xlink="http://www.w3.org/1999/xlink">
    <!-- Generator: Sketch 48.2 (47327) - http://www.bohemiancoding.com/sketch -->
    <title>Lonely Planet blk</title>
    <desc>Created with Sketch.</desc>
    <defs></defs>
    <g id="Logos" stroke="none" stroke-width="1" fill="none" fill-rule="evenodd">
        <g id="Lonely-Planet-blk" fill="#000000" fill-rule="nonzero">
            <path d="M349.54201,19.953247 C414.431464,19.8419985 472.248525,61.1082092 493.523888,122.718528 L502.289951,119.678635 L511,116.582448 C487.63609,46.9534924 422.695072,0.0510129955 349.580387,4.15839995e-05 C276.465702,-0.0509298275 211.460003,46.7609581 188,116.35727 L205.364086,123 C226.91497,61.4722602 284.639639,20.2153216 349.54201,19.953247 Z" id="Shape"></path>
            <path d="M230.194292,190.619271 L209.236973,187.447803 C198.618225,195.502771 186.514533,191.320924 182.676093,180.627742 L233.612464,180.627742 L233.612464,213.82993 L258.828489,213.82993 L258.828489,196.765746 C260.634926,204.556228 266.568661,210.722259 274.274282,212.816217 C281.979903,214.910174 290.210886,212.593322 295.699921,206.785341 C295.766853,210.72295 295.247487,214.64856 294.158942,218.43277 C290.376538,227.582316 277.684472,227.582316 271.100288,221.463908 L256.166798,240.77338 C264.829836,248.311151 276.212879,251.936039 287.630793,250.792975 C297.773239,249.782596 304.217334,247.986366 311.950249,240.997909 C317.612259,234.956488 320.836705,227.02648 321,218.741497 L321,136.367513 L296.120189,136.367513 L296.120189,183.51855 C296.276274,185.84949 295.1234,188.073483 293.130226,189.286447 C291.137052,190.49941 288.635401,190.49941 286.642227,189.286447 C284.649053,188.073483 283.49618,185.84949 283.652265,183.51855 L283.652265,136.367513 L258.800471,136.367513 L258.800471,106 L233.584446,106 L233.584446,160.616618 C225.431265,143.159507 210.049489,134.150292 190.773239,136.872703 C177.630303,139.198176 166.632088,148.186148 161.718775,160.616618 C156.92773,145.236398 145.608536,137.097231 129.806494,136.255249 C112.99581,136.255249 100.61194,144.478614 95.5687353,160.616618 C87.1633936,141.980732 70.3527101,132.999582 50.0958366,137.574355 C38.9911811,140.566247 29.8406439,148.442253 25.2160251,158.988784 L25.2160251,106 L0,106 L0,213.82993 L25.2160251,213.82993 L25.2160251,189.69309 C31.4401185,203.61468 45.2911123,212.534236 60.5184603,212.426626 C77.6373396,211.416246 88.536266,203.277079 95.5407175,188.065257 L95.5407175,213.886063 L119.916208,213.886063 L119.916208,167.240216 C120.840796,157.08029 136.278607,156.771563 137.203195,167.240216 L137.203195,213.82993 L161.662739,213.82993 L161.662739,189.468561 C166.529003,201.35221 176.886407,210.103056 189.400367,212.903749 C218.538885,215.654226 230.026185,195.643102 230.194292,190.619271 Z M59.6218905,190.170214 C53.1260341,190.18157 47.2634958,186.270556 44.76978,180.26208 C42.2760642,174.253604 43.6426692,167.331907 48.2319271,162.726702 C52.8211849,158.121498 59.7285765,156.740449 65.7310613,159.227964 C71.7335462,161.715479 75.6480655,167.581281 75.6480754,174.088342 C75.6480889,182.959166 68.4774382,190.154732 59.6218905,190.170214 Z M213.299555,170.860742 L182.115737,170.860742 C183.980792,163.774661 190.378014,158.836982 197.693637,158.836982 C205.00926,158.836982 211.406482,163.774661 213.271537,170.860742 L213.299555,170.860742 Z" id="Shape"></path>
            <path d="M349.429984,327.577095 C285.012518,328.010326 227.323652,287.816625 205.476112,227.279769 L196.710049,230.217348 L188,233.21088 C212.336223,301.391024 276.940064,346.937172 349.401353,346.999935 C421.862642,347.062698 486.545453,301.628532 511,233.49065 L493.635914,227 C471.490891,287.458318 413.876536,327.641717 349.429984,327.577095 Z" id="Shape"></path>
            <path d="M700.998057,204.52519 L700.072232,183.27082 L698.921964,184.277606 C696.911581,186.053038 694.192931,186.806567 691.551709,186.32042 C688.910487,185.834273 686.641063,184.162633 685.399305,181.788608 C682.986548,174.601275 684.249037,166.854616 684.249037,159.219823 L699.763623,159.219823 L699.763623,136.595106 L684.249037,136.595106 L684.249037,121.157722 L659.728697,121.157722 L659.728697,160.310508 C655.818972,150.483543 648.012414,142.70176 638.154164,138.804442 C617.140737,131.365412 597.053136,140.118857 587.822939,160.310508 C584.986979,150.480009 577.869337,142.440317 568.43672,138.412914 C548.124676,131.30948 528.570126,139.727329 521.500188,160.310508 C515.889126,147.390088 507.837252,140.594283 493.977929,136.79087 C476.325837,133.154743 458.513832,142.253553 451.165527,158.660498 L451.165527,106 L425.915749,106 L425.915749,158.800329 C423.105552,152.850291 418.969892,147.61821 413.823911,143.502776 C387.816639,124.709439 353.617217,143.502776 353,175.048735 L353,242 L378.249778,242 C378.249778,235.260127 377.46423,209.055727 377.46423,209.055727 L380.269761,210.230311 C399.207094,215.012544 418.509147,205.50401 425.887694,190.653917 L425.887694,213.362533 L451.137472,213.362533 L451.137472,190.653917 C458.431852,206.091302 472.375341,214.984577 489.657412,213.754061 C497.653175,214.257454 504.330339,193.198848 504.358394,199.0438 L504.358394,213.754061 L521.191579,213.754061 L545.852196,213.362533 L545.852196,167.022414 C545.852196,157.374049 561.759557,156.535061 562.685382,166.407156 C562.881769,181.592844 562.853714,198.540407 562.853714,213.446432 L587.766829,213.446432 L587.766829,189.171705 C591.671548,198.72257 599.160197,206.37809 608.639979,210.509973 C628.72758,217.026116 649.684896,213.83796 657.540383,189.423401 L636.358624,186.011516 C631.477,193.282747 614.082709,194.848859 608.583868,180.41826 L659.728697,180.41826 C659.728697,192.415793 659.953139,201.504832 670.950821,209.391322 C681.948502,217.277812 701.2225,209.643019 700.998057,204.52519 Z M392.109101,190.290356 C383.246236,190.290356 376.061464,183.128385 376.061464,174.293646 C376.061464,165.458907 383.246236,158.296936 392.109101,158.296936 C400.971966,158.296936 408.156738,165.458907 408.156738,174.293646 C408.125955,183.115643 400.959184,190.25967 392.109101,190.290356 Z M485.785779,190.290356 C476.922914,190.290356 469.738142,183.128385 469.738142,174.293646 C469.738142,165.458907 476.922914,158.296936 485.785779,158.296936 C494.648644,158.296936 501.833416,165.458907 501.833416,174.293646 C501.817973,183.122001 494.64224,190.274962 485.785779,190.290356 Z M608.443592,169.343615 C610.337986,162.404106 616.659261,157.588447 623.874012,157.588447 C631.088763,157.588447 637.410037,162.404106 639.304432,169.343615 L608.443592,169.343615 Z" id="Shape"></path>
        </g>
    </g>
</svg>