<?xml version="1.0" encoding="utf-8"?>
<!-- Generator: Adobe Illustrator 20.1.0, SVG Export Plug-In . SVG Version: 6.00 Build 0)  -->
<svg version="1.1" id="Layer_1" xmlns="http://www.w3.org/2000/svg" xmlns:xlink="http://www.w3.org/1999/xlink" x="0px" y="0px"
	 viewBox="0 0 869 229" style="enable-background:new 0 0 869 229;" xml:space="preserve">
<style type="text/css">
	.st0{filter:url(#Adobe_OpacityMaskFilter);}
	.st1{fill:#FFFFFF;}
	.st2{mask:url(#mask-2);}
</style>
<title>LPQ</title>
<desc>Created with Sketch.</desc>
<g id="Logos">
	<g id="LPQ">
		<g id="Clip-2">
		</g>
		<defs>
			<filter id="Adobe_OpacityMaskFilter" filterUnits="userSpaceOnUse" x="0" y="0" width="869" height="229">
				<feColorMatrix  type="matrix" values="1 0 0 0 0  0 1 0 0 0  0 0 1 0 0  0 0 0 1 0"/>
			</filter>
		</defs>
		<mask maskUnits="userSpaceOnUse" x="0" y="0" width="869" height="229" id="mask-2">
			<g class="st0">
				<polygon id="path-1" class="st1" points="0,0 869,0 869,229 0,229 				"/>
			</g>
		</mask>
		<path id="Fill-1" class="st2" d="M575.1,5.9l6.9,19.3l-13.3,15.6L548.6,37l-6.9-19.3L555,2.2L575.1,5.9z M270.1,26.7l-0.1-1.6
			v-1.2c0-0.2,0-0.4,0-0.6c0-0.2,0-0.5,0-0.7l0.1-2.8c0-0.5,0.1-1,0.1-1.8c0-0.8,0-1.2,0-1.5l0.1-1.4v-1.1c0-0.1,0-0.5,0.1-0.9v-0.9
			c0.1-0.9,0.2-1.5,0.3-2.1c0.1-0.4,0.1-0.8,0.3-1.2c0.1-0.3,0.3-0.7,0.5-1.3c0.3-0.7,0.8-1.4,1.4-1.9c0.5-0.5,1.1-0.8,1.8-0.9
			c0.1,0,0.3,0,0.4,0c0.2,0,0.4,0,0.6,0c0.4,0,0.7,0.1,1,0.4c0.6,0.5,1.1,1.1,1.6,1.8c0.9,1.2,1.5,2.5,1.7,3.9
			c0.4,1.9,0.6,3.8,0.6,5.7c0.1,0.2,0.1,0.5,0.1,0.7v0.5c0,0.1,0,0.3,0,0.4c0,0.1,0,0.2,0,0.4v0.4c0,0.1,0,0.2,0,0.4v1.3V22v4.2
			c0,1.5,0,3.1-0.2,4.6c0.1,0.2,0.1,0.3,0.1,0.5v0.3c0,0.1,0,0.1,0,0.2v0.5c0,0.7-0.1,1.1-0.1,1.4c0,0.2,0,0.8-0.1,1.3
			c-0.1,0.5-0.1,0.8-0.1,0.8c0,0.2-0.1,0.5-0.1,0.9c0,0.1,0,0.2,0,0.3l-0.1,0.3c-0.2,0.4-0.4,0.8-0.6,1.1c-0.3,0.4-0.6,0.7-0.9,0.9
			c-0.4,0.2-0.8,0.4-1.2,0.6c-0.3,0.1-0.7,0.2-1,0.2h-1.6c-0.4-0.1-0.7-0.2-1.1-0.3c-0.1-0.1-0.3-0.2-0.5-0.2l-0.5-0.2
			c-1.1-1-1.8-2.4-2.1-3.9c0-0.1,0-0.4-0.1-0.9c-0.1-0.5-0.2-1.1-0.2-1.6c0-0.5-0.1-0.9-0.1-1.1v-2.2v-2.1L270.1,26.7z M272.7,27.8
			c-0.1,2.1,0,4.2,0.2,6.3c0.1,0.4,0.2,0.8,0.4,1.3c0.1,0.4,0.3,0.7,0.5,1c0.2,0.3,0.5,0.5,0.8,0.6c0.3,0.1,0.7,0.1,1,0.1
			c0.3,0,0.6-0.1,0.9-0.3c0.6-0.5,1-1.1,1.1-1.8c0.2-0.5,0.3-1.1,0.3-1.6c0.1-0.4,0.1-0.9,0.1-1.3v-1.3v-0.3v-6.8v-6.2v-1.2
			c0.1-2-0.3-4-0.9-5.9l-0.3-0.6c-0.1-0.2-0.2-0.3-0.3-0.5c-0.1-0.2-0.2-0.3-0.4-0.4c-0.3-0.3-0.7-0.5-1.1-0.5
			c-0.4,0.1-0.7,0.3-0.9,0.6c-0.3,0.4-0.5,0.8-0.7,1.3c-0.1,0.8-0.2,1.3-0.2,1.4c0,0.4-0.1,0.8-0.2,1.1c0,0.1,0,0.2,0,0.3v0.2
			c0,0.2,0,0.3,0,0.5c0,0.1,0,0.2-0.1,0.3c0,0.2,0,0.7-0.1,1.6c0,0.3,0,0.9-0.1,1.6V19c0,0.8-0.1,1.4-0.1,1.9l-0.1,2.1v0.7v1.4v2.7
			L272.7,27.8z M667.6,49.4c-15.9,0-28.8,6.2-39.3,18.8v-16H593v138.1h35.3v-77.7c0-18.7,10.9-30.8,27.7-30.8
			c16.8,0,26.2,10.7,26.2,30.2v78.2h35.3v-87.2C717.5,69.9,698.4,49.4,667.6,49.4L667.6,49.4z M394.9,190.4h35.3V0h-35.3V190.4z
			 M869,52.2v106.2c0,22.8-5.9,40.3-17.6,52C839,222.7,820,229,794.9,229c-22.2,0-43.2-5.6-60.8-16.3l-1.9-1.1l13.5-27.3l2.2,1.4
			c15.1,9.4,29.7,13.8,46.2,13.8c26.1,0,39.8-13.4,39.8-38.6v-1.5c-12.4,13.9-26.7,20.4-44.6,20.4c-30.5,0-63-22.7-63-64.8v-0.5
			c0-42.3,32.4-65,63-65c22,0,35.6,9.8,44.4,18.9V52.2H869L869,52.2z M834.2,114.4c0-19.7-15.8-34.5-36.8-34.5
			c-20.6,0-35.5,14.4-35.5,34.3v0.5c0,20,14.9,34.5,35.5,34.5c20.6,0,36.8-15.1,36.8-34.3V114.4z M234.2,8.3v2.1
			c0,0.1,0.1,0.5,0.1,1.1c-0.1,0.4-0.1,0.8-0.1,1.2v0.7v2v1.9v1.9c0,0.3,0,0.6,0,0.9V21v1.4v0.3v0.7v1v3.3v3.4v3c0,0.2,0,0.5,0,0.7
			v1.5c0,0.1,0,0.3,0.1,0.4v0.5c0,0.4-0.1,0.6-0.1,0.8v1.2c0.3,0.3,0.8,0.4,1.2,0.3c1.3,0,1.9-0.2,1.9-0.4v-0.4c0-0.1,0-0.3,0-0.4
			c0-0.1,0-0.2,0-0.2V38c0-0.1,0-0.3-0.1-0.6c0-0.2,0-0.5,0-0.7V36c0-0.2,0-0.3,0-0.5v-3.2V30v-0.9v-2.9v-2.2c0.4,0,0.6-0.1,0.7-0.1
			h0.2c0.3,0.1,0.7,0.1,1,0.1h1.1c0.4,0,0.8,0,1.1,0c0,0.2,0,0.4,0,0.6v1.1v0.9v2.1c0.1,0.3,0.1,0.5,0.1,0.8l-0.1,1.5
			c0,0.3,0,0.7,0,1.1v1.8v1.1c0,1.4,0.1,2.3,0.1,2.7v0.8c0,0.2,0,0.5,0.1,0.7c0.2,0.2,0.5,0.3,0.8,0.4c0.5,0,0.9,0,1.4-0.2h0.1
			c0.3,0,0.5-0.1,0.5-0.3c0-0.1,0-0.2,0-0.4v-0.5l-0.2-9.8c0-0.9,0.1-2.1,0.1-3.7v-3.2v-7.4v-2.5c0-0.3,0-0.5,0-0.8v-0.7V9.9
			c0-0.2,0-0.4,0-0.5V8.6c0-0.1,0-0.3,0-0.4V7.7l0.1-2.1c-0.2-0.2-0.4-0.4-0.7-0.4c-0.4-0.1-0.9-0.2-1.3-0.2h-0.2
			c-0.4,0-0.6,0-0.6,0.2c0,0.4,0,1.1-0.1,1.9V8c0,0.3,0,0.5,0,0.8v1.5c0,0.2,0,0.5,0,0.7c0,0.2,0,0.5,0,0.7v9.5l-0.8-0.1h-2.3h-0.8
			h-0.6v-0.9c0-0.2,0-0.4-0.1-0.5c0-0.2,0-0.3,0-0.5c0-0.2,0-0.3,0.1-0.5v-1.4v-5.7V8.7V7.8v-1c0-0.3,0-0.7,0-1.1
			c0-0.1-0.2-0.2-0.6-0.2c-0.2-0.1-0.4-0.1-0.7-0.1c-0.4,0-0.7,0.1-1,0.2h-0.2c-0.2,0-0.4,0-0.5,0.1c0,0.1,0,0.2,0,0.3
			c0,0.1,0,0.2-0.1,0.3c0,0,0,0.1,0,0.1v0.1c0,0.1,0,0.3-0.1,0.4c0,0.1,0,0.2,0,0.4c0,0.2,0,0.4,0,0.6L234.2,8.3z M222.1,23v1.7
			c0,0.4,0,0.9,0.1,1.5s0.1,1.1,0.1,1.5v0.4V30c0,1.4,0.1,2.9,0.3,4.3c0.2,1.2,0.7,2.3,1.4,3.2c0.7,0.9,1.7,1.6,2.8,1.8
			c0.4,0,0.8,0,1.3,0c0.3,0,0.7,0,1-0.2c0.8-0.1,1.4-0.8,1.9-2.3c0.3-0.8,0.4-1.2,0.4-1.4c0.3-1.3,0.4-2.6,0.4-3.9v-2.5h-0.2
			c-0.1,0-0.3,0-0.5-0.1c-0.2,0-0.4,0-0.5,0c-0.1,0-0.2,0-0.3,0c-0.1,0-0.2,0-0.2,0c-0.2,0-0.5,0.1-0.6,0.3
			c-0.1,0.6-0.2,1.1-0.1,1.7v0.6c0,0.2,0,0.5,0,0.7V33c0,0.2,0,0.4,0,0.6c0,0.4-0.1,0.8-0.2,1.1c0,0.4-0.2,0.8-0.5,1.1
			c-0.2,0.3-0.5,0.5-0.9,0.5c-0.3,0-0.6,0-0.9-0.1c-0.2-0.1-0.5-0.2-0.6-0.4c-0.1-0.2-0.2-0.4-0.3-0.5c0-0.1-0.1-0.4-0.2-0.8
			c-0.1-0.4-0.1-0.7-0.2-0.8c-0.1-0.3-0.1-0.5-0.1-0.8c0-0.4,0-0.6-0.1-0.8v-0.4c0-0.3,0-0.6,0-0.9c0-0.3-0.1-0.6-0.1-0.9v-0.8
			c0-0.8-0.1-1.4-0.1-1.9c0-0.7-0.1-1.7-0.1-3s0-2.3-0.1-2.7v-2v-1c0-0.3,0-0.7,0-1v-6c0-0.1,0-0.2,0-0.3c0-0.5,0.1-0.9,0.2-1.4
			c0.1-0.4,0.1-0.8,0.3-1.1c0.1-0.4,0.3-0.7,0.6-1c0.3-0.2,0.6-0.3,0.9-0.3c0.7,0.1,1.3,0.6,1.6,1.2c0.5,0.9,0.7,1.8,0.7,2.8V13
			c0,0.1,0,0.1,0,0.2c0,0.1,0,0.1,0,0.2c0.3,0.2,0.6,0.2,0.9,0.2h0.5c0.9,0,1.3-0.2,1.3-0.7v-0.2c0,0,0-0.1,0-0.1v-1.1
			c0-1.5-0.4-3-1.1-4.3c-0.6-1.2-1.8-2-3.1-2.3c-0.3-0.1-0.6-0.2-0.9-0.2h-0.4c-0.2,0.1-0.3,0.1-0.5,0.1c-0.2,0-0.5,0.1-0.7,0.2
			c-1.1,0.5-1.9,1.5-2.2,2.6c-0.5,1.9-0.8,3.9-0.8,5.9v1.1c0,0.3,0,0.5,0,0.8v0.5c0,0.9,0,2.1,0.1,3.7s0.1,2.6,0.1,3.2L222.1,23z
			 M246.4,5.7V6c0,0.1,0,0.3,0.1,0.7l0.6,4.9c0.2,1,0.3,1.6,0.4,1.8v0.3c0,0.1,0,0.2,0,0.3c0,0.4,0,0.8,0.2,1.1
			c0,0.5,0.1,1.2,0.3,2.1l1,7.6c0.1,0.8,0.2,1.4,0.2,1.7l0.1,0.8c0,0.2,0,0.5,0,0.7l0.2,1.1l0.1,0.8c0.3,3.1,0.6,5.4,0.9,6.9
			c0.1,0.6,0.2,1,0.2,1.1c0.1,0.3,0.2,0.6,0.3,0.8c0.2,0.1,0.4,0.2,0.6,0.2c0.2,0,0.4,0,0.6,0c0.2,0,0.5,0,0.7,0h0.3
			c0.3,0,0.5,0,0.8,0c0.2,0,0.5,0,0.7,0c0.3,0,0.6,0,0.8-0.1c0.2-1.1,0.4-2.2,0.5-3.3l0.1-1.4c0.1-0.9,0.1-1.4,0.2-1.5
			c0-0.6,0-1.2,0.1-1.7l0.1-1.8c0.1-1.1,0.3-3.4,0.6-6.9s0.4-5.7,0.5-6.9c0.2,1.1,0.5,3.7,0.8,7.8c0.4,4.1,0.5,6.3,0.5,6.6
			c0.4,3,1.1,5.9,2.1,8.8c0.1,0.2,0.4,0.4,0.6,0.5c0.5,0.1,0.9,0.2,1.4,0.2l0.4-0.1c0.2,0,0.4-0.1,0.5-0.1c0,0,0.1,0,0.1,0h0.1
			c0.2-0.1,0.4-0.2,0.6-0.3c0.1-0.4,0.2-0.8,0.3-1.2c0.1-0.4,0.2-0.8,0.3-1.2c0.6-3.3,1.2-8.3,1.8-14.9l0.2-2c0-0.2,0-0.6,0.1-1.1
			s0-0.8,0-0.9s0-0.5,0.1-0.9c0.1-0.5,0-0.7,0.1-1c0.1-1.7,0.3-3.8,0.5-6.3c0-0.4,0-0.8,0-1.1V7.9c0-0.2,0.1-0.3,0.1-0.5
			c0-0.1,0-0.3,0-0.4c0-0.1,0-0.3,0-0.4c0-0.2,0.1-0.3,0.1-0.4c0-0.1,0-0.2-0.1-0.3c0,0,0-0.1,0.1-0.1c0.1,0,0-0.1,0-0.1
			c-0.2-0.2-0.4-0.3-0.7-0.3c-0.7,0-1.1-0.1-1.4-0.1c-0.3,0-0.6,0.1-0.8,0.3c-0.4,2.9-0.7,4.9-0.8,6.1c-0.1,1-0.2,1.8-0.3,2.4v0.7
			c0,0.4,0,0.9-0.1,1.3c0,0.5-0.1,1.1-0.1,2l-0.1,1c0,0.3,0,0.6,0,0.9c0,0.1,0,0.3,0,0.4v0.9c0,0.2,0,0.3,0,0.5
			c-0.2,0.5-0.3,1-0.3,1.5l-0.2,2.8l-0.2,2.7c0,0.7-0.1,1.4-0.2,1.9l-0.1,0.7c0,0.2,0,0.4,0,0.6v0.2c0,0.1,0,0.3,0,0.4V33
			c-0.1,0.1-0.1,0.2-0.1,0.3c0,0.1,0,0.3-0.1,0.4v0.1c0,0,0,0.2-0.1,0.4c0,0,0,0.1,0,0.1c0,0-0.1-0.1-0.1-0.2c0-0.2-0.1-0.3-0.1-0.5
			c0,0,0-0.1-0.1-0.3c0-0.1,0-0.2-0.1-0.4c0-0.4,0-0.8-0.1-1.1c0-0.4,0-0.8-0.1-1.2c-0.1-0.6-0.3-2.1-0.5-4.2
			c-0.2-2.1-0.5-3.8-0.6-5.1l-0.2-1.7c-0.1-0.8-0.2-1.3-0.2-1.5c0-0.6-0.1-1.1-0.2-1.7c-0.1-0.2-0.1-0.5-0.1-0.7
			c0-0.3,0-0.6-0.1-0.8c-0.3-1.6-0.5-2.8-0.7-3.6c-0.3-1.2-0.5-2.4-0.5-3.7V7.4c0-0.2-0.6-0.4-1.8-0.4c-0.4-0.1-0.8,0-1.1,0.3
			l-0.3,1.5c-0.1,0.6-0.2,1.3-0.2,2c0,0.4-0.1,1.5-0.2,3.3c-0.1,1.5-0.2,2.6-0.3,3.3l-0.2,3.1c-0.7,8.5-1.1,12.8-1.4,12.8
			c-0.2-0.2-0.3-0.5-0.3-0.7c-0.1-0.3-0.3-2.1-0.6-5.4l-0.2-1.9c-0.1-0.3-0.1-0.6-0.1-0.9c0-0.4-0.1-0.8-0.2-1.1v-0.3
			c0-0.6,0-1.2-0.1-1.7l-0.5-4.1c0-0.2-0.1-0.5-0.1-1c-0.1-0.5,0-0.8-0.1-1c-0.1-0.4-0.1-0.8-0.2-1.1l-0.1-0.7
			c0-0.8-0.1-1.4-0.2-1.8c-0.2-2.1-0.5-4.1-0.9-6.1c-0.2-0.2-0.4-0.3-0.6-0.2c-0.1,0-0.2,0-0.3,0c0,0-0.1,0-0.1,0h-0.1
			c-0.4,0-0.8,0.1-1.2,0.3C246.6,5.3,246.4,5.4,246.4,5.7L246.4,5.7L246.4,5.7z M282.9,18.3v-1.4v-1c0-0.2,0-0.5,0-0.7
			c0-0.1,0-0.2,0-0.4v-3c-0.1-2.1,0-4.1,0.2-6.2c0-0.4,0.6-0.2,0.7-0.3c0.3,0,0.6,0,0.9,0h0.8c0.2,0,0.5,0,0.7,0
			c0.6,0,1.1,0.1,1.7,0.2c0.4,0.2,0.9,0.4,1.3,0.6c0.3,0.2,0.6,0.4,0.8,0.6c0.2,0.2,0.4,0.5,0.6,0.7c0.9,1.5,1.3,3.2,1.3,5
			c0.1,1.3,0.2,2.6,0.1,3.8v0.9v1.3c0,0.5-0.1,0.9-0.1,1.5c0,0.4-0.1,0.8-0.1,1.1c0,0.4-0.1,0.8-0.2,1.1c0,0.3-0.1,0.5-0.2,0.8
			c-0.1,0.2-0.2,0.5-0.4,0.6c-0.1,0.2-0.2,0.3-0.4,0.4c-0.2,0.2-0.4,0.4-0.6,0.5c-0.3,0.3-0.5,0.5-0.6,0.5l0.9,1.1
			c0.1,0.1,0.2,0.4,0.5,0.7c0.1,0.2,0.3,0.4,0.4,0.6l0.3,0.5c0.1,0.2,0.2,0.4,0.2,0.7c0,0.2,0.1,0.4,0.2,0.8
			c0.1,0.4,0.1,0.8,0.1,1.1c0,0.4,0,0.9,0.1,1.4c0.1,0.5,0,1.1,0,1.9l0.1,3.4v1c0,0.1,0,0.2,0,0.4c0,0.1,0,0.2,0,0.3
			c-0.2,0.2-0.5,0.3-0.8,0.4H291c-0.2,0-0.4-0.1-0.5-0.1c-0.1,0-0.3,0-0.4,0c-0.5,0-0.7-0.1-0.7-0.2v-2.4v-2v-0.7
			c0-1.1-0.1-2.1-0.2-3.1c-0.2-1-0.5-2-0.9-2.9c-0.2-0.7-0.9-1.3-1.6-1.5c-0.1,0-0.2-0.1-0.3-0.1c-0.1,0-0.2-0.1-0.3-0.1h-0.1
			c0,0-0.1,0-0.1,0c-0.1,0.1-0.1,0.2-0.1,0.4c0,0.2,0,0.4,0,0.6c0,0.3,0,0.7,0,1.1v1.6v2.4v4c0,0.7,0,1.2,0.1,1.5
			c0,0.2,0,0.4-0.1,0.5c0,0.3-0.3,0.4-0.9,0.5c-0.4,0.1-0.7,0.1-1.1,0.1c-0.3,0-0.6,0-0.8-0.2v-5.7v-2V31c0-0.3,0-0.5,0-0.8
			c0-0.2,0-0.5-0.1-1v-1.4c0-0.1,0-0.2,0-0.3v-0.2c0-0.3,0-0.7,0-1v-1.3v-3.1L282.9,18.3L282.9,18.3z M285.5,9.5c0,0.1,0,0.2,0,0.3
			v2.4c0,1.3,0.1,2.4,0.1,3.3v1.3c0,0.4,0,0.9,0,1.3v3v1.3c0,0.5,0.1,1,0.3,1.4c0,0,0.1,0,0.1,0h0.1c0.6,0,1.2-0.2,1.8-0.5
			c0.7-0.8,1.1-1.8,1.1-2.8c0.3-1.4,0.4-2.9,0.4-4.3c0-1.5-0.1-3.1-0.4-4.6c-0.1-0.9-0.4-1.8-0.8-2.6c-0.1-0.1-0.2-0.3-0.4-0.4
			c-0.2-0.2-0.3-0.3-0.3-0.4C287,8,286.4,7.9,285.8,8c-0.1,0-0.2,0.1-0.2,0.2C285.5,8.6,285.4,9,285.5,9.5L285.5,9.5z M328.2,33.7
			l1.9,1.5c-0.2,2.1-1,4-2.7,4c-1.4,0-2-0.9-2.9-2.4c-1.3,1.8-3.3,2.8-5.5,2.9c-4.2,0-6.9-5.2-6.9-10.6c0-4.2,1.8-8.2,4.6-9.8
			c-1.3-2.3-2-4.9-2.1-7.5c0-3.9,2.6-6.4,5.2-6.4c2,0,3.6,1.5,4.7,3.6l-1.8,2.5c-0.8-1.3-1.7-3-3.1-3s-2.4,1.5-2.4,3.4
			c0.2,2.5,1,4.9,2.4,7l1.4,2.4c1.7,2.8,3,5.8,3.9,9c0.5-2.6,0.8-5.2,0.8-7.9h4.3v3.1h-2c-0.1,3-0.8,6-1.9,8.7
			c0.2,0.6,0.7,1.8,1.1,1.8c0.5,0,0.7-1.9,0.8-2.4L328.2,33.7z M323.4,33.9l-0.4-1.4c-0.5-2.1-1.3-4.1-2.2-6l-2.6-4.7
			c-2.3,1.1-3.4,4.1-3.4,7.4c0,3.7,1.5,7.5,4.5,7.5C320.9,36.7,322.3,35.5,323.4,33.9L323.4,33.9z M494.6,10.6h-35.3v41.5h-16.9v31
			h16.9V151c0,27.6,13.7,41.5,40.7,41.5c11,0,20.1-2.3,28.7-7.1l1.1-0.7v-30.1l-3.4,1.7c-5.5,2.9-11.7,4.3-17.9,4.3
			c-9.7,0-14.1-4.4-14.1-14.3V83.2h35.9v-31h-35.9L494.6,10.6L494.6,10.6z M348.6,5.8l-6.9,19.3L355,40.7l20.1-3.7l6.9-19.3
			L368.7,2.2L348.6,5.8z M292.5,129.8c0,18.7-10.9,30.7-27.7,30.7c-16.8,0-26.2-10.7-26.2-30.2V52.2h-35.3v87.3
			c0,33.2,19.1,53.7,49.8,53.7c15.9,0,28.8-6.2,39.3-18.8v16h35.3V52.2h-35.3L292.5,129.8L292.5,129.8z M342.7,190.3H378V52.2h-35.3
			V190.3L342.7,190.3z M197.3,7.2c0.5,0.7,0.7,2.5,0.7,5.3v2.6v2.5c0,0.5,0,1.2-0.1,2.1c0,0.6,0,1.1-0.1,1.7c0,0.3,0,0.5-0.1,0.8
			c0,0.3-0.1,0.5-0.1,0.6c-0.1,0.1-0.1,0.3-0.2,0.5c-0.1,0.3-0.1,0.5-0.2,0.6c-0.1,0.2-0.1,0.3-0.3,0.5c-0.1,0.2-0.2,0.3-0.2,0.4
			c-0.3,0.5-0.8,1-1.3,1.3c-0.9,0.4-1.8,0.6-2.8,0.5h-0.4c-0.2,0-0.3,0.9-0.3,2.7c0,0.3,0,0.6,0,0.9v1.2l-0.1,3.9v3.6
			c-0.3,0.2-0.6,0.3-0.9,0.3c-0.2,0-0.5,0-0.7,0H190c-0.6,0-0.8-0.1-0.8-0.2l-0.1-0.5v-2.9v-4.8v-1.6v-1.3v-2.6c0-0.2,0-0.3,0-0.5
			c0-0.1,0-0.2,0-0.4V23c0-0.5,0-1,0-1.5l-0.3-10.2v-0.8c0-0.3,0-0.6,0-0.9V7.8c0-0.2,0-0.4,0.1-0.6c0-0.6,0-1.3,0.1-1.9
			c0-0.2,0.5-0.4,1.6-0.4h1.6c1.1,0.2,1.7,0.3,1.7,0.3c0.6,0.2,1.1,0.5,1.6,0.8c0.5,0.3,0.9,0.7,1.2,1.1L197.3,7.2z M195.2,18.3
			v-2.1v-2.1v-3v-0.6c0-0.8-0.2-1.5-0.4-2.2c-0.3-0.4-0.8-0.7-1.4-0.8c-0.3,0-0.7,0-1,0.1c-0.1,0.3-0.2,0.7-0.2,1v2v1.9v0.5
			c0,1,0.1,1.7,0.1,2.1c0,0.1,0,0.4-0.1,0.8c0,0.3,0,0.7,0,1v0.3c0,0.1,0,0.2,0,0.3c0,0.2,0,0.3,0,0.5v1c0,0.2,0,0.3,0,0.5v2.5v0.6
			c0,0.2,0,0.5,0.1,0.7c0,0.1,0.1,0.1,0.2,0.1h0.2h0.1c0.3,0,0.7,0,0.9-0.2c0.3-0.3,0.6-0.7,0.9-1.1c0.2-0.5,0.4-1.1,0.4-1.7
			c0-0.7,0.1-1.4,0.1-2L195.2,18.3z M294.7,11.6c-0.1,1.1-0.1,1.8-0.1,1.8s0,0.2,0.1,0.4c0,0.5,0,1,0,1.5v6.9v3.1v3.1
			c0,0.4,0,0.8,0,1.1V32v5.1v1.3c0,0.1,0,0.2,0,0.3c0,0.1,0,0.2,0,0.4v0.2c0.2,0.3,0.5,0.4,0.8,0.5c0.2-0.1,0.5-0.1,0.7-0.2
			c0.3,0,0.6,0,0.8-0.1c0.5-0.1,0.8-0.3,0.8-0.5v-1.1v-5.3v-2.7c0-0.4,0-0.7-0.1-1v-2.3v-2.3l0.2,0.7l0.6,1.7
			c0.1,0.4,0.1,0.8,0.2,1.1c0.1,0.5,0.2,0.9,0.2,1c0.2,0.6,0.4,1.1,0.5,1.7l0.2,0.7l1.6,5.6c0.2,0.8,0.3,1.2,0.3,1.4
			c0.1,0.2,0.1,0.3,0.2,0.5c0.3,0.2,0.6,0.3,1,0.3h0.6c0.4,0,0.8,0,1.2,0c0.3,0.1,0.6,0,0.8-0.3c-0.2-0.4-0.5-1.3-0.9-2.7l-0.4-1.4
			c-0.1-0.2-0.2-0.5-0.3-0.9l-0.3-0.8l-0.5-1.7l-0.6-2c-0.2-0.8-0.4-1.4-0.5-1.8c-0.3-0.6-0.5-1.2-0.7-1.9c-0.1-0.6-0.3-1.2-0.5-1.8
			l-0.6-1.9l0.1-0.3c0.1-0.3,0.2-0.5,0.4-0.8c0-0.2,0.2-0.6,0.5-1.3c0.1-0.5,0.2-1.1,0.4-1.6l1.8-5.4c0.1-0.2,0.1-0.4,0.2-0.6
			c0.1-0.3,0.1-0.6,0.2-0.7c0.2-0.4,0.4-0.9,0.5-1.4c0.2-0.4,0.3-0.7,0.4-1.1c0.1-0.3,0.2-0.6,0.3-0.9c0.1-0.2,0.2-0.5,0.3-0.7
			c0-0.4,0.1-0.8,0.4-1.1c0-0.1,0-0.2,0.1-0.2c0-0.1,0-0.1,0-0.2l-0.4-0.1c-0.1,0-0.2,0-0.3,0c-0.3-0.1-0.6-0.1-0.9-0.1h-0.8
			c-0.3,0-0.6,0.1-0.9,0.2c-0.1,0.1-0.1,0.2-0.1,0.3c0,0,0,0.1,0,0.1c0,0.1,0,0.1,0,0.2c0,0.1-0.1,0.1-0.1,0.2L301.6,7
			c0,0.1,0,0.2,0,0.3l-0.1,0.4c0,0.1,0,0.3,0,0.4c-0.2,0.8-0.4,1.3-0.4,1.4c-0.5,1.2-0.8,2.4-1.1,3.6c-0.2,0.9-0.4,1.5-0.6,2
			c-0.1,0.3-0.4,0.9-0.6,1.6l-0.7,1.8c-0.1,0.3-0.2,0.5-0.4,0.7c0-0.5,0-0.9,0-1.4v-1.5c0-0.2,0-0.5,0-0.7c0-0.2,0-0.4,0-0.6v-1.3
			v-2.4c0-0.5,0-1,0-1.5c0-0.4,0-0.9,0-1.3V7.9c0-0.2,0-0.4,0-0.5c0-0.2,0-0.3,0-0.5c0-0.1-0.1-0.2-0.1-0.3c0-0.1,0-0.1,0-0.2
			c0-0.1,0-0.2-0.1-0.3h-0.1c-0.2,0-0.4,0-0.5-0.1c-0.4,0-0.8,0-1.3,0c-0.2-0.1-0.5,0-0.7,0.1c0,0.2,0,1.5,0.1,3.9
			c0,0.2,0,0.7,0.1,1.5L294.7,11.6z M543.3,190.3h35.3V52.2h-35.3V190.3L543.3,190.3z M214.2,8.7v2.8v9.8v6v2.1c0,1,0.1,1.5,0.1,1.6
			c0,0.6,0,1.3-0.1,1.9v1.9v0.9c0,0.2,0,0.3,0,0.5v0.6c0,0.3,0,0.5,0.1,0.7c0.1,0.2-0.1,0.5-0.1,0.6v0.2c0,0.1,0,0.2,0,0.2
			c0,0.1,0,0.3,0,0.4v0.4c0,0.3,0.8,0.4,1.9,0.4c0.8,0,1.1-0.1,1.1-0.3v-1.2c0-0.1,0-0.4-0.1-0.8v-0.4c0-0.2,0-0.3,0-0.5v-1.5
			c0-0.2,0-0.5,0-0.7c0-0.2,0-0.4,0-0.6v-8.3c0-0.5,0-1.1,0-1.6v-0.3c0-0.3,0-0.7-0.1-1.4v-0.8c0-0.3,0-0.6,0-0.9v-3.8v-1.5v-0.7
			c0-0.4,0-0.8-0.1-1.2v-1.6c0-0.4,0-0.7,0.1-0.9V8.8h3.4c0.2,0,0.4-0.9,0.4-1.9c0-0.7-0.1-1.1-0.3-1.1c-0.1,0-0.2,0-0.4,0h-0.4
			c-0.1,0-0.3,0-0.4,0h-0.2c-0.1,0-0.2,0-0.4,0h-0.5c-0.2,0-0.3,0-0.5,0h-0.2l-3.2-0.1h-4.1c-0.2,0-0.3,0.4-0.3,1.3
			c-0.1,0.6,0,1.2,0.2,1.8h3.8L214.2,8.7z M204.5,28.8h-1.9h-0.7l-0.1,1.5c-0.1,0.4-0.2,0.8-0.2,1.1c0,0.3,0,0.5,0,0.8
			c0,0.3,0,0.6-0.1,0.9c-0.1,0.3-0.1,0.7-0.1,1c0,0.4,0,0.7-0.1,0.9c-0.1,0.2-0.1,0.9-0.2,1.8c0,0.7-0.1,1.4-0.4,2.1
			c-0.2,0.2-0.5,0.3-0.8,0.3c-0.4,0.1-0.8,0.1-1.2,0.1c-0.3,0-0.6-0.1-0.7-0.3c0-0.1,0.1-0.3,0.1-0.4c0-0.1,0-0.3,0-0.4
			c0-0.3,0-0.6,0.1-0.9l0.2-1.7c0-0.7,0.1-1.1,0.1-1.5c0-0.5,0.1-0.9,0.2-1.4l0.1-1.3l0.2-2.2c0.1-0.5,0.1-1,0.3-1.5
			c0-0.1,0-0.3,0-0.4c0-0.1,0-0.3,0-0.4v-0.4c0-0.4,0.1-0.7,0.1-0.8v-0.3l0.1-0.7c0-0.9,0.1-1.3,0.1-1.3l0.3-3.2l0.2-1.5
			c0.1-1,0.2-2.4,0.3-3.3c0-0.4,0-0.9,0.1-1.3l0.3-2.5L201,10c0.1-0.2,0.1-0.5,0.1-0.7c0-0.2,0.1-0.5,0.2-0.7c0-0.1,0-0.3,0-0.4
			c0-0.3,0-0.5,0.1-0.8l0.1-0.9c0.1-0.5,0.2-1,0.4-1.4c0-0.2,0.3-0.3,1-0.3h1.1c0.2,0,0.5,0,0.7,0c0.4,0.1,0.9,0.2,1.3,0.4
			c0.2,0.3,0.3,0.6,0.3,1c0.2,0.4,0.4,0.8,0.4,1.3c0,0.1,0.1,0.4,0.2,0.7c0.1,0.4,0.1,0.7,0.1,0.9c0.1,0.7,0.2,1.1,0.3,1.6v0.2
			c0,0.5,0.1,1,0.2,1.5c0.1,0.2,0.1,0.4,0.1,0.5c0,0.2,0,0.5,0.1,0.7l0.1,0.7l0.3,2.3l0.3,2.6c0,0.1,0.1,0.5,0.2,1.1
			c0.1,0.4,0.1,0.9,0.1,1.3l0.4,2.5l0.5,4.1c0.1,1,0.2,1.7,0.2,2.1c0,0.4,0.1,1,0.2,2l0.2,1.5v0.6c0,0.3,0.1,0.8,0.2,1.4l0.3,1.4
			c0,0.2,0,0.4,0,0.6c0,0.2,0,0.4,0.1,0.6c0,0.2,0.1,0.4,0.1,0.5v0.2c-0.1,0.1-0.3,0.2-0.5,0.2h-0.4c-0.1,0-0.2,0-0.3,0
			c-0.1,0-0.3,0-0.6-0.1c-0.1,0-0.2,0-0.4,0c-0.2,0-0.4,0-0.6-0.1l-0.1-0.3c0-0.2,0-0.3,0-0.5c-0.1-1.1-0.2-2.7-0.5-3.9
			c0-0.2,0-0.4,0-0.6c0-0.4-0.1-0.6-0.1-0.8v-0.2c-0.1-0.5-0.2-0.9-0.2-1.4v-0.2c0-0.2,0-0.4-0.1-0.6l-0.2-0.9l-0.2-0.9h-0.7
			c-0.1,0-0.2,0-0.3,0h-0.9C204.9,28.8,204.7,28.8,204.5,28.8L204.5,28.8z M203.2,26c0.7,0.1,1.4,0.1,2.1,0.1h1.3l-0.3-2.6
			c0-0.2,0-0.3,0-0.5c0-0.2,0-0.3-0.1-0.5v-0.6c0-0.3,0-0.5-0.1-0.7c-0.1-0.5-0.2-1.1-0.2-1.6c0-0.3,0-0.5,0-0.8
			c0-0.3-0.1-0.6-0.1-0.8c0-0.3-0.1-0.5-0.1-0.8c0-0.3-0.1-0.7-0.1-1l-0.1-0.8c0-0.3-0.1-0.6-0.1-0.9c-0.1-0.3-0.1-0.5-0.1-0.8
			c0-0.4-0.1-0.6-0.2-0.9c0-0.2,0-0.4-0.1-0.8c-0.1-0.3-0.1-0.5-0.1-0.7c0-1-0.2-2-0.6-2.9c0,0-0.1,0-0.1,0c-0.1,0-0.1,0-0.2,0
			c-0.1,0-0.1,0-0.2,0.1c-0.1,0.1-0.2,0.2-0.2,0.3c-0.1,0.6-0.4,2.8-0.8,6.5l-0.2,3V19c0,1.1-0.2,2.4-0.2,3.2v0.4
			c0,0.3,0,0.8-0.1,1.4s0,1-0.1,1.5v0.3c0,0.1,0,0.2,0,0.3h1.2L203.2,26z M51.9,129c-0.1-0.1-0.2-0.1-0.3-0.2
			C32.3,115.2,28.1,100.9,28,91.4c0-11.6,5.6-22.5,15-29.3l-1.1-1.6c-9.9,7.2-15.8,18.7-15.8,31c0.1,10,4.4,24.9,24.4,39
			c0.2,0.2,0.4,0.3,0.7,0.3c0.3,0,0.5-0.1,0.7-0.3c0.2-0.2,0.3-0.4,0.3-0.7C52.2,129.5,52.1,129.2,51.9,129L51.9,129z M139.3,103.9
			c-0.7,0.1-2.4,0.6-5,1.5l-5.5,1.7l-4.1-13l7.5-2.9c0.3-0.1,0.1-0.4-0.1-1.1c0-0.3-0.1-0.6-0.1-0.8c-0.1-0.4-0.3-0.7-0.5-1
			c-0.3-0.7-0.5-1.4-0.8-1.3c-0.5,0-0.9,0.1-1.3,0.3l-0.5,0.1l-1.9,0.7c-1.2,0.4-2.5,0.7-3.7,0.9l-1.5-3.9c-0.1-0.3-0.3-0.8-0.6-1.5
			l-0.6-1.9c-0.2-0.7-0.5-1.4-0.8-2.1l-0.2-0.6c-0.1-0.3-0.2-0.5-0.2-0.8c0-0.3-0.1-0.6-0.3-0.9c-0.4-1.1-0.8-2-1-2.5l-2.4-7
			l5.6-2.1c0.4-0.2,1.4-0.5,3.1-1.1l0.6-0.2c0.5-0.1,0.9-0.3,1.3-0.7c0-0.5-0.1-1-0.3-1.5c0-0.3-0.1-0.6-0.2-0.8
			c-0.1-0.3-0.2-0.7-0.4-1c-0.1-0.3-0.3-0.6-0.6-0.8h-0.1c-0.4,0-0.8,0.1-1.1,0.2c-0.6,0.1-1,0.3-1.4,0.3c-0.5,0.2-2.7,1-4.8,1.7
			c-0.9,0.3-2.8,0.9-3.8,1.1l-0.5,0.2c-1,0.3-1.9,0.7-2.7,1.3c-0.1,0.9,0.5,3.4,1.8,7.5c0.3,0.9,1.4,4,3.4,9.6
			c0.6,1.8,1.1,3.3,1.5,4.2l0.2,0.5c0,0.2,0,0.4,0.1,0.6c0.1,0.4,0.3,0.9,0.5,1.3c0.2,0.4,0.4,0.9,0.5,1.4c0.1,0.2,0.1,0.4,0.1,0.6
			l0.2,0.6c0.3,0.7,0.7,1.7,1.1,3.1c0.3,0.8,0.7,2,1.1,3.4l1.1,3.4l0.5,1.6c0.6,2,0.7,2.5,1.3,4.3l0.5,1.7l0.7,2.1
			c0.6,1.9,1.1,2.9,1.3,2.8l8.1-2.6l2.9-1c0.7-0.2,1.3-0.4,1.9-0.7c0.7-0.2,1.3-0.4,1.9-0.7c0.2-0.1,0.1-0.6-0.2-1.6
			C140.3,104.7,139.8,103.8,139.3,103.9L139.3,103.9z M119,34.2c-0.3,0-0.6,0-0.8,0.3c-0.2,0.2-0.3,0.4-0.3,0.7
			c0,0.3,0.1,0.5,0.3,0.7c0.2,0.2,0.4,0.3,0.7,0.3c0.1,0,0.2,0,0.2,0c11.7-0.6,23.1,4.5,30.4,13.6c5.9,7.5,11.4,21.2,4.6,43.4
			l1.9,0.6c7-23.1,1.1-37.4-5-45.3C143.3,38.9,131.4,33.5,119,34.2L119,34.2z M117.3,114c0-0.7,0-1.3-0.2-1.9l-0.9-5.2
			c-0.1-0.8-0.3-1.7-0.6-2.5c-0.1-1-0.3-1.9-0.6-2.8c0-0.9-0.1-1.9-0.3-2.8c0-0.3-0.9-4.6-2.8-13c-1.8-8.4-3.4-15.8-3.9-19.5
			c0-0.1,0-0.2,0-0.2l-0.1-0.2c0-0.1-0.1-0.1-0.1-0.2v-0.1c-1.2-0.3-2.4-0.1-3.4,0.5c-0.4,0.1-0.7,0.4-0.9,0.7
			c0.1,0.9,0.2,1.8,0.5,2.7c0.3,1.1,0.6,3.1,0.8,4.1c0.3,1,0.9,4.8,2.6,11.4c1.6,6.6,2.9,12,3.6,15.8c1.5,6.4,1.7,8.9,1.7,9.8
			l-0.2,2.1l-2.2-3.5c-1.7-2.8-3.3-5.7-4.6-8.7c-0.3-0.6-0.6-1.5-1.1-2.6s-0.9-2-1.1-2.6L98,85.3l-4.2-7.9c-0.4-0.6-1.6-2.6-2.2-3.8
			s-1-2-1.3-2.4c-0.5,0.1-1,0.2-1.4,0.4c-1.1,0.3-2.2,0.7-3.2,1.3c0.4,0.6,0.8,1.2,1.1,1.8c0.1,0.3,1.1,2,1.7,2.8
			c0.6,1.3,1.3,2.5,2.1,3.7c0.1,0.2,1,1.9,2.5,5c0.6,1.1,0.9,1.6,0.9,1.7l0.1,0.2c0.5,0.7,1,1.5,1.4,2.3c0.4,0.7,0.8,1.4,1.3,2.1
			c0.2,0.4,0.5,1.2,1.1,2.3c2.7,5.1,4.6,8.9,5.8,11.5c1.9,4.2,4.4,8.2,7.3,11.8c0.3,0.3,1.7,0.2,4.1-0.3l0.9-0.3
			c0.4-0.1,0.7-0.3,1-0.5c0.4-0.2,0.7-0.5,0.8-0.8c0-0.3,0-0.6-0.1-0.9C117.6,115,117.5,114.5,117.3,114L117.3,114z M86,63.8
			c-0.1,0.1-0.2,0.3-0.2,0.5c0,0.3,0.1,0.5,0.3,0.7c0.2,0.2,0.4,0.3,0.7,0.3c0.3,0,0.5-0.1,0.7-0.3c0.2-0.2,0.3-0.4,0.3-0.6
			c0.9-2.6,9.7-25.9,29.5-28.1l-0.2-2C96,36.7,86.9,61,86,63.8L86,63.8z M194,170.2l-17.6,23.1l-0.1-0.1v0.1L150.8,174
			c-15.3,10.8-34,16.9-55.2,16.9C39.3,190.9,0,148.2,0,96.6v-0.5C0,44.5,39.8,1.2,96.1,1.2s95.6,42.7,95.6,94.3V96
			c0.1,20.3-6.4,40.1-18.6,56.3l20.2,17.1L194,170.2z M154.2,45.5c-8.7-11-22.1-17-36.1-16.2c-2.9,0.2-5.9,0.7-8.7,1.6
			C95.7,35.5,87.6,48.5,84,55.8l-0.4,0.7l-0.7-0.4c-5.7-2.9-14.5-6.3-24-6.3c-3.8,0-7.6,0.6-11.3,1.8c-2.8,0.9-5.5,2.3-7.9,3.9
			C28.1,63.3,21,76.2,20.7,90.2c-0.1,11.3,4.4,28,26.5,43.5c24,16.8,67.9,29,69.7,29.5l3.2,0.9l2-2.7c0.3-0.3,1.9-2.5,4.3-5.8
			l-2.9-2.2c-1.3,1.9-2.4,3.3-3,4.2l-1.6-1.1c0.7-0.9,1.7-2.4,3.1-4.2l0.4,0.3l-24.9-18.9l36-12.1l5.5,4.4
			c5.9-10.1,11.6-21.1,14.8-31c0-0.2,0.1-0.4,0.3-0.6c0.4-0.4,1-0.4,1.4,0c0,0,0,0,0,0c0.2,0.2,0.3,0.4,0.3,0.7
			c0,0.2-0.1,0.3-0.1,0.5c-3.3,10.1-9.1,21.4-15.1,31.6l2.9,2.3c6.3-10.7,12.5-22.7,16-33.4c8.3-25.7,1.9-41.8-5-50.7V45.5z
			 M69.9,117.9c-0.1-0.5-0.3-1-0.6-1.4l-1.5-4.4l-0.2-0.6l-0.3-0.9c-0.5-1.5-1-2.8-1.4-4c-1.3-3.9-2.2-6.6-2.8-8.1
			c-0.3-0.8-0.6-1.7-1-2.5L62,95.5l-0.4-1.3l-0.2-0.5l-0.2-0.7l-0.4-1.1l-0.5-1.6l-0.9-2.8c-0.5-1.4-0.8-2.7-1.1-4
			c0-0.2-0.1-0.3-0.2-0.4l-0.1-0.3c-0.1-0.1-0.2-0.2-0.2-0.4v-0.1c-0.5-0.3-1.2-0.3-1.7,0c-0.2,0-0.4,0-0.6,0.1
			c-0.2,0.1-0.5,0.3-1,0.5c-0.5,0.2-0.7,0.4-0.6,0.6v0.1v0.1l0.2,1.1c0.1,0.2,0.2,0.7,0.3,1.4c0.1,0.3,0.2,0.6,0.4,0.8l0.3,0.9
			l0.4,1.1l1,2.9l0.8,2.3c0.3,1,0.5,1.8,0.7,2.4c0.4,1.1,0.7,2,0.8,2.6c0.3,0.6,0.5,1.2,0.7,1.8l0.6,1.9c0.2,0.8,0.4,1.4,0.5,1.8
			l2.1,6.3c0.5,1.4,0.8,2.4,0.9,3c0.1,0.2,0.2,0.7,0.5,1.4c0.2,0.6,0.4,1.1,0.6,1.6c0.2,0.7,0.4,1.7,0.8,3l1,3.1
			c0.4,1.3,0.8,2.3,1,2.8c0.4,1.1,0.6,1.9,0.9,2.4c0.3,0.6,0.2,1,0.3,1.2c0,0.2,0.1,0.4,0.3,0.6l0.5,1.4l0.2,0.7
			c0,0.3,0.3,0.5,0.6,0.5c0,0,0,0,0,0l0.5-0.1l0.9-0.3c0.4-0.2,0.9-0.4,1.3-0.5l0.7-0.3l0.4-0.1l0.4-0.1c0.3-0.1,0.6-0.2,0.9-0.4
			l0.4-0.1c0.3-0.1,0.7-0.2,1-0.3l0.6-0.2l1-0.3l1.4-0.5c0.6-0.2,1.2-0.4,1.8-0.7l1.1-0.4c0.2-0.2,0.4-0.3,0.7-0.4
			c0-0.7-0.1-1.5-0.4-2.1l-0.1-0.3c-0.4-1.1-0.6-1.6-0.8-1.6c-0.5,0-1,0.1-1.5,0.3c-0.2,0.1-0.4,0.1-0.6,0.3l-0.7,0.2
			c-0.7,0.3-1.4,0.5-2.1,0.7c-0.3,0.2-0.6,0.4-0.9,0.5c-0.3,0.2-0.7,0.3-1,0.4l-1.1,0.4l-1.1,0.4l-0.9-2.5l-0.7-2.1
			c-0.2-0.7-0.6-1.6-1.1-2.9C70.1,119,70,118.4,69.9,117.9L69.9,117.9z M43.7,61.4c0.3,0,0.5-0.1,0.7-0.3
			c15.7-10.4,34.9-0.2,40.5,3.2l1.1-1.7c-5.8-3.5-26-14.2-42.6-3.2c-0.1,0-0.3,0.1-0.4,0.2c-0.2,0.2-0.3,0.4-0.3,0.7
			C42.7,60.9,43.1,61.4,43.7,61.4C43.7,61.4,43.7,61.4,43.7,61.4L43.7,61.4z M51.8,131.4c22.6,15.2,61.9,26.5,66.3,27.7
			c0.1,0.1,0.3,0.1,0.4,0.1c0.5,0,1-0.4,1-1c0,0,0,0,0,0c0-0.3-0.1-0.5-0.3-0.7c-0.2-0.2-0.4-0.3-0.6-0.3
			c-1.7-0.5-42.9-12.2-65.7-27.4L51.8,131.4z M99.3,118.7c0,0.1,0.1,0.3,0.1,0.4l-0.1,0.5c0,0.7-0.2,1.4-0.4,2
			c-0.2,0.7-0.5,1.3-0.9,1.8c-0.5,0.5-1,1-1.5,1.5c-0.4,0.3-0.9,0.6-1.4,0.8l-0.3,0.1l-1.3,0.4l-0.7,0.2c-0.6,0.1-1.2,0.1-1.8,0.1
			c-0.3-0.1-0.5-0.1-0.8-0.1c-0.4,0-0.7-0.1-0.9-0.1c-1.8-0.7-3.4-2.2-5-4.7c0-0.1-0.3-0.6-0.6-1.3c-0.3-0.7-0.8-1.5-1.1-2.2
			c-0.3-0.7-0.6-1.3-0.7-1.6c-0.3-0.6-0.7-1.7-1.1-3.2l-0.3-1l-0.3-1l-0.4-1.1l-0.3-1l-1-2.3l-0.6-1.8c-0.1-0.3-0.2-0.6-0.2-0.9
			c-0.1-0.3-0.2-0.7-0.3-1L76.1,99c-0.2-0.7-0.4-1.6-0.7-2.7c-0.3-1.2-0.5-1.8-0.7-2.1L74.3,92c-0.2-0.9-0.4-1.4-0.4-1.6
			s-0.2-0.8-0.3-1.4l-0.4-1.3c-0.3-1.3-0.5-2.3-0.6-3.1c-0.1-0.6-0.2-1.3-0.2-1.9c0-0.4,0.1-1.1,0.1-2.1c0.1-1.2,0.5-2.4,1.1-3.4
			c0.5-0.9,1.3-1.7,2.2-2.3c0.2-0.1,0.4-0.2,0.6-0.3c0.3-0.1,0.6-0.2,0.9-0.3c0.5-0.2,1.1-0.2,1.6,0c1.1,0.5,2.2,1.1,3.3,1.8
			c1.8,1.3,3.4,2.9,4.4,4.9c1.5,2.5,2.7,5.2,3.6,8c0.2,0.3,0.4,0.7,0.5,1l0.2,0.7c0,0.2,0.1,0.4,0.1,0.6c0.1,0.2,0.2,0.3,0.2,0.5
			l0.2,0.5c0,0.2,0,0.4,0.1,0.6l0.2,0.6l0.2,0.7l0.2,0.7l0.6,2l1.1,3.4l0.5,1.4l0.4,1.3c0.8,2.2,1.5,4.5,2,6.9
			c0.2,0.2,0.3,0.4,0.4,0.7l0.1,0.4c0,0.1,0,0.2,0,0.3l0.3,0.8c0.3,1,0.4,1.7,0.5,2c0.1,0.3,0.3,1.1,0.5,1.9
			c0.2,0.8,0.2,1.1,0.3,1.2C99,117.5,99.1,118,99.3,118.7L99.3,118.7z M94.7,117.5c0-0.8-0.1-1.7-0.3-2.5c-0.1-0.7-0.3-1.3-0.5-1.9
			c-0.3-1-0.5-1.6-0.5-1.9l-0.2-0.5c-0.8-2.4-1.9-5.7-3.2-9.9c-1.3-4.2-2.4-7.3-3-9.1L86.3,90c-0.9-2.9-2.3-5.7-4.3-8.1l-0.7-0.8
			c-0.2-0.2-0.5-0.4-0.7-0.6c-0.2-0.2-0.4-0.4-0.7-0.4c-0.6-0.3-1.2-0.3-1.8-0.2c-0.5,0.3-0.8,0.7-1,1.3c-0.3,0.7-0.4,1.5-0.4,2.3
			c0.2,1.3,0.4,2,0.3,2.1c0.1,0.6,0.2,1.3,0.3,1.7c0,0.1,0.1,0.3,0.2,0.4l0.1,0.3c0.1,0.2,0.1,0.5,0.2,0.7c0,0.2,0,0.3,0,0.5
			c0.1,0.3,0.3,1.1,0.6,2.3c0.2,0.5,0.4,1.3,0.7,2.4c0.2,0.5,0.5,1.4,0.8,2.6c0.3,1.2,0.5,2.1,0.7,2.8l0.9,3.2l0.3,1l0.6,2l1.3,3.9
			c1,3.1,2.1,6.1,3.4,9.1c0.3,0.5,0.7,1.1,1.1,1.7c0.3,0.5,0.8,0.9,1.2,1.2c0.4,0.4,1,0.5,1.5,0.5c0.5,0,1.1-0.1,1.6-0.3
			c0.5-0.2,0.9-0.5,1.1-0.9C94.5,119.8,94.8,118.7,94.7,117.5L94.7,117.5z"/>
	</g>
</g>
</svg>
