<?xml version="1.0" encoding="UTF-8"?>
<svg width="596px" height="188px" viewBox="0 0 596 188" version="1.1" xmlns="http://www.w3.org/2000/svg" xmlns:xlink="http://www.w3.org/1999/xlink">
    <!-- Generator: Sketch 48.2 (47327) - http://www.bohemiancoding.com/sketch -->
    <title>Papercraft Inspirations</title>
    <desc>Created with Sketch.</desc>
    <defs>
        <polygon id="path-1" points="0.5271 0.174 49.0161 0.174 49.0161 119.5076 0.5271 119.5076"></polygon>
    </defs>
    <g id="Logos" stroke="none" stroke-width="1" fill="none" fill-rule="evenodd">
        <g id="Papercraft-Inspirations" transform="translate(0.000000, -1.000000)">
            <path d="M125.1938,153.8536 L144.7098,153.8536 L144.7098,111.7266 L145.0008,111.7266 C151.8468,120.6536 158.6918,122.8456 166.9938,122.8456 C190.4418,122.8456 198.8898,102.4866 198.8898,80.4056 C198.8898,58.1676 190.4418,38.4356 167.4308,38.4356 C155.9248,38.4356 148.4968,43.9166 144.1278,51.7466 L143.8358,51.7466 L143.8358,40.3146 L125.1938,40.3146 L125.1938,153.8536 Z M162.3328,54.7226 C175.0038,54.7226 178.4988,69.5996 178.4988,80.4056 C178.4988,91.5246 174.8578,106.5586 162.0418,106.5586 C149.0788,106.5586 144.8558,91.8376 144.8558,80.4056 C144.8558,69.1296 149.8078,54.7226 162.3328,54.7226 Z" id="Fill-1" fill="#030000"></path>
            <path d="M20.3901,27.9087 L27.5271,27.9087 C38.0131,27.9087 46.8971,32.2937 46.8971,44.9787 C46.8971,57.6637 37.7221,61.2657 27.5271,61.2657 L20.3901,61.2657 L20.3901,27.9087 Z M0.0001,119.9927 L20.3901,119.9927 L20.3901,78.4927 L28.9831,78.4927 C50.8291,78.4927 68.1611,69.2527 68.1611,43.7257 C68.1611,17.5727 47.9171,10.6817 25.7791,10.6817 L0.0001,10.6817 L0.0001,119.9927 Z" id="Fill-3" fill="#030000"></path>
            <path d="M120.1605,120.4796 C119.7235,114.2156 119.4325,108.5776 119.2865,102.4696 C119.1405,96.5186 118.9955,90.4116 118.9955,82.2676 L118.9955,71.9316 C118.9955,48.1276 109.5285,37.9486 86.6625,37.9486 C82.7055,37.9486 78.3255,38.5216 73.9985,39.4906 C74.2495,41.3096 74.3905,43.1826 74.3905,45.1046 C74.3905,48.7206 73.9025,52.1696 73.0505,55.3706 C76.6985,54.0556 80.5105,53.2956 84.3325,53.2956 C95.8385,53.2956 101.2265,57.6806 101.2265,70.6786 L90.4495,70.6786 C82.2935,70.6786 72.6805,71.4616 65.2525,75.3776 C57.8255,79.2926 52.4365,86.3396 52.4365,98.3986 C52.4365,113.7456 65.3985,122.3586 78.6525,122.3586 C87.5365,122.3586 97.2945,117.3476 101.8095,108.4206 L102.1005,108.4206 C102.2465,110.9266 102.2465,116.2516 102.9745,120.4796 L120.1605,120.4796 Z M101.2265,83.2076 C101.2265,89.4716 100.3535,95.2656 97.1485,99.8076 C94.0905,104.1926 89.4295,107.0116 83.4585,107.0116 C76.4675,107.0116 71.0785,104.0356 71.0785,97.1456 C71.0785,84.7736 84.0405,83.2076 92.7795,83.2076 L101.2265,83.2076 Z" id="Fill-5" fill="#030000"></path>
            <path d="M477.8084,120.4796 C477.3714,114.2156 477.0804,108.5776 476.9344,102.4696 C476.7884,96.5186 476.6434,90.4116 476.6434,82.2676 L476.6434,71.9316 C476.6434,48.1276 467.1764,37.9486 444.3104,37.9486 C440.4534,37.9486 436.1944,38.4946 431.9744,39.4186 L431.9744,54.9336 C435.2314,53.8886 438.6014,53.2956 441.9804,53.2956 C453.4864,53.2956 458.8744,57.6806 458.8744,70.6786 L448.0974,70.6786 C439.9414,70.6786 430.3284,71.4616 422.9004,75.3776 C415.4734,79.2926 410.0844,86.3396 410.0844,98.3986 C410.0844,113.7456 423.0464,122.3586 436.3004,122.3586 C445.1844,122.3586 454.9424,117.3476 459.4574,108.4206 L459.7484,108.4206 C459.8944,110.9266 459.8944,116.2516 460.6224,120.4796 L477.8084,120.4796 Z M458.8744,83.2076 C458.8744,89.4716 458.0014,95.2656 454.7964,99.8076 C451.7384,104.1926 447.0774,107.0116 441.1064,107.0116 C434.1154,107.0116 428.7264,104.0356 428.7264,97.1456 C428.7264,84.7736 441.6884,83.2076 450.4274,83.2076 L458.8744,83.2076 Z" id="Fill-7" fill="#030000"></path>
            <path d="M220.6102,71.3689 C221.4842,60.5629 227.0182,52.4199 237.9422,52.4199 C248.8652,52.4199 253.2342,61.1899 253.8172,71.3689 L220.6102,71.3689 Z M266.9252,97.9919 C259.6422,102.3769 251.4862,106.1349 242.0202,106.1349 C229.9312,106.1349 221.4842,98.7749 220.6102,85.7769 L272.4592,85.7769 C272.4592,57.5879 264.5942,37.0719 236.7762,37.0719 C213.4732,37.0719 201.9682,56.3349 201.9682,79.6689 C201.9682,106.1349 216.3862,121.4829 241.1462,121.4829 C251.6322,121.4829 259.7882,119.2899 266.9252,115.0619 L266.9252,97.9919 Z" id="Fill-9" fill="#030000"></path>
            <path d="M275.8437,119.6035 L295.3597,119.6035 L295.3597,90.0055 C295.3597,78.4165 295.3597,57.1175 311.2347,57.1175 C314.7307,57.1175 318.2257,57.7445 319.9737,58.8405 L319.9737,37.6985 C317.9347,37.0725 315.8957,37.0725 314.0027,37.0725 C302.3507,37.0725 294.3407,49.7575 293.4667,57.2745 L293.1757,57.2745 L293.1757,38.9515 L275.8437,38.9515 L275.8437,119.6035 Z" id="Fill-11" fill="#030000"></path>
            <path d="M379.8148,119.6035 L399.3308,119.6035 L399.3308,90.0055 C399.3308,78.4165 399.3308,57.1175 415.2058,57.1175 C418.7018,57.1175 422.1968,57.7445 423.9448,58.8405 L423.9448,37.6985 C421.9058,37.0725 419.8668,37.0725 417.9738,37.0725 C406.3218,37.0725 398.3118,49.7575 397.4378,57.2745 L397.1468,57.2745 L397.1468,38.9515 L379.8148,38.9515 L379.8148,119.6035 Z" id="Fill-13" fill="#030000"></path>
            <g id="Group-17" transform="translate(477.000000, 0.826000)">
                <mask id="mask-2" fill="white">
                    <use xlink:href="#path-1"></use>
                </mask>
                <g id="Clip-16"></g>
                <path d="M10.8571,119.5076 L30.3731,119.5076 L30.3731,54.2026 L47.4131,54.2026 L47.4131,38.8556 L30.3731,38.8556 L30.3731,28.8326 C30.3731,22.5686 32.4121,16.4606 38.9661,16.4606 C43.1901,16.4606 45.6661,18.1836 47.4131,19.2796 L49.0161,1.8966 C45.2291,0.9566 39.6941,0.1736 34.7421,0.1736 C19.3041,0.1736 10.8571,11.4496 10.8571,27.5796 L10.8571,38.8556 L0.5271,38.8556 L0.5271,54.2026 L10.8571,54.2026 L10.8571,119.5076 Z" id="Fill-15" fill="#030000" mask="url(#mask-2)"></path>
            </g>
            <path d="M529.2909,95.3296 C529.2909,111.3036 537.7379,121.4826 553.0309,121.4826 C558.8569,121.4826 563.3719,120.8566 567.4499,119.6036 L566.8669,103.0036 C564.8279,104.4126 561.4779,105.1956 557.9829,105.1956 C550.5549,105.1956 548.8069,98.7746 548.8069,91.8846 L548.8069,54.2986 L566.1389,54.2986 L566.1389,38.9516 L548.8069,38.9516 L548.8069,16.0866 L529.2909,22.8216 L529.2909,38.9516 L529.2909,54.2986 L529.2909,95.3296 Z" id="Fill-18" fill="#030000"></path>
            <path d="M373.5502,39.7346 C368.1612,38.0116 362.4812,37.0726 354.6162,37.0726 C331.1682,37.0726 318.3512,55.5516 318.3512,78.8856 C318.3512,103.4736 330.7312,121.4826 355.3452,121.4826 C363.3552,121.4826 369.1812,120.6996 374.8612,118.8206 L373.9872,101.4376 C370.6372,103.0036 364.5202,105.1956 358.9862,105.1956 C345.2952,105.1956 338.7412,93.7636 338.7412,78.8856 C338.7412,63.6956 346.4602,53.3596 358.5492,53.3596 C364.5202,53.3596 368.3072,54.6126 371.8022,56.3346 L373.5502,39.7346 Z" id="Fill-20" fill="#030000"></path>
            <path d="M589.7527,109.6515 C589.3207,109.6895 588.8877,109.7335 588.4567,109.7705 C450.5897,121.6085 319.0517,97.6015 178.2187,126.2415 C198.9947,137.1985 209.6477,144.0345 215.1237,148.1245 C212.6737,151.4565 201.7027,170.3855 184.7007,185.0155 C251.9817,167.5495 333.8817,170.3205 435.8997,172.0605 C487.4657,172.9405 539.9707,173.3675 590.4957,169.3165 C591.5347,169.2325 592.5677,168.7835 593.6047,168.6965 L589.7527,109.6515 Z" id="Fill-22" fill="#FEFEFE"></path>
            <path d="M589.7527,109.6515 C589.3207,109.6895 588.8877,109.7335 588.4567,109.7705 C450.5897,121.6085 319.0517,97.6015 178.2187,126.2415 C198.9947,137.1985 209.6477,144.0345 215.1237,148.1245 C212.6737,151.4565 201.7027,170.3855 184.7007,185.0155 C251.9817,167.5495 333.8817,170.3205 435.8997,172.0605 C487.4657,172.9405 539.9707,173.3675 590.4957,169.3165 C591.5347,169.2325 592.5677,168.7835 593.6047,168.6965 L589.7527,109.6515 Z" id="Stroke-24" stroke="#030000" stroke-width="3.719"></path>
            <path d="M247.4249,122.81 C248.2659,123.774 247.9989,125.61 246.6779,126.623 C245.3569,127.636 243.1769,128.133 242.3359,127.177 C241.4959,126.223 241.6079,124.037 242.9269,123.013 C244.2479,121.989 246.5829,121.845 247.4249,122.81 M243.4559,147.863 C242.9639,142.244 243.1809,138.997 243.5469,136.603 C243.6249,136.094 244.3599,133.59 244.3049,132.965 C244.2509,132.341 243.6749,131.91 242.8769,132.019 C241.5469,132.201 239.9069,133.449 239.2969,134.17 C238.1989,135.467 238.7439,141.712 238.9189,143.709 C239.2799,147.829 240.1889,155.442 241.5239,159.638 C242.0589,161.32 243.2529,165.568 246.9789,165.068 C248.3089,164.889 250.7729,163.82 250.6419,162.322 C250.5879,161.697 250.8449,161.648 248.7239,161.591 C245.1609,161.495 243.7399,151.108 243.4559,147.863" id="Fill-26" fill="#030000"></path>
            <path d="M411.5965,132.3271 C411.5965,132.3271 410.9945,132.0001 410.6475,132.0151 C401.5735,132.4071 389.9875,147.5041 389.7735,156.4361 C389.7215,158.5981 393.1985,160.7541 396.7285,160.8501 C403.7565,161.0411 414.3755,147.3321 414.8845,147.4291 C414.8845,147.4291 416.8025,154.3911 418.6355,158.0501 C420.1315,160.1911 421.6175,161.8341 424.5835,162.1221 C425.9285,162.2531 426.5815,161.4811 426.5675,161.0251 C426.5525,160.5701 424.3755,159.3761 423.4565,158.4401 C417.5865,150.4331 416.2715,137.8651 415.8935,128.2841 C415.8675,127.6061 415.8435,126.6911 414.3635,126.5581 C413.4215,126.4741 410.4845,126.8911 410.5315,128.3711 C410.5385,128.5991 411.6395,132.2961 411.5965,132.3271 M413.2075,140.0481 C412.2845,146.9251 400.2615,157.7561 396.9045,157.2731 C394.6995,157.5841 393.2855,155.9091 393.4415,155.0111 C394.5985,148.3451 403.5295,136.4931 410.2655,135.7201 C411.2075,135.6121 413.4885,137.9521 413.2075,140.0481" id="Fill-28" fill="#030000"></path>
            <path d="M260.9002,145.9969 C261.1022,143.8919 260.8702,142.8949 261.2812,138.9599 C261.7902,134.0829 261.8882,133.5799 261.8342,132.9679 C261.7592,132.1099 259.2062,133.2219 258.9402,133.2499 C258.8062,133.2639 257.0202,133.8029 256.8522,134.4929 C255.0092,142.0369 256.0692,153.1509 256.5662,162.0059 C256.6272,163.0799 259.8142,163.7339 260.0812,163.7039 C260.8812,163.6149 260.4132,155.8019 261.7152,152.5589 C265.0432,144.2719 272.7702,136.6499 272.7702,136.6499 C272.7702,136.6499 272.7082,136.6489 273.0152,139.9909 C273.6362,146.7579 275.3722,160.8049 285.1372,160.5569 C287.9682,160.4849 289.1492,159.5259 289.0602,158.5159 C289.0072,157.9039 288.6312,156.9079 288.6312,156.9079 C287.7462,157.5729 286.7702,158.2499 285.8212,158.1269 C279.7892,157.3449 277.6112,146.3289 276.9992,140.1579 C276.7822,137.9709 276.7202,135.0929 277.1272,132.3809 C277.2002,131.8939 277.9282,129.2409 277.8642,128.5059 C277.8322,128.1379 277.3762,127.5529 276.4402,127.6219 C274.5772,127.7569 272.3272,129.9499 269.7542,133.0529 C268.2642,134.8499 266.6392,136.7699 264.9892,139.2419 C263.2832,141.7989 260.9002,145.9969 260.9002,145.9969" id="Fill-30" fill="#030000"></path>
            <path d="M431.1097,132.3557 C428.9107,133.3697 426.8457,134.3637 422.6127,136.7837 C421.8517,137.2187 421.7317,137.4797 421.7637,137.8477 C421.8397,138.7057 422.7557,139.9627 423.5667,139.9947 C423.7017,140.0007 431.0867,135.6847 431.2737,135.7807 C431.6777,135.9867 432.4467,147.0727 433.5197,151.8657 C434.4257,155.9137 435.6957,161.3567 441.3677,161.5647 C447.5787,161.7937 450.9147,155.3017 450.7537,153.4637 C450.6997,152.8507 450.3647,152.1047 449.4207,152.0737 C448.6097,152.0467 448.3707,152.3297 447.3287,154.3247 C446.8537,155.2347 445.0247,158.7667 442.1897,158.6637 C438.4087,158.5257 437.6777,154.1717 437.1017,151.2687 C435.5817,143.6117 434.6797,134.3977 435.1547,133.9757 C435.8327,132.8757 442.4267,130.9447 443.7767,130.9927 C444.0467,131.0017 445.0127,131.2787 445.2827,131.2887 C445.6887,131.3027 448.8917,129.4547 448.7637,127.9847 C448.6987,127.2497 447.7537,127.2177 447.3497,127.2047 C443.4337,127.0737 435.3367,130.7517 434.9887,130.5477 C434.7537,130.4097 434.8267,127.9147 434.4227,121.3437 C433.6827,112.6657 434.3967,111.4577 433.8127,111.5537 C433.2727,111.5327 429.0107,109.8177 429.2137,112.1467 C429.2787,112.8817 429.9327,120.0967 429.9967,120.8317 C430.4387,125.8797 430.6677,127.3077 431.1097,132.3557" id="Fill-32" fill="#030000"></path>
            <path d="M312.2742,133.7142 C311.4002,130.5302 302.6872,126.1842 295.0742,126.9312 C291.7352,127.2592 290.8402,128.5982 291.0972,130.4262 C291.4912,133.2272 293.8502,135.8352 303.0562,145.1882 C305.0592,147.2232 311.0122,153.6352 311.2522,155.3412 C311.3552,156.0712 310.7042,157.2272 308.1622,157.4422 C302.8092,157.8962 291.7322,154.2232 291.1162,149.8382 C291.0652,149.4722 291.5912,147.4352 291.5222,146.9482 C291.4712,146.5832 291.1192,146.0022 290.1852,146.1052 C288.9852,146.2382 286.9572,147.8182 287.5002,150.1232 C289.2062,157.3652 300.7272,161.0312 308.5902,160.4892 C313.1982,160.1712 315.7462,157.4572 315.3182,154.4122 C314.9592,151.8542 313.5022,150.4352 306.2432,142.8152 C304.3252,140.8012 296.4772,132.1052 296.2712,130.6432 C296.1692,129.9132 297.0872,129.7002 297.4882,129.6622 C299.3592,129.4852 304.8782,130.7382 307.2852,133.8562 C308.9572,136.0212 309.1002,136.1732 309.9042,136.1102 C310.5732,136.0582 312.6272,134.9972 312.2742,133.7142" id="Fill-34" fill="#030000"></path>
            <path d="M458.4051,119.4368 C457.0651,120.2338 456.9491,122.3668 457.8011,123.4458 C458.6531,124.5258 460.8631,124.3848 462.2021,123.5858 C463.5431,122.7858 463.8161,121.0118 462.9651,119.9358 C462.1141,118.8578 459.7451,118.6398 458.4051,119.4368 Z M458.9131,143.4478 C458.4211,137.8298 458.6421,135.2198 459.0151,132.9138 C459.0941,132.4268 459.8431,130.0748 459.7891,129.4498 C459.7341,128.8258 459.1511,128.3108 458.3401,128.2878 C456.9921,128.2488 455.3251,129.1958 454.7041,129.7998 C453.5881,130.8848 454.1341,137.1268 454.3091,139.1248 C454.6691,143.2438 455.5841,150.9048 456.9331,155.2678 C457.4741,157.0198 458.6831,161.4268 462.4611,161.5328 C463.8101,161.5698 466.3081,160.8908 466.1771,159.3928 C466.1231,158.7678 466.0921,158.7238 463.9321,158.3358 C460.3261,157.6878 459.1921,147.2428 458.9081,143.9968 L458.9131,143.4478 Z" id="Fill-36" fill="#030000"></path>
            <path d="M325.6612,136.5348 C325.6612,136.5348 326.8362,126.2768 326.7832,125.6648 C326.7192,124.9288 325.7672,124.8138 325.3642,124.8178 C325.2292,124.8188 323.2102,124.9168 321.7982,125.5968 C320.9272,126.0148 320.9292,126.3528 320.9472,128.1848 C321.0562,139.6188 320.8232,150.1148 321.8182,161.5558 C322.7772,172.5798 323.1062,170.4428 323.8372,172.2298 C324.2162,173.1568 328.4882,173.2048 327.9252,171.0228 C326.3792,168.0438 325.3882,159.1048 325.7762,158.9888 C326.4332,158.3268 330.9582,158.7688 338.3042,152.6758 C342.6702,149.0548 351.6192,140.2608 351.4552,132.2778 C351.4132,130.1988 349.1452,126.1988 343.5402,126.4218 C335.3032,126.6508 325.9272,136.6428 325.6612,136.5348 M325.3932,142.3858 C327.0252,138.0808 336.4862,130.0068 343.2682,129.4798 C345.5802,129.2998 346.8402,131.1618 346.8932,132.4558 C347.2972,142.2308 327.6212,157.4448 325.4972,155.8768 C325.0872,155.2968 325.2472,142.5438 325.3932,142.3858" id="Fill-38" fill="#030000"></path>
            <path d="M362.4995,117.8286 C361.1185,118.5666 360.8835,120.6946 361.6735,121.8096 C362.4635,122.9246 364.6785,122.8846 366.0605,122.1516 C367.4425,121.4176 367.8135,119.6606 367.0235,118.5426 C366.2335,117.4226 363.8815,117.0916 362.4995,117.8286 M361.5635,141.8376 C361.4915,136.1966 361.3965,135.1396 361.7245,132.8276 C361.7935,132.3386 363.2665,128.5256 363.2465,127.8986 C363.2265,127.2726 362.6735,126.7296 361.8665,126.6726 C360.5215,126.5756 358.8065,127.4576 358.1545,128.0376 C356.9805,129.0806 357.1795,135.3456 357.2435,137.3496 C357.3745,141.4836 357.8615,149.1796 358.9665,153.5936 C359.4095,155.3666 360.3705,159.8116 364.1355,160.0856 C365.4795,160.1836 368.0105,159.6226 367.9625,158.1196 C367.9425,157.4936 367.9125,157.4446 365.7795,156.9556 C362.2175,156.1386 361.6045,145.0956 361.5635,141.8376" id="Fill-40" fill="#030000"></path>
            <path d="M511.0396,144.7882 C511.2266,142.7202 510.9836,141.7132 511.3666,137.8472 C511.8396,133.0552 511.9346,132.5642 511.8756,131.9522 C511.7926,131.0952 511.2196,130.7352 510.9506,130.7392 C510.8166,130.7422 507.0196,132.3582 506.8576,133.0062 C505.0196,140.3602 506.2246,151.4652 506.7906,160.2132 C506.8606,161.2862 510.0876,162.2622 510.3566,162.2592 C511.1636,162.2482 510.6286,154.4652 511.9166,151.3662 C515.2076,143.4482 522.9216,136.3322 522.9216,136.3322 C522.9216,136.3322 522.8576,136.3272 523.1956,139.6682 C523.8936,146.5782 525.8026,160.6052 535.5456,160.5542 C538.3656,160.5402 538.9556,159.5672 538.8586,158.5582 C538.7996,157.9462 539.0116,156.9432 539.0116,156.9432 C538.1316,157.6052 537.1556,158.2742 536.2096,158.1382 C530.1416,157.2722 527.8796,146.2532 527.2006,140.0062 C526.9636,137.8222 526.8776,135.5002 527.2636,132.8122 C527.3326,132.3292 528.0396,129.1612 527.9686,128.4262 C527.9336,128.0592 527.4726,127.4632 526.5326,127.4992 C524.6626,127.5692 522.4196,129.6572 519.8566,132.5932 C518.3726,134.2932 516.7516,136.0962 515.1086,138.4272 C513.4106,140.8372 511.0396,144.7882 511.0396,144.7882" id="Fill-42" fill="#030000"></path>
            <path d="M377.2748,134.4606 C377.2748,134.4606 377.0478,133.8736 376.5138,132.0186 C375.8658,129.7616 375.2728,127.9626 373.6988,127.5206 C372.5188,127.1876 369.3028,127.9236 369.0998,128.8716 C369.0238,129.2276 370.7378,130.4666 371.6588,132.2326 C374.8178,138.2966 375.2108,148.3986 375.7398,155.3276 C376.0238,159.0396 375.9338,160.2396 377.7698,160.7606 C378.9508,161.0956 380.3608,159.9356 380.5378,159.1046 C380.5888,158.8686 380.2158,156.3166 380.2158,156.3166 C379.9508,154.0156 379.2088,150.1936 378.7998,147.5136 C378.3218,144.3766 378.2398,140.1526 378.6718,138.9486 C379.4318,136.8336 385.1678,131.8596 387.9918,130.9166 C389.5478,130.3716 390.1928,130.1806 391.0458,130.3206 C392.5138,130.5616 393.2268,131.8646 394.5288,131.9946 C395.1958,132.0596 395.7588,131.4926 395.7588,131.4926 C396.5548,130.1826 394.3618,127.8116 393.1478,127.3686 C390.9488,126.5666 389.5448,126.8216 389.3528,126.8336 C387.3358,126.9616 380.2278,130.1836 377.2748,134.4606" id="Fill-44" fill="#030000"></path>
            <path d="M562.4465,133.4732 C561.4385,130.3622 552.6235,126.8522 545.0615,127.9902 C541.7445,128.4892 540.9055,129.8412 541.2425,131.6562 C541.7595,134.4362 544.2535,137.0462 553.8275,145.7912 C555.9105,147.6932 562.1055,153.6412 562.4205,155.3352 C562.5555,156.0602 561.9655,157.2912 559.4525,157.7082 C554.1605,158.5872 542.9225,155.3712 542.1135,151.0172 C542.0455,150.6542 542.4865,148.6072 542.3965,148.1232 C542.3295,147.7602 541.9495,147.1952 541.0195,147.3232 C539.8225,147.4892 537.8595,149.1012 538.5025,151.3832 C540.5295,158.5812 552.1285,161.9002 560.0145,160.7322 C564.5695,160.0572 566.9635,157.0312 566.4015,154.0082 C565.9295,151.4692 564.4275,150.2442 556.8855,143.1752 C554.8915,141.3062 546.6915,133.0902 546.4215,131.6382 C546.2865,130.9132 547.1935,130.6522 547.5905,130.5912 C549.4465,130.3052 554.9905,131.1672 557.5155,134.0902 C559.2705,136.1202 559.4185,136.2582 560.2105,136.1192 C560.8715,136.0042 562.8535,134.7322 562.4465,133.4732" id="Fill-46" fill="#030000"></path>
            <path d="M486.3658,134.2111 C486.1598,132.0901 485.7668,129.8351 484.4658,128.1141 C481.7418,124.5121 477.0648,125.2961 473.6588,127.4901 C469.5288,130.1501 467.9808,135.3271 468.0908,139.9041 C468.2268,145.6091 470.4828,151.1861 473.4328,156.0561 C475.4908,159.4531 478.2088,162.3301 481.0668,165.1061 C481.5178,165.5441 482.4148,165.0601 482.7858,164.7941 C485.4748,162.8611 488.0268,160.7361 490.4758,158.5271 C494.1078,155.2511 497.5138,151.6621 499.4968,147.1931 C501.2128,143.3251 502.2098,138.8171 501.4508,134.6131 C500.7278,130.6091 497.3828,127.7571 493.0968,128.2401 C489.7288,128.6211 487.3468,132.1941 486.6688,135.1931 C486.4808,136.0261 487.3558,137.1721 488.4998,136.9511 C489.6198,136.7361 490.5238,135.5421 490.7568,134.5141 C490.7738,134.4361 490.7958,134.3591 490.8178,134.2821 C490.9938,133.6591 490.6428,134.7021 490.8808,134.1031 C490.9478,133.9331 490.9378,132.8011 491.6508,132.4641 C498.8428,129.0671 497.9248,138.8011 497.3978,141.6961 C497.0188,143.7801 496.2668,145.7171 495.3658,147.5881 C494.9558,148.4371 494.8358,148.6321 494.1428,149.6251 C493.4788,150.5761 492.7908,151.3471 491.9308,152.2771 C489.0238,155.4201 486.3328,158.2021 482.8998,160.7861 C482.6018,161.0101 477.6548,154.5971 475.5108,150.6711 C473.0048,146.0781 471.1908,141.3611 471.8328,136.1211 C471.9478,135.1861 472.1838,134.5091 472.4898,133.8021 C472.5848,133.5841 472.6948,133.3721 472.8048,133.1611 C472.5788,133.5951 472.9638,132.9411 472.9818,132.9141 C473.0048,132.8791 473.4698,132.2821 473.1458,132.6741 C473.3428,132.4361 473.5618,132.2181 473.7838,132.0031 C473.5558,132.2241 474.4688,131.5031 474.3888,131.5521 C474.8118,131.2961 475.2658,131.0941 475.7258,130.9101 C476.5838,130.5671 477.5468,130.4371 478.4658,130.5461 C481.3648,130.8891 482.1508,133.3601 482.6458,135.7001 C482.7268,136.0811 482.7958,136.4681 482.8338,136.8551 C482.9458,138.0091 484.3888,137.6561 484.9918,137.2051 C485.9478,136.4911 486.4788,135.3691 486.3658,134.2111" id="Fill-48" fill="#030000"></path>
        </g>
    </g>
</svg>