<?xml version="1.0" encoding="UTF-8"?>
<svg width="441px" height="160px" viewBox="0 0 441 160" version="1.1" xmlns="http://www.w3.org/2000/svg" xmlns:xlink="http://www.w3.org/1999/xlink">
    <!-- Generator: Sketch 54.1 (76490) - https://sketchapp.com -->
    <title>simply-sewing-logo</title>
    <desc>Created with Sketch.</desc>
    <defs>
        <polygon id="path-1" points="0 0.3378 440.799 0.3378 440.799 137.9998 0 137.9998"></polygon>
    </defs>
    <g id="Page-1" stroke="none" stroke-width="1" fill="none" fill-rule="evenodd">
        <g id="simply-sewing-logo" transform="translate(0.000000, 1.000000)">
            <g id="Group-3" transform="translate(0.000000, 20.976000)">
                <g id="Fill-1-Clipped">
                    <mask id="mask-2" fill="white">
                        <use xlink:href="#path-1"></use>
                    </mask>
                    <g id="path-1"></g>
                    <path d="M62.9315,2.8658 L60.2625,2.8658 C60.2625,5.6748 59.4195,7.9228 56.0485,7.9228 C52.1155,7.9228 44.6705,0.3378 32.0275,0.3378 C11.9405,0.3378 -0.0005,14.9468 -0.0005,32.6458 C-0.0005,79.1418 57.1725,51.4688 57.1725,81.2488 C57.1725,94.0318 45.7935,101.6178 33.9945,101.6178 C15.1705,101.6178 4.7765,80.9688 4.2145,71.4158 L1.5455,71.4158 L1.5455,101.7578 L4.2145,101.7578 C4.2145,99.6508 5.4785,96.7008 8.9905,96.7008 C15.1705,96.7008 19.9475,104.2868 34.8375,104.2868 C58.8575,104.2868 71.2195,88.4138 71.2195,68.1858 C71.2195,21.8298 14.0475,47.6768 14.0475,20.2848 C14.0475,10.3108 21.3515,3.0058 31.3255,3.0058 C51.4125,3.0058 58.9985,22.2508 60.2625,29.8368 L62.9315,29.8368 L62.9315,2.8658 Z M102.4035,65.2358 L102.4035,53.4358 C102.4035,42.1978 104.3695,38.2648 110.4105,38.2648 C116.4505,38.2648 118.4165,43.7428 118.4165,49.7838 L118.4165,65.2358 L102.4035,65.2358 Z M143.7015,67.9048 C143.7015,50.2048 129.7955,35.5958 110.5505,35.5958 C90.3225,35.5958 74.5895,49.6428 74.5895,70.2928 C74.5895,90.3798 90.3225,104.2868 111.6745,104.2868 C127.8285,104.2868 137.5215,96.5608 143.1405,81.6708 L140.4715,80.8278 C136.8185,90.9418 127.5475,100.7748 116.1695,100.7748 C107.6005,100.7748 102.4035,96.7008 102.4035,82.3728 L102.4035,67.9048 L143.7015,67.9048 Z M167.4415,102.6008 L173.6225,102.6008 L190.3385,58.9138 L208.7405,102.6008 L214.9215,102.6008 L235.2895,49.3618 C236.5545,46.1308 238.3805,40.7938 243.5775,40.7938 L244.7015,40.7938 L244.7015,38.1248 L224.6135,38.1248 L224.6135,40.7938 L227.5635,40.7938 C231.2165,40.7938 232.6205,42.1978 232.6205,44.4458 C232.6205,46.6928 232.0585,49.0808 230.9355,52.0308 L222.6475,74.9278 L222.3665,74.9278 L209.5835,40.7938 L214.6405,40.7938 L214.6405,38.1248 L177.5555,38.1248 L177.5555,40.7938 L182.7535,40.7938 L188.6525,54.8408 L181.3485,74.9278 L181.0675,74.9278 L168.2845,40.7938 L173.3415,40.7938 L173.3415,38.1248 L135.6945,38.1248 L135.6945,40.7938 L141.4545,40.7938 L167.4415,102.6008 Z M242.3135,101.7578 L283.0505,101.7578 L283.0505,99.0888 L275.3245,99.0888 L275.3245,35.5958 C270.5485,37.8438 259.8725,38.1248 250.7415,38.1248 L242.3135,38.1248 L242.3135,40.7938 L250.0395,40.7938 L250.0395,99.0888 L242.3135,99.0888 L242.3135,101.7578 Z M249.6175,13.9628 C249.6175,21.1268 255.5175,27.0268 262.6815,27.0268 C269.8455,27.0268 275.7455,21.1268 275.7455,13.9628 C275.7455,6.7988 269.8455,0.8988 262.6815,0.8988 C255.5175,0.8988 249.6175,6.7988 249.6175,13.9628 Z M281.2245,101.7578 L321.9605,101.7578 L321.9605,99.0888 L314.2355,99.0888 L314.2355,58.2118 C314.2355,50.0648 321.6805,40.7938 328.0015,40.7938 C333.4795,40.7938 334.8845,44.5858 334.8845,49.7838 L334.8845,99.0888 L327.1585,99.0888 L327.1585,101.7578 L367.8955,101.7578 L367.8955,99.0888 L360.1695,99.0888 L360.1695,58.2118 C360.1695,42.1978 350.7575,35.5958 336.9915,35.5958 C327.1585,35.5958 319.4325,39.3888 314.5155,47.8168 L314.2355,47.8168 L314.2355,35.5958 C309.4585,37.8438 298.7835,38.1248 289.6525,38.1248 L281.2245,38.1248 L281.2245,40.7938 L288.9505,40.7938 L288.9505,99.0888 L281.2245,99.0888 L281.2245,101.7578 Z M382.3625,84.9018 C377.4465,84.9018 375.6205,83.3568 375.6205,81.1088 C375.6205,78.1588 383.2055,73.6638 386.5775,73.6638 C388.8245,73.6638 392.4765,75.9118 401.4675,75.9118 C414.1095,75.9118 430.4045,69.7308 430.4045,55.2618 C430.4045,48.9408 426.4715,44.3048 421.4145,40.9338 C422.5385,38.1248 423.8025,35.4558 425.9095,33.7698 C425.9095,38.1248 428.5785,42.4788 433.0735,42.4788 C437.4285,42.4788 440.7995,40.0908 440.7995,35.1748 C440.7995,30.3988 437.7085,27.5888 432.9325,27.5888 C426.1905,27.5888 421.5545,33.6288 419.1665,39.5288 C414.2505,36.7198 409.4745,35.5958 399.9215,35.5958 C386.4365,35.5958 370.8445,42.6198 370.8445,54.8408 C370.8445,63.5498 376.8845,68.7468 383.7675,71.5568 L383.7675,71.8378 C374.4965,74.6468 368.7375,83.2158 368.7375,91.5038 C368.7375,100.6348 373.0915,105.9728 382.5035,107.2368 L382.5035,107.5178 C375.6205,109.0628 367.7535,112.8558 367.7535,121.0028 C367.7535,132.8028 382.6435,137.9998 397.5335,137.9998 C410.5975,137.9998 436.0235,133.6458 436.0235,105.4108 C436.0235,94.4538 431.8095,84.9018 411.4405,84.9018 L382.3625,84.9018 Z M414.3905,107.6578 C422.9595,107.6578 429.1405,109.2028 429.1405,116.0868 C429.1405,125.4978 416.6385,134.4878 400.0625,134.4878 C388.4035,134.4878 377.8675,130.1338 377.8675,120.4408 C377.8675,113.5578 383.4865,107.6578 389.8075,107.6578 L414.3905,107.6578 Z M392.7575,48.2388 C392.7575,42.9008 395.2865,38.2648 400.6245,38.2648 C405.9625,38.2648 408.4905,42.9008 408.4905,48.2388 L408.4905,63.2688 C408.4905,68.6068 405.9625,73.2428 400.6245,73.2428 C395.2865,73.2428 392.7575,68.6068 392.7575,63.2688 L392.7575,48.2388 Z" id="Fill-1" fill="#06090B" fill-rule="nonzero" mask="url(#mask-2)"></path>
                </g>
            </g>
            <path d="M83.1641292,27.4998955 C83.2001292,27.3728955 83.2191292,27.2908955 83.2191292,27.2538955 C83.2191292,26.9628955 83.0551292,26.6728955 82.7271292,26.3808955 C82.4001292,26.0898955 81.9811292,25.8348955 81.4721292,25.6168955 C80.9621292,25.3978955 80.3801292,25.2158955 79.7251292,25.0708955 C79.0701292,24.9258955 78.4141292,24.8518955 77.7591292,24.8518955 C76.3401292,24.8518955 75.0111292,25.1438955 73.7741292,25.7258955 C72.5361292,26.3078955 71.4721292,27.1088955 70.5801292,28.1278955 C69.6881292,29.1468955 68.9881292,30.3478955 68.4781292,31.7308955 C67.9681292,33.1148955 67.7141292,34.6238955 67.7141292,36.2618955 C67.7141292,38.7378955 68.2791292,41.0028955 69.4081292,43.0588955 C70.5381292,45.1158955 72.0961292,46.8988955 74.0821292,48.4088955 C76.0681292,49.9188955 78.4181292,51.0928955 81.1331292,51.9298955 C83.8471292,52.7668955 86.7901292,53.1858955 89.9611292,53.1858955 C93.0211292,53.1858955 95.9001292,52.7488955 98.5971292,51.8758955 C101.293129,51.0018955 103.653129,49.8188955 105.675129,48.3268955 C107.698129,46.8348955 109.301129,45.0978955 110.485129,43.1138955 C111.669129,41.1298955 112.262129,39.0108955 112.262129,36.7538955 C112.262129,32.8228955 110.108129,29.0748955 105.802129,25.5068955 L99.2331292,20.2118955 C96.8601292,18.2828955 95.1631292,16.5268955 94.1411292,14.9438955 C93.1201292,13.3598955 92.6091292,11.7688955 92.6091292,10.1668955 C92.6091292,8.8208955 92.9361292,7.5918955 93.5911292,6.4818955 C94.2461292,5.3718955 95.1741292,4.4168955 96.3761292,3.6158955 C97.5771292,2.8148955 99.0051292,2.1958955 100.661129,1.7588955 C102.317129,1.3228955 104.146129,1.1038955 106.148129,1.1038955 C107.895129,1.1038955 109.587129,1.3318955 111.225129,1.7868955 C112.863129,2.2418955 114.318129,2.8508955 115.592129,3.6158955 C116.866129,4.3798955 117.894129,5.2448955 118.677129,6.2088955 C119.459129,7.1728955 119.851129,8.1658955 119.851129,9.1838955 C119.851129,9.9478955 119.605129,10.5488955 119.114129,10.9858955 C118.622129,11.4218955 117.994129,11.6408955 117.230129,11.6408955 C116.757129,11.6408955 116.247129,11.5588955 115.701129,11.3948955 C115.156129,11.2308955 114.664129,11.0038955 114.227129,10.7128955 L114.009129,10.5488955 C113.900129,10.6218955 113.845129,10.6948955 113.845129,10.7668955 C113.736129,10.9128955 113.645129,11.0128955 113.572129,11.0678955 C113.499129,11.1218955 113.463129,11.1858955 113.463129,11.2588955 C113.463129,11.4038955 113.608129,11.5858955 113.900129,11.8048955 C114.337129,11.9868955 114.819129,12.1508955 115.347129,12.2958955 C115.874129,12.4418955 116.374129,12.5138955 116.848129,12.5138955 C118.158129,12.5138955 119.241129,12.1508955 120.096129,11.4218955 C120.951129,10.6948955 121.379129,9.7488955 121.379129,8.5838955 C121.379129,7.4188955 121.005129,6.3268955 120.260129,5.3078955 C119.514129,4.2888955 118.486129,3.3968955 117.175129,2.6328955 C115.865129,1.8688955 114.337129,1.2678955 112.590129,0.8308955 C110.843129,0.3948955 108.986129,0.1758955 107.021129,0.1758955 C104.582129,0.1758955 102.353129,0.4588955 100.334129,1.0218955 C98.3141292,1.5868955 96.5851292,2.3788955 95.1471292,3.3968955 C93.7091292,4.4168955 92.5901292,5.6348955 91.7901292,7.0548955 C90.9891292,8.4738955 90.5891292,10.0398955 90.5891292,11.7498955 C90.5891292,12.8058955 90.7431292,13.8158955 91.0531292,14.7798955 C91.3611292,15.7448955 91.8721292,16.7368955 92.5811292,17.7548955 C93.2911292,18.7748955 94.2191292,19.8298955 95.3661292,20.9218955 C96.5121292,22.0128955 97.9041292,23.1968955 99.5421292,24.4698955 L102.381129,26.7078955 C103.836129,27.8368955 105.064129,28.8838955 106.066129,29.8478955 C107.066129,30.8118955 107.885129,31.7578955 108.522129,32.6858955 C109.159129,33.6138955 109.623129,34.5248955 109.915129,35.4158955 C110.205129,36.3078955 110.351129,37.2268955 110.351129,38.1728955 C110.351129,40.6478955 109.387129,43.0138955 107.458129,45.2698955 C107.021129,45.7798955 106.557129,46.2708955 106.066129,46.7438955 C105.574129,47.2168955 105.183129,47.5448955 104.892129,47.7268955 C104.491129,48.0178955 104.191129,48.2268955 103.991129,48.3548955 C103.791129,48.4818955 103.672129,48.5638955 103.636129,48.5998955 C103.563129,48.7448955 103.436129,48.8538955 103.254129,48.9278955 C103.181129,48.9278955 103.072129,48.9638955 102.927129,49.0368955 C102.817129,49.1088955 102.699129,49.1818955 102.572129,49.2548955 C102.444129,49.3278955 102.289129,49.3998955 102.108129,49.4738955 C100.724129,50.2738955 99.1051292,50.9108955 97.2491292,51.3838955 C95.3931292,51.8568955 93.5371292,52.0938955 91.6811292,52.0938955 C89.4971292,52.0938955 87.2121292,51.7478955 84.8291292,51.0568955 C82.4451292,50.3648955 80.1611292,49.3998955 77.9781292,48.1628955 C75.0651292,46.4158955 72.8461292,44.4428955 71.3171292,42.2398955 C69.7891292,40.0378955 69.0241292,37.5718955 69.0241292,34.8428955 C69.0241292,33.5688955 69.2431292,32.3678955 69.6801292,31.2398955 C70.1161292,30.1118955 70.7071292,29.1378955 71.4541292,28.3188955 C72.1991292,27.4998955 73.0821292,26.8538955 74.1021292,26.3808955 C75.1201292,25.9078955 76.2121292,25.6708955 77.3771292,25.6708955 C79.2331292,25.6708955 81.1251292,26.4348955 83.0551292,27.9638955 C83.0911292,27.7818955 83.1271292,27.6278955 83.1641292,27.4998955 Z M129.109129,23.2138955 C128.818129,23.0688955 128.581129,22.9778955 128.400129,22.9408955 C128.217129,22.9058955 128.053129,22.8868955 127.908129,22.8868955 C126.961129,22.8868955 125.888129,23.5418955 124.687129,24.8518955 C124.177129,25.3618955 123.759129,25.8538955 123.432129,26.3258955 C123.104129,26.7998955 122.940129,27.1268955 122.940129,27.3088955 C122.940129,27.6358955 123.177129,27.8188955 123.650129,27.8548955 L123.814129,27.6908955 C124.432129,27.1088955 125.078129,26.5268955 125.752129,25.9438955 C126.425129,25.3618955 127.016129,24.8518955 127.526129,24.4148955 L128.782129,23.5418955 L129.109129,23.2138955 Z M122.613129,32.3858955 C122.139129,32.4228955 121.739129,32.4768955 121.412129,32.5498955 C121.084129,32.6228955 120.611129,32.7498955 119.992129,32.9318955 C119.410129,33.6598955 118.682129,34.8068955 117.809129,36.3708955 C115.697129,40.0478955 114.642129,43.0498955 114.642129,45.3788955 C114.642129,46.3258955 114.869129,47.0718955 115.325129,47.6178955 C115.779129,48.1628955 116.462129,48.4358955 117.372129,48.4358955 C118.973129,48.4358955 121.111129,47.4998955 123.787129,45.6248955 C126.462129,43.7508955 129.455129,41.0848955 132.767129,37.6268955 C133.240129,37.0808955 133.613129,36.6628955 133.886129,36.3708955 C134.159129,36.0798955 134.359129,35.8618955 134.487129,35.7158955 C134.614129,35.5708955 134.686129,35.4798955 134.705129,35.4428955 C134.723129,35.4068955 134.732129,35.3708955 134.732129,35.3338955 C134.732129,35.0428955 134.623129,34.8968955 134.405129,34.8968955 C134.222129,34.8968955 134.086129,34.9608955 133.995129,35.0878955 C133.904129,35.2158955 133.622129,35.5348955 133.149129,36.0438955 C131.730129,37.6458955 130.310129,39.0918955 128.891129,40.3838955 C127.472129,41.6758955 126.134129,42.7858955 124.878129,43.7138955 C123.623129,44.6418955 122.476129,45.3608955 121.439129,45.8708955 C120.402129,46.3808955 119.556129,46.6348955 118.900129,46.6348955 C117.809129,46.6348955 117.263129,45.9438955 117.263129,44.5598955 C117.263129,43.2498955 117.635129,41.7038955 118.382129,39.9198955 C119.127129,38.1368955 120.429129,35.8068955 122.285129,32.9318955 L122.613129,32.3858955 Z M137.877129,31.8398955 C137.367129,31.9488955 136.885129,32.0948955 136.430129,32.2768955 C135.975129,32.4588955 135.547129,32.6588955 135.147129,32.8768955 C134.674129,33.6058955 134.182129,34.4248955 133.673129,35.3338955 C133.163129,36.2438955 132.599129,37.3178955 131.981129,38.5548955 C131.544129,39.4288955 131.135129,40.3018955 130.752129,41.1758955 C130.370129,42.0488955 130.043129,42.8678955 129.770129,43.6318955 C129.497129,44.3968955 129.288129,45.0698955 129.142129,45.6518955 C128.997129,46.2348955 128.924129,46.6718955 128.924129,46.9618955 C128.924129,47.3628955 129.106129,47.5628955 129.469129,47.5628955 C129.724129,47.5628955 129.997129,47.4178955 130.288129,47.1258955 C131.671129,45.5248955 133.254129,44.0058955 135.038129,42.5678955 C136.821129,41.1298955 138.932129,39.6288955 141.371129,38.0638955 C142.899129,37.0808955 144.082129,36.3808955 144.919129,35.9618955 C145.756129,35.5438955 146.393129,35.3338955 146.830129,35.3338955 C147.339129,35.3338955 147.594129,35.6258955 147.594129,36.2078955 C147.594129,36.3898955 147.576129,36.6168955 147.540129,36.8898955 C147.503129,37.1628955 147.412129,37.4628955 147.267129,37.7908955 L146.557129,39.7558955 C146.120129,41.0308955 145.774129,42.2488955 145.520129,43.4138955 C145.265129,44.5788955 145.138129,45.4698955 145.138129,46.0888955 C145.138129,47.0358955 145.483129,47.5078955 146.175129,47.5078955 C146.357129,47.5078955 146.520129,47.4628955 146.666129,47.3718955 C146.811129,47.2808955 147.048129,47.0168955 147.376129,46.5798955 C147.667129,46.2888955 148.022129,45.9068955 148.441129,45.4338955 C148.859129,44.9608955 149.523129,44.3058955 150.433129,43.4678955 C151.379129,42.5588955 152.335129,41.7038955 153.299129,40.9028955 C154.263129,40.1018955 155.328129,39.3188955 156.493129,38.5548955 C157.767129,37.6458955 158.886129,36.9538955 159.850129,36.4808955 C160.814129,36.0078955 161.516129,35.7708955 161.952129,35.7708955 C162.680129,35.7708955 163.044129,36.1528955 163.044129,36.9168955 C163.044129,37.0998955 163.008129,37.3448955 162.935129,37.6538955 C162.862129,37.9638955 162.680129,38.6098955 162.389129,39.5918955 C162.171129,40.5028955 161.998129,41.3308955 161.870129,42.0758955 C161.742129,42.8228955 161.679129,43.5048955 161.679129,44.1238955 C161.679129,45.1798955 161.943129,46.0068955 162.471129,46.6078955 C162.998129,47.2078955 163.717129,47.5078955 164.627129,47.5078955 C165.464129,47.5078955 166.410129,47.2538955 167.466129,46.7448955 C168.521129,46.2358955 169.759129,45.4168955 171.179129,44.2868955 C171.615129,43.9598955 172.125129,43.5498955 172.707129,43.0588955 C173.289129,42.5678955 173.889129,42.0308955 174.509129,41.4488955 C175.127129,40.8668955 175.718129,40.2938955 176.283129,39.7288955 C176.847129,39.1648955 177.348129,38.6458955 177.784129,38.1728955 L179.422129,36.3708955 C179.859129,35.8618955 180.122129,35.5438955 180.214129,35.4158955 C180.304129,35.2888955 180.350129,35.1518955 180.350129,35.0068955 C180.350129,34.8248955 180.259129,34.7338955 180.077129,34.7338955 C179.931129,34.7338955 179.832129,34.7698955 179.777129,34.8428955 C179.722129,34.9158955 179.477129,35.1888955 179.040129,35.6618955 C178.276129,36.4988955 177.502129,37.3178955 176.720129,38.1178955 C175.937129,38.9188955 175.018129,39.7928955 173.963129,40.7388955 C171.924129,42.5948955 170.296129,43.9238955 169.077129,44.7238955 C167.857129,45.5248955 166.829129,45.9248955 165.992129,45.9248955 C164.718129,45.9248955 164.081129,45.1798955 164.081129,43.6868955 C164.081129,43.4678955 164.099129,43.2138955 164.136129,42.9228955 C164.172129,42.6318955 164.226129,42.2668955 164.300129,41.8308955 C164.372129,41.3938955 164.491129,40.8478955 164.655129,40.1928955 C164.818129,39.5378955 165.010129,38.7008955 165.228129,37.6818955 C165.373129,37.3178955 165.464129,36.9808955 165.501129,36.6718955 C165.537129,36.3628955 165.555129,36.0628955 165.555129,35.7708955 C165.555129,34.7878955 165.010129,34.2968955 163.918129,34.2968955 C163.226129,34.2968955 162.380129,34.4878955 161.379129,34.8698955 C160.378129,35.2518955 159.286129,35.7898955 158.104129,36.4808955 C156.920129,37.1718955 155.674129,38.0008955 154.364129,38.9648955 C153.054129,39.9288955 151.743129,41.0118955 150.433129,42.2128955 L148.413129,44.0138955 L147.813129,44.5598955 C147.885129,44.1598955 147.958129,43.7958955 148.031129,43.4678955 C148.104129,43.1408955 148.176129,42.7858955 148.249129,42.4038955 C148.322129,42.0218955 148.422129,41.6118955 148.550129,41.1758955 C148.677129,40.7388955 148.831129,40.2118955 149.014129,39.5918955 C149.451129,38.3188955 149.723129,37.4088955 149.833129,36.8628955 C149.942129,36.3168955 149.996129,35.8798955 149.996129,35.5518955 C149.996129,35.0798955 149.860129,34.6978955 149.587129,34.4058955 C149.314129,34.1148955 148.977129,33.9688955 148.577129,33.9688955 C147.776129,33.9688955 146.694129,34.2878955 145.329129,34.9248955 C143.964129,35.5618955 142.153129,36.5898955 139.897129,38.0088955 C138.513129,38.9188955 137.230129,39.8108955 136.048129,40.6838955 C134.865129,41.5578955 133.654129,42.4858955 132.418129,43.4678955 L132.090129,43.6868955 C132.708129,41.9768955 133.509129,40.1108955 134.492129,38.0908955 C135.475129,36.0708955 136.475129,34.1878955 137.495129,32.4408955 L137.877129,31.8398955 Z M187.480129,26.8718955 L186.497129,26.8718955 L186.443129,26.8718955 C186.115129,26.8718955 185.869129,26.8908955 185.706129,26.9268955 C185.542129,26.9628955 185.369129,27.0628955 185.187129,27.2268955 C185.005129,27.3908955 184.778129,27.6548955 184.505129,28.0188955 C184.232129,28.3828955 183.822129,28.8918955 183.276129,29.5468955 C179.018129,35.4068955 175.497129,41.6218955 172.713129,48.1908955 C169.928129,54.7598955 167.900129,61.6838955 166.625129,68.9628955 L166.462129,69.7278955 L168.700129,69.1268955 C168.883129,67.2708955 169.237129,65.1778955 169.765129,62.8488955 C170.293129,60.5188955 171.030129,57.9898955 171.976129,55.2608955 C174.159129,48.7818955 176.816129,43.8148955 179.946129,40.3568955 C183.877129,35.9528955 187.225129,33.7508955 189.991129,33.7508955 C190.828129,33.7508955 191.501129,33.9968955 192.011129,34.4878955 C192.520129,34.9788955 192.775129,35.6798955 192.775129,36.5898955 C192.775129,37.6458955 192.456129,38.8098955 191.820129,40.0838955 C191.183129,41.3578955 190.337129,42.6138955 189.282129,43.8508955 C188.662129,44.0328955 188.053129,44.1598955 187.453129,44.2328955 C186.852129,44.3058955 186.096129,44.3418955 185.187129,44.3418955 C184.459129,44.3418955 183.822129,44.3238955 183.276129,44.2868955 C182.730129,44.2518955 182.257129,44.1598955 181.857129,44.0138955 L180.983129,43.7958955 C180.910129,43.7958955 180.847129,43.7778955 180.792129,43.7408955 C180.738129,43.7058955 180.692129,43.6868955 180.656129,43.6868955 C180.219129,43.6868955 179.873129,43.9238955 179.619129,44.3968955 C179.364129,44.8698955 179.236129,45.4878955 179.236129,46.2528955 C179.236129,46.9808955 179.518129,47.5998955 180.083129,48.1088955 C180.646129,48.6178955 181.347129,48.8728955 182.184129,48.8728955 C183.349129,48.8728955 184.532129,48.5268955 185.733129,47.8358955 C186.934129,47.1448955 188.299129,46.0338955 189.827129,44.5058955 C190.518129,44.2518955 191.119129,44.0238955 191.629129,43.8228955 C192.138129,43.6238955 192.602129,43.4328955 193.021129,43.2498955 C193.439129,43.0678955 193.840129,42.8678955 194.222129,42.6498955 C194.604129,42.4308955 195.014129,42.1948955 195.451129,41.9398955 C196.069129,41.6118955 196.706129,41.2298955 197.361129,40.7928955 C198.016129,40.3568955 198.653129,39.8928955 199.272129,39.4008955 C199.891129,38.9098955 200.464129,38.4188955 200.992129,37.9268955 C201.519129,37.4358955 201.965129,36.9908955 202.329129,36.5898955 L203.148129,35.7158955 C203.476129,35.3888955 203.640129,35.1518955 203.640129,35.0068955 C203.640129,34.7878955 203.494129,34.6788955 203.203129,34.6788955 C203.094129,34.6788955 203.030129,34.6978955 203.012129,34.7338955 C202.993129,34.7698955 202.911129,34.8788955 202.766129,35.0608955 C202.256129,35.7158955 201.655129,36.3708955 200.964129,37.0258955 C200.273129,37.6818955 199.381129,38.4098955 198.289129,39.2098955 C197.598129,39.7558955 196.960129,40.2298955 196.379129,40.6298955 C195.796129,41.0308955 195.223129,41.3938955 194.659129,41.7208955 C194.094129,42.0488955 193.503129,42.3408955 192.885129,42.5948955 C192.265129,42.8498955 191.592129,43.0858955 190.865129,43.3048955 C191.920129,41.8128955 192.748129,40.3748955 193.349129,38.9918955 C193.949129,37.6088955 194.250129,36.2988955 194.250129,35.0608955 C194.250129,34.1518955 193.958129,33.3878955 193.376129,32.7678955 C192.793129,32.1498955 192.084129,31.8398955 191.247129,31.8398955 C190.337129,31.8398955 189.317129,32.0948955 188.190129,32.6038955 C187.061129,33.1148955 185.915129,33.8418955 184.750129,34.7878955 C184.349129,35.1158955 183.913129,35.4888955 183.440129,35.9068955 C182.967129,36.3258955 182.503129,36.7538955 182.048129,37.1898955 C181.592129,37.6268955 181.147129,38.0548955 180.710129,38.4728955 C180.274129,38.8918955 179.909129,39.2648955 179.619129,39.5918955 L177.817129,41.6668955 C177.744129,41.7038955 177.580129,41.8848955 177.326129,42.2128955 C177.653129,41.5218955 178.063129,40.7388955 178.554129,39.8648955 C179.045129,38.9918955 179.582129,38.0828955 180.165129,37.1358955 C180.746129,36.1898955 181.366129,35.2248955 182.021129,34.2418955 C182.676129,33.2598955 183.331129,32.2958955 183.986129,31.3488955 C184.314129,30.9488955 184.577129,30.6028955 184.778129,30.3118955 C184.977129,30.0208955 185.178129,29.7378955 185.378129,29.4648955 C185.578129,29.1918955 185.796129,28.9008955 186.033129,28.5918955 C186.270129,28.2828955 186.588129,27.9088955 186.989129,27.4728955 L187.480129,26.8718955 Z M183.058129,45.0518955 C183.567129,45.0878955 184.131129,45.1058955 184.750129,45.1058955 C185.187129,45.1058955 185.642129,45.1158955 186.115129,45.1338955 C186.588129,45.1518955 187.243129,45.1058955 188.081129,44.9968955 C186.443129,46.6348955 184.786129,47.4538955 183.113129,47.4538955 C181.729129,47.4538955 181.038129,46.9268955 181.038129,45.8708955 C181.038129,45.6888955 181.047129,45.5248955 181.065129,45.3788955 C181.083129,45.2338955 181.165129,45.0158955 181.311129,44.7238955 C181.966129,44.9068955 182.548129,45.0158955 183.058129,45.0518955 Z M205.151129,33.0408955 L206.734129,31.0208955 C206.844129,30.9118955 207.080129,30.6028955 207.444129,30.0928955 C207.807129,29.5838955 208.208129,29.0378955 208.645129,28.4548955 C209.008129,27.9088955 209.336129,27.4268955 209.628129,27.0088955 C209.919129,26.5908955 210.201129,26.1898955 210.474129,25.8078955 C210.747129,25.4248955 211.020129,25.0248955 211.293129,24.6068955 C211.566129,24.1888955 211.884129,23.6878955 212.248129,23.1048955 C214.614129,19.4298955 216.333129,16.3818955 217.407129,13.9608955 C218.480129,11.5408955 219.018129,9.5478955 219.018129,7.9828955 C219.018129,7.3278955 218.854129,6.8008955 218.526129,6.3998955 C218.199129,5.9998955 217.798129,5.7988955 217.325129,5.7988955 C216.197129,5.7988955 215.014129,6.5818955 213.777129,8.1468955 C212.393129,9.7848955 210.947129,12.0138955 209.437129,14.8338955 C207.926129,17.6548955 206.516129,20.7938955 205.206129,24.2518955 C204.029129,27.1638955 203.171129,29.8658955 202.631129,32.3588955 C202.090129,34.8518955 201.821129,37.3178955 201.821129,39.7558955 C201.821129,42.7768955 202.303129,45.0878955 203.268129,46.6888955 C204.232129,48.2908955 205.642129,49.0918955 207.499129,49.0918955 C208.517129,49.0918955 209.573129,48.8638955 210.665129,48.4088955 C211.757129,47.9538955 212.949129,47.2348955 214.241129,46.2528955 C215.532129,45.2698955 216.961129,44.0138955 218.526129,42.4858955 C220.091129,40.9568955 221.857129,39.1008955 223.822129,36.9168955 C224.513129,36.1528955 224.914129,35.6978955 225.023129,35.5518955 C225.132129,35.4068955 225.187129,35.2788955 225.187129,35.1698955 C225.187129,34.9158955 225.078129,34.7878955 224.859129,34.7878955 C224.641129,34.7878955 224.368129,35.0248955 224.040129,35.4978955 C223.858129,35.7158955 223.604129,36.0078955 223.276129,36.3708955 C222.948129,36.7358955 222.594129,37.1178955 222.211129,37.5178955 C221.829129,37.9188955 221.420129,38.3368955 220.983129,38.7728955 C220.546129,39.2098955 220.145129,39.6108955 219.782129,39.9738955 C217.380129,42.5218955 215.305129,44.3608955 213.558129,45.4878955 C211.811129,46.6168955 210.246129,47.1808955 208.863129,47.1808955 C207.298129,47.1808955 206.124129,46.3438955 205.342129,44.6688955 C204.559129,42.9958955 204.168129,40.5568955 204.168129,37.3538955 C204.168129,36.6258955 204.196129,36.0168955 204.250129,35.5248955 C204.305129,35.0338955 204.387129,34.4968955 204.496129,33.9148955 C204.859129,33.3688955 205.078129,33.0778955 205.151129,33.0408955 Z M206.188129,26.0258955 C206.879129,23.7518955 207.698129,21.4318955 208.645129,19.0648955 C209.336129,17.3178955 210.064129,15.7268955 210.829129,14.2878955 C211.593129,12.8508955 212.339129,11.6048955 213.067129,10.5488955 C213.795129,9.4938955 214.477129,8.6748955 215.114129,8.0918955 C215.751129,7.5098955 216.288129,7.2188955 216.725129,7.2188955 C217.452129,7.2188955 217.817129,7.6918955 217.817129,8.6378955 C217.817129,9.2568955 217.644129,10.1038955 217.298129,11.1768955 C216.952129,12.2508955 216.452129,13.5698955 215.797129,15.1348955 C214.959129,16.9908955 213.904129,18.9558955 212.630129,21.0308955 C211.356129,23.1048955 209.792129,25.4888955 207.935129,28.1818955 C207.244129,29.1288955 206.680129,29.8938955 206.243129,30.4748955 C205.806129,31.0578955 205.296129,31.6758955 204.714129,32.3308955 C205.005129,30.4028955 205.497129,28.3008955 206.188129,26.0258955 Z M226.836129,32.4128955 C226.438129,32.4678955 226.004129,32.5868955 225.533129,32.7678955 C223.975129,34.5888955 222.753129,36.4168955 221.866129,38.2548955 C220.978129,40.0928955 220.535129,41.7038955 220.535129,43.0858955 C220.535129,44.3238955 220.906129,45.3158955 221.650129,46.0618955 C222.394129,46.8078955 223.291129,47.1808955 224.343129,47.1808955 C225.865129,47.1808955 227.361129,46.6168955 228.830129,45.4878955 C230.299129,44.3608955 231.848129,42.5768955 233.481129,40.1378955 C233.299129,40.9028955 233.127129,41.5298955 232.963129,42.0218955 C232.800129,42.5128955 232.573129,43.0678955 232.283129,43.6868955 L231.410129,45.8708955 C230.974129,46.9618955 230.665129,47.7088955 230.484129,48.1088955 C230.302129,48.5088955 230.120129,48.8908955 229.939129,49.2548955 C229.321129,49.6188955 228.848129,49.9008955 228.522129,50.1018955 C228.194129,50.3008955 227.795129,50.5468955 227.323129,50.8388955 C227.032129,50.9838955 226.624129,51.2018955 226.097129,51.4938955 C225.569129,51.7838955 225.006129,52.1028955 224.408129,52.4488955 C223.808129,52.7938955 223.218129,53.1398955 222.637129,53.4858955 C222.055129,53.8318955 221.564129,54.1318955 221.165129,54.3868955 C219.784129,55.1508955 218.650129,55.7878955 217.759129,56.2978955 C216.869129,56.8068955 216.207129,57.2068955 215.770129,57.4988955 C213.991129,58.6268955 212.447129,59.7368955 211.138129,60.8288955 C208.595129,63.1218955 207.323129,65.1958955 207.323129,67.0528955 C207.323129,67.8528955 207.569129,68.4988955 208.059129,68.9908955 C208.550129,69.4818955 209.195129,69.7278955 209.993129,69.7278955 C211.955129,69.7278955 214.226129,68.7258955 216.806129,66.7248955 C218.513129,65.4148955 220.193129,63.9138955 221.846129,62.2208955 C223.499129,60.5288955 224.979129,58.8088955 226.288129,57.0618955 C226.542129,56.6978955 226.851129,56.2608955 227.214129,55.7518955 C227.577129,55.2418955 227.940129,54.7328955 228.303129,54.2228955 C228.667129,53.7128955 229.003129,53.2308955 229.312129,52.7768955 C229.620129,52.3208955 229.848129,51.9658955 229.993129,51.7118955 L231.083129,49.8008955 C231.083129,49.7278955 231.228129,49.4918955 231.519129,49.0918955 C232.137129,48.6908955 232.682129,48.3178955 233.155129,47.9718955 C233.628129,47.6268955 234.065129,47.2988955 234.465129,46.9898955 C234.866129,46.6808955 235.266129,46.3618955 235.667129,46.0338955 C236.067129,45.7068955 236.503129,45.3608955 236.977129,44.9968955 C238.214129,43.9788955 239.488129,42.8678955 240.798129,41.6668955 C242.109129,40.4658955 243.182129,39.4108955 244.019129,38.4998955 L245.930129,36.3708955 L246.640129,35.5518955 C246.785129,35.5168955 246.858129,35.3528955 246.858129,35.0608955 C246.858129,34.8068955 246.749129,34.6788955 246.531129,34.6788955 C246.421129,34.6788955 246.239129,34.8068955 245.985129,35.0608955 C245.038129,36.2258955 243.965129,37.4178955 242.764129,38.6368955 C241.563129,39.8568955 240.352129,41.0308955 239.133129,42.1578955 C237.913129,43.2868955 236.712129,44.3148955 235.530129,45.2428955 C234.347129,46.1708955 233.300129,46.9268955 232.391129,47.5078955 C232.463129,47.3268955 232.536129,47.1258955 232.609129,46.9078955 C232.645129,46.8348955 232.663129,46.7628955 232.663129,46.6888955 L233.481129,45.0518955 C233.699129,44.6518955 233.926129,44.1418955 234.162129,43.5228955 C234.397129,42.9048955 234.643129,42.2398955 234.897129,41.5298955 C235.151129,40.8208955 235.397129,40.0838955 235.633129,39.3188955 C235.869129,38.5548955 236.096129,37.8268955 236.315129,37.1358955 C237.113129,34.5148955 237.513129,32.2218955 237.513129,30.2568955 C237.513129,29.9288955 237.495129,29.6478955 237.460129,29.4108955 C237.425129,29.1738955 237.390129,28.8558955 237.355129,28.4548955 L235.657129,29.4378955 C235.657129,29.5838955 235.675129,29.6928955 235.712129,29.7658955 C235.748129,29.8388955 235.766129,29.8938955 235.766129,29.9288955 C235.766129,31.7128955 235.439129,33.5508955 234.784129,35.4428955 C234.129129,37.3358955 233.282129,39.0558955 232.245129,40.6018955 C231.208129,42.1498955 230.061129,43.4228955 228.806129,44.4238955 C227.550129,45.4248955 226.322129,45.9248955 225.121129,45.9248955 C224.392129,45.9248955 223.801129,45.6788955 223.346129,45.1878955 C222.891129,44.6968955 222.664129,44.0508955 222.664129,43.2498955 C222.664129,40.7748955 224.562129,37.1358955 228.358129,32.3308955 C227.742129,32.3308955 227.234129,32.3588955 226.836129,32.4128955 Z M229.284129,50.5108955 C228.303129,52.5488955 227.050129,54.5958955 225.525129,56.6528955 C224.000129,58.7078955 222.401129,60.5738955 220.731129,62.2478955 C219.061129,63.9218955 217.435129,65.2868955 215.854129,66.3428955 C214.275129,67.3978955 212.958129,67.9258955 211.905129,67.9258955 C211.287129,67.9258955 210.788129,67.7438955 210.406129,67.3798955 C210.026129,67.0158955 209.835129,66.5248955 209.835129,65.9058955 C209.835129,65.1418955 210.062129,64.3778955 210.515129,63.6128955 C210.970129,62.8488955 211.697129,62.0208955 212.695129,61.1288955 C213.694129,60.2368955 215.001129,59.2638955 216.617129,58.2088955 C218.234129,57.1528955 220.186129,55.9338955 222.474129,54.5508955 L225.906129,52.5308955 L228.576129,50.8928955 L229.284129,50.5108955 Z" id="Fill-4" fill="#FEFEFE" fill-rule="nonzero"></path>
            <path d="M83.1641292,27.4998955 C83.2001292,27.3728955 83.2191292,27.2908955 83.2191292,27.2538955 C83.2191292,26.9628955 83.0551292,26.6728955 82.7271292,26.3808955 C82.4001292,26.0898955 81.9811292,25.8348955 81.4721292,25.6168955 C80.9621292,25.3978955 80.3801292,25.2158955 79.7251292,25.0708955 C79.0701292,24.9258955 78.4141292,24.8518955 77.7591292,24.8518955 C76.3401292,24.8518955 75.0111292,25.1438955 73.7741292,25.7258955 C72.5361292,26.3078955 71.4721292,27.1088955 70.5801292,28.1278955 C69.6881292,29.1468955 68.9881292,30.3478955 68.4781292,31.7308955 C67.9681292,33.1148955 67.7141292,34.6238955 67.7141292,36.2618955 C67.7141292,38.7378955 68.2791292,41.0028955 69.4081292,43.0588955 C70.5381292,45.1158955 72.0961292,46.8988955 74.0821292,48.4088955 C76.0681292,49.9188955 78.4181292,51.0928955 81.1331292,51.9298955 C83.8471292,52.7668955 86.7901292,53.1858955 89.9611292,53.1858955 C93.0211292,53.1858955 95.9001292,52.7488955 98.5971292,51.8758955 C101.293129,51.0018955 103.653129,49.8188955 105.675129,48.3268955 C107.698129,46.8348955 109.301129,45.0978955 110.485129,43.1138955 C111.669129,41.1298955 112.262129,39.0108955 112.262129,36.7538955 C112.262129,32.8228955 110.108129,29.0748955 105.802129,25.5068955 L99.2331292,20.2118955 C96.8601292,18.2828955 95.1631292,16.5268955 94.1411292,14.9438955 C93.1201292,13.3598955 92.6091292,11.7688955 92.6091292,10.1668955 C92.6091292,8.8208955 92.9361292,7.5918955 93.5911292,6.4818955 C94.2461292,5.3718955 95.1741292,4.4168955 96.3761292,3.6158955 C97.5771292,2.8148955 99.0051292,2.1958955 100.661129,1.7588955 C102.317129,1.3228955 104.146129,1.1038955 106.148129,1.1038955 C107.895129,1.1038955 109.587129,1.3318955 111.225129,1.7868955 C112.863129,2.2418955 114.318129,2.8508955 115.592129,3.6158955 C116.866129,4.3798955 117.894129,5.2448955 118.677129,6.2088955 C119.459129,7.1728955 119.851129,8.1658955 119.851129,9.1838955 C119.851129,9.9478955 119.605129,10.5488955 119.114129,10.9858955 C118.622129,11.4218955 117.994129,11.6408955 117.230129,11.6408955 C116.757129,11.6408955 116.247129,11.5588955 115.701129,11.3948955 C115.156129,11.2308955 114.664129,11.0038955 114.227129,10.7128955 L114.009129,10.5488955 C113.900129,10.6218955 113.845129,10.6948955 113.845129,10.7668955 C113.736129,10.9128955 113.645129,11.0128955 113.572129,11.0678955 C113.499129,11.1218955 113.463129,11.1858955 113.463129,11.2588955 C113.463129,11.4038955 113.608129,11.5858955 113.900129,11.8048955 C114.337129,11.9868955 114.819129,12.1508955 115.347129,12.2958955 C115.874129,12.4418955 116.374129,12.5138955 116.848129,12.5138955 C118.158129,12.5138955 119.241129,12.1508955 120.096129,11.4218955 C120.951129,10.6948955 121.379129,9.7488955 121.379129,8.5838955 C121.379129,7.4188955 121.005129,6.3268955 120.260129,5.3078955 C119.514129,4.2888955 118.486129,3.3968955 117.175129,2.6328955 C115.865129,1.8688955 114.337129,1.2678955 112.590129,0.8308955 C110.843129,0.3948955 108.986129,0.1758955 107.021129,0.1758955 C104.582129,0.1758955 102.353129,0.4588955 100.334129,1.0218955 C98.3141292,1.5868955 96.5851292,2.3788955 95.1471292,3.3968955 C93.7091292,4.4168955 92.5901292,5.6348955 91.7901292,7.0548955 C90.9891292,8.4738955 90.5891292,10.0398955 90.5891292,11.7498955 C90.5891292,12.8058955 90.7431292,13.8158955 91.0531292,14.7798955 C91.3611292,15.7448955 91.8721292,16.7368955 92.5811292,17.7548955 C93.2911292,18.7748955 94.2191292,19.8298955 95.3661292,20.9218955 C96.5121292,22.0128955 97.9041292,23.1968955 99.5421292,24.4698955 L102.381129,26.7078955 C103.836129,27.8368955 105.064129,28.8838955 106.066129,29.8478955 C107.066129,30.8118955 107.885129,31.7578955 108.522129,32.6858955 C109.159129,33.6138955 109.623129,34.5248955 109.915129,35.4158955 C110.205129,36.3078955 110.351129,37.2268955 110.351129,38.1728955 C110.351129,40.6478955 109.387129,43.0138955 107.458129,45.2698955 C107.021129,45.7798955 106.557129,46.2708955 106.066129,46.7438955 C105.574129,47.2168955 105.183129,47.5448955 104.892129,47.7268955 C104.491129,48.0178955 104.191129,48.2268955 103.991129,48.3548955 C103.791129,48.4818955 103.672129,48.5638955 103.636129,48.5998955 C103.563129,48.7448955 103.436129,48.8538955 103.254129,48.9278955 C103.181129,48.9278955 103.072129,48.9638955 102.927129,49.0368955 C102.817129,49.1088955 102.699129,49.1818955 102.572129,49.2548955 C102.444129,49.3278955 102.289129,49.3998955 102.108129,49.4738955 C100.724129,50.2738955 99.1051292,50.9108955 97.2491292,51.3838955 C95.3931292,51.8568955 93.5371292,52.0938955 91.6811292,52.0938955 C89.4971292,52.0938955 87.2121292,51.7478955 84.8291292,51.0568955 C82.4451292,50.3648955 80.1611292,49.3998955 77.9781292,48.1628955 C75.0651292,46.4158955 72.8461292,44.4428955 71.3171292,42.2398955 C69.7891292,40.0378955 69.0241292,37.5718955 69.0241292,34.8428955 C69.0241292,33.5688955 69.2431292,32.3678955 69.6801292,31.2398955 C70.1161292,30.1118955 70.7071292,29.1378955 71.4541292,28.3188955 C72.1991292,27.4998955 73.0821292,26.8538955 74.1021292,26.3808955 C75.1201292,25.9078955 76.2121292,25.6708955 77.3771292,25.6708955 C79.2331292,25.6708955 81.1251292,26.4348955 83.0551292,27.9638955 C83.0911292,27.7818955 83.1271292,27.6278955 83.1641292,27.4998955 Z M129.109129,23.2138955 C128.818129,23.0688955 128.581129,22.9778955 128.400129,22.9408955 C128.217129,22.9058955 128.053129,22.8868955 127.908129,22.8868955 C126.961129,22.8868955 125.888129,23.5418955 124.687129,24.8518955 C124.177129,25.3618955 123.759129,25.8538955 123.432129,26.3258955 C123.104129,26.7998955 122.940129,27.1268955 122.940129,27.3088955 C122.940129,27.6358955 123.177129,27.8188955 123.650129,27.8548955 L123.814129,27.6908955 C124.432129,27.1088955 125.078129,26.5268955 125.752129,25.9438955 C126.425129,25.3618955 127.016129,24.8518955 127.526129,24.4148955 L128.782129,23.5418955 L129.109129,23.2138955 Z M122.613129,32.3858955 C122.139129,32.4228955 121.739129,32.4768955 121.412129,32.5498955 C121.084129,32.6228955 120.611129,32.7498955 119.992129,32.9318955 C119.410129,33.6598955 118.682129,34.8068955 117.809129,36.3708955 C115.697129,40.0478955 114.642129,43.0498955 114.642129,45.3788955 C114.642129,46.3258955 114.869129,47.0718955 115.325129,47.6178955 C115.779129,48.1628955 116.462129,48.4358955 117.372129,48.4358955 C118.973129,48.4358955 121.111129,47.4998955 123.787129,45.6248955 C126.462129,43.7508955 129.455129,41.0848955 132.767129,37.6268955 C133.240129,37.0808955 133.613129,36.6628955 133.886129,36.3708955 C134.159129,36.0798955 134.359129,35.8618955 134.487129,35.7158955 C134.614129,35.5708955 134.686129,35.4798955 134.705129,35.4428955 C134.723129,35.4068955 134.732129,35.3708955 134.732129,35.3338955 C134.732129,35.0428955 134.623129,34.8968955 134.405129,34.8968955 C134.222129,34.8968955 134.086129,34.9608955 133.995129,35.0878955 C133.904129,35.2158955 133.622129,35.5348955 133.149129,36.0438955 C131.730129,37.6458955 130.310129,39.0918955 128.891129,40.3838955 C127.472129,41.6758955 126.134129,42.7858955 124.878129,43.7138955 C123.623129,44.6418955 122.476129,45.3608955 121.439129,45.8708955 C120.402129,46.3808955 119.556129,46.6348955 118.900129,46.6348955 C117.809129,46.6348955 117.263129,45.9438955 117.263129,44.5598955 C117.263129,43.2498955 117.635129,41.7038955 118.382129,39.9198955 C119.127129,38.1368955 120.429129,35.8068955 122.285129,32.9318955 L122.613129,32.3858955 Z M137.877129,31.8398955 C137.367129,31.9488955 136.885129,32.0948955 136.430129,32.2768955 C135.975129,32.4588955 135.547129,32.6588955 135.147129,32.8768955 C134.674129,33.6058955 134.182129,34.4248955 133.673129,35.3338955 C133.163129,36.2438955 132.599129,37.3178955 131.981129,38.5548955 C131.544129,39.4288955 131.135129,40.3018955 130.752129,41.1758955 C130.370129,42.0488955 130.043129,42.8678955 129.770129,43.6318955 C129.497129,44.3968955 129.288129,45.0698955 129.142129,45.6518955 C128.997129,46.2348955 128.924129,46.6718955 128.924129,46.9618955 C128.924129,47.3628955 129.106129,47.5628955 129.469129,47.5628955 C129.724129,47.5628955 129.997129,47.4178955 130.288129,47.1258955 C131.671129,45.5248955 133.254129,44.0058955 135.038129,42.5678955 C136.821129,41.1298955 138.932129,39.6288955 141.371129,38.0638955 C142.899129,37.0808955 144.082129,36.3808955 144.919129,35.9618955 C145.756129,35.5438955 146.393129,35.3338955 146.830129,35.3338955 C147.339129,35.3338955 147.594129,35.6258955 147.594129,36.2078955 C147.594129,36.3898955 147.576129,36.6168955 147.540129,36.8898955 C147.503129,37.1628955 147.412129,37.4628955 147.267129,37.7908955 L146.557129,39.7558955 C146.120129,41.0308955 145.774129,42.2488955 145.520129,43.4138955 C145.265129,44.5788955 145.138129,45.4698955 145.138129,46.0888955 C145.138129,47.0358955 145.483129,47.5078955 146.175129,47.5078955 C146.357129,47.5078955 146.520129,47.4628955 146.666129,47.3718955 C146.811129,47.2808955 147.048129,47.0168955 147.376129,46.5798955 C147.667129,46.2888955 148.022129,45.9068955 148.441129,45.4338955 C148.859129,44.9608955 149.523129,44.3058955 150.433129,43.4678955 C151.379129,42.5588955 152.335129,41.7038955 153.299129,40.9028955 C154.263129,40.1018955 155.328129,39.3188955 156.493129,38.5548955 C157.767129,37.6458955 158.886129,36.9538955 159.850129,36.4808955 C160.814129,36.0078955 161.516129,35.7708955 161.952129,35.7708955 C162.680129,35.7708955 163.044129,36.1528955 163.044129,36.9168955 C163.044129,37.0998955 163.008129,37.3448955 162.935129,37.6538955 C162.862129,37.9638955 162.680129,38.6098955 162.389129,39.5918955 C162.171129,40.5028955 161.998129,41.3308955 161.870129,42.0758955 C161.742129,42.8228955 161.679129,43.5048955 161.679129,44.1238955 C161.679129,45.1798955 161.943129,46.0068955 162.471129,46.6078955 C162.998129,47.2078955 163.717129,47.5078955 164.627129,47.5078955 C165.464129,47.5078955 166.410129,47.2538955 167.466129,46.7448955 C168.521129,46.2358955 169.759129,45.4168955 171.179129,44.2868955 C171.615129,43.9598955 172.125129,43.5498955 172.707129,43.0588955 C173.289129,42.5678955 173.889129,42.0308955 174.509129,41.4488955 C175.127129,40.8668955 175.718129,40.2938955 176.283129,39.7288955 C176.847129,39.1648955 177.348129,38.6458955 177.784129,38.1728955 L179.422129,36.3708955 C179.859129,35.8618955 180.122129,35.5438955 180.214129,35.4158955 C180.304129,35.2888955 180.350129,35.1518955 180.350129,35.0068955 C180.350129,34.8248955 180.259129,34.7338955 180.077129,34.7338955 C179.931129,34.7338955 179.832129,34.7698955 179.777129,34.8428955 C179.722129,34.9158955 179.477129,35.1888955 179.040129,35.6618955 C178.276129,36.4988955 177.502129,37.3178955 176.720129,38.1178955 C175.937129,38.9188955 175.018129,39.7928955 173.963129,40.7388955 C171.924129,42.5948955 170.296129,43.9238955 169.077129,44.7238955 C167.857129,45.5248955 166.829129,45.9248955 165.992129,45.9248955 C164.718129,45.9248955 164.081129,45.1798955 164.081129,43.6868955 C164.081129,43.4678955 164.099129,43.2138955 164.136129,42.9228955 C164.172129,42.6318955 164.226129,42.2668955 164.300129,41.8308955 C164.372129,41.3938955 164.491129,40.8478955 164.655129,40.1928955 C164.818129,39.5378955 165.010129,38.7008955 165.228129,37.6818955 C165.373129,37.3178955 165.464129,36.9808955 165.501129,36.6718955 C165.537129,36.3628955 165.555129,36.0628955 165.555129,35.7708955 C165.555129,34.7878955 165.010129,34.2968955 163.918129,34.2968955 C163.226129,34.2968955 162.380129,34.4878955 161.379129,34.8698955 C160.378129,35.2518955 159.286129,35.7898955 158.104129,36.4808955 C156.920129,37.1718955 155.674129,38.0008955 154.364129,38.9648955 C153.054129,39.9288955 151.743129,41.0118955 150.433129,42.2128955 L148.413129,44.0138955 L147.813129,44.5598955 C147.885129,44.1598955 147.958129,43.7958955 148.031129,43.4678955 C148.104129,43.1408955 148.176129,42.7858955 148.249129,42.4038955 C148.322129,42.0218955 148.422129,41.6118955 148.550129,41.1758955 C148.677129,40.7388955 148.831129,40.2118955 149.014129,39.5918955 C149.451129,38.3188955 149.723129,37.4088955 149.833129,36.8628955 C149.942129,36.3168955 149.996129,35.8798955 149.996129,35.5518955 C149.996129,35.0798955 149.860129,34.6978955 149.587129,34.4058955 C149.314129,34.1148955 148.977129,33.9688955 148.577129,33.9688955 C147.776129,33.9688955 146.694129,34.2878955 145.329129,34.9248955 C143.964129,35.5618955 142.153129,36.5898955 139.897129,38.0088955 C138.513129,38.9188955 137.230129,39.8108955 136.048129,40.6838955 C134.865129,41.5578955 133.654129,42.4858955 132.418129,43.4678955 L132.090129,43.6868955 C132.708129,41.9768955 133.509129,40.1108955 134.492129,38.0908955 C135.475129,36.0708955 136.475129,34.1878955 137.495129,32.4408955 L137.877129,31.8398955 Z M187.480129,26.8718955 L186.497129,26.8718955 L186.443129,26.8718955 C186.115129,26.8718955 185.869129,26.8908955 185.706129,26.9268955 C185.542129,26.9628955 185.369129,27.0628955 185.187129,27.2268955 C185.005129,27.3908955 184.778129,27.6548955 184.505129,28.0188955 C184.232129,28.3828955 183.822129,28.8918955 183.276129,29.5468955 C179.018129,35.4068955 175.497129,41.6218955 172.713129,48.1908955 C169.928129,54.7598955 167.900129,61.6838955 166.625129,68.9628955 L166.462129,69.7278955 L168.700129,69.1268955 C168.883129,67.2708955 169.237129,65.1778955 169.765129,62.8488955 C170.293129,60.5188955 171.030129,57.9898955 171.976129,55.2608955 C174.159129,48.7818955 176.816129,43.8148955 179.946129,40.3568955 C183.877129,35.9528955 187.225129,33.7508955 189.991129,33.7508955 C190.828129,33.7508955 191.501129,33.9968955 192.011129,34.4878955 C192.520129,34.9788955 192.775129,35.6798955 192.775129,36.5898955 C192.775129,37.6458955 192.456129,38.8098955 191.820129,40.0838955 C191.183129,41.3578955 190.337129,42.6138955 189.282129,43.8508955 C188.662129,44.0328955 188.053129,44.1598955 187.453129,44.2328955 C186.852129,44.3058955 186.096129,44.3418955 185.187129,44.3418955 C184.459129,44.3418955 183.822129,44.3238955 183.276129,44.2868955 C182.730129,44.2518955 182.257129,44.1598955 181.857129,44.0138955 L180.983129,43.7958955 C180.910129,43.7958955 180.847129,43.7778955 180.792129,43.7408955 C180.738129,43.7058955 180.692129,43.6868955 180.656129,43.6868955 C180.219129,43.6868955 179.873129,43.9238955 179.619129,44.3968955 C179.364129,44.8698955 179.236129,45.4878955 179.236129,46.2528955 C179.236129,46.9808955 179.518129,47.5998955 180.083129,48.1088955 C180.646129,48.6178955 181.347129,48.8728955 182.184129,48.8728955 C183.349129,48.8728955 184.532129,48.5268955 185.733129,47.8358955 C186.934129,47.1448955 188.299129,46.0338955 189.827129,44.5058955 C190.518129,44.2518955 191.119129,44.0238955 191.629129,43.8228955 C192.138129,43.6238955 192.602129,43.4328955 193.021129,43.2498955 C193.439129,43.0678955 193.840129,42.8678955 194.222129,42.6498955 C194.604129,42.4308955 195.014129,42.1948955 195.451129,41.9398955 C196.069129,41.6118955 196.706129,41.2298955 197.361129,40.7928955 C198.016129,40.3568955 198.653129,39.8928955 199.272129,39.4008955 C199.891129,38.9098955 200.464129,38.4188955 200.992129,37.9268955 C201.519129,37.4358955 201.965129,36.9908955 202.329129,36.5898955 L203.148129,35.7158955 C203.476129,35.3888955 203.640129,35.1518955 203.640129,35.0068955 C203.640129,34.7878955 203.494129,34.6788955 203.203129,34.6788955 C203.094129,34.6788955 203.030129,34.6978955 203.012129,34.7338955 C202.993129,34.7698955 202.911129,34.8788955 202.766129,35.0608955 C202.256129,35.7158955 201.655129,36.3708955 200.964129,37.0258955 C200.273129,37.6818955 199.381129,38.4098955 198.289129,39.2098955 C197.598129,39.7558955 196.960129,40.2298955 196.379129,40.6298955 C195.796129,41.0308955 195.223129,41.3938955 194.659129,41.7208955 C194.094129,42.0488955 193.503129,42.3408955 192.885129,42.5948955 C192.265129,42.8498955 191.592129,43.0858955 190.865129,43.3048955 C191.920129,41.8128955 192.748129,40.3748955 193.349129,38.9918955 C193.949129,37.6088955 194.250129,36.2988955 194.250129,35.0608955 C194.250129,34.1518955 193.958129,33.3878955 193.376129,32.7678955 C192.793129,32.1498955 192.084129,31.8398955 191.247129,31.8398955 C190.337129,31.8398955 189.317129,32.0948955 188.190129,32.6038955 C187.061129,33.1148955 185.915129,33.8418955 184.750129,34.7878955 C184.349129,35.1158955 183.913129,35.4888955 183.440129,35.9068955 C182.967129,36.3258955 182.503129,36.7538955 182.048129,37.1898955 C181.592129,37.6268955 181.147129,38.0548955 180.710129,38.4728955 C180.274129,38.8918955 179.909129,39.2648955 179.619129,39.5918955 L177.817129,41.6668955 C177.744129,41.7038955 177.580129,41.8848955 177.326129,42.2128955 C177.653129,41.5218955 178.063129,40.7388955 178.554129,39.8648955 C179.045129,38.9918955 179.582129,38.0828955 180.165129,37.1358955 C180.746129,36.1898955 181.366129,35.2248955 182.021129,34.2418955 C182.676129,33.2598955 183.331129,32.2958955 183.986129,31.3488955 C184.314129,30.9488955 184.577129,30.6028955 184.778129,30.3118955 C184.977129,30.0208955 185.178129,29.7378955 185.378129,29.4648955 C185.578129,29.1918955 185.796129,28.9008955 186.033129,28.5918955 C186.270129,28.2828955 186.588129,27.9088955 186.989129,27.4728955 L187.480129,26.8718955 Z M183.058129,45.0518955 C183.567129,45.0878955 184.131129,45.1058955 184.750129,45.1058955 C185.187129,45.1058955 185.642129,45.1158955 186.115129,45.1338955 C186.588129,45.1518955 187.243129,45.1058955 188.081129,44.9968955 C186.443129,46.6348955 184.786129,47.4538955 183.113129,47.4538955 C181.729129,47.4538955 181.038129,46.9268955 181.038129,45.8708955 C181.038129,45.6888955 181.047129,45.5248955 181.065129,45.3788955 C181.083129,45.2338955 181.165129,45.0158955 181.311129,44.7238955 C181.966129,44.9068955 182.548129,45.0158955 183.058129,45.0518955 Z M205.151129,33.0408955 L206.734129,31.0208955 C206.844129,30.9118955 207.080129,30.6028955 207.444129,30.0928955 C207.807129,29.5838955 208.208129,29.0378955 208.645129,28.4548955 C209.008129,27.9088955 209.336129,27.4268955 209.628129,27.0088955 C209.919129,26.5908955 210.201129,26.1898955 210.474129,25.8078955 C210.747129,25.4248955 211.020129,25.0248955 211.293129,24.6068955 C211.566129,24.1888955 211.884129,23.6878955 212.248129,23.1048955 C214.614129,19.4298955 216.333129,16.3818955 217.407129,13.9608955 C218.480129,11.5408955 219.018129,9.5478955 219.018129,7.9828955 C219.018129,7.3278955 218.854129,6.8008955 218.526129,6.3998955 C218.199129,5.9998955 217.798129,5.7988955 217.325129,5.7988955 C216.197129,5.7988955 215.014129,6.5818955 213.777129,8.1468955 C212.393129,9.7848955 210.947129,12.0138955 209.437129,14.8338955 C207.926129,17.6548955 206.516129,20.7938955 205.206129,24.2518955 C204.029129,27.1638955 203.171129,29.8658955 202.631129,32.3588955 C202.090129,34.8518955 201.821129,37.3178955 201.821129,39.7558955 C201.821129,42.7768955 202.303129,45.0878955 203.268129,46.6888955 C204.232129,48.2908955 205.642129,49.0918955 207.499129,49.0918955 C208.517129,49.0918955 209.573129,48.8638955 210.665129,48.4088955 C211.757129,47.9538955 212.949129,47.2348955 214.241129,46.2528955 C215.532129,45.2698955 216.961129,44.0138955 218.526129,42.4858955 C220.091129,40.9568955 221.857129,39.1008955 223.822129,36.9168955 C224.513129,36.1528955 224.914129,35.6978955 225.023129,35.5518955 C225.132129,35.4068955 225.187129,35.2788955 225.187129,35.1698955 C225.187129,34.9158955 225.078129,34.7878955 224.859129,34.7878955 C224.641129,34.7878955 224.368129,35.0248955 224.040129,35.4978955 C223.858129,35.7158955 223.604129,36.0078955 223.276129,36.3708955 C222.948129,36.7358955 222.594129,37.1178955 222.211129,37.5178955 C221.829129,37.9188955 221.420129,38.3368955 220.983129,38.7728955 C220.546129,39.2098955 220.145129,39.6108955 219.782129,39.9738955 C217.380129,42.5218955 215.305129,44.3608955 213.558129,45.4878955 C211.811129,46.6168955 210.246129,47.1808955 208.863129,47.1808955 C207.298129,47.1808955 206.124129,46.3438955 205.342129,44.6688955 C204.559129,42.9958955 204.168129,40.5568955 204.168129,37.3538955 C204.168129,36.6258955 204.196129,36.0168955 204.250129,35.5248955 C204.305129,35.0338955 204.387129,34.4968955 204.496129,33.9148955 C204.859129,33.3688955 205.078129,33.0778955 205.151129,33.0408955 Z M206.188129,26.0258955 C206.879129,23.7518955 207.698129,21.4318955 208.645129,19.0648955 C209.336129,17.3178955 210.064129,15.7268955 210.829129,14.2878955 C211.593129,12.8508955 212.339129,11.6048955 213.067129,10.5488955 C213.795129,9.4938955 214.477129,8.6748955 215.114129,8.0918955 C215.751129,7.5098955 216.288129,7.2188955 216.725129,7.2188955 C217.452129,7.2188955 217.817129,7.6918955 217.817129,8.6378955 C217.817129,9.2568955 217.644129,10.1038955 217.298129,11.1768955 C216.952129,12.2508955 216.452129,13.5698955 215.797129,15.1348955 C214.959129,16.9908955 213.904129,18.9558955 212.630129,21.0308955 C211.356129,23.1048955 209.792129,25.4888955 207.935129,28.1818955 C207.244129,29.1288955 206.680129,29.8938955 206.243129,30.4748955 C205.806129,31.0578955 205.296129,31.6758955 204.714129,32.3308955 C205.005129,30.4028955 205.497129,28.3008955 206.188129,26.0258955 Z M226.836129,32.4128955 C226.438129,32.4678955 226.004129,32.5868955 225.533129,32.7678955 C223.975129,34.5888955 222.753129,36.4168955 221.866129,38.2548955 C220.978129,40.0928955 220.535129,41.7038955 220.535129,43.0858955 C220.535129,44.3238955 220.906129,45.3158955 221.650129,46.0618955 C222.394129,46.8078955 223.291129,47.1808955 224.343129,47.1808955 C225.865129,47.1808955 227.361129,46.6168955 228.830129,45.4878955 C230.299129,44.3608955 231.848129,42.5768955 233.481129,40.1378955 C233.299129,40.9028955 233.127129,41.5298955 232.963129,42.0218955 C232.800129,42.5128955 232.573129,43.0678955 232.283129,43.6868955 L231.410129,45.8708955 C230.974129,46.9618955 230.665129,47.7088955 230.484129,48.1088955 C230.302129,48.5088955 230.120129,48.8908955 229.939129,49.2548955 C229.321129,49.6188955 228.848129,49.9008955 228.522129,50.1018955 C228.194129,50.3008955 227.795129,50.5468955 227.323129,50.8388955 C227.032129,50.9838955 226.624129,51.2018955 226.097129,51.4938955 C225.569129,51.7838955 225.006129,52.1028955 224.408129,52.4488955 C223.808129,52.7938955 223.218129,53.1398955 222.637129,53.4858955 C222.055129,53.8318955 221.564129,54.1318955 221.165129,54.3868955 C219.784129,55.1508955 218.650129,55.7878955 217.759129,56.2978955 C216.869129,56.8068955 216.207129,57.2068955 215.770129,57.4988955 C213.991129,58.6268955 212.447129,59.7368955 211.138129,60.8288955 C208.595129,63.1218955 207.323129,65.1958955 207.323129,67.0528955 C207.323129,67.8528955 207.569129,68.4988955 208.059129,68.9908955 C208.550129,69.4818955 209.195129,69.7278955 209.993129,69.7278955 C211.955129,69.7278955 214.226129,68.7258955 216.806129,66.7248955 C218.513129,65.4148955 220.193129,63.9138955 221.846129,62.2208955 C223.499129,60.5288955 224.979129,58.8088955 226.288129,57.0618955 C226.542129,56.6978955 226.851129,56.2608955 227.214129,55.7518955 C227.577129,55.2418955 227.940129,54.7328955 228.303129,54.2228955 C228.667129,53.7128955 229.003129,53.2308955 229.312129,52.7768955 C229.620129,52.3208955 229.848129,51.9658955 229.993129,51.7118955 L231.083129,49.8008955 C231.083129,49.7278955 231.228129,49.4918955 231.519129,49.0918955 C232.137129,48.6908955 232.682129,48.3178955 233.155129,47.9718955 C233.628129,47.6268955 234.065129,47.2988955 234.465129,46.9898955 C234.866129,46.6808955 235.266129,46.3618955 235.667129,46.0338955 C236.067129,45.7068955 236.503129,45.3608955 236.977129,44.9968955 C238.214129,43.9788955 239.488129,42.8678955 240.798129,41.6668955 C242.109129,40.4658955 243.182129,39.4108955 244.019129,38.4998955 L245.930129,36.3708955 L246.640129,35.5518955 C246.785129,35.5168955 246.858129,35.3528955 246.858129,35.0608955 C246.858129,34.8068955 246.749129,34.6788955 246.531129,34.6788955 C246.421129,34.6788955 246.239129,34.8068955 245.985129,35.0608955 C245.038129,36.2258955 243.965129,37.4178955 242.764129,38.6368955 C241.563129,39.8568955 240.352129,41.0308955 239.133129,42.1578955 C237.913129,43.2868955 236.712129,44.3148955 235.530129,45.2428955 C234.347129,46.1708955 233.300129,46.9268955 232.391129,47.5078955 C232.463129,47.3268955 232.536129,47.1258955 232.609129,46.9078955 C232.645129,46.8348955 232.663129,46.7628955 232.663129,46.6888955 L233.481129,45.0518955 C233.699129,44.6518955 233.926129,44.1418955 234.162129,43.5228955 C234.397129,42.9048955 234.643129,42.2398955 234.897129,41.5298955 C235.151129,40.8208955 235.397129,40.0838955 235.633129,39.3188955 C235.869129,38.5548955 236.096129,37.8268955 236.315129,37.1358955 C237.113129,34.5148955 237.513129,32.2218955 237.513129,30.2568955 C237.513129,29.9288955 237.495129,29.6478955 237.460129,29.4108955 C237.425129,29.1738955 237.390129,28.8558955 237.355129,28.4548955 L235.657129,29.4378955 C235.657129,29.5838955 235.675129,29.6928955 235.712129,29.7658955 C235.748129,29.8388955 235.766129,29.8938955 235.766129,29.9288955 C235.766129,31.7128955 235.439129,33.5508955 234.784129,35.4428955 C234.129129,37.3358955 233.282129,39.0558955 232.245129,40.6018955 C231.208129,42.1498955 230.061129,43.4228955 228.806129,44.4238955 C227.550129,45.4248955 226.322129,45.9248955 225.121129,45.9248955 C224.392129,45.9248955 223.801129,45.6788955 223.346129,45.1878955 C222.891129,44.6968955 222.664129,44.0508955 222.664129,43.2498955 C222.664129,40.7748955 224.562129,37.1358955 228.358129,32.3308955 C227.742129,32.3308955 227.234129,32.3588955 226.836129,32.4128955 Z M229.284129,50.5108955 C228.303129,52.5488955 227.050129,54.5958955 225.525129,56.6528955 C224.000129,58.7078955 222.401129,60.5738955 220.731129,62.2478955 C219.061129,63.9218955 217.435129,65.2868955 215.854129,66.3428955 C214.275129,67.3978955 212.958129,67.9258955 211.905129,67.9258955 C211.287129,67.9258955 210.788129,67.7438955 210.406129,67.3798955 C210.026129,67.0158955 209.835129,66.5248955 209.835129,65.9058955 C209.835129,65.1418955 210.062129,64.3778955 210.515129,63.6128955 C210.970129,62.8488955 211.697129,62.0208955 212.695129,61.1288955 C213.694129,60.2368955 215.001129,59.2638955 216.617129,58.2088955 C218.234129,57.1528955 220.186129,55.9338955 222.474129,54.5508955 L225.906129,52.5308955 L228.576129,50.8928955 L229.284129,50.5108955 Z" id="Stroke-6" stroke="#000000" stroke-width="0.353" fill="#000000"></path>
        </g>
    </g>
</svg>