<?xml version="1.0" encoding="UTF-8"?>
<svg width="468px" height="131px" viewBox="0 0 468 131" version="1.1" xmlns="http://www.w3.org/2000/svg" xmlns:xlink="http://www.w3.org/1999/xlink">
    <!-- Generator: Sketch 48.2 (47327) - http://www.bohemiancoding.com/sketch -->
    <title>SC</title>
    <desc>Created with Sketch.</desc>
    <defs>
        <polygon id="path-1" points="0 0.7972 80.7329 0.7972 80.7329 97 0 97"></polygon>
        <polygon id="path-3" points="0.3375 0.4273 71.4505 0.4273 71.4505 64 0.3375 64"></polygon>
        <polygon id="path-5" points="0.8666 0.4273 64.8296 0.4273 64.8296 64 0.8666 64"></polygon>
        <polygon id="path-7" points="0.617 0.8573 42.348 0.8573 42.348 89 0.617 89"></polygon>
    </defs>
    <g id="Logos" stroke="none" stroke-width="1" fill="none" fill-rule="evenodd">
        <g id="SC">
            <g id="Group-3" transform="translate(0.000000, 33.308000)">
                <mask id="mask-2" fill="white">
                    <use xlink:href="#path-1"></use>
                </mask>
                <g id="Clip-2"></g>
                <path d="M80.7329,94.6602 L78.2629,94.6602 C78.2629,92.5802 77.3529,89.9802 74.3629,89.9802 C69.1629,89.9802 63.7029,97.0002 47.8419,97.0002 C19.5009,97.0002 -0.0001,74.8992 -0.0001,48.8982 C-0.0001,18.3472 22.7509,0.7972 47.9719,0.7972 C63.1819,0.7972 70.7229,8.2072 74.7529,8.2072 C77.6129,8.2072 78.2629,4.9572 78.2629,3.1372 L80.7329,3.1372 L80.7329,33.1682 L78.2629,33.1682 C75.5329,18.0872 67.4729,3.2662 50.0519,3.2662 C29.1209,3.2662 28.8609,23.6772 28.8609,50.5882 C28.8609,74.3792 29.1209,94.5302 50.1819,94.5302 C68.5129,94.5302 78.2629,76.4592 78.2629,65.0192 L80.7329,65.0192 L80.7329,94.6602 Z" id="Fill-1" fill="#141315" mask="url(#mask-2)"></path>
            </g>
            <path d="M84.2378,125.4979 L91.3878,125.4979 L91.3878,71.5459 L84.2378,71.5459 L84.2378,69.0759 L92.0388,69.0759 C100.4888,69.0759 110.3688,68.8159 114.7888,66.7359 L114.7888,77.9169 L115.0498,77.9169 C118.0398,71.1559 123.8898,66.7359 131.8198,66.7359 C140.0108,66.7359 144.9498,71.9359 144.9498,79.2159 C144.9498,85.8469 140.1398,90.9169 133.2498,90.9169 C127.0098,90.9169 122.3298,86.7569 122.3298,80.3859 C122.3298,76.3559 123.7588,72.3259 127.1398,70.2459 L127.1398,69.9859 C118.9488,72.8459 114.7888,81.0369 114.7888,91.6969 L114.7888,125.4979 L121.9398,125.4979 L121.9398,127.9679 L84.2378,127.9679 L84.2378,125.4979 Z" id="Fill-4" fill="#141315"></path>
            <g id="Group-8" transform="translate(145.000000, 66.308000)">
                <mask id="mask-4" fill="white">
                    <use xlink:href="#path-3"></use>
                </mask>
                <g id="Clip-7"></g>
                <path d="M45.7095,16.5483 C45.7095,5.7583 41.1595,2.8983 35.8295,2.8983 C30.6285,2.8983 26.0785,5.7583 26.0785,16.5483 L26.0785,47.8803 C26.0785,58.6703 30.6285,61.5303 35.8295,61.5303 C41.1595,61.5303 45.7095,58.6703 45.7095,47.8803 L45.7095,16.5483 Z M35.8295,0.4273 C54.8105,0.4273 71.4505,13.1683 71.4505,32.2793 C71.4505,51.3893 54.8105,64.0003 35.8295,64.0003 C16.9785,64.0003 0.3375,51.3893 0.3375,32.2793 C0.3375,13.1683 16.9785,0.4273 35.8295,0.4273 Z" id="Fill-6" fill="#141315" mask="url(#mask-4)"></path>
            </g>
            <g id="Group-11" transform="translate(220.000000, 66.308000)">
                <mask id="mask-6" fill="white">
                    <use xlink:href="#path-5"></use>
                </mask>
                <g id="Clip-10"></g>
                <path d="M64.8296,44.2393 C60.4086,54.2503 53.1286,64.0003 36.3576,64.0003 C17.5076,64.0003 0.8666,51.3893 0.8666,32.2793 C0.8666,13.1683 17.5076,0.4273 36.3576,0.4273 C47.1476,0.4273 61.4486,4.1983 61.4486,15.5083 C61.4486,21.3583 57.1586,25.1293 51.1786,25.1293 C45.9776,25.1293 41.9486,21.2283 41.9486,16.1583 C41.9486,8.7483 47.2786,7.9683 47.2786,5.8883 C47.2786,3.1583 41.5586,2.8983 39.7376,2.8983 C26.8676,2.8983 26.6076,12.5183 26.6076,32.2793 C26.6076,50.4793 26.8676,60.7503 40.6476,60.7503 C49.6186,60.7503 58.8496,52.8193 62.2286,43.3293 L64.8296,44.2393 Z" id="Fill-9" fill="#141315" mask="url(#mask-6)"></path>
            </g>
            <path d="M283.1372,125.4979 L290.2872,125.4979 L290.2872,38.9149 L283.1372,38.9149 L283.1372,36.4449 L292.8882,36.4449 C302.2472,36.4449 311.7392,34.8849 313.6892,33.1949 L313.6892,78.0459 L313.9492,78.0459 C318.6282,70.5059 325.7792,66.7359 335.7892,66.7359 C347.4902,66.7359 356.2002,72.8459 356.2002,87.6669 L356.2002,125.4979 L363.3502,125.4979 L363.3502,127.9679 L325.6492,127.9679 L325.6492,125.4979 L332.7992,125.4979 L332.7992,79.8669 C332.7992,75.0559 331.4992,71.5459 326.4292,71.5459 C320.3192,71.6759 313.6892,80.1269 313.6892,86.6269 L313.6892,125.4979 L320.8382,125.4979 L320.8382,127.9679 L283.1372,127.9679 L283.1372,125.4979 Z" id="Fill-12" fill="#141315"></path>
            <path d="M402.2183,94.1669 L402.2183,79.8669 C402.2183,74.2759 400.3983,69.2059 394.8083,69.2059 C389.2183,69.2059 387.3983,72.8459 387.3983,83.2469 L387.3983,94.1669 L402.2183,94.1669 Z M387.3983,96.6369 L387.3983,110.0279 C387.3983,123.2879 392.2073,127.0579 400.1383,127.0579 C410.6683,127.0579 419.2483,117.9579 422.6293,108.5979 L425.0993,109.3769 C419.8993,123.1579 410.9283,130.3079 395.9783,130.3079 C376.2173,130.3079 361.6563,117.4379 361.6563,98.8469 C361.6563,79.7359 376.2173,66.7359 394.9383,66.7359 C412.7483,66.7359 425.6183,80.2559 425.6183,96.6369 L387.3983,96.6369 Z" id="Fill-14" fill="#141315"></path>
            <g id="Group-18" transform="translate(425.000000, 41.308000)">
                <mask id="mask-8" fill="white">
                    <use xlink:href="#path-7"></use>
                </mask>
                <g id="Clip-17"></g>
                <path d="M5.687,30.2383 L0.617,30.2383 L0.617,27.7683 C13.487,27.7683 27.007,8.6573 27.007,0.8573 L29.087,0.8573 L29.087,27.7683 L40.917,27.7683 L40.917,30.2383 L29.087,30.2383 L29.087,72.0993 C29.087,76.7803 29.608,81.2003 33.898,81.2003 C37.148,81.2003 39.228,78.5993 40.788,76.0003 L42.348,77.1703 C38.188,85.6203 31.167,89.0003 22.067,89.0003 C10.757,89.0003 5.687,81.4603 5.687,72.6193 L5.687,30.2383 Z" id="Fill-16" fill="#141315" mask="url(#mask-8)"></path>
            </g>
            <path d="M96.2676,27.9418 C91.1936,27.9418 87.2376,32.3278 87.2376,37.9178 C87.2376,43.6798 90.6776,48.7538 96.9556,52.3658 C101.5996,55.0318 107.1896,56.6658 111.8336,56.6658 C115.8756,56.6658 120.2616,55.5478 123.1856,53.8278 C123.8726,53.4838 124.3036,53.2258 124.3896,53.2258 C124.6466,53.0538 124.6466,53.0538 124.8186,52.8818 C124.9056,52.7958 125.4206,52.4518 126.1946,51.9358 C126.7966,51.5058 128.0866,50.3018 128.9466,49.2698 C131.0116,46.8618 132.1286,44.1958 132.1286,41.5298 C132.1286,37.4018 129.7216,33.9618 123.4426,29.0598 L120.3476,26.6518 C113.2096,21.1478 110.6296,17.3638 110.6296,12.8058 C110.6296,5.4108 117.8526,0.2508 128.5166,0.2508 C137.1166,0.2508 144.0826,4.2928 144.0826,9.3658 C144.0826,11.8608 142.0186,13.6668 139.1806,13.6668 C138.1486,13.6668 136.8586,13.3218 135.9986,12.8918 C135.6546,12.6338 135.4826,12.4628 135.4826,12.2908 C135.4826,12.1178 135.6546,12.0318 135.9136,11.7748 C135.9136,11.6888 135.9986,11.6028 136.0846,11.5158 L136.3426,11.6888 C137.2886,12.3768 138.5786,12.7198 139.6106,12.7198 C141.2446,12.7198 142.4486,11.6028 142.4486,10.0538 C142.4486,5.6688 135.0526,1.2828 127.5706,1.2828 C118.8856,1.2828 112.8656,5.3248 112.8656,11.0868 C112.8656,14.6118 114.9296,17.7948 120.0036,22.0078 L127.1416,27.7698 C131.8716,31.7258 134.1066,35.5958 134.1066,39.9818 C134.1066,49.6998 123.1856,57.8698 109.9416,57.8698 C96.0956,57.8698 85.7756,50.0438 85.7756,39.4658 C85.7756,32.4138 90.5056,27.0818 96.6976,27.0818 C99.5356,27.0818 102.6316,28.4578 102.6316,29.6618 C102.6316,29.7478 102.5456,30.0918 102.4596,30.4358 C100.3096,28.7158 98.4176,27.9418 96.2676,27.9418" id="Fill-19" fill="#8A8C8E"></path>
            <path d="M96.2676,27.9418 C91.1936,27.9418 87.2376,32.3278 87.2376,37.9178 C87.2376,43.6798 90.6776,48.7538 96.9556,52.3658 C101.5996,55.0318 107.1896,56.6658 111.8336,56.6658 C115.8756,56.6658 120.2616,55.5478 123.1856,53.8278 C123.8726,53.4838 124.3036,53.2258 124.3896,53.2258 C124.6466,53.0538 124.6466,53.0538 124.8186,52.8818 C124.9056,52.7958 125.4206,52.4518 126.1946,51.9358 C126.7966,51.5058 128.0866,50.3018 128.9466,49.2698 C131.0116,46.8618 132.1286,44.1958 132.1286,41.5298 C132.1286,37.4018 129.7216,33.9618 123.4426,29.0598 L120.3476,26.6518 C113.2096,21.1478 110.6296,17.3638 110.6296,12.8058 C110.6296,5.4108 117.8526,0.2508 128.5166,0.2508 C137.1166,0.2508 144.0826,4.2928 144.0826,9.3658 C144.0826,11.8608 142.0186,13.6668 139.1806,13.6668 C138.1486,13.6668 136.8586,13.3218 135.9986,12.8918 C135.6546,12.6338 135.4826,12.4628 135.4826,12.2908 C135.4826,12.1178 135.6546,12.0318 135.9136,11.7748 C135.9136,11.6888 135.9986,11.6028 136.0846,11.5158 L136.3426,11.6888 C137.2886,12.3768 138.5786,12.7198 139.6106,12.7198 C141.2446,12.7198 142.4486,11.6028 142.4486,10.0538 C142.4486,5.6688 135.0526,1.2828 127.5706,1.2828 C118.8856,1.2828 112.8656,5.3248 112.8656,11.0868 C112.8656,14.6118 114.9296,17.7948 120.0036,22.0078 L127.1416,27.7698 C131.8716,31.7258 134.1066,35.5958 134.1066,39.9818 C134.1066,49.6998 123.1856,57.8698 109.9416,57.8698 C96.0956,57.8698 85.7756,50.0438 85.7756,39.4658 C85.7756,32.4138 90.5056,27.0818 96.6976,27.0818 C99.5356,27.0818 102.6316,28.4578 102.6316,29.6618 C102.6316,29.7478 102.5456,30.0918 102.4596,30.4358 C100.3096,28.7158 98.4176,27.9418 96.2676,27.9418 Z" id="Stroke-21" stroke="#8A8C8E" stroke-width="0.5"></path>
            <path d="M153.1128,25.62 L151.7368,26.566 C150.6188,27.512 148.8988,28.974 147.6948,30.178 L147.5228,30.35 C147.0068,30.264 146.7488,30.006 146.7488,29.748 C146.7488,29.318 147.5228,28.2 148.6408,27.082 C149.9308,25.706 151.1348,24.932 152.1668,24.932 C152.5968,24.932 153.0268,25.104 153.4568,25.276 C153.2848,25.448 153.1128,25.62 153.1128,25.62 Z M146.0608,35.854 C142.1048,42.046 140.5568,45.658 140.5568,48.496 C140.5568,49.957 141.1588,50.732 142.3628,50.732 C145.3728,50.732 151.5648,46.088 157.8428,39.208 C158.8748,38.09 158.8748,38.004 159.2188,38.004 C159.3908,38.004 159.5628,38.176 159.5628,38.434 C159.5628,38.606 159.5628,38.606 157.4128,40.928 C150.3608,48.324 144.1688,52.709 140.7288,52.709 C138.8368,52.709 137.7188,51.419 137.7188,49.356 C137.7188,46.862 138.8368,43.68 141.1588,39.552 C142.1048,37.918 142.8788,36.714 143.5668,35.854 C144.8568,35.424 145.3728,35.338 146.4048,35.252 L146.0608,35.854 Z" id="Fill-23" fill="#8A8C8E"></path>
            <path d="M153.1128,25.62 L151.7368,26.566 C150.6188,27.512 148.8988,28.974 147.6948,30.178 L147.5228,30.35 C147.0068,30.264 146.7488,30.006 146.7488,29.748 C146.7488,29.318 147.5228,28.2 148.6408,27.082 C149.9308,25.706 151.1348,24.932 152.1668,24.932 C152.5968,24.932 153.0268,25.104 153.4568,25.276 C153.2848,25.448 153.1128,25.62 153.1128,25.62 Z M146.0608,35.854 C142.1048,42.046 140.5568,45.658 140.5568,48.496 C140.5568,49.957 141.1588,50.732 142.3628,50.732 C145.3728,50.732 151.5648,46.088 157.8428,39.208 C158.8748,38.09 158.8748,38.004 159.2188,38.004 C159.3908,38.004 159.5628,38.176 159.5628,38.434 C159.5628,38.606 159.5628,38.606 157.4128,40.928 C150.3608,48.324 144.1688,52.709 140.7288,52.709 C138.8368,52.709 137.7188,51.419 137.7188,49.356 C137.7188,46.862 138.8368,43.68 141.1588,39.552 C142.1048,37.918 142.8788,36.714 143.5668,35.854 C144.8568,35.424 145.3728,35.338 146.4048,35.252 L146.0608,35.854 Z" id="Stroke-25" stroke="#8A8C8E" stroke-width="0.5"></path>
            <path d="M161.7124,35.3378 C159.5624,38.9498 157.1544,43.9378 155.8644,47.5498 L156.2084,47.2918 C158.7884,45.1418 161.3684,43.3358 164.3784,41.3578 C169.1944,38.2618 172.0324,36.9718 173.7524,36.9718 C174.6124,36.9718 175.3004,37.6598 175.3004,38.6918 C175.3004,39.3798 175.1284,40.3258 174.2684,43.0778 C173.4944,45.7438 173.2364,46.7758 172.9784,48.4958 L173.5804,47.8938 L175.8164,45.9158 C181.4924,40.8418 187.5124,37.3158 190.4364,37.3158 C191.5544,37.3158 192.2424,37.9178 192.2424,38.9498 C192.2424,39.4658 192.0694,40.2398 191.8984,41.0138 C190.8664,45.3998 190.6084,46.5178 190.6084,47.5498 C190.6084,49.0978 191.3824,50.0438 192.6724,50.0438 C194.4784,50.0438 196.9724,48.4098 201.3584,44.3678 C203.5934,42.3038 205.2284,40.6698 206.8614,38.8638 C207.7214,37.8318 207.7214,37.8318 207.9804,37.8318 C208.1514,37.8318 208.3234,38.0038 208.3234,38.1758 C208.3234,38.4338 208.2374,38.5198 207.2924,39.6378 L205.4854,41.6158 C203.5934,43.5938 200.1534,46.7758 198.3484,48.2378 C195.2524,50.6458 193.0164,51.6778 191.2104,51.6778 C189.3174,51.6778 188.0284,50.2158 188.0284,47.9798 C188.0284,46.7758 188.2864,45.0558 188.8024,43.0778 C189.3174,40.9278 189.4904,40.5838 189.4904,40.1538 C189.4904,39.3798 188.9744,38.9498 188.2864,38.9498 C187.3404,38.9498 185.1044,40.0678 182.3524,41.9598 C179.8584,43.5938 177.7944,45.3138 175.8164,47.2918 C173.9244,49.0978 172.9784,50.0438 172.4624,50.6458 C171.7744,51.5058 171.6024,51.6778 171.1724,51.6778 C170.4844,51.6778 170.0544,51.0758 170.0544,50.1298 C170.0544,48.9258 170.7424,46.0018 171.6024,43.2498 L172.3764,41.0998 C172.6344,40.3258 172.7204,39.8098 172.7204,39.3798 C172.7204,38.7778 172.3764,38.4338 171.8604,38.4338 C171.0004,38.4338 169.1944,39.2938 165.9264,41.4438 C160.6804,44.7978 156.8964,47.8078 153.8864,51.2478 C153.5424,51.5918 153.2844,51.7638 153.0274,51.7638 C152.6824,51.7638 152.4244,51.5058 152.4244,51.0758 C152.4244,49.7858 153.8864,45.7438 155.7784,41.9598 C157.0694,39.3798 158.1864,37.3158 159.2184,35.7678 C160.0784,35.3378 160.9384,34.9938 162.1424,34.6498 L161.7124,35.3378 Z" id="Fill-27" fill="#8A8C8E"></path>
            <path d="M161.7124,35.3378 C159.5624,38.9498 157.1544,43.9378 155.8644,47.5498 L156.2084,47.2918 C158.7884,45.1418 161.3684,43.3358 164.3784,41.3578 C169.1944,38.2618 172.0324,36.9718 173.7524,36.9718 C174.6124,36.9718 175.3004,37.6598 175.3004,38.6918 C175.3004,39.3798 175.1284,40.3258 174.2684,43.0778 C173.4944,45.7438 173.2364,46.7758 172.9784,48.4958 L173.5804,47.8938 L175.8164,45.9158 C181.4924,40.8418 187.5124,37.3158 190.4364,37.3158 C191.5544,37.3158 192.2424,37.9178 192.2424,38.9498 C192.2424,39.4658 192.0694,40.2398 191.8984,41.0138 C190.8664,45.3998 190.6084,46.5178 190.6084,47.5498 C190.6084,49.0978 191.3824,50.0438 192.6724,50.0438 C194.4784,50.0438 196.9724,48.4098 201.3584,44.3678 C203.5934,42.3038 205.2284,40.6698 206.8614,38.8638 C207.7214,37.8318 207.7214,37.8318 207.9804,37.8318 C208.1514,37.8318 208.3234,38.0038 208.3234,38.1758 C208.3234,38.4338 208.2374,38.5198 207.2924,39.6378 L205.4854,41.6158 C203.5934,43.5938 200.1534,46.7758 198.3484,48.2378 C195.2524,50.6458 193.0164,51.6778 191.2104,51.6778 C189.3174,51.6778 188.0284,50.2158 188.0284,47.9798 C188.0284,46.7758 188.2864,45.0558 188.8024,43.0778 C189.3174,40.9278 189.4904,40.5838 189.4904,40.1538 C189.4904,39.3798 188.9744,38.9498 188.2864,38.9498 C187.3404,38.9498 185.1044,40.0678 182.3524,41.9598 C179.8584,43.5938 177.7944,45.3138 175.8164,47.2918 C173.9244,49.0978 172.9784,50.0438 172.4624,50.6458 C171.7744,51.5058 171.6024,51.6778 171.1724,51.6778 C170.4844,51.6778 170.0544,51.0758 170.0544,50.1298 C170.0544,48.9258 170.7424,46.0018 171.6024,43.2498 L172.3764,41.0998 C172.6344,40.3258 172.7204,39.8098 172.7204,39.3798 C172.7204,38.7778 172.3764,38.4338 171.8604,38.4338 C171.0004,38.4338 169.1944,39.2938 165.9264,41.4438 C160.6804,44.7978 156.8964,47.8078 153.8864,51.2478 C153.5424,51.5918 153.2844,51.7638 153.0274,51.7638 C152.6824,51.7638 152.4244,51.5058 152.4244,51.0758 C152.4244,49.7858 153.8864,45.7438 155.7784,41.9598 C157.0694,39.3798 158.1864,37.3158 159.2184,35.7678 C160.0784,35.3378 160.9384,34.9938 162.1424,34.6498 L161.7124,35.3378 Z" id="Stroke-29" stroke="#8A8C8E" stroke-width="0.5"></path>
            <path d="M208.1524,49.8715 C208.1524,50.9035 209.0124,51.5915 210.3884,51.5915 C212.1084,51.5915 214.0004,50.7315 215.8064,48.9255 C214.0004,49.0975 213.1404,49.0975 212.1944,49.0975 C210.8184,49.0975 209.8724,49.0115 208.4104,48.6675 C208.2384,49.2695 208.1524,49.5275 208.1524,49.8715 Z M214.6024,29.9195 C212.9684,31.8115 212.6244,32.3275 211.3344,34.1335 C208.4964,38.1755 205.5724,42.9055 204.1104,45.9155 C204.3684,45.6575 204.5404,45.4855 204.6264,45.3135 L206.6044,43.0775 C207.8084,41.7015 210.4744,39.2075 212.1944,37.8315 C214.6884,35.8535 217.2684,34.6495 219.2464,34.6495 C221.0524,34.6495 222.5144,36.1975 222.5144,38.1755 C222.5144,40.7555 221.1384,43.9375 218.8164,47.1195 C221.9984,46.0875 223.8904,44.9695 226.8994,42.6475 C229.1364,40.9275 230.6844,39.5515 231.7164,38.1755 C232.0604,37.7465 232.0604,37.7465 232.2314,37.7465 C232.4904,37.7465 232.6624,37.8315 232.6624,38.0895 C232.6624,38.2615 232.4904,38.5195 232.1464,38.8635 L231.2864,39.8105 C229.6514,41.6155 226.3844,44.1955 223.8044,45.6575 C221.9124,46.7755 220.6224,47.3775 217.6984,48.4095 C214.3444,51.6775 211.8504,53.1395 209.3564,53.1395 C207.5504,53.1395 206.1744,51.9355 206.1744,50.3015 C206.1744,48.7535 206.8624,47.5495 207.7224,47.5495 C207.8084,47.5495 207.9804,47.6355 208.0664,47.6355 L209.0124,47.8935 C209.9584,48.1515 211.1624,48.2375 212.6244,48.2375 C214.6024,48.2375 215.8924,48.0655 217.0964,47.7215 C219.4184,45.1415 220.8804,42.1315 220.8804,39.8105 C220.8804,37.9175 219.6764,36.7135 217.8704,36.7135 C214.8604,36.7135 211.3344,39.0355 206.9484,43.9375 C203.5944,47.6355 200.6704,53.0535 198.2624,60.1055 C196.2844,65.9535 195.0804,71.0275 194.7364,75.1555 L192.3284,75.8435 L192.5004,74.9835 C195.2524,59.4175 201.4444,44.7975 210.5604,32.1555 C212.7964,29.1455 212.7104,29.2315 214.0004,29.2315 L214.0864,29.2315 L215.1184,29.2315 L214.6024,29.9195 Z" id="Fill-31" fill="#8A8C8E"></path>
            <path d="M208.1524,49.8715 C208.1524,50.9035 209.0124,51.5915 210.3884,51.5915 C212.1084,51.5915 214.0004,50.7315 215.8064,48.9255 C214.0004,49.0975 213.1404,49.0975 212.1944,49.0975 C210.8184,49.0975 209.8724,49.0115 208.4104,48.6675 C208.2384,49.2695 208.1524,49.5275 208.1524,49.8715 Z M214.6024,29.9195 C212.9684,31.8115 212.6244,32.3275 211.3344,34.1335 C208.4964,38.1755 205.5724,42.9055 204.1104,45.9155 C204.3684,45.6575 204.5404,45.4855 204.6264,45.3135 L206.6044,43.0775 C207.8084,41.7015 210.4744,39.2075 212.1944,37.8315 C214.6884,35.8535 217.2684,34.6495 219.2464,34.6495 C221.0524,34.6495 222.5144,36.1975 222.5144,38.1755 C222.5144,40.7555 221.1384,43.9375 218.8164,47.1195 C221.9984,46.0875 223.8904,44.9695 226.8994,42.6475 C229.1364,40.9275 230.6844,39.5515 231.7164,38.1755 C232.0604,37.7465 232.0604,37.7465 232.2314,37.7465 C232.4904,37.7465 232.6624,37.8315 232.6624,38.0895 C232.6624,38.2615 232.4904,38.5195 232.1464,38.8635 L231.2864,39.8105 C229.6514,41.6155 226.3844,44.1955 223.8044,45.6575 C221.9124,46.7755 220.6224,47.3775 217.6984,48.4095 C214.3444,51.6775 211.8504,53.1395 209.3564,53.1395 C207.5504,53.1395 206.1744,51.9355 206.1744,50.3015 C206.1744,48.7535 206.8624,47.5495 207.7224,47.5495 C207.8084,47.5495 207.9804,47.6355 208.0664,47.6355 L209.0124,47.8935 C209.9584,48.1515 211.1624,48.2375 212.6244,48.2375 C214.6024,48.2375 215.8924,48.0655 217.0964,47.7215 C219.4184,45.1415 220.8804,42.1315 220.8804,39.8105 C220.8804,37.9175 219.6764,36.7135 217.8704,36.7135 C214.8604,36.7135 211.3344,39.0355 206.9484,43.9375 C203.5944,47.6355 200.6704,53.0535 198.2624,60.1055 C196.2844,65.9535 195.0804,71.0275 194.7364,75.1555 L192.3284,75.8435 L192.5004,74.9835 C195.2524,59.4175 201.4444,44.7975 210.5604,32.1555 C212.7964,29.1455 212.7104,29.2315 214.0004,29.2315 L214.0864,29.2315 L215.1184,29.2315 L214.6024,29.9195 Z" id="Stroke-33" stroke="#8A8C8E" stroke-width="0.5"></path>
            <path d="M238.0796,30.6938 C242.0356,24.9318 244.7876,20.4608 246.5936,16.5038 C248.1426,13.0648 248.8296,10.8288 248.8296,9.4528 C248.8296,8.5068 248.3136,7.9038 247.6256,7.9038 C245.6476,7.9038 241.9496,13.2358 238.8536,20.8038 C236.7896,25.7918 235.2416,31.0378 234.5536,35.1658 C235.7586,33.7898 236.6176,32.7578 238.0796,30.6938 M233.9516,40.6698 C233.9516,47.5498 235.7586,51.3338 239.0256,51.3338 C242.0356,51.3338 245.6476,48.9258 250.8936,43.5078 C252.4406,41.9598 254.7636,39.4658 255.5366,38.6058 C255.9676,38.0038 256.1396,37.8318 256.3976,37.8318 C256.6556,37.8318 256.7416,38.0038 256.7416,38.2618 C256.7416,38.4338 256.7416,38.5198 255.2786,40.1538 C246.8506,49.6138 241.8636,53.3978 237.5626,53.3978 C233.6076,53.3978 231.4576,49.7858 231.4576,43.2498 C231.4576,38.0038 232.5756,32.6718 235.0696,26.3938 C237.9076,18.9978 241.3486,12.4618 244.3566,8.9368 C245.8196,7.1298 247.0226,6.3558 248.2276,6.3558 C249.2596,6.3558 250.0326,7.3018 250.0326,8.7638 C250.0326,12.0318 247.7116,17.1918 242.7236,25.1898 C241.1756,27.6838 240.4876,28.6298 238.7686,30.9518 C237.8216,32.2418 236.8756,33.5318 236.7036,33.7898 L234.9836,35.9398 C234.8976,36.0258 234.6396,36.3698 234.2956,36.8858 C234.0376,38.0898 233.9516,39.0358 233.9516,40.6698" id="Fill-35" fill="#8A8C8E"></path>
            <path d="M238.0796,30.6938 C242.0356,24.9318 244.7876,20.4608 246.5936,16.5038 C248.1426,13.0648 248.8296,10.8288 248.8296,9.4528 C248.8296,8.5068 248.3136,7.9038 247.6256,7.9038 C245.6476,7.9038 241.9496,13.2358 238.8536,20.8038 C236.7896,25.7918 235.2416,31.0378 234.5536,35.1658 C235.7586,33.7898 236.6176,32.7578 238.0796,30.6938 Z M233.9516,40.6698 C233.9516,47.5498 235.7586,51.3338 239.0256,51.3338 C242.0356,51.3338 245.6476,48.9258 250.8936,43.5078 C252.4406,41.9598 254.7636,39.4658 255.5366,38.6058 C255.9676,38.0038 256.1396,37.8318 256.3976,37.8318 C256.6556,37.8318 256.7416,38.0038 256.7416,38.2618 C256.7416,38.4338 256.7416,38.5198 255.2786,40.1538 C246.8506,49.6138 241.8636,53.3978 237.5626,53.3978 C233.6076,53.3978 231.4576,49.7858 231.4576,43.2498 C231.4576,38.0038 232.5756,32.6718 235.0696,26.3938 C237.9076,18.9978 241.3486,12.4618 244.3566,8.9368 C245.8196,7.1298 247.0226,6.3558 248.2276,6.3558 C249.2596,6.3558 250.0326,7.3018 250.0326,8.7638 C250.0326,12.0318 247.7116,17.1918 242.7236,25.1898 C241.1756,27.6838 240.4876,28.6298 238.7686,30.9518 C237.8216,32.2418 236.8756,33.5318 236.7036,33.7898 L234.9836,35.9398 C234.8976,36.0258 234.6396,36.3698 234.2956,36.8858 C234.0376,38.0898 233.9516,39.0358 233.9516,40.6698 Z" id="Stroke-37" stroke="#8A8C8E" stroke-width="0.5"></path>
            <path d="M261.2134,55.2895 L258.2894,57.0955 L254.5914,59.2455 C244.5294,65.0935 240.8314,68.3615 240.8314,71.6295 C240.8314,72.9195 241.7774,73.7795 243.0674,73.7795 C247.6254,73.7795 257.7734,63.6315 261.9874,54.8595 L261.2134,55.2895 Z M254.7634,47.0335 C254.7634,48.7535 255.8814,49.9575 257.4294,49.9575 C262.5894,49.9575 268.9524,40.3255 268.9524,32.5855 C268.9524,32.4995 268.8664,32.3275 268.8664,32.0695 L270.7594,30.9525 C270.8454,31.8115 270.9314,32.2425 270.9314,32.9305 C270.9314,34.9935 270.5014,37.4875 269.6414,40.4115 C268.7804,43.3355 267.4054,47.2055 266.5454,49.0115 L265.6854,50.8175 C265.6854,50.9035 265.5134,51.2475 265.3414,51.6775 C269.3834,49.0975 275.9194,43.1635 280.1324,38.1755 C280.3914,37.9175 280.5634,37.7465 280.7354,37.7465 C280.9924,37.7465 281.0794,37.9175 281.0794,38.1755 C281.0794,38.3485 281.0794,38.5195 280.8204,38.6915 L280.0464,39.5515 L277.9834,41.8735 C276.1774,43.7655 272.9954,46.7755 270.3294,48.9255 C268.4374,50.5595 266.9754,51.5915 264.3954,53.3975 C264.1374,53.8275 263.9654,54.0855 263.9654,54.1715 L262.7614,56.2355 C262.0734,57.3535 259.9234,60.5355 258.7194,62.0835 C255.8814,65.7815 252.0114,69.7375 248.4004,72.5755 C245.6484,74.7255 243.0674,75.8435 241.0034,75.8435 C239.2834,75.8435 238.0794,74.6395 238.0794,72.9195 C238.0794,70.8555 239.5414,68.5335 242.2074,66.1255 C243.5834,65.0075 245.3044,63.7175 247.2814,62.5135 C248.2284,61.9115 250.2054,60.7935 253.1294,59.1595 C255.0214,58.0415 258.5474,55.9775 259.8374,55.2895 C260.8684,54.6875 261.4714,54.3435 262.6754,53.5695 C263.1914,52.7095 263.3624,52.2795 264.3094,49.8715 L265.2554,47.5495 C265.8574,46.1735 266.1144,45.2275 266.5454,43.6795 C263.0194,48.9255 259.8374,51.3335 256.5694,51.3335 C254.2474,51.3335 252.4414,49.4415 252.4414,46.8615 C252.4414,43.8515 254.5914,39.5515 257.8594,35.6825 C258.8914,35.2515 259.5794,35.1655 260.9544,35.1655 C256.9134,40.3255 254.7634,44.4535 254.7634,47.0335 Z" id="Fill-39" fill="#8A8C8E"></path>
            <path d="M261.2134,55.2895 L258.2894,57.0955 L254.5914,59.2455 C244.5294,65.0935 240.8314,68.3615 240.8314,71.6295 C240.8314,72.9195 241.7774,73.7795 243.0674,73.7795 C247.6254,73.7795 257.7734,63.6315 261.9874,54.8595 L261.2134,55.2895 Z M254.7634,47.0335 C254.7634,48.7535 255.8814,49.9575 257.4294,49.9575 C262.5894,49.9575 268.9524,40.3255 268.9524,32.5855 C268.9524,32.4995 268.8664,32.3275 268.8664,32.0695 L270.7594,30.9525 C270.8454,31.8115 270.9314,32.2425 270.9314,32.9305 C270.9314,34.9935 270.5014,37.4875 269.6414,40.4115 C268.7804,43.3355 267.4054,47.2055 266.5454,49.0115 L265.6854,50.8175 C265.6854,50.9035 265.5134,51.2475 265.3414,51.6775 C269.3834,49.0975 275.9194,43.1635 280.1324,38.1755 C280.3914,37.9175 280.5634,37.7465 280.7354,37.7465 C280.9924,37.7465 281.0794,37.9175 281.0794,38.1755 C281.0794,38.3485 281.0794,38.5195 280.8204,38.6915 L280.0464,39.5515 L277.9834,41.8735 C276.1774,43.7655 272.9954,46.7755 270.3294,48.9255 C268.4374,50.5595 266.9754,51.5915 264.3954,53.3975 C264.1374,53.8275 263.9654,54.0855 263.9654,54.1715 L262.7614,56.2355 C262.0734,57.3535 259.9234,60.5355 258.7194,62.0835 C255.8814,65.7815 252.0114,69.7375 248.4004,72.5755 C245.6484,74.7255 243.0674,75.8435 241.0034,75.8435 C239.2834,75.8435 238.0794,74.6395 238.0794,72.9195 C238.0794,70.8555 239.5414,68.5335 242.2074,66.1255 C243.5834,65.0075 245.3044,63.7175 247.2814,62.5135 C248.2284,61.9115 250.2054,60.7935 253.1294,59.1595 C255.0214,58.0415 258.5474,55.9775 259.8374,55.2895 C260.8684,54.6875 261.4714,54.3435 262.6754,53.5695 C263.1914,52.7095 263.3624,52.2795 264.3094,49.8715 L265.2554,47.5495 C265.8574,46.1735 266.1144,45.2275 266.5454,43.6795 C263.0194,48.9255 259.8374,51.3335 256.5694,51.3335 C254.2474,51.3335 252.4414,49.4415 252.4414,46.8615 C252.4414,43.8515 254.5914,39.5515 257.8594,35.6825 C258.8914,35.2515 259.5794,35.1655 260.9544,35.1655 C256.9134,40.3255 254.7634,44.4535 254.7634,47.0335 Z" id="Stroke-41" stroke="#8A8C8E" stroke-width="0.5"></path>
        </g>
    </g>
</svg>