<?xml version="1.0" encoding="UTF-8"?>
<svg width="408px" height="142px" viewBox="0 0 408 142" version="1.1" xmlns="http://www.w3.org/2000/svg" xmlns:xlink="http://www.w3.org/1999/xlink">
    <!-- Generator: Sketch 48.2 (47327) - http://www.bohemiancoding.com/sketch -->
    <title>the knitter</title>
    <desc>Created with Sketch.</desc>
    <defs></defs>
    <g id="Logos" stroke="none" stroke-width="1" fill="none" fill-rule="evenodd">
        <path d="M406.2908,62.287 C404.3708,59.58 399.8178,52.814 392.2298,54.077 C373.1908,57.968 358.1508,81.482 358.1508,81.482 C358.1508,81.482 363.9528,63.928 364.8738,61.46 C365.7938,58.991 367.8268,52.854 363.8488,51.997 C359.8708,51.14 355.4408,51.174 352.2098,54.191 C348.9788,57.209 344.2368,68.883 341.8918,83.231 C341.2818,86.966 340.8438,89.712 340.5248,91.756 C336.7148,97.511 331.7308,103.677 325.6788,108.173 C312.7638,117.766 294.8658,125.069 289.7308,113.334 C289.7308,113.334 314.7638,99.645 323.6318,89.659 C332.5008,79.673 338.7348,67.573 333.4008,59.756 C328.0668,51.939 311.5798,51.789 298.3908,59.447 C285.2378,67.085 265.7568,85.966 267.4168,110.061 C260.2568,112.194 254.0658,109.814 251.2408,104.599 C246.5198,95.885 247.4438,85.213 250.0988,67.682 C250.8848,62.498 252.2838,56.627 253.9228,50.808 C263.1778,50.112 271.0328,50.071 273.3218,50.19 C279.7968,50.528 278.9138,51.288 282.3818,52.888 C287.0928,55.061 291.4498,50.411 290.9238,45.434 C290.5588,41.979 288.0818,39.174 272.1358,38.47 C267.2058,38.252 262.3348,38.315 257.7148,38.545 C260.2388,31.001 262.7038,24.618 264.0678,21.471 C266.7408,15.306 267.5728,8.157 262.2348,6.135 C256.8958,4.114 251.7048,12.483 247.9198,21.159 C246.2098,25.08 243.7578,32.776 241.5818,40.035 C238.1098,40.493 235.0768,40.974 232.6728,41.385 C227.8938,42.203 219.7018,44.085 213.7118,45.509 C215.5718,39.925 217.2828,35.314 218.3488,32.817 C220.8398,26.988 221.4618,20.296 216.0668,18.569 C210.6708,16.842 205.4828,24.829 201.9548,33.033 C200.3768,36.702 198.1768,43.826 196.2268,50.582 C193.1518,51.601 190.3758,52.55 189.6178,52.894 C187.7048,53.762 183.2318,55.612 184.2758,59.861 C185.3198,64.11 187.8598,66.063 189.1788,66.365 C189.4558,66.429 190.5038,66.188 192.0378,65.757 C191.8778,66.363 191.7868,66.711 191.7868,66.711 C191.7868,66.711 184.7308,94.128 189.2968,110.751 C192.1478,121.132 198.4278,132.124 209.6338,132.556 C224.5698,133.131 235.1578,121.545 237.0258,117.875 C237.1218,117.687 237.2128,117.508 237.3058,117.324 C240.6668,123.162 245.5138,127.546 252.2188,128.036 C259.5118,128.57 266.2448,126.455 271.5018,123.73 C272.4998,125.489 277.0618,132.368 287.4758,132.578 C298.5878,132.801 320.4248,128.042 339.2098,108.621 C339.2918,118.074 340.8078,130.444 347.9888,132.293 C358.2898,134.916 357.4868,120.842 358.5118,116.042 C359.5368,111.242 362.9658,93.739 372.5548,81.396 C382.1438,69.054 390.4358,68.376 393.1438,70.353 C395.7868,72.282 398.6568,74.207 400.9208,73.926 C402.8498,73.686 405.0528,72.276 405.9438,71.039 C406.6098,70.113 409.1228,66.279 406.2908,62.287 M237.7958,53.104 C237.1238,55.495 236.7138,56.996 236.7138,56.996 C236.7138,56.996 228.4198,86.431 232.4598,104.383 C232.5778,104.905 232.7108,105.428 232.8438,105.952 C231.6718,107.461 228.1908,111.569 222.7068,114.853 C217.2168,118.142 210.6708,114.637 206.9358,107.081 C202.7758,98.667 202.7858,91.106 205.4828,75.994 C206.3388,71.203 207.6608,65.775 209.1578,60.385 C211.7628,59.567 214.0708,58.869 215.6428,58.463 C219.9388,57.355 229.0098,54.909 237.7958,53.104 M286.3958,102.114 C288.0148,68.591 313.4198,66.01 314.9598,66.524 C316.4988,67.038 323.8108,68.383 315.5368,80.615 C307.2628,92.847 286.3958,102.114 286.3958,102.114 M184.0578,115.791 C182.5988,114.496 180.2848,115.612 178.8048,116.563 C176.0948,118.204 172.5198,121.315 167.6738,118.692 C162.8268,116.069 161.2638,106.727 161.7328,99.047 C162.2018,91.367 166.7698,78.27 167.5168,75.647 C168.2638,73.024 168.5248,68.464 163.9558,67.779 C159.3878,67.093 155.3398,72.099 153.5338,76.264 C151.7268,80.43 147.1408,93.733 146.5858,104.961 C146.5858,104.961 146.3638,108.572 146.7708,113.312 C145.3008,115.571 143.0088,118.267 140.1888,118.833 C135.1618,119.84 127.1928,117.03 126.8158,105.728 C126.8158,105.728 127.0528,99.152 131.0468,84.858 C134.7908,72.283 136.9228,66.947 137.8268,64.522 C138.7318,62.097 140.7288,56.067 136.8208,55.225 C134.3548,54.694 131.7148,54.516 129.3038,55.197 C128.7798,55.267 128.2218,55.348 127.5848,55.454 C108.8808,59.278 94.1048,82.379 94.1048,82.379 C94.1048,82.379 95.4178,78.406 96.8838,74.006 C98.4718,69.238 100.2388,63.969 100.7088,62.708 C101.6138,60.283 103.6098,54.254 99.7018,53.412 C95.7938,52.57 90.7578,52.869 88.6628,55.547 C86.5678,58.225 78.3438,83.498 78.3438,83.498 C78.3388,83.523 78.3338,83.549 78.3288,83.574 C77.9408,84.214 75.6008,88.051 73.5138,90.856 C71.2318,93.925 67.7278,98.08 67.4798,98.353 C55.5698,111.44 36.7568,121.567 24.0208,77.063 L24.0948,76.524 C69.7918,60.496 81.2828,35.846 81.2828,35.846 C81.2828,35.846 84.7828,29.791 80.0148,27.179 C76.1028,25.036 72.3198,25.37 70.5628,28.036 C68.8058,30.702 68.6938,32.246 67.0848,34.542 C57.3448,46.771 41.9478,56.148 26.3348,61.079 C27.2498,56.932 29.9228,45.24 32.8558,36.314 C36.2518,25.591 39.8088,17.142 41.7838,10.822 C42.9058,7.229 42.4168,1.047 36.3398,0.361 C32.7928,-0.039 28.3458,0.228 26.9358,5.22 C23.8278,16.224 18.8678,26.36 9.2678,64.725 C9.4428,64.725 4.9888,65.475 4.3858,71.228 C3.9648,76.48 5.2708,77.63 5.2708,77.63 C5.2708,77.63 -0.8042,115.069 1.1748,134.295 C2.1738,141.58 6.5558,141.073 6.5558,141.073 C6.5558,141.073 18.6878,142.741 18.9648,134.071 C19.1268,125.067 19.2738,108.133 20.1288,104.14 C20.2298,104.334 23.5238,122.053 41.0838,124.648 C49.9348,125.942 58.7708,120.643 66.1288,113.922 C66.9698,113.154 73.6518,106.731 74.8628,105.145 C75.1368,104.786 75.3858,104.446 75.6148,104.127 C75.5698,104.599 75.5458,104.868 75.5458,104.868 C75.2408,114.183 75.9378,130.191 84.1208,132.299 C94.2408,134.875 93.4518,121.049 94.4588,116.333 C95.4658,111.617 98.8348,94.421 108.2558,82.295 C111.3748,78.28 114.3438,75.553 117.0288,73.735 C117.9988,73.184 118.1738,73.448 118.1738,73.448 C118.5218,73.609 118.2148,74.297 118.2148,74.297 L117.6418,76.334 C115.0698,84.9 113.3718,92.865 113.0818,94.326 C110.3678,108.015 109.5538,125.245 124.5318,130.71 C133.6818,133.567 142.9328,131.056 149.1568,123.741 C150.8998,127.217 154.5128,131.771 161.7328,132.732 C175.1488,134.516 183.0298,123.869 184.1068,121.401 C185.1838,118.932 185.7878,117.458 184.0578,115.791 M177.1928,54.485 C178.1348,50.992 177.7508,48.212 173.7388,46.392 C173.7388,46.392 168.5318,44.445 164.7448,48.961 C160.9568,53.477 160.8058,58.744 164.6658,60.497 C166.6338,61.392 169.9118,61.294 171.5558,60.769 C174.3268,59.885 176.4098,56.552 177.1928,54.485 M159.8408,40.99 C161.1338,39.725 161.7458,38.573 161.3968,37.913 C161.0478,37.254 159.8418,36.664 158.9698,37.599 C157.8298,38.822 156.5898,40.082 155.1538,41.014 C150.9868,43.718 145.3688,45.603 143.9418,41.988 C148.8108,39.699 153.1128,36.88 154.3448,35.677 C154.5538,35.497 154.7498,35.319 154.9258,35.145 C157.8978,32.195 160.0998,28.524 158.6158,25.948 C157.1318,23.373 152.0168,22.968 147.7548,25.091 C143.4918,27.214 137.0038,32.756 137.0248,40.405 C137.0248,40.405 137.0238,40.441 137.0238,40.505 C136.1798,40.765 135.4788,40.955 135.0898,41.006 C133.4068,41.227 131.2158,40.627 131.3558,36.838 C131.3558,36.838 131.2148,35.87 132.8668,31.181 C134.3968,27.061 135.2248,25.325 135.5798,24.535 C135.9358,23.745 136.7358,21.774 135.4658,21.402 C134.6648,21.168 133.7968,21.047 132.9858,21.219 C132.8108,21.231 132.6248,21.245 132.4128,21.266 C126.1508,22.113 120.6218,29.154 120.6218,29.154 C120.6218,29.154 120.6258,29.136 120.6278,29.128 C124.3468,18.933 127.2208,14.211 127.2208,14.211 C127.2208,14.211 128.7718,12.693 129.2558,11.282 C129.7398,9.87 127.6858,8.932 126.7668,8.65 C125.8468,8.369 124.5298,8.197 123.8988,9.365 C120.4388,15.778 118.1708,21.114 116.6858,25.464 C116.3598,26.351 116.0488,27.321 115.7678,28.35 C114.6988,31.999 114.2388,34.788 114.0648,36.776 C113.7598,39.908 113.6728,45.09 116.2718,45.966 C119.5518,47.061 119.6148,42.418 120.0568,40.864 C120.4998,39.31 122.0138,33.636 125.4058,29.797 C126.5298,28.526 127.5738,27.682 128.5018,27.136 C128.8398,26.977 128.8938,27.07 128.8938,27.07 C128.9798,27.118 128.9368,27.255 128.9068,27.327 C128.9058,27.332 128.9038,27.337 128.9018,27.341 C128.8938,27.358 128.8868,27.373 128.8868,27.373 L128.8628,27.44 C127.6988,30.456 126.8558,33.418 126.7168,33.933 C125.6718,37.817 125.4028,41.585 128.2848,44.097 C130.2968,45.851 133.9208,45.571 137.8498,44.38 C137.8788,44.453 137.9048,44.525 137.9348,44.599 C137.9348,44.599 139.0558,47.529 142.7578,47.863 C146.2938,48.183 153.5218,47.172 159.8408,40.99 M143.0928,38.255 C144.3328,27.743 152.2758,27.482 152.7418,27.677 C153.2088,27.872 155.4488,28.454 152.6118,32.123 C149.7738,35.792 143.0928,38.255 143.0928,38.255 M143.1538,2.782 C142.8728,0.029 141.2778,0.301 138.5318,0.205 C131.0518,-0.058 115.8118,0.702 95.2438,10.187 C94.7028,10.436 92.7858,11.878 93.5778,13.834 C94.3988,15.863 96.1458,16.187 97.5508,15.628 C98.1728,15.381 102.5758,12.743 109.1008,10.186 C106.9768,16.156 103.5718,27.521 101.0598,44.583 C100.8578,45.959 102.1158,46.618 103.0708,46.937 C104.0258,47.257 106.3468,47.706 106.7928,46.208 C107.2388,44.71 106.6668,43.755 106.8388,42.473 C107.0078,41.212 109.0118,25.639 114.8118,8.181 C121.3698,6.154 129.1968,4.69 137.2148,5.405 C138.3138,5.503 138.9558,5.927 140.0598,6.111 C141.8268,6.491 143.3818,5.019 143.1538,2.782" id="the-knitter" fill="#875679"></path>
    </g>
</svg>