<?xml version="1.0" encoding="UTF-8"?>
<svg width="886px" height="311px" viewBox="0 0 886 311" version="1.1" xmlns="http://www.w3.org/2000/svg" xmlns:xlink="http://www.w3.org/1999/xlink">
    <!-- Generator: Sketch 48.2 (47327) - http://www.bohemiancoding.com/sketch -->
    <title>WDYTYA</title>
    <desc>Created with Sketch.</desc>
    <defs>
        <polygon id="path-1" points="0 0 886 0 886 238 0 238"></polygon>
    </defs>
    <g id="Logos" stroke="none" stroke-width="1" fill="none" fill-rule="evenodd">
        <g id="WDYTYA">
            <g id="Page-1">
                <mask id="mask-2" fill="white">
                    <use xlink:href="#path-1"></use>
                </mask>
                <g id="Clip-2"></g>
                <path d="M457.430903,224.090878 L417.454444,182.095384 L417.454444,235.681015 L423.165367,235.681015 L423.165367,196.071538 L463.143417,238 L463.143417,184.27871 L457.430903,184.27871 L457.430903,224.090878 Z M512.930949,184.277114 L505.247943,184.277114 L483.422923,206.297097 L483.422923,184.277114 L477.712,184.277114 L477.712,235.681015 L483.422923,235.681015 L483.422923,213.523776 L484.850654,212.092166 L505.859146,235.681015 L513.745885,235.681015 L488.860078,208.205911 L512.930949,184.277114 Z M397.139922,235.681015 L402.850844,235.681015 L402.850844,184.277114 L397.139922,184.277114 L397.139922,235.681015 Z M376.825399,205.138403 L350.581895,205.138403 L350.581895,184.277114 L344.870972,184.277114 L344.870972,235.681015 L350.581895,235.681015 L350.581895,210.456268 L376.825399,210.456268 L376.825399,235.681015 L382.536322,235.681015 L382.536322,184.277114 L376.825399,184.277114 L376.825399,205.138403 Z M560.291179,207.182876 L547.237869,184.275518 L540.641976,184.275518 L557.435718,213.590808 L557.435718,235.679419 L563.14664,235.679419 L563.14664,213.590808 L579.940382,184.275518 L573.344489,184.275518 L560.291179,207.182876 Z M870.581463,184.784641 C863.371185,184.784641 857.660262,187.719681 853.876855,191.443144 L857.445386,195.380471 C861.157168,191.944288 865.083825,189.867894 870.366588,189.867894 C876.364011,189.867894 880.432328,192.946574 880.432328,197.527088 C880.432328,201.608055 878.361561,203.540809 874.64978,205.831066 C867.153,210.4834 866.225054,212.631613 866.225054,222.22356 L871.722693,222.22356 C871.722693,214.708006 872.364137,212.990712 877.147114,210.055672 C882.714787,206.619489 886,204.041952 886,197.099361 C886.001591,188.937427 879.649224,184.784641 870.581463,184.784641 Z M873.223641,232.101192 C873.223641,229.740711 871.152874,227.592497 868.870415,227.592497 C866.514739,227.592497 864.515598,229.740711 864.515598,232.101192 C864.515598,234.463269 866.514739,236.467842 868.870415,236.467842 C871.152874,236.467842 873.223641,234.463269 873.223641,232.101192 Z M837.683174,189.594979 L837.683174,184.277114 L811.100643,184.277114 L811.100643,235.681015 L837.683174,235.681015 L837.683174,230.36315 L816.811566,230.36315 L816.811566,210.183352 L837.071972,210.183352 L837.071972,204.865487 L816.811566,204.865487 L816.811566,189.594979 L837.683174,189.594979 Z M304.87223,189.594979 L317.245895,189.594979 L317.245895,235.681015 L322.95841,235.681015 L322.95841,189.594979 L335.467368,189.594979 L335.467368,184.277114 L304.870638,184.277114 L304.870638,189.594979 L304.87223,189.594979 Z M665.80159,236.566794 C670.968161,236.566794 676.067881,234.522321 679.602987,230.703097 C683.682445,226.478491 684.089913,222.044809 684.089913,216.455624 L684.089913,184.277114 L678.37899,184.277114 L678.37899,214.888354 C678.37899,218.910269 678.582725,223.409387 675.864147,226.682779 C673.484596,229.545999 669.471988,231.248929 665.80159,231.248929 C662.061159,231.248929 657.711117,229.477371 655.466858,226.341235 C653.087306,223.069439 653.22419,218.705981 653.22419,214.888354 L653.22419,184.277114 L647.513268,184.277114 L647.513268,216.455624 C647.513268,222.317724 648.05762,227.02113 652.544546,231.317557 C656.01121,234.725012 660.974046,236.566794 665.80159,236.566794 Z M630.407558,209.977468 C630.407558,198.320299 621.159938,188.707604 609.399066,188.707604 C597.638194,188.707604 588.390574,198.320299 588.390574,209.977468 C588.390574,221.567605 597.773486,231.247333 609.399066,231.247333 C621.024646,231.247333 630.407558,221.567605 630.407558,209.977468 Z M636.118481,210.046096 C636.118481,224.840997 624.015399,236.565198 609.399066,236.565198 C594.782733,236.565198 582.679651,224.839401 582.679651,210.046096 C582.679651,195.319823 594.782733,183.391335 609.399066,183.391335 C624.015399,183.391335 636.118481,195.321419 636.118481,210.046096 Z M94.9194193,209.977468 C94.9194193,198.320299 85.6733908,188.707604 73.9109274,188.707604 C62.1484639,188.707604 52.9024355,198.320299 52.9024355,209.977468 C52.9024355,221.567605 62.2853478,231.247333 73.9109274,231.247333 C85.5365069,231.248929 94.9194193,221.567605 94.9194193,209.977468 Z M100.630342,210.046096 C100.630342,224.840997 88.5288522,236.565198 73.9109274,236.565198 C59.2930025,236.565198 47.1899211,224.839401 47.1899211,210.046096 C47.1899211,195.319823 59.2930025,183.391335 73.9109274,183.391335 C88.5288522,183.391335 100.630342,195.321419 100.630342,210.046096 Z M32.4303373,209.977468 C32.4303373,204.115368 30.1860784,198.455959 25.7660025,194.5713 C21.0753422,190.413726 15.9087716,189.594979 9.85723088,189.594979 L5.71092272,189.594979 L5.71092272,230.36315 L9.85723088,230.36315 C16.1125058,230.36315 21.3475183,229.475775 26.0381786,225.045285 C30.2545204,221.090402 32.4303373,215.705505 32.4303373,209.977468 Z M38.1412601,210.046096 C38.1412601,217.54569 35.4226826,224.15791 29.7786101,229.202859 C23.6602191,234.656384 17.5418281,235.681015 9.51820453,235.681015 L0,235.681015 L0,184.277114 L9.65508841,184.277114 C17.338094,184.277114 23.5917772,185.300148 29.6433179,190.482353 C35.4895329,195.525707 38.1412601,202.410842 38.1412601,210.046096 Z M267.507706,214.888354 C267.507706,218.910269 267.71144,223.409387 264.991271,226.682779 C262.613311,229.545999 258.600704,231.248929 254.930306,231.248929 C251.189874,231.248929 246.839832,229.477371 244.595573,226.341235 C242.217614,223.069439 242.352906,218.705981 242.352906,214.888354 L242.352906,184.277114 L236.640391,184.277114 L236.640391,216.455624 C236.640391,222.317724 237.184744,227.02113 241.673261,231.317557 C245.139925,234.726608 250.102762,236.566794 254.930306,236.566794 C260.096876,236.566794 265.196597,234.522321 268.731702,230.703097 C272.809569,226.478491 273.218629,222.044809 273.218629,216.455624 L273.218629,184.277114 L267.507706,184.277114 L267.507706,214.888354 Z M730.227738,215.772537 L747.565832,215.772537 L738.999448,195.185759 L730.227738,215.772537 Z M715.47293,235.681015 L739.133149,181.822469 L762.180574,235.681015 L755.856857,235.681015 L749.805316,221.090402 L727.913446,221.090402 L721.726613,235.681015 L715.47293,235.681015 Z M219.534682,209.977468 C219.534682,198.320299 210.287062,188.707604 198.52619,188.707604 C186.765318,188.707604 177.517698,198.320299 177.517698,209.977468 C177.517698,221.567605 186.90061,231.247333 198.52619,231.247333 C210.151769,231.247333 219.534682,221.567605 219.534682,209.977468 Z M225.245604,210.046096 C225.245604,224.840997 213.142523,236.565198 198.52619,236.565198 C183.908265,236.565198 171.806775,224.839401 171.806775,210.046096 C171.806775,195.319823 183.908265,183.391335 198.52619,183.391335 C213.144115,183.391335 225.245604,195.321419 225.245604,210.046096 Z M791.796833,198.867727 C791.796833,190.413726 785.61,189.594979 778.743523,189.594979 L777.043616,189.594979 L777.043616,208.070251 L778.811965,208.070251 C785.270974,208.070251 791.796833,206.842928 791.796833,198.867727 Z M784.65818,212.636401 L800.976011,235.679419 L793.974242,235.679419 L778.472939,213.112008 L777.045208,213.112008 L777.045208,235.679419 L771.334285,235.679419 L771.334285,184.275518 L778.745115,184.275518 C788.467053,184.275518 797.509348,186.865822 797.509348,198.455959 C797.507756,206.365725 792.54492,211.956506 784.65818,212.636401 Z M149.418303,207.182876 L136.363401,184.275518 L129.7691,184.275518 L146.562841,213.590808 L146.562841,235.679419 L152.273764,235.679419 L152.273764,213.590808 L169.065914,184.275518 L162.471613,184.275518 L149.418303,207.182876 Z M476.747447,130.300463 L476.747447,78.8981579 L463.28826,78.8981579 L463.28826,98.7380082 L443.853932,98.7380082 L443.853932,78.8981579 L430.394746,78.8981579 L430.394746,130.300463 L443.853932,130.300463 L443.853932,109.234887 L463.28826,109.234887 L463.28826,130.298867 L476.747447,130.298867 L476.747447,130.300463 Z M373.826687,130.300463 L383.991111,100.509566 L384.127995,100.509566 L393.192573,130.300463 L406.925527,130.300463 L423.474151,78.8981579 L409.465837,78.8981579 L399.713657,112.099703 L399.576773,112.099703 L389.413941,78.8981579 L378.701982,78.8981579 L367.853138,112.099703 L367.716255,112.099703 L358.720119,78.8981579 L344.711805,78.8981579 L360.162174,130.300463 L373.826687,130.300463 Z M515.167249,90.1451553 C507.132484,90.1451553 500.541366,96.623311 500.541366,103.712734 C500.541366,112.57531 507.134076,119.050274 515.167249,119.050274 C523.200423,119.050274 529.793133,112.573714 529.793133,103.712734 C529.793133,96.623311 523.200423,90.1451553 515.167249,90.1451553 Z M515.167249,77.1936321 C530.0669,77.1936321 543.801447,88.100682 543.801447,103.644106 C543.801447,120.279192 531.784316,132.004989 515.167249,132.004989 C498.550183,132.004989 486.531461,120.279192 486.531461,103.644106 C486.529869,88.100682 500.264415,77.1936321 515.167249,77.1936321 Z M0.542760493,175.074589 L7.34079587,175.074589 L7.34079587,159.176854 L878.062326,159.176854 L878.062326,175.540621 L884.860362,175.540621 L884.860362,150.986193 L878.544603,150.986193 L878.544603,150.952677 L7.34079587,150.952677 L7.34079587,150.941505 L0.542760493,150.941505 L0.542760493,150.952677 L0.542760493,159.176854 L0.542760493,175.074589 Z M355.235947,69.5887019 L348.436319,69.5887019 L348.436319,45.5130731 L348.648012,45.5130731 L348.648012,45.4683852 L440.363394,45.4683852 L440.363394,0 L449.289496,0 L449.289496,45.4667892 L528.161668,45.4667892 L528.161668,45.4268892 L534.959703,45.4268892 L534.959703,45.4667892 L534.961295,45.4667892 L534.961295,53.6893705 L534.959703,53.6893705 L534.961295,70.0531373 L528.161668,70.0531373 L528.161668,53.6909665 L355.235947,53.6909665 L355.235947,69.5887019 Z" id="Fill-1" fill="#000000" mask="url(#mask-2)"></path>
            </g>
            <g id="Page-1" transform="translate(553.000000, 258.000000)" fill="#000000">
                <polygon id="Fill-1" points="45.1578947 0 27.4678363 40.520402 9.84210526 0 0 51.0157005 5.52986633 51.0157005 11.7719298 18.3684869 11.9005848 18.3684869 27.4678363 53 43.0994152 18.3684869 43.2280702 18.3684869 49.4678363 51.0157005 55 51.0157005"></polygon>
                <polygon id="Fill-2" points="253 50.8439024 258.377285 50.8439024 258.377285 14 296 53 296 3.02926829 290.625 3.02926829 290.625 40.0634146 253 1"></polygon>
                <polygon id="Fill-3" points="306 3 306 51 331 51 331 46.0369914 311.36856 46.0369914 311.36856 27.1943826 330.422269 27.1943826 330.422269 22.2245536 311.36856 22.2245536 311.36856 7.96755553 331 7.96755553 331 3"></polygon>
                <polygon id="Fill-4" points="238 51 243 51 243 3 238 3"></polygon>
                <path d="M56,51 L61.8922853,51 L67.720524,37.4556962 L88.3435226,37.4556962 L94.0436681,51 L100,51 L78.2859222,1 L56,51 Z M78.1624038,13.4050633 L86.2299854,32.5189873 L69.9003951,32.5189873 L78.1624038,13.4050633 Z" id="Fill-5"></path>
                <polygon id="Fill-6" points="200.300817 3 200.300817 7.96755553 223.104809 7.96755553 197 51 231.30127 51 231.30127 46.0369914 205.827132 46.0369914 232 3"></polygon>
                <g id="Group-11" transform="translate(101.000000, 1.000000)">
                    <path d="M28.5165714,26.496875 L28.5165714,31.5041667 L42.8502857,31.5041667 C42.8502857,40.4875 34.0205714,46.6452083 25.6365714,46.6452083 C20.5805714,46.6452083 15.4605714,44.0166667 11.9405714,40.4852083 C8.35657143,36.8277083 6.30857143,31.94875 6.30857143,26.8177083 C6.30857143,15.9070833 15.0125714,6.60520833 26.0205714,6.60520833 C33.1222857,6.60520833 38.5622857,10.0060417 42.5965714,15.716875 L46.5005714,12.059375 C41.3805714,5.38604167 34.5325714,1.6025 26.0822857,1.6025 C12.1965714,1.6025 0.930285714,12.8958333 0.930285714,26.7558333 C0.930285714,40.3614583 12.1965714,51.6525 25.7622857,51.6525 C32.4822857,51.6525 39.2022857,48.7008333 43.6182857,43.5675 C48.0342857,38.4341667 48.736,33.0441667 48.6102857,26.4991667 L28.5165714,26.4991667 L28.5165714,26.496875 Z" id="Fill-7"></path>
                    <path d="M64.9988571,32.0816667 L73.2548571,12.7033333 L81.3165714,32.0816667 L64.9988571,32.0816667 Z M73.3805714,0.126666667 L51.1085714,50.8183333 L56.9965714,50.8183333 L62.8205714,37.0866667 L83.4285714,37.0866667 L89.1245714,50.8183333 L95.0765714,50.8183333 L73.3805714,0.126666667 Z" id="Fill-9"></path>
                </g>
            </g>
        </g>
    </g>
</svg>