<?xml version="1.0" encoding="utf-8"?>
<!-- Generator: Adobe Illustrator 20.1.0, SVG Export Plug-In . SVG Version: 6.00 Build 0)  -->
<svg version="1.1" id="Layer_1" xmlns="http://www.w3.org/2000/svg" xmlns:xlink="http://www.w3.org/1999/xlink" x="0px" y="0px"
	 viewBox="0 0 571 237" style="enable-background:new 0 0 571 237;" xml:space="preserve">
<style type="text/css">
	.st0{filter:url(#Adobe_OpacityMaskFilter);}
	.st1{fill:#FFFFFF;}
	.st2{mask:url(#mask-2);}
	.st3{filter:url(#Adobe_OpacityMaskFilter_1_);}
	.st4{mask:url(#mask-4);}
</style>
<title>WOXS</title>
<desc>Created with Sketch.</desc>
<g id="Logos">
	<g id="WOXS" transform="translate(0.000000, -1.000000)">
		<g id="Group-16" transform="translate(0.000000, 103.222000)">
			<path id="Fill-1" d="M82.6,10.3v21.5h-9.4v15.5h9.4v32.2c0,8.7,2.2,14.9,6.5,18.5c4.3,3.6,11,5.4,19.9,5.4c4,0,7.3-0.2,10.1-0.5
				c2.8-0.4,5.4-0.9,7.8-1.5V84.8l-1.9,0.9c-0.8,0.4-2.1,0.9-4,1.4c-1.9,0.5-3.5,0.8-4.7,0.8c-2.9,0-5.1-0.4-6.6-1.3
				c-1.5-0.9-2.5-2-3.1-3.5c-0.6-1.5-1-3.2-1-5c0-1.9-0.1-4-0.1-6.5V47.2h21.4V31.7h-21.4V10.3H82.6z"/>
			<path id="Fill-3" d="M175,10.3v21.5h-9.4v15.5h9.4v32.2c0,8.7,2.2,14.9,6.5,18.5c4.3,3.6,11,5.4,19.9,5.4c4,0,7.3-0.2,10.1-0.5
				c2.8-0.4,5.4-0.9,7.8-1.5V84.8l-1.9,0.9c-0.8,0.4-2.1,0.9-4,1.4c-1.9,0.5-3.5,0.8-4.7,0.8c-2.9,0-5.1-0.4-6.6-1.3
				c-1.5-0.9-2.5-2-3.1-3.5c-0.6-1.5-1-3.2-1-5c0-1.9-0.1-4-0.1-6.5V47.2h21.4V31.7h-21.4V10.3H175z"/>
			<path id="Fill-5" d="M68.2,8.3c-1.2-0.7-2.8-1.4-4.9-2.4c-3.1-1.3-7-2.6-11.7-3.6C46.8,1.2,41.6,0.7,36,0.7
				c-7.8,0-14.5,1.3-19.9,3.9C10.7,7.2,6.6,10.6,4,15c-2.6,4.4-4,9.2-4,14.6C0,35.2,1.3,40,3.9,44.1c2.6,4.1,6,7.5,10.1,10.2
				c4.1,2.7,9,5.2,14.4,7.5c5,2,8.7,3.9,11.3,5.7c2.6,1.9,3.9,4.1,3.9,6.8c0,1.5-0.8,3.1-2.3,4.8c-1.5,1.7-4.8,2.6-10,2.6
				c-5.6,0-10.8-1-15.7-3.1c-4.9-2.1-9.9-4.7-14.9-7.8v24.6c5.4,2.4,10.6,4.1,15.6,5.3c5,1.2,9,1.9,12,2.2c3,0.3,5.5,0.4,7.6,0.4
				c7.4,0,14-1.2,19.7-3.6c5.7-2.4,10.2-5.9,13.4-10.5c3.2-4.6,4.8-10,4.8-16.2c0-5.6-1.3-10.3-3.9-14.1c-2.6-3.8-6.2-7.1-10.9-10
				c-4.6-2.9-10.8-6.1-18.5-9.7c-4.3-2.1-7.3-3.8-9-5.3c-1.7-1.4-2.5-3.2-2.5-5.1c0-2.1,0.8-3.9,2.5-5.3c1.7-1.4,4.4-2.2,8.2-2.2
				c5.7,0,11.1,1.2,16.1,3.5c4.5,2.1,8.5,4.4,12.3,6.9V8.3z"/>
			<path id="Fill-7" d="M287.9,77.7c-4.7,1.5-8.8,2.7-12.1,3.5c-3.3,0.8-6.3,1.2-8.8,1.2c-2.7,0-5.5-0.7-8.2-2
				c-2.7-1.3-5-3.4-6.8-6.2c-1.8-2.8-2.7-6.3-2.7-10.4c0-6.2,1.8-10.8,5.4-13.8c3.6-3,7.7-4.4,12.3-4.4c4.7,0,11.3,1.4,19.8,4.3
				V28.3c-3.5-1.4-6.9-2.5-10.4-3.3c-3.4-0.8-7.8-1.2-13.2-1.2c-8.1,0-14.9,1.4-20.5,4.3c-5.5,2.9-9.8,6.4-12.7,10.6
				c-2.9,4.2-5,8.6-6.1,13.2c-1.2,4.5-1.8,8.5-1.8,12c0,3.5,0.6,7.5,1.7,12c1.2,4.5,3.2,9,6.2,13.3c3,4.4,7.3,8,12.8,10.9
				c5.5,2.9,12.3,4.3,20.3,4.3c3.5,0,6.8-0.2,9.8-0.7c3-0.5,5.7-1.1,8.1-1.8c2.4-0.7,4.7-1.5,6.8-2.4V77.7z"/>
			<path id="Fill-9" d="M370.8,57.9c0-19.4-8.6-29.1-25.9-29.1c-4.6,0-9,0.8-13.1,2.4c-4.1,1.6-8.3,4.7-12.5,9.2V9h-25.5v93.2h25.5
				V59.8c2.2-3.3,4.6-6,7-8.1c2.5-2.1,5.3-3.2,8.5-3.2c4.1,0,6.9,1.4,8.4,4.3c1.5,2.9,2.2,6,2.2,9.5c0,0.8,0,1.4,0,1.7
				c0,0.3,0,0.5,0,0.8v37.4h25.5V57.9z"/>
			<path id="Fill-11" d="M486.7,59.9c0-20.7-8.6-31-25.9-31c-5,0-9.5,0.9-13.5,2.6c-4,1.7-8.1,4.7-12.1,9V30.1h-25.5v72.1h25.5V59.9
				c0.9-1.3,1.8-2.5,2.6-3.6c0.8-1.1,1.9-2.3,3.2-3.5c1.3-1.2,2.7-2.2,4.2-3c1.6-0.8,3.4-1.2,5.5-1.2c4.4,0,7.2,1.5,8.5,4.4
				c1.3,3,2,6.4,2,10.4v1.5v37.4h25.5V59.9z"/>
			<g id="Group-15" transform="translate(492.000000, 28.000000)">
				<g id="Clip-14">
				</g>
				<defs>
					<filter id="Adobe_OpacityMaskFilter" filterUnits="userSpaceOnUse" x="0.3" y="0.5" width="78.4" height="105.5">
						<feColorMatrix  type="matrix" values="1 0 0 0 0  0 1 0 0 0  0 0 1 0 0  0 0 0 1 0"/>
					</filter>
				</defs>
				<mask maskUnits="userSpaceOnUse" x="0.3" y="0.5" width="78.4" height="105.5" id="mask-2">
					<g class="st0">
						<polygon id="path-1" class="st1" points="0.3,0.5 78.7,0.5 78.7,106 0.3,106 						"/>
					</g>
				</mask>
				<path id="Fill-13" class="st2" d="M54.6,54c-1.9,1.2-4,2.3-6.3,3c-2.3,0.8-4.7,1.1-7.1,1.1c-5.3,0-9.3-1.4-12-4.3
					c-2.7-2.9-4-7.9-4-15.1c0-6.5,1.6-11.6,4.7-15.2c3.2-3.6,7.9-5.5,14.2-5.5c1.6,0,3.4,0.2,5.4,0.5c2,0.3,3.7,0.8,5.1,1.4V54z
					 M78.7,69.1V2.6H55.3l-0.9,3.3c-2.7-1.7-5.7-3-9.1-4c-3.3-1-7-1.4-11.1-1.4c-4.5,0-8.9,0.9-13.2,2.6c-4.3,1.7-7.9,4.2-10.9,7.3
					c-3.2,3.3-5.6,7.3-7.4,11.8C1.2,26.7,0.3,32,0.3,38.2c0,12.9,2.9,22.6,8.6,28.9c5.7,6.3,13.8,9.5,24.3,9.5
					c4.3,0,8.2-0.7,11.8-2.1c3.5-1.4,6.7-3.3,9.6-5.6v1.4c0,3.1-0.3,5.8-0.9,8c-0.6,2.2-1.6,4.1-3,5.5c-1.5,1.5-3.6,2.7-6.4,3.5
					c-2.8,0.8-6.4,1.2-10.9,1.2c-3.3,0-7.1-0.5-11.4-1.4c-4.2-1-7.8-2-10.7-3.1v19.4c3,0.6,6.4,1.1,10.1,1.6
					c5.1,0.6,10.2,0.9,15.4,0.9c6.4,0,12.2-0.6,17.3-1.8c5.1-1.2,9.5-3.2,13.1-6c3.6-2.7,6.4-6.5,8.4-11.3
					C77.7,82.1,78.7,76.1,78.7,69.1z"/>
			</g>
		</g>
		<polygon id="Fill-17" points="133.5,205.4 159,205.4 159,133.3 133.5,133.3 		"/>
		<path id="Fill-18" d="M146.2,130.4c6.4,0,11.6-5.2,11.6-11.6c0-6.4-5.2-11.6-11.6-11.6c-6.4,0-11.6,5.2-11.6,11.6
			C134.7,125.2,139.9,130.4,146.2,130.4"/>
		<polygon id="Fill-20" points="377.5,205.4 403.1,205.4 403.1,133.3 377.5,133.3 		"/>
		<g id="Group-34" transform="translate(105.000000, 0.222000)">
			<path id="Fill-21" d="M285.7,130.1c6.4,0,11.6-5.2,11.6-11.6c0-6.4-5.2-11.6-11.6-11.6s-11.6,5.2-11.6,11.6
				C274.2,125,279.3,130.1,285.7,130.1"/>
			<path id="Fill-23" d="M131.2,51.9c1.1,0,2.5,0.1,4,0.2V31.2c-2.4,0.3-4.9,0.8-7.6,1.8c-3.7,1.4-8.1,4.3-13.2,8.6V31.1H91.6v71.3
				h22.9V54.7c2.9-1,5.6-1.7,8.1-2.2C125.1,52.1,128,51.9,131.2,51.9"/>
			<path id="Fill-25" d="M274.4,72c-1.4-2.7-3.9-5.2-7.3-7.5c-3.4-2.3-7.9-4.5-13.6-6.7c-3.9-1.5-6.4-2.8-7.6-3.8
				c-1.1-1-1.7-2.1-1.7-3.3c0-1.1,0.5-2.3,1.6-3.4c1.1-1.1,3.1-1.7,6-1.7c2.4,0,4.8,0.3,7,0.9s4.3,1.3,6,2c1.7,0.8,3.1,1.4,4.1,2.1
				c1,0.6,2.3,1.4,3.8,2.3V35.2c-3.2-1.7-6.6-2.9-10.2-3.8c-3.6-0.9-6.5-1.5-8.9-1.7c-2.3-0.2-4.3-0.3-5.8-0.3
				c-6.3,0-11.6,1.1-16.1,3.2c-4.4,2.1-7.8,4.8-9.9,8.1c-2.2,3.3-3.3,6.8-3.3,10.3c0,5.1,1.7,9.3,5,12.8c3.3,3.5,7.3,6.3,12,8.4
				c3.8,1.6,6.9,3,9.2,4.1c2.3,1.2,3.9,2.2,4.8,3.1c0.9,0.9,1.4,2,1.4,3.2c0,3.5-3.2,5.2-9.6,5.2c-3.8,0-7.2-0.6-10.4-1.9
				c-3.2-1.3-6.9-3.1-11.2-5.6v18.1c4.9,1.8,9.4,3.2,13.6,4.1c4.2,1,8.9,1.5,14.2,1.5c9.5,0,16.7-2.1,21.6-6.2
				c4.8-4.1,7.3-9.5,7.3-16.1C276.6,78,275.9,74.8,274.4,72"/>
			<path id="Fill-27" d="M336,72c-1.4-2.7-3.9-5.2-7.3-7.5c-3.4-2.3-7.9-4.5-13.6-6.7c-3.9-1.5-6.4-2.8-7.6-3.8
				c-1.1-1-1.7-2.1-1.7-3.3c0-1.1,0.5-2.3,1.6-3.4c1.1-1.1,3.1-1.7,6-1.7c2.4,0,4.8,0.3,7,0.9c2.3,0.6,4.3,1.3,6,2
				c1.7,0.8,3.1,1.4,4.1,2.1c1,0.6,2.3,1.4,3.8,2.3V35.2c-3.2-1.7-6.6-2.9-10.2-3.8c-3.6-0.9-6.5-1.5-8.8-1.7
				c-2.3-0.2-4.3-0.3-5.8-0.3c-6.3,0-11.6,1.1-16.1,3.2c-4.4,2.1-7.8,4.8-9.9,8.1c-2.2,3.3-3.3,6.8-3.3,10.3c0,5.1,1.6,9.3,5,12.8
				c3.3,3.5,7.3,6.3,12,8.4c3.8,1.6,6.9,3,9.2,4.1c2.3,1.2,3.9,2.2,4.8,3.1c0.9,0.9,1.4,2,1.4,3.2c0,3.5-3.2,5.2-9.6,5.2
				c-3.8,0-7.2-0.6-10.4-1.9c-3.2-1.3-6.9-3.1-11.2-5.6v18.1c4.9,1.8,9.4,3.2,13.6,4.1c4.2,1,8.9,1.5,14.2,1.5
				c9.5,0,16.7-2.1,21.6-6.2c4.8-4.1,7.3-9.5,7.3-16.1C338.2,78,337.4,74.8,336,72"/>
			<path id="Fill-29" d="M190.4,66.6c0,5.7-1.2,10.2-3.5,13.5c-2.3,3.3-5.7,4.9-10.2,4.9c-4.4,0-7.7-1.7-10.1-5
				c-2.4-3.3-3.5-7.8-3.5-13.5c0-5.7,1.2-10.2,3.5-13.4c2.3-3.2,5.7-4.9,10.1-4.9c4.4,0,7.8,1.6,10.2,4.9
				C189.2,56.5,190.4,60.9,190.4,66.6 M215.6,66.6c0-5.4-0.8-10.4-2.5-14.9c-1.6-4.5-4.1-8.4-7.3-11.8c-3.2-3.4-7.3-6-12.2-7.8
				c-4.9-1.9-10.6-2.8-17-2.8c-6.4,0-11.9,0.9-16.8,2.8c-4.8,1.8-8.9,4.5-12.2,7.9c-3.3,3.4-5.8,7.4-7.4,11.8
				c-1.6,4.4-2.4,9.4-2.4,14.8c0,7.2,1.5,13.6,4.4,19.2c2.9,5.6,7.3,10.1,13.1,13.3c5.8,3.3,13,4.9,21.4,4.9
				c8.4,0,15.5-1.6,21.4-4.9c5.8-3.3,10.2-7.7,13.2-13.3C214.2,80.2,215.6,73.8,215.6,66.6"/>
			<g id="Group-33">
				<g id="Clip-32">
				</g>
				<defs>
					<filter id="Adobe_OpacityMaskFilter_1_" filterUnits="userSpaceOnUse" x="1" y="0.8" width="84.2" height="103.2">
						<feColorMatrix  type="matrix" values="1 0 0 0 0  0 1 0 0 0  0 0 1 0 0  0 0 0 1 0"/>
					</filter>
				</defs>
				<mask maskUnits="userSpaceOnUse" x="1" y="0.8" width="84.2" height="103.2" id="mask-4">
					<g class="st3">
						<polygon id="path-3" class="st1" points="1,0.8 85.1,0.8 85.1,104 1,104 						"/>
					</g>
				</mask>
				<path id="Fill-31" class="st4" d="M85.1,69.7c-2.7,2-5.4,3.7-8,5.2c-2.6,1.5-5.8,2.8-9.6,4c-3.8,1.2-7.8,1.8-12.1,1.8
					c-5.3,0-10-1.2-14.2-3.7c-4.2-2.5-7.5-5.9-9.8-10.1c-2.4-4.2-3.5-8.9-3.5-14c0-5.8,1.3-10.8,4-15.1c2.7-4.3,6.3-7.6,10.7-9.9
					c4.4-2.3,9.2-3.5,14.3-3.5c5.7,0,10.7,1,15,3.1c4.2,2.1,8.5,4.6,12.9,7.7V8.4C72.2,3.3,60.9,0.8,50.9,0.8c-6.7,0-13,1-19,3.1
					c-6,2.1-11.4,5.2-16.1,9.5c-4.7,4.3-8.4,9.7-11,16.2C2.3,36.1,1,43.7,1,52.4c0,7.5,1.1,14.5,3.3,20.8c2.2,6.3,5.5,11.8,10,16.5
					C18.7,94.4,24,98,30,100.4c6,2.4,12.9,3.6,20.5,3.6c4.1,0,8.1-0.3,12-0.8c3.9-0.6,7.7-1.5,11.5-2.8c3.8-1.3,7.5-3,11.1-5.2V69.7
					z"/>
			</g>
		</g>
		<polygon id="Fill-35" points="202.4,7 195.7,7 195.7,1.5 215.3,1.5 215.3,7 208.6,7 208.6,24 202.4,24 		"/>
		<polygon id="Fill-36" points="217.4,1.5 223.6,1.5 223.6,9.9 231.6,9.9 231.6,1.5 237.8,1.5 237.8,24 231.6,24 231.6,15.5 
			223.6,15.5 223.6,24 217.4,24 		"/>
		<polygon id="Fill-37" points="239.9,1.5 257.9,1.5 257.9,6.8 246,6.8 246,10.2 256.8,10.2 256.8,15.1 246,15.1 246,18.7 
			258.1,18.7 258.1,24 239.9,24 		"/>
		<polygon id="Fill-38" points="267.4,1.5 273.9,1.5 277.8,14.5 282.2,1.5 287.5,1.5 291.9,14.5 295.8,1.5 302.2,1.5 294.7,24.1 
			289.3,24.1 284.8,11.2 280.3,24.1 274.9,24.1 		"/>
		<g id="Group-43" transform="translate(300.000000, 0.222000)">
			<path id="Fill-39" d="M0.7,12.6L0.7,12.6c0-6.5,5.2-11.7,12.1-11.7c6.9,0,12.1,5.2,12.1,11.6v0.1c0,6.4-5.2,11.7-12.1,11.7
				C5.9,24.2,0.7,19,0.7,12.6 M18.5,12.6L18.5,12.6c0-3.3-2.3-6.1-5.7-6.1c-3.4,0-5.7,2.8-5.7,6v0.1c0,3.2,2.3,6.1,5.8,6.1
				C16.2,18.6,18.5,15.8,18.5,12.6"/>
			<path id="Fill-41" d="M26.2,1.3h10.6c3.4,0,5.8,0.9,7.3,2.4c1.3,1.3,2,3,2,5.2V9c0,3.5-1.8,5.7-4.6,6.9l5.4,7.8h-7.1L35.2,17
				h-2.8v6.8h-6.2V1.3z M36.5,12.1c2.1,0,3.3-1,3.3-2.7V9.4c0-1.8-1.3-2.7-3.4-2.7h-4.1v5.4H36.5z"/>
		</g>
		<polygon id="Fill-44" points="347.9,1.5 354.2,1.5 354.2,18.5 365,18.5 365,24 347.9,24 		"/>
		<g id="Group-49" transform="translate(367.000000, 0.222000)">
			<path id="Fill-45" d="M0.1,1.3h8.7c8,0,12.6,4.6,12.6,11.1v0.1c0,6.5-4.7,11.3-12.8,11.3H0.1V1.3z M6.3,6.8v11.4h2.5
				c3.8,0,6.2-2.1,6.2-5.7v-0.1c0-3.6-2.5-5.7-6.2-5.7H6.3z"/>
			<path id="Fill-47" d="M27.6,12.6L27.6,12.6c0-6.5,5.2-11.7,12.1-11.7c6.9,0,12.1,5.2,12.1,11.6v0.1c0,6.4-5.2,11.7-12.1,11.7
				C32.8,24.2,27.6,19,27.6,12.6 M45.4,12.6L45.4,12.6c0-3.3-2.3-6.1-5.7-6.1c-3.4,0-5.7,2.8-5.7,6v0.1c0,3.2,2.3,6.1,5.8,6.1
				C43.2,18.6,45.4,15.8,45.4,12.6"/>
		</g>
		<polygon id="Fill-50" points="420.7,1.5 438.7,1.5 438.7,7 427,7 427,10.8 437.6,10.8 437.6,16 427,16 427,24 420.7,24 		"/>
	</g>
</g>
</svg>
