<svg version="1.1" id="Layer_1" xmlns="http://www.w3.org/2000/svg" xmlns:xlink="http://www.w3.org/1999/xlink" x="0px" y="0px"
	 viewBox="0 0 200 200" style="enable-background:new 0 0 200 200;" xml:space="preserve">
<style type="text/css">
	.st0{fill:#FFFFFF;}
</style>
<g>
	<g>
		<path class="st0" d="M171,124.9H89.1c-8,0-14.4-6.4-14.4-14.4V62.1c0-8,6.4-14.4,14.4-14.4H171c8,0,14.4,6.4,14.4,14.4v48.4
			C185.4,118.5,178.9,124.9,171,124.9z"/>
		<path d="M175.5,128.3h-91c-7.3,0-13.3-5.9-13.3-13.3V57.5c0-7.3,5.9-13.3,13.3-13.3h91c7.3,0,13.3,5.9,13.3,13.3v57.5
			C188.8,122.4,182.8,128.3,175.5,128.3z M84.5,51.1c-3.5,0-6.4,2.9-6.4,6.4v57.5c0,3.5,2.9,6.4,6.4,6.4h91c3.5,0,6.4-2.9,6.4-6.4
			V57.5c0-3.5-2.9-6.4-6.4-6.4H84.5z"/>
	</g>
	<g>
		<rect x="74.6" y="63.5" width="110.7" height="16.8"/>
	</g>
	<g>
		<path class="st0" d="M66.4,110.3l42-20.2c2.3-0.7,4.9-1,7.3-1c2.2,0,4.5,0.6,6.3,1.9c1.9,1.4,3.1,3.6,3.6,5.9
			c1.8,8-3.4,14-9.4,18.5c-3.7,2.8-8.1,4.8-12.2,7.1c-3.6,2-6.9,4.5-10.4,6.7c-5.2,3.4-9.7,7.8-15,10.9c-3.8,2.2-7.9,4-12.2,5
			c-3.1,0.7-51,2.1-51,2.1s0-56.4,0-57.1S58.2,59.8,61,57.5s13.7,0,13.7,0v48.9"/>
		<path d="M15.5,150.6c-0.9,0-1.7-0.3-2.4-1c-0.7-0.6-1-1.5-1-2.5V90.1c0-1.9,1-2.6,4.1-4.9c1.6-1.2,3.9-2.9,7.1-5.1
			c5.7-4.1,13.1-9.2,19.6-13.8c7.4-5.2,15.1-10.6,16-11.4c3.5-2.8,11.8-1.6,16.5-0.7c1.6,0.3,2.7,1.7,2.7,3.3V101L107,87
			c0.2-0.1,0.3-0.1,0.5-0.2c2.6-0.8,5.6-1.1,8.3-1.1c3.2,0.1,6.1,1,8.3,2.6c2.4,1.8,4.2,4.6,4.9,7.9c2.7,11.8-7.4,19.5-10.7,22
			c-2.9,2.2-6.1,3.9-9.3,5.6c-1.1,0.6-2.2,1.2-3.3,1.8c-2.3,1.3-4.5,2.8-6.8,4.3c-1.1,0.8-2.3,1.5-3.4,2.3c-2.2,1.4-4.3,3.1-6.5,4.8
			c-2.7,2.1-5.5,4.3-8.7,6.2c-4.4,2.6-8.9,4.4-13.2,5.4C64,149.2,26.9,150.3,15.5,150.6C15.5,150.6,15.5,150.6,15.5,150.6z
			 M18.9,91.7v52c18.2-0.5,44.4-1.4,46.9-1.9c3.6-0.8,7.4-2.4,11.2-4.6c2.7-1.6,5.3-3.6,7.9-5.7c2.2-1.7,4.5-3.5,7-5.1
			c1.1-0.7,2.2-1.5,3.3-2.2c2.3-1.6,4.7-3.2,7.3-4.6c1.1-0.6,2.3-1.2,3.5-1.9c2.9-1.5,5.9-3.1,8.3-5c6.8-5.2,9.3-9.8,8.1-15
			c-0.4-1.7-1.2-3.1-2.3-3.9c-1.3-1-3.1-1.2-4.3-1.2c-2,0-4.2,0.2-6,0.7l-33.5,16.1c0,0-0.1,0-0.1,0.1l-8.1,3.9
			c-1.7,0.8-3.7,0.1-4.6-1.6c-0.8-1.7-0.1-3.7,1.6-4.6l6.3-3V60.4c-3.7-0.5-7.2-0.6-8.2-0.2c-1.3,1-6.8,4.9-16.3,11.6
			C37,78.7,22.8,88.6,18.9,91.7z M63,60.3L63,60.3L63,60.3z"/>
	</g>
	<g>
		<path d="M89.1,152.6c-1.1,0-2.1-0.1-2.9-0.2l-0.4-0.1c-6.1-0.8-9.7-9.2-10.3-10.9c-0.7-1.8,0.2-3.7,2-4.4c1.8-0.7,3.7,0.2,4.4,2
			l0,0c1.3,3.2,3.6,6.4,4.8,6.6l0.4,0.1c1.9,0.3,3.1,0.4,4.3-0.6c1.6-1.3,4.4-5.7,5.4-20.3c0.1-1.9,1.8-3.3,3.6-3.2
			c1.9,0.1,3.3,1.7,3.2,3.6c-0.9,13.5-3.4,21.5-7.9,25.2C93.5,152.2,91.1,152.6,89.1,152.6z"/>
	</g>
	<g>
		<path d="M108.9,157.3c-0.5,0-1,0-1.4-0.1c-4.1-0.5-7.7-2.9-9.7-6.4c-1.6-2.7-2.7-6.1-3.3-9.6c-0.3-1.9,0.9-3.6,2.8-3.9
			c1.9-0.3,3.6,0.9,3.9,2.8c0.5,2.8,1.3,5.3,2.5,7.4c1,1.7,2.7,2.8,4.6,3c1,0.1,3,0,4.7-1.8c2-2.2,2.7-6,3.1-9.5
			c0.6-4.8,0.7-9.7,0.7-14.3c0-1.9,1.5-3.4,3.4-3.4s3.4,1.5,3.4,3.4c0,4.8-0.1,10-0.8,15.2c-0.6,4.5-1.5,9.5-4.9,13.2
			C115.6,155.9,112.3,157.3,108.9,157.3z"/>
	</g>
	<g>
		<path d="M125.5,152.6c-5.1,0-8.7-3.2-10.1-5.2c-1-1.6-0.6-3.7,1-4.7c1.6-1,3.7-0.6,4.7,1c0.2,0.4,2.4,3.1,6.5,1.8
			c5.4-1.7,10-10.6,10.7-20.8c0.1-1.9,1.7-3.3,3.6-3.2c1.9,0.1,3.3,1.8,3.2,3.6c-0.9,13.4-7.1,24.2-15.5,26.8
			C128.2,152.4,126.8,152.6,125.5,152.6z"/>
	</g>
</g>
</svg>
