<svg version="1.1" id="Layer_1" xmlns="http://www.w3.org/2000/svg" xmlns:xlink="http://www.w3.org/1999/xlink" x="0px" y="0px"
	 viewBox="0 0 200 200" style="enable-background:new 0 0 200 200;" xml:space="preserve">
<style type="text/css">
	.st0{fill:#FFFFFF;}
</style>
<g>
	<g>
		<path class="st0" d="M169.7,128.1c0-0.1-3.1-46-3.1-46h-13.1l-5.2,34c-5.9-12.2-12.3-17.4-15.5-21.3c-0.6-0.9-1.3-1.7-2-2.4
			c-0.1-0.1-0.1-0.1-0.1-0.1l0,0c-2.1-1.9-4.8-3-7.8-3c-5.8,6.6-14,10.7-23.1,10.7c-9.1,0-17.2-4.1-23.1-10.7c-3,0.1-5.7,1.2-7.8,3
			l0,0c0,0,0,0-0.1,0.1c-0.8,0.7-1.5,1.5-2,2.4c-3.2,4-9.7,9.1-15.5,21.3l-5.2-34H33.2c0,0-3.1,46-3.1,46
			c-0.4,5.5,0.5,12.1,2.6,17.3c3.9,10,13.8,7.2,19,0c4.7-6.5,8.9-11.1,13.3-17.8l4.3,36.3c0.6,5.3,5,9.2,10.3,9.2h17h6.7h17
			c5.3,0,9.7-4,10.3-9.2l4.3-36.3c4.4,6.7,8.6,11.3,13.3,17.8c5.2,7.2,15.1,10,19,0C169.2,140.2,170.1,133.6,169.7,128.1z"/>
		<path d="M120.2,176.5H79.6c-7.1,0-13-5.3-13.7-12.3l-3.3-27.5c-0.9,1.1-1.7,2.2-2.6,3.3c-1.8,2.3-3.6,4.6-5.6,7.3
			c-3.9,5.4-9.8,8.5-15.1,7.8c-2.6-0.3-7.3-1.9-9.9-8.6c-2.2-5.5-3.2-12.5-2.8-18.7c0-0.4,3.1-46,3.1-46c0.1-1.8,1.6-3.2,3.4-3.2
			h13.1c1.7,0,3.1,1.2,3.4,2.9l3.7,24.2c3.2-4.8,6.2-8,8.5-10.4c0.9-1,1.7-1.8,2.4-2.6c0.7-1,1.5-1.9,2.4-2.8
			c0.2-0.2,0.3-0.3,0.5-0.4c2.7-2.3,6.2-3.6,9.8-3.7c1,0,2,0.4,2.6,1.2c5.5,6.1,12.7,9.5,20.5,9.5s15.1-3.4,20.5-9.5
			c0.7-0.7,1.6-1.2,2.6-1.2c0,0,0,0,0.1,0c3.6,0.1,7,1.4,9.8,3.7c0.2,0.1,0.3,0.3,0.5,0.4l0,0c0.9,0.8,1.7,1.8,2.4,2.8
			c0.6,0.8,1.4,1.6,2.4,2.6c2.3,2.4,5.3,5.7,8.5,10.4l3.7-24.2c0.3-1.7,1.7-2.9,3.4-2.9h13.1c1.8,0,3.3,1.4,3.4,3.2
			c0,0,3.1,45.6,3.1,46h0c0.4,6.2-0.6,13.2-2.8,18.7c-2.6,6.7-7.3,8.3-9.9,8.6c-5.3,0.7-11.2-2.4-15.1-7.8c-1.9-2.7-3.8-5-5.6-7.3
			c-0.9-1.1-1.7-2.2-2.6-3.3l-3.3,27.5C133.2,171.2,127.3,176.5,120.2,176.5z M64.9,124.1c0.3,0,0.5,0,0.8,0.1
			c1.4,0.3,2.5,1.5,2.6,2.9l4.3,36.3c0.4,3.6,3.4,6.2,6.9,6.2h40.6c3.5,0,6.5-2.7,6.9-6.2l4.3-36.3c0.2-1.4,1.2-2.6,2.6-2.9
			c1.4-0.3,2.9,0.2,3.7,1.5c2.5,3.8,4.9,6.9,7.5,10.2c1.8,2.3,3.7,4.7,5.7,7.5c2.4,3.3,5.9,5.4,8.7,5c1.9-0.2,3.3-1.7,4.4-4.3
			c1.8-4.6,2.7-10.6,2.3-15.8c0,0,0,0,0,0c0-0.2-2.2-32.4-2.9-42.8h-6.9l-4.7,31.1c-0.2,1.5-1.4,2.7-2.9,2.9c-1.5,0.2-3-0.6-3.6-1.9
			c-4.3-9-8.9-13.9-12.3-17.5c-1.1-1.1-2-2.1-2.8-3.1c-0.1-0.1-0.2-0.2-0.2-0.3c-0.4-0.6-0.9-1.2-1.5-1.7c0,0,0,0,0,0c0,0,0,0,0,0
			c-1.2-1-2.6-1.8-4.2-2c-6.6,6.8-15.2,10.5-24.4,10.5s-17.8-3.7-24.4-10.5c-1.5,0.3-3,1-4.2,2c0,0,0,0,0,0c0,0,0,0,0,0
			c-0.6,0.5-1.1,1.1-1.5,1.7c-0.1,0.1-0.1,0.2-0.2,0.3c-0.8,1-1.7,1.9-2.8,3.1c-3.4,3.6-8,8.6-12.3,17.5c-0.7,1.4-2.1,2.1-3.6,1.9
			c-1.5-0.2-2.7-1.4-2.9-2.9l-4.7-31.1h-6.9c-1,15-2.9,42.8-2.9,42.9c-0.3,5.1,0.5,11.2,2.3,15.8c1,2.6,2.5,4.1,4.4,4.3
			c2.7,0.3,6.3-1.7,8.7-5c2-2.8,3.9-5.2,5.7-7.5c2.6-3.3,5-6.3,7.5-10.2C62.7,124.7,63.8,124.1,64.9,124.1z"/>
	</g>
	<g>
		<ellipse class="st0" cx="99.9" cy="57.3" rx="27.4" ry="29.9"/>
		<path d="M99.9,90.6c-17,0-30.8-14.9-30.8-33.3S82.9,24,99.9,24s30.8,14.9,30.8,33.3S116.9,90.6,99.9,90.6z M99.9,30.9
			c-13.2,0-24,11.9-24,26.4s10.7,26.4,24,26.4s24-11.9,24-26.4S113.1,30.9,99.9,30.9z"/>
	</g>
	<g>
		<path class="st0" d="M168.7,56.7c0.9,0.8,1.5,1.9,1.8,3.1c0.3,0.9,1,5.4,0.1,6c0,0,14.9-9.2,18.7-9.7c0,0,0.1,17.5-26.7,26h-6.4
			c0,0-3.7-5.8,3.1-12.6c3.4-3.4,6.8-7.4,8.2-12.1C167.4,57.3,167.9,55.8,168.7,56.7z"/>
		<path d="M162.5,85.5h-6.4c-1.2,0-2.3-0.6-2.9-1.6c-1.8-2.8-3.4-10,3.6-16.9c2.7-2.7,6-6.4,7.3-10.7c0.5-1.7,1.8-2.9,3.3-3.2
			c1.3-0.3,2.7,0.2,3.7,1.2c1.2,1.2,2.1,2.7,2.7,4.5c0,0.1,0.1,0.5,0.2,0.9c5.1-3,11.8-6.6,14.7-7.1c1-0.2,2,0.1,2.7,0.8
			c0.8,0.6,1.2,1.6,1.2,2.6c0,0.8-0.2,20.2-29.1,29.3C163.2,85.4,162.9,85.5,162.5,85.5z M158.6,78.6h3.4
			c14.1-4.6,19.8-11.7,22.2-16.7c-3.5,1.8-7.9,4.4-11.8,6.8c0,0,0,0,0,0c-1.6,1-3.7,0.5-4.7-1.1c-0.4-0.7-0.6-1.4-0.5-2.1
			c-1.7,2.5-3.7,4.6-5.5,6.4C158.8,74.7,158.4,77.1,158.6,78.6z"/>
	</g>
	<g>
		<path class="st0" d="M31.7,56.7c-0.9,0.8-1.5,1.9-1.8,3.1c-0.3,0.9-1,5.4-0.1,6c0,0-14.9-9.2-18.7-9.7c0,0-0.1,17.5,26.7,26h6.4
			c0,0,3.7-5.8-3.1-12.6c-3.4-3.4-6.8-7.4-8.2-12.1C32.9,57.3,32.5,55.8,31.7,56.7z"/>
		<path d="M44.2,85.5h-6.4c-0.4,0-0.7-0.1-1-0.2C7.9,76.2,7.7,56.8,7.7,56c0-1,0.4-1.9,1.2-2.6c0.8-0.6,1.8-0.9,2.7-0.8
			c2.9,0.4,9.6,4.1,14.7,7.1c0.1-0.4,0.2-0.8,0.2-0.9c0.5-1.8,1.5-3.3,2.7-4.5c1-1,2.4-1.5,3.7-1.2c1.5,0.3,2.7,1.5,3.2,3.2
			c1.3,4.3,4.6,8,7.3,10.8c4.4,4.4,5.2,8.6,5.1,11.4c-0.1,3.1-1.3,5.1-1.5,5.5C46.5,84.9,45.4,85.5,44.2,85.5z M38.3,78.6h3.4
			c0.2-1.5-0.2-3.9-3.1-6.7c-1.8-1.8-3.8-3.9-5.5-6.4c0.1,0.7-0.1,1.4-0.5,2.1c-1,1.6-3.1,2.1-4.7,1.1c0,0,0,0,0,0l0,0
			c-3.9-2.4-8.4-5-11.8-6.8C18.5,66.9,24.2,74,38.3,78.6z M31.7,56.7L31.7,56.7L31.7,56.7z"/>
	</g>
</g>
</svg>
