<?xml version="1.0" encoding="utf-8"?>
<!-- Generator: Adobe Illustrator 20.1.0, SVG Export Plug-In . SVG Version: 6.00 Build 0)  -->
<svg version="1.1" id="Layer_1" xmlns="http://www.w3.org/2000/svg" xmlns:xlink="http://www.w3.org/1999/xlink" x="0px" y="0px"
	 viewBox="0 0 200 200" style="enable-background:new 0 0 200 200;" xml:space="preserve">
<style type="text/css">
	.st0{fill:#FFFFFF;}
</style>
<g>
	<g>
		<path class="st0" d="M167,190.2H51.4c-10.8,0-19.6-8.8-19.6-19.6V51.3c0-10.8,8.8-19.6,19.6-19.6H167V190.2z"/>
		<path d="M167,194.2H47.6c-10.9,0-19.8-8.9-19.8-19.8V47.5c0-10.9,8.9-19.8,19.8-19.8H167c2.2,0,4,1.8,4,4v158.5
			C171,192.4,169.2,194.2,167,194.2z M47.6,35.7c-6.5,0-11.8,5.3-11.8,11.8v126.9c0,6.5,5.3,11.8,11.8,11.8H163V35.7H47.6z"/>
	</g>
	<g>
		<path class="st0" d="M103.5,190.2H46.2c-7.9,0-14.3-7.1-14.3-15.8V47.5c0-8.7,6.4-15.8,14.3-15.8h82.4c0,0,0,130.9,0,130.9
			C128.5,177.8,117.3,190.2,103.5,190.2z"/>
		<path d="M103.5,194.2H46.2c-10.1,0-18.4-8.9-18.4-19.8V47.5c0-10.9,8.2-19.8,18.4-19.8h82.4c2.2,0,4,1.8,4,4v130.9
			C132.6,180,119.5,194.2,103.5,194.2z M46.2,35.7c-5.7,0-10.3,5.3-10.3,11.8v126.9c0,6.5,4.6,11.8,10.3,11.8h57.3
			c11.6,0,21-10.6,21-23.6V35.7H46.2z"/>
	</g>
	<g>
		<path class="st0" d="M128.5,162.6c0-15.2-12.3-27.6-27.6-27.6V8.9c15.2,0,27.6,12.3,27.6,27.6V162.6z"/>
		<path d="M128.5,166.6c-2.2,0-4-1.8-4-4c0-13-10.6-23.6-23.6-23.6c-2.2,0-4-1.8-4-4V8.9c0-2.2,1.8-4,4-4
			c17.4,0,31.6,14.2,31.6,31.6v126.1C132.6,164.8,130.8,166.6,128.5,166.6z M105,131.2c7.7,1,14.6,4.8,19.5,10.3v-105
			c0-11.6-8.5-21.3-19.5-23.2V131.2z"/>
	</g>
	<g>
		<path d="M82.2,64.8h-30c-2.5,0-4.5-2-4.5-4.5v0c0-2.5,2-4.5,4.5-4.5h30c2.5,0,4.5,2,4.5,4.5v0C86.7,62.8,84.7,64.8,82.2,64.8z"/>
	</g>
	<g>
		<path d="M70.9,82.1H52.3c-2.5,0-4.5-2-4.5-4.5v0c0-2.5,2-4.5,4.5-4.5h18.6c2.5,0,4.5,2,4.5,4.5v0C75.4,80.1,73.4,82.1,70.9,82.1z"
			/>
	</g>
</g>
</svg>
