<svg version="1.1" id="Layer_1" xmlns="http://www.w3.org/2000/svg" xmlns:xlink="http://www.w3.org/1999/xlink" x="0px" y="0px"
	 viewBox="0 0 200 200" style="enable-background:new 0 0 200 200;" xml:space="preserve">
<style type="text/css">
	.st0{fill:#FFFFFF;}
</style>
<g>
	<g>
		<path class="st0" d="M50.1,20.7c0-7.4-6-13.4-13.4-13.4s-13.4,6-13.4,13.4v124.8c0-7.4,6-13.4,13.4-13.4s13.4,6,13.4,13.4V20.7z"
			/>
		<path d="M50.1,148.7c-1.8,0-3.3-1.5-3.3-3.3c0-5.6-4.5-10.1-10.1-10.1s-10.1,4.5-10.1,10.1c0,1.8-1.5,3.3-3.3,3.3
			c-1.8,0-3.3-1.5-3.3-3.3V20.7C20.1,11.5,27.6,4,36.7,4s16.6,7.5,16.6,16.6v124.8C53.4,147.3,51.9,148.7,50.1,148.7z M36.7,128.9
			c3.8,0,7.3,1.3,10.1,3.4V20.7c0-5.6-4.5-10.1-10.1-10.1s-10.1,4.5-10.1,10.1v111.6C29.4,130.1,32.9,128.9,36.7,128.9z"/>
	</g>
	<g>
		<path class="st0" d="M50.1,145.5c0-7.4-6-13.4-13.4-13.4s-13.4,6-13.4,13.4s6,13.4,13.4,13.4h86.4v-13.4H50.1z"/>
		<path d="M123.2,162.1H36.7c-9.2,0-16.6-7.5-16.6-16.6s7.5-16.6,16.6-16.6c8.1,0,14.8,5.8,16.3,13.4h70.1c1.8,0,3.3,1.5,3.3,3.3
			v13.4C126.4,160.7,125,162.1,123.2,162.1z M36.7,135.4c-5.6,0-10.1,4.5-10.1,10.1s4.5,10.1,10.1,10.1h83.2v-6.8H50.1
			c-1.8,0-3.3-1.5-3.3-3.3C46.9,139.9,42.3,135.4,36.7,135.4z"/>
	</g>
	<g>
		<rect x="50.1" y="19.3" class="st0" width="90.7" height="126.2"/>
		<path d="M140.8,148.7H50.1c-1.8,0-3.3-1.5-3.3-3.3V19.3c0-1.8,1.5-3.3,3.3-3.3h90.7c1.8,0,3.3,1.5,3.3,3.3v126.2
			C144,147.3,142.6,148.7,140.8,148.7z M53.4,142.2h84.1V22.6H53.4V142.2z"/>
	</g>
	<g>
		<path d="M119.8,41.5H66c-2,0-3.6-1.6-3.6-3.6v0c0-2,1.6-3.6,3.6-3.6h53.8c2,0,3.6,1.6,3.6,3.6v0C123.4,39.9,121.8,41.5,119.8,41.5
			z"/>
	</g>
	<g>
		<path d="M107.1,57.2H66c-2,0-3.6-1.6-3.6-3.6v0c0-2,1.6-3.6,3.6-3.6h41.1c2,0,3.6,1.6,3.6,3.6v0C110.7,55.6,109.1,57.2,107.1,57.2
			z"/>
	</g>
	<g>
		<path d="M119.8,72.9H66c-2,0-3.6-1.6-3.6-3.6v0c0-2,1.6-3.6,3.6-3.6h53.8c2,0,3.6,1.6,3.6,3.6v0C123.4,71.3,121.8,72.9,119.8,72.9
			z"/>
	</g>
	<g>
		<path d="M108.6,88.6H66c-2,0-3.6-1.6-3.6-3.6v0c0-2,1.6-3.6,3.6-3.6h42.6c2,0,3.6,1.6,3.6,3.6v0C112.2,87,110.6,88.6,108.6,88.6z"
			/>
	</g>
	<g>
		<path d="M119.8,104.3H66c-2,0-3.6-1.6-3.6-3.6v0c0-2,1.6-3.6,3.6-3.6h53.8c2,0,3.6,1.6,3.6,3.6v0
			C123.4,102.7,121.8,104.3,119.8,104.3z"/>
	</g>
	<g>
		<path d="M101.1,120H66c-2,0-3.6-1.6-3.6-3.6v0c0-2,1.6-3.6,3.6-3.6h35.1c2,0,3.6,1.6,3.6,3.6v0C104.7,118.4,103.1,120,101.1,120z"
			/>
	</g>
	<g>
		<g>
			<path d="M131,196.1c-22,0-39.9-17.9-39.9-39.9s17.9-39.9,39.9-39.9c18.8,0,34.8,12.9,38.9,31.1h0.2c2.7,0,5.2,1.4,6.5,3.8
				c1.3,2.3,1.3,5.2,0,7.5l-7.4,12.8c-1.3,2.3-3.8,3.8-6.5,3.8c-2.7,0-5.2-1.4-6.5-3.8l-7.4-12.8c-1.3-2.3-1.3-5.2,0-7.5
				c1.2-2,3.2-3.4,5.5-3.7c-3.6-9.7-12.8-16.2-23.3-16.2c-13.7,0-24.9,11.2-24.9,24.9c0,13.7,11.2,24.9,24.9,24.9
				c4.1,0,7.5,3.4,7.5,7.5S135.2,196.1,131,196.1z"/>
		</g>
		<g>
			<path class="st0" d="M131,118.8c18.5,0,33.8,13.5,36.8,31.1h2.4c1.7,0,3.4,0.9,4.2,2.4c0.9,1.5,0.9,3.4,0,4.9l-7.4,12.8
				c-0.9,1.5-2.5,2.4-4.2,2.4c-1.7,0-3.4-0.9-4.2-2.4l-7.4-12.8c-0.9-1.5-0.9-3.4,0-4.9c0.9-1.5,2.5-2.4,4.2-2.4h2.4
				c-2.8-12.2-13.8-21.3-26.8-21.3c-15.2,0-27.5,12.3-27.5,27.5s12.3,27.5,27.5,27.5c2.7,0,4.9,2.2,4.9,4.9s-2.2,4.9-4.9,4.9
				c-20.6,0-37.3-16.7-37.3-37.3C93.7,135.6,110.5,118.8,131,118.8 M131,113.6c-23.4,0-42.5,19.1-42.5,42.5
				c0,23.4,19.1,42.5,42.5,42.5c5.6,0,10.1-4.5,10.1-10.1c0-5.6-4.5-10.1-10.1-10.1c-12.3,0-22.3-10-22.3-22.3
				c0-12.3,10-22.3,22.3-22.3c5.1,0,10,1.7,14,4.9c2.4,1.9,4.4,4.4,5.8,7.1c-1.7,0.9-3.2,2.2-4.2,3.9c-1.8,3.1-1.8,7,0,10.1
				l7.4,12.8c1.8,3.1,5.2,5.1,8.8,5.1c3.6,0,7-1.9,8.8-5.1l7.4-12.8c1.8-3.1,1.8-7,0-10.1c-1.5-2.6-4-4.3-6.9-4.9
				c-2.2-8.1-6.9-15.5-13.4-21.1C150.9,117.2,141.1,113.6,131,113.6L131,113.6z"/>
		</g>
	</g>
</g>
</svg>
